<?xml version="1.0" encoding="UTF-8"?>
<svg version="1.1" xmlns="http://www.w3.org/2000/svg" width="1024" height="1024">
<path d="M0 0 C337.92 0 675.84 0 1024 0 C1024 337.92 1024 675.84 1024 1024 C686.08 1024 348.16 1024 0 1024 C0 686.08 0 348.16 0 0 Z " fill="#000000" transform="translate(0,0)"/>
<path d="M0 0 C0 49.17 0 98.34 0 149 C44.64411669 144.53558833 85.50242635 136.01601574 120 106 C120.85335937 105.2575 121.70671875 104.515 122.5859375 103.75 C125.0889774 101.53192156 127.55296804 99.27964541 130 97 C130.75023437 96.30390625 131.50046875 95.6078125 132.2734375 94.890625 C148.0103514 79.76110076 158.68464394 60.5273774 168 41 C168.33 40.34 168.66 39.68 169 39 C175.65488051 40.93939212 182.21745561 43.05822929 188.75 45.375 C189.61471924 45.67954102 190.47943848 45.98408203 191.37036133 46.29785156 C197.50884634 48.46256807 203.63917446 50.64996893 209.76171875 52.859375 C213.82471108 54.29048931 217.91081364 55.64593075 222 57 C223.46495688 57.48794171 224.92980224 57.97621841 226.39453125 58.46484375 C227.11632568 58.70533447 227.83812012 58.9458252 228.58178711 59.19360352 C230.11541167 59.7050355 231.6487627 60.21728825 233.18188477 60.73022461 C236.59774179 61.87212393 240.01465248 63.00468481 243.4453125 64.1015625 C250.2074553 66.27321672 256.59781478 68.92493466 263 72 C262.46274022 77.93916267 260.01544792 82.71940297 257.4375 88 C256.98205811 88.9391626 256.52661621 89.8783252 256.05737305 90.84594727 C244.79246854 113.85146015 230.36357132 134.74925685 213.11328125 153.66796875 C211.22623463 155.75034736 209.38941767 157.86503064 207.5625 160 C200.9455368 167.581937 193.68637948 174.51634536 186 181 C185.11828125 181.75925781 184.2365625 182.51851562 183.328125 183.30078125 C175.85133678 189.66000721 168.11420773 195.47981197 160 201 C159.34805664 201.45068848 158.69611328 201.90137695 158.02441406 202.36572266 C100.56411585 241.75493519 35.40961897 249 -33 249 C-33 169.14 -33 89.28 -33 7 C-25.08 5.35 -17.16 3.7 -9 2 C-1 0 -1 0 0 0 Z " fill="#FBFBFB" transform="translate(517,537)"/>
<path d="M0 0 C55.82580115 0 55.82580115 0 76 4 C78.03359055 4.3673478 80.06744553 4.73323472 82.1015625 5.09765625 C111.50289621 10.58312135 139.63983478 20.93380278 166 35 C166.61649414 35.32226562 167.23298828 35.64453125 167.86816406 35.9765625 C198.69314139 52.16166687 227.62152618 75.28461265 250 102 C250.44150391 102.51175781 250.88300781 103.02351563 251.33789062 103.55078125 C261.14418547 114.93790737 269.24442031 127.14482763 277 140 C277.66539795 141.09876465 277.66539795 141.09876465 278.34423828 142.21972656 C283.04522531 150.05908727 287.12702548 158.1300066 290.9375 166.4375 C291.31559814 167.25428223 291.69369629 168.07106445 292.08325195 168.91259766 C294.45145356 174.22009493 295.90824385 179.28971523 297 185 C286.28087537 188.93905338 275.45826949 192.46044395 264.5625 195.875 C262.87080439 196.40757122 261.17915442 196.94028745 259.48754883 197.47314453 C249.50849577 200.61173653 239.51061658 203.68071593 229.48974609 206.68334961 C222.93520816 208.66606327 216.47359462 210.8633752 210.0456543 213.22412109 C205.1891816 215 205.1891816 215 203 215 C202.52691406 213.8140625 202.05382812 212.628125 201.56640625 211.40625 C193.35990223 191.17181248 183.12849569 172.91945659 167.84643555 157.1730957 C165.53635579 154.77968029 164.06747401 153.20242202 163 150 C161.67443095 149.31802572 160.33933444 148.65452692 159 148 C157.3203317 146.51662015 155.67833936 144.99016369 154.0625 143.4375 C121.23303705 112.90361028 76.37328817 102.21283616 33 99 C33 108.24 33 117.48 33 127 C21.88804204 125.765338 10.94533384 123.28027788 0 121 C0 81.07 0 41.14 0 0 Z " fill="#FBFBFB" transform="translate(484,230)"/>
<path d="M0 0 C5.08944386 0.07784008 9.63858906 1.84268051 14.39453125 3.515625 C15.28076172 3.81597656 16.16699219 4.11632812 17.08007812 4.42578125 C21.56189697 5.96221805 25.97855259 7.60522235 30.3671875 9.390625 C33.93856222 10.83987851 37.46760461 12.05679766 41.20703125 13.015625 C42.13773438 13.25796875 43.0684375 13.5003125 44.02734375 13.75 C44.70539063 13.92015625 45.3834375 14.0903125 46.08203125 14.265625 C46.08203125 14.925625 46.08203125 15.585625 46.08203125 16.265625 C46.61570312 16.42417969 47.149375 16.58273437 47.69921875 16.74609375 C53.03925124 18.41831846 57.87978618 20.55428704 62.8203125 23.1796875 C64.91786271 24.18680142 66.81095601 24.79789783 69.08203125 25.265625 C69.08203125 25.925625 69.08203125 26.585625 69.08203125 27.265625 C71.39203125 27.925625 73.70203125 28.585625 76.08203125 29.265625 C76.08203125 29.925625 76.08203125 30.585625 76.08203125 31.265625 C77.07783203 31.58466797 77.07783203 31.58466797 78.09375 31.91015625 C82.1231121 33.73785383 85.3934029 36.27134004 88.89453125 38.953125 C89.60794678 39.49549805 90.3213623 40.03787109 91.05639648 40.59667969 C108.79184976 54.16850969 124.34397469 71.50724443 129.4765625 93.86328125 C130.0371419 96.33396544 130.0371419 96.33396544 131.1484375 98.8359375 C132.38020996 102.04163821 132.2154108 104.86444635 132.08203125 108.265625 C127.95451676 107.65863757 124.74991645 106.22751709 121.08203125 104.265625 C121.08203125 103.605625 121.08203125 102.945625 121.08203125 102.265625 C120.355 102.14960937 119.62796875 102.03359375 118.87890625 101.9140625 C116.02045918 101.25134991 113.90670341 100.27892862 111.33203125 98.890625 C104.14990076 95.19877654 96.75445909 93.10423668 88.953125 91.109375 C86.08203125 90.265625 86.08203125 90.265625 82.69921875 88.83203125 C76.31883517 86.40633182 69.49085246 85.67880066 62.76953125 84.703125 C62.03740417 84.59545807 61.3052771 84.48779114 60.55096436 84.37686157 C17.11484535 78.03745021 -26.8399759 78.25350595 -70.11621094 85.82519531 C-89.07015416 88.80471026 -107.81002869 85.88555427 -123.91796875 75.265625 C-134.10575261 67.44975155 -140.69926586 58.23578358 -146.4375 46.890625 C-147.65178867 44.16564284 -147.65178867 44.16564284 -149.91796875 43.265625 C-155.18969953 42.49152327 -159.57326258 42.49304727 -163.98046875 45.703125 C-167.75708496 48.92502695 -171.2249961 52.48145541 -174.69140625 56.03125 C-178.52218183 59.8754669 -182.65670189 63.35224535 -186.796875 66.85546875 C-187.39371094 67.36207031 -187.99054688 67.86867188 -188.60546875 68.390625 C-189.12496094 68.82632813 -189.64445312 69.26203125 -190.1796875 69.7109375 C-193.36524316 72.56004121 -196.31366123 75.6524451 -199.3125 78.6953125 C-203.71290945 83.14548425 -208.16639153 87.42172094 -212.921875 91.48828125 C-215.98463602 94.21539723 -218.82020368 97.15967137 -221.69921875 100.078125 C-224.32567997 102.66759381 -227.08773333 105.05399464 -229.88671875 107.453125 C-232.95223206 110.18850611 -235.79550732 113.13456306 -238.6796875 116.05859375 C-241.38074949 118.72194458 -244.20308041 121.20581415 -247.09375 123.66015625 C-247.69574219 124.18996094 -248.29773438 124.71976563 -248.91796875 125.265625 C-249.65273438 125.86246094 -250.3875 126.45929688 -251.14453125 127.07421875 C-253.54321185 130.03822715 -253.23397818 131.76190641 -252.98046875 135.515625 C-252.72690182 143.90211649 -254.71095845 149.52714109 -259.91796875 156.265625 C-265.17523136 161.37685254 -271.05921823 163.39780718 -278.29296875 163.765625 C-285.79537462 163.52629721 -292.09024382 160.5519805 -297.29296875 155.140625 C-301.7309639 149.31180515 -304.38238892 142.44088384 -303.91796875 135.078125 C-302.7573553 127.69240305 -299.14127429 120.38450963 -293.05078125 115.88671875 C-287.26403496 112.27257649 -281.7410504 110.88329715 -274.91796875 111.265625 C-272.43098573 111.86115256 -270.15724635 112.60503878 -267.79296875 113.57421875 C-265.78191665 114.43861355 -265.78191665 114.43861355 -262.91796875 114.265625 C-261.1658428 113.02194772 -261.1658428 113.02194772 -259.44140625 111.30078125 C-258.77496094 110.66978516 -258.10851562 110.03878906 -257.421875 109.38867188 C-256.71933594 108.70869141 -256.01679688 108.02871094 -255.29296875 107.328125 C-254.57238281 106.64169922 -253.85179687 105.95527344 -253.109375 105.24804688 C-248.62395612 100.96063297 -244.21757299 96.60020421 -239.86328125 92.1796875 C-237.28478999 89.64261779 -234.56113576 87.29948762 -231.81640625 84.9453125 C-229.32837849 82.74397107 -227.02602798 80.38473985 -224.69921875 78.015625 C-222.1990069 75.55927651 -219.54116359 73.30253132 -216.88671875 71.015625 C-214.98773804 69.32764214 -213.19790887 67.57792766 -211.41796875 65.765625 C-208.47019802 62.77148485 -205.38261604 60.01015677 -202.203125 57.265625 C-199.48758643 54.88894851 -196.82504225 52.45711011 -194.16796875 50.015625 C-193.40613281 49.31771851 -193.40613281 49.31771851 -192.62890625 48.60571289 C-190.00182734 46.19549967 -187.38926237 43.77172544 -184.796875 41.32421875 C-174.01827481 31.19452034 -164.55190989 23.41814406 -149.16796875 23.86328125 C-141.88921847 24.76437654 -136.76873436 27.78755338 -132.16796875 33.453125 C-129.92745922 36.60025932 -127.96875418 39.85667818 -126.04296875 43.203125 C-118.65716958 55.68725799 -108.87597281 63.23921286 -94.85546875 67.203125 C-83.2746152 70.1113995 -71.32684225 67.59002129 -59.77947998 65.75762939 C-42.67911339 63.07367089 -25.95721338 61.32113416 -8.62207031 61.27587891 C-5.3216565 61.26674251 -2.02340438 61.22964987 1.27656555 61.18191528 C15.99894509 60.97711342 30.49153533 61.10241241 45.08203125 63.265625 C46.36335938 63.42160156 47.6446875 63.57757813 48.96484375 63.73828125 C56.64958343 64.67717655 64.16614249 66.0266849 71.73828125 67.6015625 C75.51719892 68.35204849 79.25142035 68.87474634 83.08203125 69.265625 C83.08203125 69.925625 83.08203125 70.585625 83.08203125 71.265625 C84.00435547 71.33910156 84.00435547 71.33910156 84.9453125 71.4140625 C85.75355469 71.48882812 86.56179688 71.56359375 87.39453125 71.640625 C88.19503906 71.71023438 88.99554687 71.77984375 89.8203125 71.8515625 C92.08203125 72.265625 92.08203125 72.265625 95.08203125 74.265625 C97.59099811 74.72163761 97.59099811 74.72163761 100.26953125 74.890625 C101.17058594 74.96539062 102.07164062 75.04015625 103 75.1171875 C104.03060547 75.19066406 104.03060547 75.19066406 105.08203125 75.265625 C98.70932384 70.75436133 92.66067025 66.68832666 85.23828125 64.15234375 C83.08203125 63.265625 83.08203125 63.265625 81.11328125 61.7578125 C78.80062806 60.05890189 76.84468484 59.44011338 74.08203125 58.703125 C71.59406708 58.03182979 69.36081379 57.4087982 67.06640625 56.23046875 C64.79291334 55.12504995 62.82940794 54.77066058 60.33203125 54.390625 C55.68555913 53.61109797 51.19743343 52.53885632 46.64453125 51.328125 C37.24935708 48.87417866 27.70034619 47.52260675 18.08203125 46.265625 C16.88642578 46.09450195 15.69082031 45.92337891 14.45898438 45.74707031 C9.46588806 45.1281577 4.48320148 45.03829318 -0.54296875 44.94921875 C-2.02422241 44.9180471 -2.02422241 44.9180471 -3.53540039 44.88624573 C-6.66285836 44.82131747 -9.79039402 44.7621313 -12.91796875 44.703125 C-15.04948692 44.65988572 -17.18099748 44.61626978 -19.3125 44.57226562 C-24.51424287 44.46569497 -29.71606152 44.3638276 -34.91796875 44.265625 C-34.91796875 43.275625 -34.91796875 42.285625 -34.91796875 41.265625 C-32.7578125 39.6875 -32.7578125 39.6875 -29.85546875 38.015625 C-18.80231559 31.2278553 -12.61790863 22.27658247 -7.91796875 10.265625 C-7.25796875 10.265625 -6.59796875 10.265625 -5.91796875 10.265625 C-5.78519531 9.62753906 -5.65242188 8.98945313 -5.515625 8.33203125 C-5.33902344 7.50574219 -5.16242188 6.67945313 -4.98046875 5.828125 C-4.71943359 4.59255859 -4.71943359 4.59255859 -4.453125 3.33203125 C-3.62781831 0.14526309 -3.41461376 0.31083499 0 0 Z " fill="#F7F7F7" transform="translate(528.91796875,433.734375)"/>
<path d="M0 0 C4.04136267 3.56294591 6.78364003 7.03842008 8.5078125 12.2109375 C8.57522115 13.77212178 8.59295706 15.3359627 8.5703125 16.8984375 C8.56128906 17.70667969 8.55226563 18.51492188 8.54296875 19.34765625 C8.52556641 20.26998047 8.52556641 20.26998047 8.5078125 21.2109375 C7.8478125 21.2109375 7.1878125 21.2109375 6.5078125 21.2109375 C6.1365625 22.108125 6.1365625 22.108125 5.7578125 23.0234375 C3.73205248 26.56851754 1.32787094 27.93758469 -2.4921875 29.2109375 C-8.61130845 29.67275795 -12.48737334 28.7194818 -17.8671875 25.7109375 C-19.26784338 24.97334836 -20.67025822 24.23909184 -22.07421875 23.5078125 C-23.15823975 22.93836914 -23.15823975 22.93836914 -24.26416016 22.35742188 C-35.62630199 16.510762 -47.00302912 11.96384041 -59.4921875 9.2109375 C-60.27062012 9.0358667 -61.04905273 8.8607959 -61.85107422 8.68041992 C-82.48074848 5.01330367 -102.97270676 9.22209379 -121.4921875 18.2109375 C-120.41839844 18.52546875 -119.34460938 18.84 -118.23828125 19.1640625 C-116.80194716 19.59590151 -115.36575682 20.02821882 -113.9296875 20.4609375 C-113.22521484 20.66589844 -112.52074219 20.87085938 -111.79492188 21.08203125 C-106.91113838 22.56742162 -102.84233973 24.53567962 -98.4921875 27.2109375 C-98.4921875 27.5409375 -98.4921875 27.8709375 -98.4921875 28.2109375 C-99.4615625 28.23671875 -100.4309375 28.2625 -101.4296875 28.2890625 C-125.7189849 29.20679414 -146.63749844 37.85604217 -164.875 53.953125 C-167.4921875 56.2109375 -167.4921875 56.2109375 -169.4921875 57.2109375 C-167.00387628 40.42412151 -158.68812647 25.72813634 -147.4921875 13.2109375 C-146.64140625 12.2415625 -145.790625 11.2721875 -144.9140625 10.2734375 C-132.10133987 -3.74526921 -115.53477971 -12.44402153 -97.4921875 -17.7890625 C-96.32300781 -18.14742188 -95.15382813 -18.50578125 -93.94921875 -18.875 C-62.77541256 -26.69535644 -25.26146359 -19.73762355 0 0 Z " fill="#F8F8F8" transform="translate(512.4921875,390.7890625)"/>
<path d="M0 0 C0.02684312 2.81256281 0.04676188 5.62487241 0.0625 8.4375 C0.07087891 9.23994141 0.07925781 10.04238281 0.08789062 10.86914062 C0.0965143 12.91295221 0.0522815 14.95683902 0 17 C-1 18 -1 18 -3.73706055 18.07495117 C-4.94144775 18.06439697 -6.14583496 18.05384277 -7.38671875 18.04296875 C-24.30648095 17.55882417 -24.30648095 17.55882417 -38.83129883 24.7421875 C-41.44672232 27.69319642 -43.76071697 30.75878612 -46 34 C-47.31193903 35.58050625 -48.64108121 37.14720011 -50 38.6875 C-50.45375 39.26886719 -50.9075 39.85023438 -51.375 40.44921875 C-56.15569084 45.01156073 -63.286292 46.49230951 -69.4453125 48.3984375 C-70.45157684 48.71527496 -71.45784119 49.03211243 -72.49459839 49.35855103 C-76.77525705 50.70635065 -81.05947044 52.04266857 -85.34375 53.37890625 C-107.38371996 59.49201424 -107.38371996 59.49201424 -126 72 C-127.7177104 73.53501828 -129.43653 75.06879595 -131.15625 76.6015625 C-132.94043001 78.27291936 -134.72164183 79.94744992 -136.5 81.625 C-137.4178125 82.43839844 -138.335625 83.25179687 -139.28125 84.08984375 C-144.36173418 88.91270261 -144.36173418 88.91270261 -146.52832031 95.38769531 C-146.53525801 98.82845404 -146.53525801 98.82845404 -146.16308594 102.08154297 C-145.91479921 106.52468598 -147.53847489 109.42269707 -150 113 C-150.598125 113.9075 -151.19625 114.815 -151.8125 115.75 C-156.92953945 121.01324058 -163.53921268 123.71632891 -170.8125 124.3125 C-177.9208497 124.0818856 -184.2463784 121.76961565 -189.42578125 116.84375 C-195.01189863 110.30120062 -196.85868549 103.72717548 -196.4765625 95.1796875 C-195.26029099 87.0645645 -191.29569158 81.61603223 -185.16015625 76.375 C-180.55073953 73.44097706 -176.08122604 72.70725724 -170.6875 72.6875 C-169.63949219 72.67074219 -168.59148437 72.65398437 -167.51171875 72.63671875 C-163.06410801 73.09681641 -159.173107 74.44676499 -155 76 C-154.52691406 75.52167725 -154.05382812 75.04335449 -153.56640625 74.55053711 C-151.38035594 72.3434466 -149.19020871 70.14046367 -147 67.9375 C-146.25621094 67.18533203 -145.51242187 66.43316406 -144.74609375 65.65820312 C-140.00214431 60.89362782 -135.15824734 56.31492108 -130 52 C-129.25113022 51.35119873 -128.50226044 50.70239746 -127.73069763 50.03393555 C-124.94162169 47.95651744 -122.67296308 46.93695352 -119.38696289 45.84936523 C-118.28554459 45.47895615 -117.18412628 45.10854706 -116.04933167 44.72691345 C-114.86902878 44.34136795 -113.68872589 43.95582245 -112.47265625 43.55859375 C-110.60594278 42.93371942 -108.73923074 42.30884077 -106.87260342 41.68370914 C-104.26613013 40.81364702 -101.65655664 39.95309665 -99.04693604 39.0925293 C-94.48318132 37.58610985 -89.92331626 36.06801512 -85.36509705 34.54493713 C-82.94163647 33.73622531 -80.51653083 32.93242246 -78.08961487 32.13414001 C-70.05815034 29.46377078 -63.78858295 27.24985786 -57.8828125 20.96484375 C-56.9366171 19.98071659 -55.98998911 18.9970052 -55.04296875 18.01367188 C-53.58022835 16.47659226 -52.12278159 14.93512824 -50.67333984 13.38549805 C-40.41551222 2.46637899 -40.41551222 2.46637899 -33 2 C-32.13810059 1.89776123 -31.27620117 1.79552246 -30.38818359 1.69018555 C-27.46964034 1.35931728 -24.55282654 1.10876626 -21.625 0.875 C-20.64789063 0.78863281 -19.67078125 0.70226562 -18.6640625 0.61328125 C-12.42804762 0.09084915 -6.25663838 -0.1081988 0 0 Z " fill="#F7F7F7" transform="translate(462,311)"/>
<path d="M0 0 C3.53970288 1.64067527 5.35714808 3.32372475 7.75 6.4375 C8.36359375 7.21996094 8.9771875 8.00242187 9.609375 8.80859375 C11 11 11 11 11 14 C9.57657721 15.25790851 8.14334183 16.50762636 6.6484375 17.6796875 C3.24535683 20.40537771 0.31958109 23.66555468 -2.6875 26.8125 C-5 29 -5 29 -7 29 C-5.60528696 33.58852337 -3.08507568 36.17453325 0.4375 39.25 C0.96520996 39.72236084 1.49291992 40.19472168 2.03662109 40.68139648 C6.5212146 44.6630262 11.14090052 48.47234491 15.8203125 52.22265625 C18 54 18 54 20 56 C29.20316529 55.6460321 34.46645387 49.8435319 40.75 43.8125 C42.17248969 42.46281682 43.59566506 41.11385594 45.01953125 39.765625 C45.70354004 39.11658203 46.38754883 38.46753906 47.09228516 37.79882812 C50.99210531 34.12159817 54.99477555 30.56173939 59 27 C59.84820312 26.23429687 60.69640625 25.46859375 61.5703125 24.6796875 C62.80394531 23.56980469 62.80394531 23.56980469 64.0625 22.4375 C65.16271484 21.44556641 65.16271484 21.44556641 66.28515625 20.43359375 C68 19 68 19 69 19 C70.90426437 39.12660953 70.90426437 39.12660953 66.83203125 44.6640625 C64.03197846 47.40618316 61.18483743 49.72090337 58 52 C56.57024717 53.23501064 55.15183114 54.48338486 53.75 55.75 C52.79867187 56.56017578 52.79867187 56.56017578 51.828125 57.38671875 C49.95897723 59.03620171 48.23284268 60.77111534 46.5 62.5625 C39.61084635 69.54602562 33.2672316 74.24857449 23.1875 74.4375 C11.99513608 74.20505215 6.45245007 67.83939652 -1.265625 60.5234375 C-3.85493208 58.03462979 -3.85493208 58.03462979 -6.359375 56.2890625 C-6.90078125 55.86367188 -7.4421875 55.43828125 -8 55 C-8 54.34 -8 53.68 -8 53 C-8.99 53 -9.98 53 -11 53 C-11.24878906 53.60457031 -11.49757812 54.20914063 -11.75390625 54.83203125 C-13.19797455 57.34443848 -14.46135813 58.22579242 -16.9375 59.6875 C-17.62714844 60.10386719 -18.31679687 60.52023437 -19.02734375 60.94921875 C-25.27308905 64.27616031 -33.69817147 64.07545713 -40.453125 62.38671875 C-46.51543013 59.67777532 -51.22395803 54.66544832 -54.1015625 48.7265625 C-57.03282383 40.69983755 -56.26432311 34.39888273 -53.203125 26.51953125 C-51.64761522 23.26205135 -49.80351094 21.25648441 -47 19 C-46.175 18.278125 -45.35 17.55625 -44.5 16.8125 C-38.15498619 12.21236499 -31.59593465 12.32076655 -24 13 C-20.4375 14.625 -20.4375 14.625 -18 16 C-14.88229723 14.85621343 -12.85030897 13.08827765 -10.546875 10.7421875 C-9.928125 10.11699219 -9.309375 9.49179687 -8.671875 8.84765625 C-8.03765625 8.19667969 -7.4034375 7.54570312 -6.75 6.875 C-6.1003125 6.21628906 -5.450625 5.55757813 -4.78125 4.87890625 C-3.18288273 3.25703357 -1.58938103 1.6306719 0 0 Z " fill="#F7F7F7" transform="translate(251,418)"/>
<path d="M0 0 C1.73017508 0.45451184 3.45909877 0.91378857 5.1875 1.375 C6.15042969 1.63023437 7.11335938 1.88546875 8.10546875 2.1484375 C10.82210207 2.94766296 13.39137175 3.9031362 16 5 C16.39210545 38.93776714 16.70648369 72.87596154 16.9544946 106.81508726 C16.98492463 110.97528269 17.01621258 115.13547055 17.04814506 119.29565471 C17.17174348 135.44226778 17.27488755 151.58873669 17.32823563 167.73574924 C17.3509515 174.51154688 17.38175213 181.28707541 17.43432617 188.06271362 C17.48388287 194.46306178 17.50763553 200.86317756 17.51382828 207.26371765 C17.52017628 209.62616369 17.53509844 211.98860403 17.55907822 214.35093689 C17.59042509 217.58067021 17.5908986 220.80897526 17.58349609 224.03881836 C17.59990395 224.98284232 17.6163118 225.92686628 17.63321686 226.89949703 C17.58944963 231.46859844 17.48951564 233.3729717 14.59463501 237.08106995 C12.07261342 238.94629685 11.01280127 239.68613919 7.9375 239.625 C4 239 4 239 1.78396988 237.05373859 C-0.6988104 232.80380028 -0.54395298 229.35448635 -0.48101807 224.5151825 C-0.48443577 223.55535912 -0.48785347 222.59553574 -0.49137473 221.60662681 C-0.49796716 218.38808286 -0.47595446 215.17037151 -0.45410156 211.9519043 C-0.45297338 209.64577758 -0.45360637 207.33964943 -0.45587158 205.03352356 C-0.4570208 198.7694311 -0.43347752 192.50564407 -0.40557575 186.24162269 C-0.38059688 179.69664537 -0.37822286 173.15166131 -0.37347412 166.60664368 C-0.36311439 155.62011409 -0.33745108 144.63369168 -0.30175781 133.6472168 C-0.2650341 122.33179281 -0.23672412 111.01639929 -0.21972656 99.70092773 C-0.21867567 99.00328439 -0.21762477 98.30564104 -0.21654204 97.58685698 C-0.21132183 94.08693767 -0.20626701 90.58701815 -0.20129442 87.08709848 C-0.15983672 58.0579927 -0.08909446 29.02899785 0 0 Z " fill="#F2F3F5" transform="translate(438,552)"/>
<path d="M0 0 C1.75140143 0.45294865 3.50107344 0.91258748 5.25 1.375 C6.71179688 1.75785156 6.71179688 1.75785156 8.203125 2.1484375 C10.65837303 2.89598509 12.75617405 3.77123817 15 5 C15.22451313 9.80112693 15.38669919 14.59912712 15.49438477 19.40429688 C15.53931627 21.03407062 15.6004908 22.66348838 15.67895508 24.29199219 C15.78968264 26.65128534 15.83947877 29.00574782 15.87890625 31.3671875 C15.9485836 32.43814163 15.9485836 32.43814163 16.01966858 33.5307312 C16.02578006 39.82374109 12.94528608 43.24090747 8.6749115 47.62905884 C5.23826461 50.67517366 1.60116101 53.05064755 -2.31182861 55.43835449 C-19.26986292 66.00815134 -37.90504955 80.84881804 -42.75332642 101.1552124 C-48.40217409 132.59106814 -45.6725058 167.05642196 -43.61956787 198.78283691 C-43.51819393 200.48296999 -43.51819393 200.48296999 -43.41477203 202.21744919 C-43.28585693 204.32862994 -43.13949823 206.43884688 -42.972435 208.54735184 C-42.56333749 215.38485837 -42.56333749 215.38485837 -44.86151123 218.62237549 C-47.12811802 220.08253423 -48.32460439 220.56772538 -51 220.5625 C-51.99 220.59537109 -51.99 220.59537109 -53 220.62890625 C-56.34131896 219.57821806 -57.20220508 218.00693425 -59 215 C-59.60569742 211.11343843 -59.54613516 207.25517398 -59.51757812 203.32836914 C-59.5245874 202.14734116 -59.53159668 200.96631317 -59.53881836 199.74949646 C-59.55339049 196.51786539 -59.54999806 193.28689143 -59.53730202 190.05527043 C-59.52715457 186.66813509 -59.53657274 183.28104276 -59.54284668 179.89390564 C-59.55011906 174.20531365 -59.54054739 168.51692955 -59.52148438 162.82836914 C-59.49972662 156.26000003 -59.50676023 149.6921278 -59.52879 143.12377077 C-59.54696839 137.47687066 -59.54949018 131.83011976 -59.53903532 126.18319982 C-59.53281233 122.81386931 -59.53193126 119.44477197 -59.54518127 116.07545662 C-59.55534115 112.31697148 -59.53985087 108.55943956 -59.51757812 104.80102539 C-59.52567505 103.68966217 -59.53377197 102.57829895 -59.54211426 101.43325806 C-59.47455289 95.27838722 -59.07406936 91.70380487 -55 87 C-54.360625 86.21238281 -53.72125 85.42476562 -53.0625 84.61328125 C-47.93975333 78.8987021 -42.54017448 73.71539227 -36.796875 68.640625 C-34.72530672 66.68478679 -33.02719722 64.87190589 -31.265625 62.671875 C-30.14414062 61.34929688 -30.14414062 61.34929688 -29 60 C-28.34 60 -27.68 60 -27 60 C-26.67 59.01 -26.34 58.02 -26 57 C-24.1875 55.24609375 -24.1875 55.24609375 -22 53.4375 C-19.05040821 51.07789673 -19.05040821 51.07789673 -17 48 C-16.34 48 -15.68 48 -15 48 C-14.67 47.01 -14.34 46.02 -14 45 C-12.328125 43.3515625 -12.328125 43.3515625 -10.25 41.625 C-8.8213676 40.4308378 -7.40560578 39.22118233 -6 38 C-5.14414307 37.29447998 -4.28828613 36.58895996 -3.40649414 35.86206055 C-0.44054336 32.33463426 -0.2680297 29.70686101 -0.29296875 25.29296875 C-0.27784744 24.56757401 -0.26272614 23.84217926 -0.24714661 23.09480286 C-0.20437173 20.79204987 -0.19544259 18.49061016 -0.1875 16.1875 C-0.16434739 14.62040804 -0.13898044 13.05334714 -0.11132812 11.48632812 C-0.04857806 7.65743655 -0.01616299 3.82936016 0 0 Z " fill="#F9F9FA" transform="translate(399,539)"/>
<path d="M0 0 C5.28 1.98 10.56 3.96 16 6 C13.93733341 10.12533318 11.56823738 12.46555795 8.1875 15.4375 C7.13831021 16.37256284 6.09012375 17.30875276 5.04296875 18.24609375 C4.53064697 18.70467773 4.0183252 19.16326172 3.49047852 19.63574219 C1.25230102 21.68438033 -0.87439191 23.8355519 -3 26 C-4.26983587 27.29264729 -5.54061372 28.58437014 -6.8125 29.875 C-7.71935547 30.79925781 -7.71935547 30.79925781 -8.64453125 31.7421875 C-12.7481851 35.67570645 -17.00533039 39.44811139 -21.49265862 42.93933296 C-30.19842077 49.72186909 -38.71098826 56.64332093 -40.77468872 67.96652222 C-41.52544714 75.36119048 -41.39558551 82.70890699 -41.13101315 90.12364841 C-41.02119107 93.83772913 -41.03034681 97.55167323 -41.02635193 101.2671051 C-41.00192332 108.27539216 -40.87889886 115.27802173 -40.71613783 122.28432184 C-40.48157305 132.5868702 -40.40354097 142.89093118 -40.31919003 153.195611 C-40.3064529 154.7199313 -40.29363904 156.24425096 -40.28074646 157.76856995 C-40.27152055 158.88476789 -40.27152055 158.88476789 -40.26210827 160.02351528 C-40.2223998 164.4301216 -40.15567955 168.83528207 -40.0639497 173.24110782 C-40.0216423 175.31475741 -39.98549749 177.38841864 -39.95147705 179.46221924 C-39.90840915 181.98598256 -39.85379378 184.50958589 -39.78544617 187.03279114 C-39.76089859 188.70361252 -39.76089859 188.70361252 -39.7358551 190.40818787 C-39.7144877 191.37313895 -39.69312029 192.33809004 -39.67110538 193.33228207 C-40.06699938 196.54344295 -41.10905462 198.39837869 -43 201 C-46.13400885 202.56700442 -49.63155095 202.85164561 -53 202 C-56.49339757 198.39402718 -57.50180853 196.08906304 -57.52812195 191.09965515 C-57.54373672 189.91794739 -57.5593515 188.73623962 -57.57543945 187.51872253 C-57.57205566 186.23081314 -57.56867188 184.94290375 -57.56518555 183.6159668 C-57.57552297 182.2390515 -57.58751311 180.86214778 -57.60102844 179.48526001 C-57.63204917 175.75157603 -57.63735327 172.0182782 -57.63609672 168.28448081 C-57.63692807 165.16337535 -57.6491775 162.0423533 -57.66104633 158.92127353 C-57.68841347 151.55431458 -57.6937514 144.18755568 -57.6862793 136.82055664 C-57.67904233 129.23182491 -57.71243268 121.6440231 -57.76533669 114.05549306 C-57.80917181 107.53127808 -57.8258285 101.0073629 -57.8213008 94.48300296 C-57.81898262 90.5902506 -57.82721694 86.69824933 -57.86237144 82.80563927 C-57.8944233 79.14192131 -57.892446 75.47973766 -57.86492729 71.81599808 C-57.85837857 69.83989241 -57.88626772 67.8637653 -57.91537476 65.88786316 C-57.83774946 59.88998292 -57.61314079 55.94170682 -53.59710693 51.29806519 C-52.42297083 50.17215558 -51.22618212 49.06899272 -50 48 C-49.20408447 47.16138428 -48.40816895 46.32276855 -47.58813477 45.45874023 C-46.87971436 44.74919189 -46.17129395 44.03964355 -45.44140625 43.30859375 C-44.64283203 42.50873047 -43.84425781 41.70886719 -43.02148438 40.88476562 C-42.21001953 40.07716797 -41.39855469 39.26957031 -40.5625 38.4375 C-39.75490234 37.62603516 -38.94730469 36.81457031 -38.11523438 35.97851562 C-33.79261196 31.66285956 -29.38821957 27.52188617 -24.75756836 23.53930664 C-22.39127697 21.46687058 -20.19372075 19.2530105 -18 17 C-14.42464349 13.3807067 -10.77432575 9.94840069 -6.88671875 6.66796875 C-4.49279804 4.55160407 -2.25940875 2.25940875 0 0 Z " fill="#F6F6F6" transform="translate(356,523)"/>
<path d="M0 0 C0 5.94 0 11.88 0 18 C-17.08739758 21.74988709 -34.20371474 25.26382261 -51.38574219 28.55102539 C-52.83791601 28.8294575 -54.29006492 29.10801954 -55.7421875 29.38671875 C-56.44029541 29.52032303 -57.13840332 29.65392731 -57.85766602 29.7915802 C-63.6460191 30.90893118 -69.39885521 32.15912192 -75.14892578 33.46020508 C-78 34 -78 34 -82 34 C-82.07476562 34.556875 -82.14953125 35.11375 -82.2265625 35.6875 C-83.46163591 42.85576922 -86.2079165 48.11113487 -92.06640625 52.57421875 C-99.47322935 57.33477356 -106.25208961 57.96367355 -115 57 C-123.36762857 53.98052285 -128.6145924 47.98767044 -132.375 40.125 C-134.33088115 30.34559424 -132.49537217 22.61756242 -127.25 14.1875 C-120.4320717 7.55895859 -113.81763115 5.57906148 -104.4375 5.65234375 C-99.24851864 6.17713846 -95.21627389 7.96493903 -91 11 C-90.278125 11.928125 -89.55625 12.85625 -88.8125 13.8125 C-88.214375 14.534375 -87.61625 15.25625 -87 16 C-80.9410533 16.53520361 -75.24586125 15.23938845 -69.328125 14.0234375 C-68.29992142 13.8174292 -67.27171783 13.6114209 -66.21235657 13.39916992 C-62.89014232 12.7313146 -59.5700672 12.05344085 -56.25 11.375 C-53.97784791 10.91585803 -51.70563097 10.45703691 -49.43334961 9.99853516 C-36.36555906 7.35154171 -23.31777918 4.63199411 -10.32714844 1.62646484 C-9.37485352 1.40684082 -8.42255859 1.1872168 -7.44140625 0.9609375 C-6.64420166 0.77321777 -5.84699707 0.58549805 -5.02563477 0.39208984 C-3 0 -3 0 0 0 Z " fill="#F6F6F6" transform="translate(462,269)"/>
<path d="M0 0 C6.71103697 3.75689629 12.54107483 9.59767068 14.8125 17.0625 C15.62696229 24.98930155 15.82892048 32.5440699 10.8125 39.0625 C7.7534359 42.55956646 4.68245724 45.4825285 0.8125 48.0625 C-0.1775 48.0625 -1.1675 48.0625 -2.1875 48.0625 C-2.17861755 49.02858688 -2.16973511 49.99467377 -2.1605835 50.99003601 C-2.07947131 60.09770553 -2.01952201 69.20530169 -1.98025131 78.31325054 C-1.95938298 82.99568939 -1.93107919 87.67783648 -1.88574219 92.36010742 C-1.8422574 96.87940651 -1.81835722 101.39842509 -1.80799103 105.91791725 C-1.80060437 107.64151233 -1.78617981 109.36509218 -1.76457977 111.08856773 C-1.73551006 113.5042873 -1.73154537 115.91885025 -1.73339844 118.3347168 C-1.71182678 119.40178864 -1.71182678 119.40178864 -1.68981934 120.49041748 C-1.72956775 125.28436061 -2.79433807 127.69702092 -6.1875 131.0625 C-9.113416 132.525458 -10.94367347 132.50773109 -14.1875 132.0625 C-17.69137245 128.73254564 -19.01014968 127.15994318 -19.78877258 122.34182739 C-19.80311348 120.93771155 -19.79031454 119.53314265 -19.75512695 118.12939453 C-19.75585709 117.3579863 -19.75658722 116.58657806 -19.75733948 115.79179382 C-19.75387444 113.25890135 -19.71506811 110.72788099 -19.67578125 108.1953125 C-19.66644918 106.43269861 -19.65933493 104.67007171 -19.65434265 102.90744019 C-19.63530367 98.28096351 -19.58623011 93.65527877 -19.53082275 89.02911377 C-19.47956302 84.30337231 -19.45681429 79.57750217 -19.43164062 74.8515625 C-19.37810796 65.5881948 -19.29283312 56.3254134 -19.1875 47.0625 C-19.97374756 46.92457031 -20.75999512 46.78664063 -21.57006836 46.64453125 C-26.67628549 45.50907545 -29.75434123 41.25414339 -32.5234375 37.01953125 C-36.0001984 30.25094355 -36.54943227 22.82562141 -34.45703125 15.5078125 C-31.23250091 7.6899716 -26.65184817 2.5131962 -18.9296875 -1.015625 C-12.32323904 -3.23659628 -6.35310277 -2.79225191 0 0 Z " fill="#F9F9F9" transform="translate(412.1875,641.9375)"/>
<path d="M0 0 C2.89009058 1.78038122 4.56722351 3.73065728 6.578125 6.44140625 C10.88785558 11.4659019 15.57756493 12.56058215 21.875 13.9375 C23.85046644 14.41451218 25.82573722 14.89233561 27.80078125 15.37109375 C28.66743408 15.56630615 29.53408691 15.76151855 30.42700195 15.96264648 C32.5625 16.5 32.5625 16.5 34.5625 17.5 C34.5625 23.44 34.5625 29.38 34.5625 35.5 C29.33271511 34.84627689 24.67377393 34.14252613 19.640625 32.90234375 C17.2607734 32.37328048 17.2607734 32.37328048 13.5625 32.5 C12.2644225 34.01835646 12.2644225 34.01835646 11.3125 36.0625 C8.02278068 41.76130608 3.64938053 45.88640336 -2.1875 48.9375 C-10.5432252 50.38368321 -17.73544229 50.38487709 -25.24609375 46.1171875 C-30.79230334 42.02426278 -34.44284059 36.03805028 -36.4375 29.5 C-37.58923477 20.1581513 -35.4239869 13.06970036 -29.6875 5.6875 C-22.09935887 -2.38898684 -10.31480822 -4.50393185 0 0 Z " fill="#F7F7F7" transform="translate(290.4375,311.5)"/>
<path d="M0 0 C1.14275391 0.48726562 1.14275391 0.48726562 2.30859375 0.984375 C5.43947315 2.16583893 7.67536022 2.28294807 11 2 C12.35166003 1.37132092 13.6893765 0.71027338 15 0 C15.09344236 14.01230209 15.16371266 28.02455586 15.20724869 42.03710556 C15.22814165 48.54340149 15.25649108 55.04948843 15.30175781 61.55566406 C15.3451537 67.83207509 15.36912422 74.10828484 15.37950897 80.38483429 C15.38691153 82.78189514 15.40136659 85.17894473 15.42292023 87.5759201 C15.45187016 90.92813605 15.45595941 94.27951552 15.45410156 97.63183594 C15.47567322 99.12508392 15.47567322 99.12508392 15.49768066 100.64849854 C15.45723957 107.37238609 15.45723957 107.37238609 13.09661865 110.61260986 C10.85026406 112.09908439 9.67331075 112.56772131 7 112.5625 C6.01 112.59537109 6.01 112.59537109 5 112.62890625 C1.70722089 111.59348157 0.78839109 109.93100624 -1 107 C-1.55208156 103.53218089 -1.44692052 100.11339669 -1.36230469 96.61010742 C-1.35313522 95.56574524 -1.34396576 94.52138306 -1.33451843 93.44537354 C-1.29948582 89.99821167 -1.23581036 86.55220565 -1.171875 83.10546875 C-1.14197321 80.71366989 -1.1138598 78.32184805 -1.08746338 75.93000793 C-1.01321851 69.63817616 -0.91467364 63.34695014 -0.81109619 57.05554199 C-0.70967067 50.63422226 -0.63118611 44.21262688 -0.55078125 37.79101562 C-0.38966268 25.19363893 -0.2036549 12.59675715 0 0 Z " fill="#FAFAFA" transform="translate(439,679)"/>
<path d="M0 0 C3.59000584 2.53665083 5.89325811 4.70069568 7.6875 8.8125 C8.42075484 14.29663516 8.64635718 19.7859207 6.0625 24.8125 C2.83094842 28.89445989 -0.38593266 31.17031089 -5.3125 32.8125 C-11.00512838 33.37634129 -15.46194138 33.11969906 -20.3125 29.8125 C-24.99223922 25.02640307 -26.95330117 21.04528948 -27.6875 14.4375 C-27.09078817 8.66928561 -25.02695347 4.48299313 -20.875 0.4375 C-13.79056946 -4.05506571 -7.36582725 -4.26008665 0 0 Z " fill="#F7F7F7" transform="translate(469.3125,424.1875)"/>
<path d="M0 0 C9.24 0 18.48 0 28 0 C28 8.91 28 17.82 28 27 C18.66666667 27 9.33333333 27 0 27 C0 18.09 0 9.18 0 0 Z " fill="#0D0D0D" transform="translate(204,503)"/>
<path d="M0 0 C3.48490622 1.50186335 4.97030726 3.6037021 6.8671875 6.8046875 C7.41982072 10.74219917 7.22939525 12.98972006 5.6171875 16.6171875 C3.708971 19.00245812 2.77370719 19.91658426 -0.1328125 20.8046875 C-4.36525774 21.2664088 -6.40388211 21.28007688 -10.0078125 18.9296875 C-12.79602753 16.14147247 -13.37083662 14.40573298 -13.6328125 10.5546875 C-13.5962861 7.73302305 -13.40412069 6.21992138 -11.8515625 3.84375 C-8.17892712 0.2879712 -5.07022438 -1.12452447 0 0 Z " fill="#F5F5F5" transform="translate(220.1328125,506.1953125)"/>
<path d="M0 0 C3.5420773 3.09931764 4.84372778 4.88656044 5.5 9.5625 C4.86922578 13.89907279 3.80650145 16.64512391 0.25 19.3125 C-3.0210618 20.31199111 -5.59742588 20.3581657 -9 20 C-11.75329021 18.20437595 -13.52627461 16.94745078 -15 14 C-15.68128376 7.18716238 -15.68128376 7.18716238 -13.953125 4.17578125 C-9.74021854 -0.94166101 -6.3549718 -1.95631063 0 0 Z " fill="#F5F5F5" transform="translate(272,633)"/>
<path d="M0 0 C3.02519989 2.05971056 4.66926776 3.51573824 5.48046875 7.15625 C5.7530672 11.57676536 5.43956037 13.44476585 2.625 17 C-1.17123386 19.89236866 -3.20194585 20.55362163 -8 20 C-10.92937654 18.18689858 -13.43647949 16.12704101 -15 13 C-15.37510464 9.74909308 -15.66540869 7.15611549 -13.98828125 4.2421875 C-9.70761164 -1.07972607 -6.48721083 -1.56587848 0 0 Z " fill="#F5F5F5" transform="translate(246,379)"/>
<path d="M0 0 C4.37758112 2.34513274 4.37758112 2.34513274 6 5 C7.14666551 10.03212922 6.78501403 13.73384833 4.0625 18.125 C-0.03354567 20.63278306 -3.31252649 21.08695038 -8 20 C-10.75569447 17.81840855 -12.43588747 16.12822506 -14 13 C-14.59873168 7.73116124 -13.25400021 5.1153532 -10 1 C-6.75287417 -0.62356291 -3.50888646 -0.54582678 0 0 Z " fill="#F5F5F5" transform="translate(423,242)"/>
<path d="M0 0 C2.91269772 1.8578656 5.42832709 3.85665419 7 7 C7.41197049 11.63466801 6.95567673 14.35466537 4 18 C0.73753635 20.17497577 -1.19121196 21.01617576 -5.125 20.9375 C-8.4295154 19.85994063 -9.85229732 18.70451449 -12 16 C-13.24242813 12.2727156 -13.53133458 9.91859249 -13 6 C-9.63702621 1.54843354 -5.69565484 -1.3330256 0 0 Z " fill="#111111" transform="translate(254,561)"/>
<path d="M0 0 C3.13836313 2.02685952 4.65870267 3.45297192 5.4765625 7.16015625 C5.74407644 11.37702077 5.36963709 13.46234605 2.9375 17 C-0.57929494 19.39441358 -2.75226664 20 -7 20 C-9.87552999 18.78588734 -11.4458311 17.73889186 -13.3125 15.25 C-14.31199111 11.9789382 -14.3581657 9.40257412 -14 6 C-10.30130834 0.32867279 -6.71796532 -1.09182993 0 0 Z " fill="#0F0F0F" transform="translate(359,291)"/>
<path d="M0 0 C3.47670811 2.79832604 3.91981972 4.54078569 4.6875 8.9375 C4.50624061 12.47541471 3.44098469 14.09332256 0.875 16.5 C-1.63630988 18.35310366 -3.00265474 19.00053095 -6.125 19.625 C-9.66296249 18.85587772 -11.42108968 17.50522717 -14 15 C-15.75451816 11.49096368 -15.6706258 7.81993716 -15 4 C-10.76187505 -1.43349352 -6.5062416 -2.2098999 0 0 Z " fill="#0F0F0F" transform="translate(408,657)"/>
<path d="M0 0 C3.03978021 0.68164768 4.80055419 2.23591662 6.93359375 4.43359375 C8.48383839 7.53408303 8.2235139 10.01253593 7.93359375 13.43359375 C6.1379697 16.18688396 4.88104453 17.95986836 1.93359375 19.43359375 C-5.00904049 20.11647581 -5.00904049 20.11647581 -9.06640625 17.49609375 C-11.39838638 13.92524918 -11.8090819 11.78853356 -11.54296875 7.59375 C-10.17888267 1.4106385 -5.7420565 -0.35820012 0 0 Z " fill="#101010" transform="translate(281.06640625,325.56640625)"/>
<path d="M0 0 C2.8100346 1.79363911 4.50940468 3.01880935 6 6 C6.40417552 8.96395382 6.56382171 11.08904926 4.953125 13.69140625 C3.15636794 15.88450678 1.55808759 17.7209562 -1 19 C-5.62005487 19.41067154 -8.3545071 18.93664706 -12 16 C-13.88044634 12.92290598 -14.00114202 11.06509524 -13.9375 7.4375 C-13 4 -13 4 -10.9375 1.5625 C-7.15047075 -0.45187726 -4.2051058 -0.86650665 0 0 Z " fill="#141414" transform="translate(295,400)"/>
<path d="M0 0 C2.86830829 2.01391859 4.61592935 3.45434983 5.48046875 6.93359375 C5.77055907 11.08110127 5.31126311 12.61501668 2.625 15.9375 C-1.16080728 18.91206287 -3.17180697 19.47335226 -8 19 C-10.69990662 17.20006226 -12.5418865 15.916227 -14 13 C-14.67660495 7.13609041 -14.67660495 7.13609041 -12.953125 4.2421875 C-8.69011748 -0.94865107 -6.51162631 -1.54513167 0 0 Z " fill="#0F0F0F" transform="translate(225,447)"/>
<path d="M0 0 C0.66 0.33 1.32 0.66 2 1 C2 5.95 2 10.9 2 16 C-1.96 16 -5.92 16 -10 16 C-10 19.96 -10 23.92 -10 28 C-15.61 28 -21.22 28 -27 28 C-21.75541414 21.63409696 -15.97902678 15.86429388 -10.125 10.0625 C-9.14039081 9.08291763 -8.156014 8.10310163 -7.171875 7.12304688 C-4.78351797 4.74639748 -2.39284788 2.37212644 0 0 Z " fill="#040C16" transform="translate(410,583)"/>
<path d="M0 0 C5.61 0 11.22 0 17 0 C13.40767777 4.38088077 9.83043959 8.18297914 5.41796875 11.73828125 C3.8630558 12.96479293 3.8630558 12.96479293 3 15 C2.34 15 1.68 15 1 15 C0.61521484 15.89332031 0.61521484 15.89332031 0.22265625 16.8046875 C-1.10969687 19.19696371 -2.43368605 20.42728199 -4.5625 22.125 C-7.21025666 24.20903634 -7.21025666 24.20903634 -9 27 C-9.66 27 -10.32 27 -11 27 C-11.33 27.66 -11.66 28.32 -12 29 C-12 26 -12 26 -11 25 C-11.33 25 -11.66 25 -12 25 C-12 20.71 -12 16.42 -12 12 C-8.04 12 -4.08 12 0 12 C0 8.04 0 4.08 0 0 Z " fill="#091520" transform="translate(381,572)"/>
<path d="M0 0 C0.33 0 0.66 0 1 0 C1.09271379 9.95311932 1.163772 19.90613578 1.20724869 29.85959911 C1.22811627 34.48150583 1.25641864 39.10311693 1.30175781 43.72485352 C1.34524535 48.18579829 1.36914335 52.64645886 1.37950897 57.10759926 C1.38689514 58.80886623 1.40131876 60.51011779 1.42292023 62.21126366 C1.4519937 64.59585454 1.45595448 66.97927383 1.45410156 69.36401367 C1.47567322 70.4170594 1.47567322 70.4170594 1.49768066 71.49137878 C1.45763969 76.259335 0.36730812 78.65094931 -3 82 C-5.70879335 83.35439668 -8.00933268 83.06501451 -11 83 C-8.50839682 80.93552879 -6.33160323 79.14844641 -3.36543274 77.82060242 C-0.65916928 76.15180404 -0.65916928 76.15180404 -0.36076355 72.75398254 C-0.32853835 71.39730812 -0.32385222 70.03981536 -0.34057617 68.68286133 C-0.33009247 67.94115189 -0.31960876 67.19944244 -0.30880737 66.43525696 C-0.28000664 63.98375879 -0.28635413 61.53366862 -0.29296875 59.08203125 C-0.27985663 57.38236211 -0.2645539 55.68270858 -0.24714661 53.983078 C-0.20722629 49.50973322 -0.19710169 45.03679538 -0.19311523 40.56329346 C-0.18379695 35.9984497 -0.1463917 31.43384638 -0.11132812 26.86914062 C-0.04668087 17.91277172 -0.01349939 8.95658179 0 0 Z " fill="#C8C8C8" transform="translate(409,691)"/>
<path d="M0 0 C0.66 1.32 1.32 2.64 2 4 C0 6 -2 8 -4 10 C-3.34 11.32 -2.68 12.64 -2 14 C-2.99 14.66 -3.98 15.32 -5 16 C-5.66 14.68 -6.32 13.36 -7 12 C-8.485 14.475 -8.485 14.475 -10 17 C-11.65 16.67 -13.3 16.34 -15 16 C-10.30233025 10.33870569 -5.25276628 5.14771096 0 0 Z " fill="#F5F5F5" transform="translate(377,392)"/>
<path d="M0 0 C0.33 0 0.66 0 1 0 C1.33 2.97 1.66 5.94 2 9 C0.68 9 -0.64 9 -2 9 C-2 9.66 -2 10.32 -2 11 C-3.98 11 -5.96 11 -8 11 C-8 10.34 -8 9.68 -8 9 C-9.32 8.67 -10.64 8.34 -12 8 C-11.21753906 7.50628906 -10.43507813 7.01257813 -9.62890625 6.50390625 C-8.61699219 5.86324219 -7.60507812 5.22257813 -6.5625 4.5625 C-5.55316406 3.92441406 -4.54382813 3.28632812 -3.50390625 2.62890625 C-1.15446165 1.22350458 -1.15446165 1.22350458 0 0 Z " fill="#090909" transform="translate(681,734)"/>
<path d="M0 0 C3.3 0 6.6 0 10 0 C10 3 10 3 8.25 5.04296875 C7.5075 5.75066406 6.765 6.45835937 6 7.1875 C5.2575 7.90292969 4.515 8.61835937 3.75 9.35546875 C2.88375 10.16951172 2.88375 10.16951172 2 11 C0 9 0 9 -0.1953125 6.8359375 C-0.13020833 4.55729167 -0.06510417 2.27864583 0 0 Z " fill="#101010" transform="translate(328,538)"/>
<path d="M0 0 C1.58158962 3.00887781 2.43945339 5.63672037 3 9 C2.01 9 1.02 9 0 9 C-3.62917598 10.2415602 -6.75825228 11.96233 -10 14 C-10.33 12.68 -10.66 11.36 -11 10 C-10.34 10 -9.68 10 -9 10 C-8.67 9.01 -8.34 8.02 -8 7 C-6.15234375 5.17578125 -6.15234375 5.17578125 -3.9375 3.3125 C-2.83728516 2.37857422 -2.83728516 2.37857422 -1.71484375 1.42578125 C-1.14894531 0.95527344 -0.58304687 0.48476563 0 0 Z " fill="#EFF3F5" transform="translate(381,589)"/>
<path d="M0 0 C0.66 0.33 1.32 0.66 2 1 C1.60167969 1.43570313 1.20335937 1.87140625 0.79296875 2.3203125 C-1.79575287 5.23026235 -3.86186577 7.71268079 -5.5625 11.25 C-7.74578017 15.42670988 -10.66002863 16.55334288 -15 18 C-16.66710346 19.49985609 -16.66710346 19.49985609 -18 21 C-18.99 20.67 -19.98 20.34 -21 20 C-19.96939453 19.07767578 -19.96939453 19.07767578 -18.91796875 18.13671875 C-18.01691406 17.32847656 -17.11585938 16.52023437 -16.1875 15.6875 C-15.29417969 14.88699219 -14.40085937 14.08648438 -13.48046875 13.26171875 C-12.04612616 11.95386936 -10.63600706 10.61592469 -9.30078125 9.20703125 C-8 8 -8 8 -6 8 C-5.7525 7.4225 -5.505 6.845 -5.25 6.25 C-3.83316683 3.6997003 -2.12372463 1.98214299 0 0 Z " fill="#1A1A1A" transform="translate(363,538)"/>
<path d="M0 0 C0 3.94720688 -1.52509109 5.01555103 -4 8 C-4.68177416 9.32567199 -5.35191436 10.65753688 -6 12 C-6.66 12.66 -7.32 13.32 -8 14 C-9.32 14 -10.64 14 -12 14 C-11.67 14.99 -11.34 15.98 -11 17 C-11.99 17.33 -12.98 17.66 -14 18 C-14.99 17.34 -15.98 16.68 -17 16 C-14.91975578 13.89270058 -12.83597761 11.78911127 -10.75 9.6875 C-9.87021484 8.79514648 -9.87021484 8.79514648 -8.97265625 7.88476562 C-6.12147184 5.01756332 -3.34887496 2.29613457 0 0 Z M-19 17 C-18.34 17.33 -17.68 17.66 -17 18 C-17.99 18 -18.98 18 -20 18 C-19.67 17.67 -19.34 17.34 -19 17 Z " fill="#F1F1F1" transform="translate(325,493)"/>
<path d="M0 0 C2.5 1.5 2.5 1.5 4 3 C3.67 4.32 3.34 5.64 3 7 C3 6.34 3 5.68 3 5 C1.3892395 3.73121406 1.3892395 3.73121406 -1 3 C-4.65578999 3.49688643 -4.65578999 3.49688643 -8 5 C-9.49743888 6.98567734 -9.49743888 6.98567734 -10 9 C-10 8.34 -10 7.68 -10 7 C-10.99 7 -11.98 7 -13 7 C-12.64978759 4.46096004 -12.15988127 3.17906702 -10.4375 1.25 C-6.95750537 -0.53461263 -3.83904071 -0.61361716 0 0 Z " fill="#0D0D0D" transform="translate(295,400)"/>
<path d="M0 0 C1.58764086 0.39994006 3.17002911 0.82075935 4.75 1.25 C6.07257813 1.59804688 6.07257813 1.59804688 7.421875 1.953125 C10 3 10 3 14 7 C9.38 7 4.76 7 0 7 C-1 2 -1 2 0 0 Z " fill="#E7E7E7" transform="translate(400,412)"/>
<path d="M0 0 C0 7.26 0 14.52 0 22 C-0.33 22 -0.66 22 -1 22 C-1.33 17.71 -1.66 13.42 -2 9 C-3.32 9.33 -4.64 9.66 -6 10 C-7.75 8.5625 -7.75 8.5625 -9 7 C-7.69013727 5.83037314 -6.3770374 4.66437056 -5.0625 3.5 C-3.96615234 2.52546875 -3.96615234 2.52546875 -2.84765625 1.53125 C-1 0 -1 0 0 0 Z " fill="#D2D2D2" transform="translate(320,437)"/>
<path d="M0 0 C0.33 0.66 0.66 1.32 1 2 C0.06553465 4.03144641 -0.93224776 6.03533587 -2 8 C-2.99 8 -3.98 8 -5 8 C-4.67 8.99 -4.34 9.98 -4 11 C-5.28965176 12.37562854 -6.62689293 13.70766393 -8 15 C-10 15 -10 15 -13 14 C-11.02108364 11.85393535 -9.04187901 9.70813786 -7.0625 7.5625 C-6.49853516 6.95083984 -5.93457031 6.33917969 -5.35351562 5.70898438 C-4.81533203 5.12568359 -4.27714844 4.54238281 -3.72265625 3.94140625 C-3.22515869 3.40201416 -2.72766113 2.86262207 -2.21508789 2.30688477 C-1.48918929 1.52614632 -0.75381738 0.75381738 0 0 Z " fill="#EAEAEA" transform="translate(355,614)"/>
<path d="M0 0 C0.66 1.32 1.32 2.64 2 4 C0.36587557 5.70840281 -0.86906094 6.93453047 -3 8 C-3 9.32 -3 10.64 -3 12 C-3.66 12 -4.32 12 -5 12 C-5.33 12.99 -5.66 13.98 -6 15 C-8 14 -8 14 -10 10 C-6.7 6.7 -3.4 3.4 0 0 Z " fill="#F2F2F3" transform="translate(369,601)"/>
<path d="M0 0 C0.66 0.33 1.32 0.66 2 1 C-0.31 5.29 -2.62 9.58 -5 14 C-7.83870968 9.74193548 -7.83870968 9.74193548 -8 7 C-5.85376392 3.66141054 -3.82453562 1.27484521 0 0 Z " fill="#121212" transform="translate(681,584)"/>
<path d="M0 0 C1.32 0.66 2.64 1.32 4 2 C2 5 2 5 -1 6 C-1 6.66 -1 7.32 -1 8 C-0.01 7.67 0.98 7.34 2 7 C2 7.66 2 8.32 2 9 C1.236875 8.814375 0.47375 8.62875 -0.3125 8.4375 C-3.08967375 7.77180827 -3.08967375 7.77180827 -6 9 C-6 9.66 -6 10.32 -6 11 C-8 12.625 -8 12.625 -10 14 C-10.66 13.67 -11.32 13.34 -12 13 C-11.38511719 12.39671875 -10.77023437 11.7934375 -10.13671875 11.171875 C-9.32847656 10.37265625 -8.52023437 9.5734375 -7.6875 8.75 C-6.88699219 7.96109375 -6.08648438 7.1721875 -5.26171875 6.359375 C-3.31256349 4.32605933 -1.62578594 2.29398922 0 0 Z " fill="#EDEDED" transform="translate(659,621)"/>
<path d="M0 0 C2.64 0.66 5.28 1.32 8 2 C5 4 5 4 2.3125 5.4375 C1.549375 5.953125 0.78625 6.46875 0 7 C0 7.99 0 8.98 0 10 C-0.99 10 -1.98 10 -3 10 C-2.67 11.32 -2.34 12.64 -2 14 C-2.99 14.66 -3.98 15.32 -5 16 C-5.66 15.34 -6.32 14.68 -7 14 C-4.69 9.38 -2.38 4.76 0 0 Z " fill="#EDEDED" transform="translate(686,576)"/>
<path d="M0 0 C0 0.33 0 0.66 0 1 C-1.65 1 -3.3 1 -5 1 C-5 1.66 -5 2.32 -5 3 C-4.34 3.33 -3.68 3.66 -3 4 C-3.99 4 -4.98 4 -6 4 C-6.33 4.99 -6.66 5.98 -7 7 C-7.99 7 -8.98 7 -10 7 C-10.33 8.98 -10.66 10.96 -11 13 C-11.66 13 -12.32 13 -13 13 C-13.4786191 9.58129212 -13.79541019 7.06285246 -11.65234375 4.19921875 C-7.88994264 0.73450212 -5.2846978 -0.77337041 0 0 Z " fill="#232323" transform="translate(254,561)"/>
<path d="M0 0 C0.66 0.33 1.32 0.66 2 1 C2.33 0.67 2.66 0.34 3 0 C3.99 0 4.98 0 6 0 C6 1.65 6 3.3 6 5 C2.04 5.66 -1.92 6.32 -6 7 C-6 6.01 -6 5.02 -6 4 C-3 1.8125 -3 1.8125 0 0 Z " fill="#111111" transform="translate(498,536)"/>
<path d="M0 0 C11.72024504 -0.11465457 23.31068812 0.09710143 35 1 C35 1.33 35 1.66 35 2 C28.97403427 3.0712828 23.11090483 3.09945415 17 3 C17 2.34 17 1.68 17 1 C11.39 1 5.78 1 0 1 C0 0.67 0 0.34 0 0 Z " fill="#1B1B1B" transform="translate(528,513)"/>
<path d="M0 0 C-1.98 2.31 -3.96 4.62 -6 7 C-10 5 -10 5 -11 2 C-9 -1 -9 -1 -6.625 -1.8125 C-4 -2 -4 -2 0 0 Z " fill="#F5F5F5" transform="translate(732,689)"/>
<path d="M0 0 C0.99 0.66 1.98 1.32 3 2 C2.42415568 4.38564077 1.77772405 6.66682784 1 9 C-1.4375 10.125 -1.4375 10.125 -4 11 C-4.99 11.495 -4.99 11.495 -6 12 C-6.33 11.01 -6.66 10.02 -7 9 C-5.56640625 6.73828125 -5.56640625 6.73828125 -3.5625 4.3125 C-2.90378906 3.50425781 -2.24507812 2.69601562 -1.56640625 1.86328125 C-1.04949219 1.24839844 -0.53257812 0.63351562 0 0 Z " fill="#111111" transform="translate(747,669)"/>
<path d="M0 0 C0.66 0 1.32 0 2 0 C2.33663062 3.70293685 2.47736015 5.39534381 0.125 8.375 C-2 10 -2 10 -4 10 C-4.33 11.65 -4.66 13.3 -5 15 C-5.99 14.67 -6.98 14.34 -8 14 C-6.67997942 10.42705968 -5.10478612 7.36046508 -3 4.1875 C-2.484375 3.39730469 -1.96875 2.60710938 -1.4375 1.79296875 C-0.7259375 0.90544922 -0.7259375 0.90544922 0 0 Z " fill="#F2F2F2" transform="translate(675,598)"/>
<path d="M0 0 C0.33 0 0.66 0 1 0 C1.10845031 2.56364483 1.18749744 5.12266279 1.25 7.6875 C1.30027344 8.7693457 1.30027344 8.7693457 1.3515625 9.87304688 C1.42291404 13.77954343 1.27534719 15.56934334 -0.890625 18.95703125 C-3.58931755 21.57076496 -4.33481177 21.98669624 -8.125 22.0625 C-9.07375 22.041875 -10.0225 22.02125 -11 22 C-8.51014353 19.93697607 -6.34760768 18.15311291 -3.375 16.84375 C-0.61757165 15.11920918 -0.61757165 15.11920918 -0.29296875 11.42578125 C-0.23339267 10.05553137 -0.19902518 8.68399597 -0.1875 7.3125 C-0.16236328 6.61060547 -0.13722656 5.90871094 -0.11132812 5.18554688 C-0.05255552 3.45763219 -0.0233903 1.7287557 0 0 Z " fill="#DCDCDC" transform="translate(409,752)"/>
<path d="M0 0 C2.83967231 0 5.23735711 0.40267181 8 1 C4.83047153 4.26008643 1.60062011 7.22237877 -2 10 C-1.34 6.7 -0.68 3.4 0 0 Z " fill="#E4E4E4" transform="translate(345,438)"/>
<path d="M0 0 C0.99386719 0.00902344 1.98773438 0.01804687 3.01171875 0.02734375 C4.15060547 0.04474609 4.15060547 0.04474609 5.3125 0.0625 C4.9825 1.0525 4.6525 2.0425 4.3125 3.0625 C2.6728125 3.2790625 2.6728125 3.2790625 1 3.5 C-2.61872987 3.94538104 -2.61872987 3.94538104 -5.6875 5.0625 C-7.875 4.125 -7.875 4.125 -9.6875 3.0625 C-7.75082354 -0.81085293 -3.83275078 -0.04509119 0 0 Z " fill="#E4E4E4" transform="translate(401.6875,639.9375)"/>
<path d="M0 0 C0.66 0.99 1.32 1.98 2 3 C1.01 3.33 0.02 3.66 -1 4 C-0.67 5.98 -0.34 7.96 0 10 C-0.99 10.495 -0.99 10.495 -2 11 C-4.625 10.0625 -4.625 10.0625 -7 9 C-5.44499019 5.18315774 -2.96404505 2.80804268 0 0 Z " fill="#F1F1F1" transform="translate(352,468)"/>
<path d="M0 0 C0.66 0.33 1.32 0.66 2 1 C2 2.65 2 4.3 2 6 C-1.375 6.625 -1.375 6.625 -5 7 C-5.66 6.34 -6.32 5.68 -7 5 C-4.69 3.35 -2.38 1.7 0 0 Z " fill="#101010" transform="translate(691,727)"/>
<path d="M0 0 C5.875 4.625 5.875 4.625 7 8 C6.67 8.66 6.34 9.32 6 10 C5.34 10 4.68 10 4 10 C3.67 9.34 3.34 8.68 3 8 C2.01 8 1.02 8 0 8 C-0.38063221 5.6739143 -0.71269945 3.33944736 -1 1 C-0.67 0.67 -0.34 0.34 0 0 Z " fill="#F1F1F1" transform="translate(417,646)"/>
<path d="M0 0 C-2 2 -2 2 -5 3 C-5.66 3.66 -6.32 4.32 -7 5 C-10.125 4.625 -10.125 4.625 -13 4 C-9.25069324 -1.53469093 -6.33670639 -1.07604448 0 0 Z " fill="#DFDFDF" transform="translate(246,379)"/>
<path d="M0 0 C1.65 0.33 3.3 0.66 5 1 C5 1.99 5 2.98 5 4 C3.03125 5.60546875 3.03125 5.60546875 0.5 7.1875 C-0.3353125 7.71730469 -1.170625 8.24710938 -2.03125 8.79296875 C-2.6809375 9.19128906 -3.330625 9.58960938 -4 10 C-4.33 9.01 -4.66 8.02 -5 7 C-4.0409375 6.1028125 -4.0409375 6.1028125 -3.0625 5.1875 C-0.79689611 3.09189663 -0.79689611 3.09189663 0 0 Z " fill="#E9E9E9" transform="translate(679,729)"/>
<path d="M0 0 C3.86463725 0.41406828 6.12722 2.52621722 9 5 C8 6 8 6 5.0625 6.125 C2 6 2 6 0 5 C-0.6875 3 -0.6875 3 -1 1 C-0.67 0.67 -0.34 0.34 0 0 Z " fill="#EDEDED" transform="translate(236,393)"/>
<path d="M0 0 C0.99 0.66 1.98 1.32 3 2 C3.33 1.34 3.66 0.68 4 0 C5.32 0.66 6.64 1.32 8 2 C7.67 3.32 7.34 4.64 7 6 C4.36 5.67 1.72 5.34 -1 5 C-1 2 -1 2 0 0 Z " fill="#202020" transform="translate(350,305)"/>
<path d="M0 0 C0.66 0.33 1.32 0.66 2 1 C2 2.32 2 3.64 2 5 C1.21625 5.103125 0.4325 5.20625 -0.375 5.3125 C-3.33045181 5.77595022 -3.33045181 5.77595022 -5 9 C-5.33 9.99 -5.66 10.98 -6 12 C-7.32 11.34 -8.64 10.68 -10 10 C-6.7 6.7 -3.4 3.4 0 0 Z " fill="#252525" transform="translate(330,570)"/>
<path d="M0 0 C1.32 0.66 2.64 1.32 4 2 C2.02 4.31 0.04 6.62 -2 9 C-2.66 8.34 -3.32 7.68 -4 7 C-2.92598892 4.08482708 -2.22189824 2.22189824 0 0 Z " fill="#EEEEEE" transform="translate(717,698)"/>
<path d="M0 0 C0.66 0.66 1.32 1.32 2 2 C1.34 2 0.68 2 0 2 C0 3.65 0 5.3 0 7 C-4.19589427 8.16552619 -4.82091936 8.08954032 -9 6 C-6.03 4.02 -3.06 2.04 0 0 Z " fill="#171717" transform="translate(678,736)"/>
<path d="M0 0 C1.32 0.66 2.64 1.32 4 2 C3.01 4.31 2.02 6.62 1 9 C0.34 8.67 -0.32 8.34 -1 8 C-1 7.01 -1 6.02 -1 5 C-1.66 5 -2.32 5 -3 5 C-1.125 1.125 -1.125 1.125 0 0 Z " fill="#F4F4F4" transform="translate(764,634)"/>
<path d="M0 0 C0 0.33 0 0.66 0 1 C-1.093125 1.12375 -2.18625 1.2475 -3.3125 1.375 C-7.07381802 1.75464801 -7.07381802 1.75464801 -10 4 C-12.26171875 3.7578125 -12.26171875 3.7578125 -14.6875 3.125 C-15.49574219 2.92132812 -16.30398438 2.71765625 -17.13671875 2.5078125 C-17.75160156 2.34023438 -18.36648438 2.17265625 -19 2 C-19 1.67 -19 1.34 -19 1 C-12.63849395 0.34513908 -6.39628979 -0.12068471 0 0 Z " fill="#363636" transform="translate(512,513)"/>
<path d="M0 0 C0.33 0 0.66 0 1 0 C1.33 2.31 1.66 4.62 2 7 C0.68 7.33 -0.64 7.66 -2 8 C-2 8.66 -2 9.32 -2 10 C-3.32 10.33 -4.64 10.66 -6 11 C-6.33 10.34 -6.66 9.68 -7 9 C-6.21625 8.2575 -5.4325 7.515 -4.625 6.75 C-2.43495469 4.45566682 -1.17268614 2.87841142 0 0 Z " fill="#161616" transform="translate(476,445)"/>
<path d="M0 0 C0 2.66666667 0 5.33333333 0 8 C-2.875 8.125 -2.875 8.125 -6 8 C-6.66 7.34 -7.32 6.68 -8 6 C-5.36 4.02 -2.72 2.04 0 0 Z " fill="#ECECEC" transform="translate(631,648)"/>
<path d="M0 0 C0.66 1.32 1.32 2.64 2 4 C1.01 4.495 1.01 4.495 0 5 C-1.678298 6.31866272 -3.34614767 7.65080468 -5 9 C-6.32 8.34 -7.64 7.68 -9 7 C-8.01 6.34 -7.02 5.68 -6 5 C-3.96864317 3.36898357 -1.99068127 1.68101974 0 0 Z " fill="#D9D9D9" transform="translate(402,334)"/>
<path d="M0 0 C0.33 0.66 0.66 1.32 1 2 C0.67 2.66 0.34 3.32 0 4 C0.66 4.33 1.32 4.66 2 5 C1.071875 5.268125 0.14375 5.53625 -0.8125 5.8125 C-3.76240366 6.91148371 -5.05615186 7.62418561 -7 10 C-7.99 9.67 -8.98 9.34 -10 9 C-6.7 6.03 -3.4 3.06 0 0 Z " fill="#2A2A2A" transform="translate(352,549)"/>
<path d="M0 0 C2.25 0.25 2.25 0.25 4 1 C3 4 3 4 0.0625 5.6875 C-3 7 -3 7 -5 7 C-3.86873442 3.60620325 -2.77333918 2.21867135 0 0 Z " fill="#ECECEC" transform="translate(657,745)"/>
<path d="M0 0 C0.99 0.33 1.98 0.66 3 1 C2.34 1.66 1.68 2.32 1 3 C0.3574765 5.06874034 0.3574765 5.06874034 0 7 C-2.97 6.505 -2.97 6.505 -6 6 C-2.25 1.125 -2.25 1.125 0 0 Z " fill="#1B1B1B" transform="translate(711,710)"/>
<path d="M0 0 C0.99 0.33 1.98 0.66 3 1 C2.67 3.31 2.34 5.62 2 8 C1.401875 7.54625 0.80375 7.0925 0.1875 6.625 C-1.50590652 5.36704087 -3.24477086 4.17015276 -5 3 C-3.35 2.67 -1.7 2.34 0 2 C0 1.34 0 0.68 0 0 Z " fill="#EFEFEF" transform="translate(227,443)"/>
<path d="M0 0 C0.99 0.33 1.98 0.66 3 1 C1.68 2.32 0.36 3.64 -1 5 C0.32 5.66 1.64 6.32 3 7 C-0.75 8.125 -0.75 8.125 -3 7 C-3 6.34 -3 5.68 -3 5 C-3.66 4.67 -4.32 4.34 -5 4 C-2.6875 1.9375 -2.6875 1.9375 0 0 Z " fill="#E6E6E6" transform="translate(267,312)"/>
<path d="M0 0 C0.66 0.33 1.32 0.66 2 1 C1.39816251 3.02045442 0.72693904 5.02111039 0 7 C-2 8 -2 8 -5 8 C-4.45773019 4.20411134 -2.79872437 2.52788007 0 0 Z " fill="#E8E8E8" transform="translate(301,453)"/>
<path d="M0 0 C4.75 0.75 4.75 0.75 7 3 C6.625 5.125 6.625 5.125 6 7 C3.00675737 5.9024777 2.15389099 5.32317108 0.75 2.375 C0.5025 1.59125 0.255 0.8075 0 0 Z " fill="#EFEFEF" transform="translate(340,752)"/>
<path d="M0 0 C0.67095703 0.63228516 0.67095703 0.63228516 1.35546875 1.27734375 C5.98399766 5.5377979 5.98399766 5.5377979 12 7 C12 7.33 12 7.66 12 8 C7.91878361 8.3200954 5.62759043 8.37388366 2.0625 6.25 C0 4 0 4 0 0 Z " fill="#E4E4E4" transform="translate(258,645)"/>
<path d="M0 0 C0.67095703 0.63228516 0.67095703 0.63228516 1.35546875 1.27734375 C5.98399766 5.5377979 5.98399766 5.5377979 12 7 C12 7.33 12 7.66 12 8 C7.91878361 8.3200954 5.62759043 8.37388366 2.0625 6.25 C0 4 0 4 0 0 Z " fill="#E4E4E4" transform="translate(208,519)"/>
<path d="M0 0 C0 3 0 3 -1.96875 5.04296875 C-2.8040625 5.75066406 -3.639375 6.45835937 -4.5 7.1875 C-5.3353125 7.90292969 -6.170625 8.61835938 -7.03125 9.35546875 C-7.6809375 9.89816406 -8.330625 10.44085938 -9 11 C-9.66 10.67 -10.32 10.34 -11 10 C-3.70159453 2.51708428 -3.70159453 2.51708428 0 0 Z " fill="#E3E3E3" transform="translate(325,493)"/>
<path d="M0 0 C1.125 1.75 1.125 1.75 2 4 C1.125 6.25 1.125 6.25 0 8 C-2.475 7.01 -2.475 7.01 -5 6 C-3.35 4.02 -1.7 2.04 0 0 Z " fill="#101010" transform="translate(359,484)"/>
<path d="M0 0 C0.66 0 1.32 0 2 0 C3.7143618 1.95927063 5.38405168 3.95880212 7 6 C5.35 6.33 3.7 6.66 2 7 C2 6.34 2 5.68 2 5 C1.01 4.67 0.02 4.34 -1 4 C-0.67 2.68 -0.34 1.36 0 0 Z " fill="#ECECEC" transform="translate(210,460)"/>
<path d="M0 0 C0.33 0.66 0.66 1.32 1 2 C-0.375 3.5 -0.375 3.5 -2 5 C-2.66 5 -3.32 5 -4 5 C-4 4.34 -4 3.68 -4 3 C-5.65 3 -7.3 3 -9 3 C-9.33 3.99 -9.66 4.98 -10 6 C-10.33 4.35 -10.66 2.7 -11 1 C-10.06027344 1.01740234 -10.06027344 1.01740234 -9.1015625 1.03515625 C-7.87566406 1.04869141 -7.87566406 1.04869141 -6.625 1.0625 C-5.40683594 1.07990234 -5.40683594 1.07990234 -4.1640625 1.09765625 C-1.95062858 1.14466334 -1.95062858 1.14466334 0 0 Z " fill="#DEDEDE" transform="translate(285,343)"/>
<path d="M0 0 C0.33 0.66 0.66 1.32 1 2 C0.06553465 4.03144641 -0.93224776 6.03533587 -2 8 C-3.65 8 -5.3 8 -7 8 C-6.02133662 6.85373678 -5.04205413 5.70800212 -4.0625 4.5625 C-3.51722656 3.92441406 -2.97195313 3.28632812 -2.41015625 2.62890625 C-1.63204305 1.73008851 -0.84063472 0.84063472 0 0 Z " fill="#CFCFCF" transform="translate(355,614)"/>
<path d="M0 0 C2.12508244 3.18762365 2.5020163 5.26512223 3 9 C2.01 9.33 1.02 9.66 0 10 C-1.2380014 6.42355152 -0.74926071 3.66305234 0 0 Z " fill="#DEDEDE" transform="translate(778,406)"/>
<path d="M0 0 C4.95 0.99 4.95 0.99 10 2 C9.67 3.32 9.34 4.64 9 6 C5.625 5.25 5.625 5.25 2 4 C1.34 2.68 0.68 1.36 0 0 Z " fill="#D6D6D6" transform="translate(389,409)"/>
<path d="M0 0 C0.66 0.33 1.32 0.66 2 1 C1.34 2.65 0.68 4.3 0 6 C-1.32 6 -2.64 6 -4 6 C-6.20067421 6.93283296 -6.20067421 6.93283296 -8 8 C-3.375 2.25 -3.375 2.25 0 0 Z " fill="#D9D9D9" transform="translate(279,386)"/>
<path d="M0 0 C-0.66 1.98 -1.32 3.96 -2 6 C-4.31 6 -6.62 6 -9 6 C-3.15384615 0 -3.15384615 0 0 0 Z " fill="#E1E1E1" transform="translate(345,277)"/>
<path d="M0 0 C2.64 1.98 5.28 3.96 8 6 C7.34 6.66 6.68 7.32 6 8 C5.566875 7.505 5.13375 7.01 4.6875 6.5 C3.00259517 4.66781808 3.00259517 4.66781808 0 5 C-0.5625 3.0625 -0.5625 3.0625 -1 1 C-0.67 0.67 -0.34 0.34 0 0 Z " fill="#EFEFEF" transform="translate(409,487)"/>
<path d="M0 0 C2.0625 1.6875 2.0625 1.6875 4 4 C3.83849795 7.39154295 3.41703243 8.58296757 1 11 C-0.17571451 7.32589215 -0.07366746 3.83070817 0 0 Z " fill="#D8D8D8" transform="translate(195,453)"/>
<path d="M0 0 C0.99 0.66 1.98 1.32 3 2 C2.443125 2.20625 1.88625 2.4125 1.3125 2.625 C-1.92501302 4.55000774 -3.68231141 7.03850902 -6 10 C-6.33 9.01 -6.66 8.02 -7 7 C-4.69 4.69 -2.38 2.38 0 0 Z " fill="#EBEBEB" transform="translate(249,420)"/>
<path d="M0 0 C0.99 0.33 1.98 0.66 3 1 C3 1.66 3 2.32 3 3 C3.99 3.33 4.98 3.66 6 4 C5.67 4.99 5.34 5.98 5 7 C3.0625 6.3125 3.0625 6.3125 1 5 C0.25 2.375 0.25 2.375 0 0 Z " fill="#1A1A1A" transform="translate(270,337)"/>
<path d="M0 0 C0.33 0.66 0.66 1.32 1 2 C-1.31 2.66 -3.62 3.32 -6 4 C-6 3.01 -6 2.02 -6 1 C-6.99 0.67 -7.98 0.34 -9 0 C-5.88173308 -1.55913346 -3.32926126 -0.66585225 0 0 Z " fill="#EDEDED" transform="translate(626,763)"/>
<path d="M0 0 C0.66 0.33 1.32 0.66 2 1 C2.33 1.99 2.66 2.98 3 4 C2.34 4.66 1.68 5.32 1 6 C-1.625 5.625 -1.625 5.625 -4 5 C-2.68 3.35 -1.36 1.7 0 0 Z " fill="#E7E7E7" transform="translate(638,642)"/>
<path d="M0 0 C2.64 0.66 5.28 1.32 8 2 C5.33440687 3.77706209 2.9719385 4.87548273 0 6 C0 4.02 0 2.04 0 0 Z " fill="#E0E0E0" transform="translate(686,576)"/>
<path d="M0 0 C0.66 0.33 1.32 0.66 2 1 C1.34 3.64 0.68 6.28 0 9 C-0.66 9 -1.32 9 -2 9 C-2.125 5.625 -2.125 5.625 -2 2 C-1.34 1.34 -0.68 0.68 0 0 Z " fill="#292929" transform="translate(243,565)"/>
<path d="M0 0 C0.66 0 1.32 0 2 0 C1.67 2.31 1.34 4.62 1 7 C0.34 7 -0.32 7 -1 7 C-1.33 7.66 -1.66 8.32 -2 9 C-2.33 8.34 -2.66 7.68 -3 7 C-2.06421005 4.64018187 -1.06652192 2.30368736 0 0 Z " fill="#E8E8E8" transform="translate(349,428)"/>
<path d="M0 0 C4.455 0.99 4.455 0.99 9 2 C8.01 3.32 7.02 4.64 6 6 C5.01 5.67 4.02 5.34 3 5 C3 4.34 3 3.68 3 3 C2.01 3 1.02 3 0 3 C0 2.01 0 1.02 0 0 Z " fill="#E5E5E5" transform="translate(588,241)"/>
<path d="M0 0 C-0.375 1.9375 -0.375 1.9375 -1 4 C-3.70879335 5.35439668 -6.00933268 5.06501451 -9 5 C-2.87096774 0 -2.87096774 0 0 0 Z " fill="#E4E4E4" transform="translate(407,769)"/>
<path d="M0 0 C0.515625 0.37125 1.03125 0.7425 1.5625 1.125 C1.2325 1.785 0.9025 2.445 0.5625 3.125 C-2.7375 2.795 -6.0375 2.465 -9.4375 2.125 C-9.4375 1.795 -9.4375 1.465 -9.4375 1.125 C-3.0375 -1.09038462 -3.0375 -1.09038462 0 0 Z " fill="#181818" transform="translate(224.4375,525.875)"/>
<path d="M0 0 C2.97 0 5.94 0 9 0 C9.33 1.32 9.66 2.64 10 4 C8.51882199 3.71872579 7.04006751 3.42466268 5.5625 3.125 C4.73878906 2.96257812 3.91507813 2.80015625 3.06640625 2.6328125 C2.38449219 2.42398437 1.70257812 2.21515625 1 2 C0.67 1.34 0.34 0.68 0 0 Z " fill="#7C7C7C" transform="translate(629,509)"/>
<path d="M0 0 C1.65 0 3.3 0 5 0 C4.8125 1.875 4.8125 1.875 4 4 C1.4375 5.25 1.4375 5.25 -1 6 C-0.67 4.02 -0.34 2.04 0 0 Z " fill="#EEEEEE" transform="translate(232,473)"/>
<path d="M0 0 C1.32 1.65 2.64 3.3 4 5 C1.38058783 6.74627478 -0.03824877 7.38722388 -3 8 C-2.690625 7.236875 -2.38125 6.47375 -2.0625 5.6875 C-1.32106407 3.81210323 -0.63771783 1.91315348 0 0 Z " fill="#DEDEDE" transform="translate(243,448)"/>
<path d="M0 0 C-0.33 0.66 -0.66 1.32 -1 2 C-2.65 2 -4.3 2 -6 2 C-6 2.66 -6 3.32 -6 4 C-7.9375 3.625 -7.9375 3.625 -10 3 C-10.33 2.34 -10.66 1.68 -11 1 C-7.27569643 0.30710631 -3.78916254 -0.11144596 0 0 Z " fill="#212121" transform="translate(403,419)"/>
<path d="M0 0 C1.65 1.65 3.3 3.3 5 5 C3 6 3 6 -0.0625 5.1875 C-3 4 -3 4 -4 2 C-2.68 1.34 -1.36 0.68 0 0 Z " fill="#E8E8E8" transform="translate(617,658)"/>
<path d="M0 0 C0.66 0.66 1.32 1.32 2 2 C-1.465 4.97 -1.465 4.97 -5 8 C-5.33 7.34 -5.66 6.68 -6 6 C-5.34 6 -4.68 6 -4 6 C-3.71125 5.195625 -3.4225 4.39125 -3.125 3.5625 C-2 1 -2 1 0 0 Z " fill="#DCDCDC" transform="translate(374,616)"/>
<path d="M0 0 C0.66 1.32 1.32 2.64 2 4 C1.01 4.99 0.02 5.98 -1 7 C-2.32 5.02 -3.64 3.04 -5 1 C-3.68 1.33 -2.36 1.66 -1 2 C-0.67 1.34 -0.34 0.68 0 0 Z " fill="#EBEBEB" transform="translate(261,561)"/>
<path d="M0 0 C-0.66 1.65 -1.32 3.3 -2 5 C-5 5 -5 5 -8 4 C-2.25 0 -2.25 0 0 0 Z " fill="#D9D9D9" transform="translate(455,422)"/>
<path d="M0 0 C0.99 0.33 1.98 0.66 3 1 C1.02 1.99 1.02 1.99 -1 3 C-0.67 2.01 -0.34 1.02 0 0 Z M-2 3 C-1.67 3.99 -1.34 4.98 -1 6 C-1.99 6.99 -2.98 7.98 -4 9 C-4.66 8.67 -5.32 8.34 -6 8 C-4.68 6.35 -3.36 4.7 -2 3 Z " fill="#E2E2E2" transform="translate(360,410)"/>
<path d="M0 0 C1.65 0.99 3.3 1.98 5 3 C4.67 3.66 4.34 4.32 4 5 C2.35 4.67 0.7 4.34 -1 4 C-1 1 -1 1 0 0 Z " fill="#EEEEEE" transform="translate(689,291)"/>
<path d="M0 0 C0.66 0.33 1.32 0.66 2 1 C2 3 2 5 2 7 C0.35 6.67 -1.3 6.34 -3 6 C-1.125 1.125 -1.125 1.125 0 0 Z " fill="#E0E0E0" transform="translate(413,243)"/>
<path d="M0 0 C0.99 0.33 1.98 0.66 3 1 C2.67 2.65 2.34 4.3 2 6 C-0.475 5.01 -0.475 5.01 -3 4 C-2.01 2.68 -1.02 1.36 0 0 Z " fill="#E7E7E7" transform="translate(410,671)"/>
<path d="M0 0 C0.99 0.66 1.98 1.32 3 2 C0.03 4.475 0.03 4.475 -3 7 C-3.33 5.68 -3.66 4.36 -4 3 C-3.34 3 -2.68 3 -2 3 C-1.34 2.01 -0.68 1.02 0 0 Z " fill="#DCE1E1" transform="translate(404,585)"/>
<path d="M0 0 C0.68707555 2.49064888 1 4.37886292 1 7 C0.01 7.495 0.01 7.495 -1 8 C-1.66 6.02 -2.32 4.04 -3 2 C-2.01 1.34 -1.02 0.68 0 0 Z " fill="#EBEBEB" transform="translate(390,485)"/>
<path d="M0 0 C2.875 0.3125 2.875 0.3125 6 1 C6.66 1.99 7.32 2.98 8 4 C7.01 4.495 7.01 4.495 6 5 C5.67 4.34 5.34 3.68 5 3 C4.01 3.99 3.02 4.98 2 6 C2.33 4.68 2.66 3.36 3 2 C2.01 1.67 1.02 1.34 0 1 C0 0.67 0 0.34 0 0 Z " fill="#E0E0E0" transform="translate(465,424)"/>
<path d="M0 0 C1.32 0.33 2.64 0.66 4 1 C3.34 2.32 2.68 3.64 2 5 C0.35 4.67 -1.3 4.34 -3 4 C-2.01 2.68 -1.02 1.36 0 0 Z " fill="#E9E9E9" transform="translate(365,404)"/>
<path d="M0 0 C1.32 0 2.64 0 4 0 C4 0.99 4 1.98 4 3 C2 4.6875 2 4.6875 0 6 C-1.125 2.25 -1.125 2.25 0 0 Z " fill="#181818" transform="translate(346,295)"/>
<path d="M0 0 C0.33 0.66 0.66 1.32 1 2 C2.65 2 4.3 2 6 2 C6.33 2.66 6.66 3.32 7 4 C4.69 4.33 2.38 4.66 0 5 C-0.33 4.01 -0.66 3.02 -1 2 C-0.67 1.34 -0.34 0.68 0 0 Z " fill="#E7E7E7" transform="translate(421,290)"/>
<path d="M0 0 C1.32 0.33 2.64 0.66 4 1 C4 1.99 4 2.98 4 4 C2 5.6875 2 5.6875 0 7 C0 4.69 0 2.38 0 0 Z " fill="#ECECEC" transform="translate(299,713)"/>
<path d="M0 0 C0.99 0.99 1.98 1.98 3 3 C1.68 4.32 0.36 5.64 -1 7 C-1.625 5.1875 -1.625 5.1875 -2 3 C-1.34 2.01 -0.68 1.02 0 0 Z " fill="#1B1B1B" transform="translate(755,657)"/>
<path d="M0 0 C0.33 0.66 0.66 1.32 1 2 C1.66 2.33 2.32 2.66 3 3 C2.34 4.32 1.68 5.64 1 7 C0.01 6.01 -0.98 5.02 -2 4 C-1.34 2.68 -0.68 1.36 0 0 Z " fill="#F2F2F2" transform="translate(412,656)"/>
<path d="M0 0 C0.66 0.33 1.32 0.66 2 1 C0.515 3.475 0.515 3.475 -1 6 C-1.99 5.34 -2.98 4.68 -4 4 C-3.67 3.01 -3.34 2.02 -3 1 C-2.01 0.67 -1.02 0.34 0 0 Z " fill="#1B1B1B" transform="translate(681,584)"/>
<path d="M0 0 C0.99 0.33 1.98 0.66 3 1 C2.67 2.32 2.34 3.64 2 5 C1.01 5 0.02 5 -1 5 C-1.33 4.34 -1.66 3.68 -2 3 C-1.34 2.01 -0.68 1.02 0 0 Z " fill="#141414" transform="translate(273,583)"/>
<path d="M0 0 C2.88437779 1.29299694 4.87219421 2.65941363 7 5 C6.01 5 5.02 5 4 5 C3.67 5.66 3.34 6.32 3 7 C2.34 7 1.68 7 1 7 C1.33 5.35 1.66 3.7 2 2 C1.34 2 0.68 2 0 2 C0 1.34 0 0.68 0 0 Z " fill="#F4F4F4" transform="translate(484,544)"/>
<path d="M0 0 C1.32 0.66 2.64 1.32 4 2 C2.68 3.32 1.36 4.64 0 6 C-0.38218767 4.34385343 -0.71395102 2.67542976 -1 1 C-0.67 0.67 -0.34 0.34 0 0 Z " fill="#191919" transform="translate(329,543)"/>
<path d="M0 0 C2.64 0 5.28 0 8 0 C8 0.66 8 1.32 8 2 C9.65 2 11.3 2 13 2 C13 2.33 13 2.66 13 3 C8.17639811 3.19294408 4.50353262 2.75747614 0 1 C0 0.67 0 0.34 0 0 Z " fill="#8E8E8E" transform="translate(604,503)"/>
<path d="M0 0 C0.66 1.32 1.32 2.64 2 4 C-1 6 -1 6 -3.1875 5.625 C-3.785625 5.41875 -4.38375 5.2125 -5 5 C-3.35 3.35 -1.7 1.7 0 0 Z " fill="#E6E6E6" transform="translate(377,392)"/>
<path d="M0 0 C0.99 0.33 1.98 0.66 3 1 C3 1.99 3 2.98 3 4 C2.34 4 1.68 4 1 4 C1 4.66 1 5.32 1 6 C0.34 6 -0.32 6 -1 6 C-1.042721 4.33388095 -1.04063832 2.66617115 -1 1 C-0.67 0.67 -0.34 0.34 0 0 Z " fill="#F2F2F2" transform="translate(514,328)"/>
<path d="M0 0 C2.6875 0.3125 2.6875 0.3125 5 1 C5 1.66 5 2.32 5 3 C2.36 3 -0.28 3 -3 3 C-1.8125 1.4375 -1.8125 1.4375 0 0 Z " fill="#0A0A0A" transform="translate(398,774)"/>
<path d="M0 0 C1 3 1 3 0.0625 5.0625 C-0.288125 5.701875 -0.63875 6.34125 -1 7 C-1 7.66 -1 8.32 -1 9 C-1.99 8.67 -2.98 8.34 -4 8 C-2.87548273 5.0280615 -1.77706209 2.66559313 0 0 Z " fill="#E7E7E7" transform="translate(671,604)"/>
<path d="M0 0 C0.99 0.33 1.98 0.66 3 1 C3 1.66 3 2.32 3 3 C3.66 3.66 4.32 4.32 5 5 C4.01 5.495 4.01 5.495 3 6 C1.68 5.01 0.36 4.02 -1 3 C-0.67 2.01 -0.34 1.02 0 0 Z " fill="#E7E7E7" transform="translate(235,588)"/>
<path d="M0 0 C0.66 0.33 1.32 0.66 2 1 C0.515 3.475 0.515 3.475 -1 6 C-2.32 5.34 -3.64 4.68 -5 4 C-3.35 2.68 -1.7 1.36 0 0 Z " fill="#E2E2E2" transform="translate(358,463)"/>
<path d="M0 0 C-2.61941217 1.74627478 -4.03824877 2.38722388 -7 3 C-7.33 2.01 -7.66 1.02 -8 0 C-5.13822943 -1.43088528 -3.06624227 -0.59991697 0 0 Z " fill="#EAEAEA" transform="translate(351,372)"/>
<path d="M0 0 C-0.66 1.98 -1.32 3.96 -2 6 C-2.99 5.67 -3.98 5.34 -5 5 C-5 4.01 -5 3.02 -5 2 C-2 0 -2 0 0 0 Z " fill="#E7E7E7" transform="translate(303,344)"/>
</svg>
