<?xml version="1.0" encoding="UTF-8"?>
<svg version="1.1" xmlns="http://www.w3.org/2000/svg" width="2821" height="452">
<path d="M0 0 C22.11 0 44.22 0 67 0 C83.94179641 36.77609465 83.94179641 36.77609465 91.90087891 54.60571289 C96.33724041 64.53942362 100.82034023 74.45157048 105.31066895 84.36099243 C107.77443722 89.8009231 110.23297988 95.24321765 112.69168091 100.68544006 C114.37214362 104.40401285 116.05367958 108.1220323 117.74658203 111.83496094 C124.62568868 126.92926223 131.01382231 142.19345185 137.25 157.5625 C137.63706116 158.51447266 138.02412231 159.46644531 138.4229126 160.44726562 C139.52072885 163.15188939 140.61306153 165.85864984 141.703125 168.56640625 C142.03684113 169.38899429 142.37055725 170.21158234 142.71438599 171.05909729 C145 176.76840856 145 176.76840856 145 179 C145.66 179 146.32 179 147 179 C147.3609375 177.86304688 147.721875 176.72609375 148.09375 175.5546875 C150.62599652 167.97855924 153.57628605 160.55646573 156.5 153.125 C156.82335327 152.30276947 157.14670654 151.48053894 157.4798584 150.63339233 C164.59473917 132.60631211 172.39753454 114.90507668 180.32148743 97.22203064 C184.41430048 88.0883823 188.45430501 78.93171871 192.49176025 69.77349854 C195.60672526 62.7112046 198.73101883 55.65302726 201.85308838 48.59387207 C203.00461517 45.98956227 204.15545222 43.38494858 205.30615234 40.78027344 C207.14794628 36.61182919 208.99230097 32.44452672 210.83853149 28.27804565 C211.51756356 26.74466038 212.1957958 25.21092062 212.87313843 23.67678833 C213.80639259 21.56346339 214.74268126 19.45150725 215.6796875 17.33984375 C216.46448486 15.56661743 216.46448486 15.56661743 217.26513672 13.75756836 C219.40540399 9.12192895 221.71658603 4.56682793 224 0 C245.78 0 267.56 0 290 0 C290 86.46 290 172.92 290 262 C272.18 262 254.36 262 236 262 C235.90856243 245.41885145 235.83537322 228.83792892 235.79275131 212.25659561 C235.77240684 204.55199155 235.74473418 196.84756058 235.69824219 189.14306641 C235.49187624 154.23186412 235.73921036 119.71588544 240 85 C240.28806507 82.65048409 240.57552332 80.30091573 240.85949326 77.95090103 C241.0346602 76.50579149 241.21326611 75.06109245 241.3961525 73.61693954 C241.87172713 69.7197198 242.08456632 65.92515171 242 62 C240.26808768 65.87377825 238.53952811 69.7490418 236.8125 73.625 C236.54401245 74.22755615 236.2755249 74.8301123 235.99890137 75.45092773 C232.38745481 83.56190766 228.82732287 91.69263842 225.32006836 99.84936523 C217.8304304 117.26385075 209.98149747 134.50248511 202.05004883 151.71954346 C200.28619418 155.55021662 198.52594664 159.38254608 196.765625 163.21484375 C194.6382762 167.84615814 192.51067098 172.47735172 190.38061523 177.10742188 C186.7676169 184.96265298 183.16542471 192.8226214 179.58203125 200.69140625 C178.85807687 202.27994972 178.13411859 203.86849141 177.41015625 205.45703125 C176.05486447 208.43119568 174.70239111 211.40661883 173.3515625 214.3828125 C172.73057098 215.74614032 172.10948221 217.10942385 171.48828125 218.47265625 C170.95759033 219.64062744 170.42689941 220.80859863 169.88012695 222.01196289 C167.34649569 227.38618268 164.65712347 232.68575306 162 238 C150.45 238 138.9 238 127 238 C122.13681771 228.38537155 117.42881233 218.75118086 113.01611328 208.921875 C111.4165737 205.35994137 109.80548942 201.80322833 108.1953125 198.24609375 C107.85695374 197.49810516 107.51859497 196.75011658 107.16998291 195.97946167 C103.5377696 187.96018008 99.84406016 179.9695506 96.14706421 171.97998047 C93.84453313 167.00185277 91.54785783 162.0210199 89.25038147 157.04055786 C87.54077304 153.33525709 85.82966921 149.63068583 84.11181641 145.92919922 C72.58067246 121.07227611 61.89774898 95.85633383 51.23701477 70.61709595 C50.82444931 69.64138641 50.41188385 68.66567688 49.98681641 67.66040039 C49.44512314 66.37740807 49.44512314 66.37740807 48.89248657 65.0684967 C48.29994304 63.69517145 47.66889911 62.33779822 47 61 C47.11069824 62.03068604 47.22139648 63.06137207 47.33544922 64.12329102 C47.75898259 68.07259054 48.17943873 72.02221337 48.59912109 75.97192383 C48.77866419 77.65788112 48.95896303 79.34375817 49.14013672 81.02954102 C49.68324995 86.08595555 50.20490262 91.14412081 50.71388245 96.20407867 C50.89373917 97.96162642 51.07858173 99.71867837 51.27061462 101.47493744 C53.13747528 118.58179668 53.26873593 135.62057556 53.20278788 152.8040626 C53.19006511 156.69436447 53.18909342 160.58467138 53.18673706 164.47499084 C53.18058428 171.80181794 53.16425991 179.12858352 53.14403808 186.45538384 C53.12148285 194.81366965 53.11063694 203.1719588 53.10064721 211.5302676 C53.07988617 228.68688032 53.04483448 245.8434336 53 263 C45.61271898 263.02526692 38.22544902 263.0428316 30.83813477 263.05493164 C28.32283105 263.05997363 25.80753028 263.06680703 23.29223633 263.07543945 C19.68570225 263.08751094 16.07920677 263.09322949 12.47265625 263.09765625 C10.77424339 263.10539818 10.77424339 263.10539818 9.04151917 263.11329651 C8.00051559 263.11337204 6.95951202 263.11344757 5.88696289 263.11352539 C4.96540909 263.115746 4.04385529 263.11796661 3.09437561 263.12025452 C1 263 1 263 0 262 C-0.09652896 260.59778706 -0.12371873 259.19073248 -0.12304783 257.78520107 C-0.12503888 256.87056038 -0.12702993 255.95591969 -0.12908131 255.01356262 C-0.12616847 253.99704701 -0.12325563 252.9805314 -0.12025452 251.93321228 C-0.12110894 250.86246714 -0.12196337 249.79172199 -0.12284368 248.68853003 C-0.12450166 245.07090122 -0.11897193 241.45331795 -0.11352539 237.83569336 C-0.11324356 235.2542979 -0.11340117 232.67290237 -0.1139679 230.09150696 C-0.11449331 224.51864582 -0.11134467 218.94579636 -0.10573006 213.37293816 C-0.09761745 205.31543194 -0.09500008 197.25793138 -0.09374207 189.20042152 C-0.09155117 176.12897247 -0.08489006 163.05752965 -0.07543945 149.98608398 C-0.06626631 137.28523795 -0.059185 124.5843936 -0.05493164 111.88354492 C-0.05466892 111.1012148 -0.05440619 110.31888469 -0.05413551 109.51284759 C-0.05283051 105.58829157 -0.05156679 101.66373554 -0.05032361 97.73917949 C-0.03994982 65.15944748 -0.02151089 32.57972704 0 0 Z " fill="#000000" transform="translate(2531,8)"/>
<path d="M0 0 C180.16129032 0 180.16129032 0 209 27.9375 C219.86591196 39.55278519 222.81045498 53.82983625 222.34765625 69.265625 C221.40527956 86.05952075 212.92331749 98.77113199 200.87890625 109.97265625 C194.17868478 115.56641913 186.25197277 119.24934241 178 122 C178.53254395 122.1451001 179.06508789 122.2902002 179.61376953 122.43969727 C194.81971027 126.63957352 209.00234364 131.27869006 221 142 C221.69738281 142.61617187 222.39476562 143.23234375 223.11328125 143.8671875 C234.57293446 154.61465887 239.63260788 168.8997982 240.25 184.4375 C240.00566087 202.24710743 233.70957435 218.03107406 221.5 231 C205.95595188 246.00804646 184.91952631 253.94831592 164.0625 258.1875 C163.30122803 258.34234863 162.53995605 258.49719727 161.75561523 258.65673828 C159.17662115 259.15014841 156.59123405 259.57527135 154 260 C153.03899887 260.17093674 152.07799774 260.34187347 151.08787537 260.51799011 C136.95114409 262.67738113 122.67684977 262.25811099 108.41564941 262.20256042 C104.96980439 262.19102798 101.52398959 262.19062655 98.078125 262.18920898 C88.05206591 262.17878396 78.02603116 262.15086152 68 262.125 C45.56 262.08375 23.12 262.0425 0 262 C0 175.54 0 89.08 0 0 Z M59 37 C59 60.43 59 83.86 59 108 C67.311875 108.061875 75.62375 108.12375 84.1875 108.1875 C86.76328857 108.21481201 89.33907715 108.24212402 91.99291992 108.27026367 C125.75352086 108.76467705 125.75352086 108.76467705 155 94 C160.90997597 88.14411992 164.32973864 82.21363752 164.46850586 73.79638672 C164.45827393 73.0798291 164.44804199 72.36327148 164.4375 71.625 C164.42505249 70.50182373 164.42505249 70.50182373 164.41235352 69.35595703 C164.17246233 61.50016101 162.15886286 56.12095873 156.875 50.25 C138.85821098 33.68988754 108.95582457 36.73052789 86.5 36.875 C77.425 36.91625 68.35 36.9575 59 37 Z M59 144 C59 170.73 59 197.46 59 225 C75.273125 225.0928125 75.273125 225.0928125 91.875 225.1875 C95.26120605 225.21481201 98.64741211 225.24212402 102.13623047 225.27026367 C139.94423624 225.56058924 139.94423624 225.56058924 172.4375 208.125 C179.7870074 200.23442458 182.53570245 190.81246802 182.30859375 180.125 C181.30777953 169.99017249 176.70176696 162.79311884 169.0390625 156.3515625 C147.59447587 140.64679088 117.32686494 143.61224896 92.25 143.8125 C81.2775 143.874375 70.305 143.93625 59 144 Z " fill="#000000" transform="translate(1062,8)"/>
<path d="M0 0 C183.51212522 0 183.51212522 0 213.59521484 28.55224609 C226.52730489 41.87989537 231.80024815 59.80785442 232.375 78 C231.67442273 99.30922525 224.31045484 117.2990318 208.8125 132.25 C197.02360672 142.52200072 182.37011056 148.28979029 168 154 C174.63670266 163.86135177 181.35733603 173.61736752 188.55004883 183.08251953 C192.63344817 188.46947331 196.54576642 193.96300271 200.42553711 199.49780273 C204.11590687 204.75920704 207.85568275 209.98238391 211.625 215.1875 C215.43309365 220.44680274 219.23230529 225.71166956 223 231 C226.95986023 236.55563706 230.94400162 242.09349503 234.9375 247.625 C235.49373047 248.39585937 236.04996094 249.16671875 236.62304688 249.9609375 C237.14833984 250.68796875 237.67363281 251.415 238.21484375 252.1640625 C238.91275024 253.13013428 238.91275024 253.13013428 239.62475586 254.11572266 C240.61300451 255.4697619 241.63361272 256.80040154 242.67407227 258.11474609 C244 260 244 260 244 262 C235.53326263 262.25561453 227.06815273 262.45067599 218.59850311 262.56993389 C214.66486244 262.62719432 210.73387249 262.70474639 206.80175781 262.82983398 C203.00192061 262.94994791 199.20462017 263.01523852 195.4030304 263.04364967 C193.95787098 263.06387473 192.51284076 263.10337863 191.06877136 263.16303062 C179.78034275 263.61050739 179.78034275 263.61050739 175.39338684 259.64204407 C173.34005492 256.84559346 171.65186725 254.0469065 170 251 C168.93862475 249.43164131 167.86234681 247.87309721 166.76171875 246.33203125 C165.73536782 244.82661815 164.71065139 243.3200895 163.6875 241.8125 C162.55875364 240.15614103 161.42984477 238.49989279 160.30078125 236.84375 C159.74600098 236.0290625 159.1912207 235.214375 158.61962891 234.375 C156.21417396 230.84767625 153.79557978 227.3294549 151.375 223.8125 C150.47004009 222.49740408 149.5650921 221.18229997 148.66015625 219.8671875 C148.21816895 219.22491211 147.77618164 218.58263672 147.32080078 217.92089844 C146.02354442 216.03424168 144.72825495 214.14625084 143.43359375 212.2578125 C137.35957407 203.40224307 131.23974621 194.57923585 125.09692383 185.77124023 C119.36027407 177.53924685 113.68484056 169.268859 108 161 C83.745 160.505 83.745 160.505 59 160 C59 193.66 59 227.32 59 262 C39.53 262 20.06 262 0 262 C0 175.54 0 89.08 0 0 Z M59 38 C59 65.72 59 93.44 59 122 C68.69375 122.061875 78.3875 122.12375 88.375 122.1875 C91.39575684 122.21481201 94.41651367 122.24212402 97.52880859 122.27026367 C120.49055351 122.39172531 144.8999429 122.22659543 163 106 C165.40301165 103.50668729 167.25910248 100.98919381 169 98 C169.61681641 96.99839844 169.61681641 96.99839844 170.24609375 95.9765625 C174.85162563 86.8929875 174.38447013 74.51012078 172.3046875 64.73046875 C168.80610701 55.16082211 162.07666423 49.26167633 153 45 C132.08956225 36.79893991 110.55655499 37.74207511 88.4375 37.875 C78.723125 37.91625 69.00875 37.9575 59 38 Z " fill="#000000" transform="translate(1360,8)"/>
<path d="M0 0 C1.15790039 -0.00315216 2.31580078 -0.00630432 3.50878906 -0.009552 C4.76916992 -0.00752777 6.02955078 -0.00550354 7.328125 -0.00341797 C8.61170898 -0.00437469 9.89529297 -0.00533142 11.21777344 -0.00631714 C13.93816324 -0.00779378 16.65852025 -0.00564066 19.37890625 -0.00097656 C22.87297169 0.00472073 26.36696033 0.00144154 29.86102295 -0.00454903 C33.18339653 -0.00902301 36.50574923 -0.00589432 39.828125 -0.00341797 C41.08850586 -0.0054422 42.34888672 -0.00746643 43.64746094 -0.009552 C44.80536133 -0.00639984 45.96326172 -0.00324768 47.15625 0 C48.18137695 0.00079559 49.20650391 0.00159119 50.26269531 0.00241089 C52.578125 0.12939453 52.578125 0.12939453 53.578125 1.12939453 C53.67853823 3.25315923 53.70722602 5.38031843 53.70942688 7.50645447 C53.71154259 8.1806455 53.71365831 8.85483654 53.71583813 9.54945761 C53.72186591 11.82603785 53.72083596 14.10256309 53.7199707 16.37915039 C53.72300078 18.0052449 53.72652181 19.63133856 53.73049927 21.25743103 C53.73840707 24.77090996 53.74354055 28.28437865 53.74678993 31.79786491 C53.75269856 37.36873858 53.76924274 42.93954827 53.78813171 48.51039124 C53.7944702 50.41880317 53.80079581 52.32721515 53.80710888 54.23562717 C53.81027469 55.19184408 53.8134405 56.14806099 53.81670225 57.13325417 C53.85871476 70.10518169 53.89168559 83.07708137 53.90405273 96.04907227 C53.91247418 104.79243832 53.93512427 113.53564778 53.9734084 122.27893549 C53.99305114 126.90065461 54.00561367 131.52214026 54.00057411 136.14390373 C53.99587433 140.50821411 54.01001866 144.87208515 54.03758621 149.23630714 C54.0444126 150.82355176 54.04471893 152.41084267 54.03738594 153.99808502 C53.95144842 174.7217783 58.02080291 194.75953984 72.5703125 210.25048828 C85.97878155 223.24147753 103.97796858 225.62329053 121.84936523 225.4831543 C138.74684582 225.04837799 154.78439607 220.62206628 167.578125 209.12939453 C182.52893647 192.98666395 185.03426152 171.01243908 185.01049805 149.98291016 C185.01954253 148.33524352 185.02987619 146.68758354 185.04138184 145.03993225 C185.06866302 140.62158073 185.07819648 136.20335782 185.08423591 131.78493309 C185.09369582 127.14713949 185.11990456 122.50943919 185.14424133 117.8717041 C185.1877024 109.11388699 185.21637403 100.3560882 185.23956472 91.59819651 C185.26672651 81.61730806 185.31063068 71.63651441 185.35585344 61.65569401 C185.44840727 41.1469654 185.51801193 20.63824565 185.578125 0.12939453 C204.388125 0.12939453 223.198125 0.12939453 242.578125 0.12939453 C242.6461219 21.00200223 242.70126859 41.87451879 242.73356152 62.74720955 C242.74896123 72.44105144 242.76991705 82.13481908 242.80444336 91.82861328 C242.83455882 100.2881014 242.85374995 108.7475357 242.86039048 117.20707595 C242.86426567 121.67691781 242.87322468 126.14660583 242.89531517 130.61639786 C243.08422883 170.45531871 240.33392123 208.24123802 211.578125 238.50439453 C182.1101059 266.45223805 139.90838147 268.15837759 101.72143555 267.20300293 C93.86220686 266.93309093 86.23610969 265.88316757 78.578125 264.12939453 C77.27584961 263.83137939 77.27584961 263.83137939 75.94726562 263.52734375 C51.34113696 257.6488216 27.65741104 245.6507124 13.296875 224.00830078 C-6.83603404 190.28567814 -6.58806914 153.73624529 -6.5562005 115.65279984 C-6.55363396 111.61746548 -6.55602535 107.58213318 -6.55758667 103.54679871 C-6.55939204 96.79706403 -6.55704117 90.04734041 -6.55224609 83.29760742 C-6.54676451 75.4912335 -6.54860063 67.68488554 -6.5540725 59.8785122 C-6.55860052 53.14863513 -6.55925698 46.41876588 -6.55663383 39.68888777 C-6.55507471 35.6800622 -6.55486819 31.67124888 -6.55817032 27.66242409 C-6.56104588 23.91201863 -6.55907929 20.16164711 -6.55327606 16.41124535 C-6.55194856 15.03291251 -6.55234241 13.65457684 -6.55453873 12.27624512 C-6.55724951 10.40342813 -6.55325604 8.53060493 -6.54885864 6.65779114 C-6.54848162 5.6080351 -6.54810459 4.55827906 -6.54771614 3.47671223 C-6.30989971 -0.95928321 -3.88018172 0.00301138 0 0 Z " fill="#000000" transform="translate(2208.421875,7.87060546875)"/>
<path d="M0 0 C20.46 0 40.92 0 62 0 C64.65901859 6.64754647 67.19570281 13.2459642 69.51171875 20.0078125 C69.99943756 21.42092964 69.99943756 21.42092964 70.49700928 22.8625946 C71.19678221 24.89021569 71.89557642 26.91817478 72.59347534 28.94644165 C74.48846133 34.45209775 76.39209767 39.95475613 78.296875 45.45703125 C78.68858383 46.58858139 79.08029266 47.72013153 79.48387146 48.88597107 C83.07147142 59.23438927 86.72443025 69.55902786 90.39428711 79.87850952 C103.17415831 115.82133648 115.84512053 151.79983286 127.4987793 188.1262207 C130.50270016 197.48206681 133.61749723 206.77327889 137 216 C140.5188547 207.93623028 143.51930839 199.79172765 146.24649048 191.4291687 C147.51955831 187.52956565 148.81179723 183.63629317 150.1015625 179.7421875 C150.54061668 178.41510017 150.54061668 178.41510017 150.98854065 177.061203 C155.53692425 163.33335027 160.1775097 149.63629623 164.8125 135.9375 C165.05176208 135.23015968 165.29102417 134.52281937 165.53753662 133.79404449 C172.16330613 114.20766111 178.8592997 94.64823991 185.70996094 75.13916016 C188.86092354 66.16121752 191.97657192 57.17262039 195.0390625 48.1640625 C195.37690262 47.17036148 195.71474274 46.17666046 196.06282043 45.15284729 C197.68096922 40.38942865 199.29499753 35.62465196 200.90405273 30.8581543 C201.48939489 29.13068791 202.07476152 27.40322982 202.66015625 25.67578125 C202.90959991 24.93264679 203.15904358 24.18951233 203.41604614 23.42385864 C206.09285955 15.53671794 209.06983614 7.81377028 212 0 C231.8 0 251.6 0 272 0 C271.29299073 3.53504636 270.62087926 6.28220982 269.35205078 9.56347656 C269.01226196 10.44802017 268.67247314 11.33256378 268.3223877 12.24391174 C267.95045288 13.19982712 267.57851807 14.15574249 267.1953125 15.140625 C266.80484741 16.15354111 266.41438232 17.16645721 266.01208496 18.21006775 C264.72026343 21.55822235 263.42266418 24.90410599 262.125 28.25 C261.21370129 30.60835285 260.30273609 32.96683459 259.39208984 35.32543945 C256.60021538 42.55242323 253.80059555 49.77639232 251 57 C250.18223803 59.11049354 249.36452735 61.22100696 248.546875 63.33154297 C245.46332176 71.28992485 242.37826906 79.24772272 239.28955078 87.20410156 C233.17289807 102.96165056 227.0828118 118.72936004 221 134.5 C213.35627261 154.31593115 205.6987377 174.12641039 198.01220703 193.92578125 C197.24640806 195.89843315 196.48062031 197.8710894 195.71484375 199.84375 C195.33608093 200.81940918 194.95731812 201.79506836 194.56707764 202.80029297 C192.03495307 209.32550093 189.51014743 215.85350625 186.98924255 222.38305664 C185.21413452 226.98048511 183.43712632 231.57717809 181.66000366 236.17382812 C180.80800308 238.37919178 179.95693861 240.58491733 179.10684204 242.79101562 C177.93557754 245.83034898 176.76111804 248.8684291 175.5859375 251.90625 C175.2358815 252.81717407 174.8858255 253.72809814 174.52516174 254.66662598 C174.04550209 255.90382385 174.04550209 255.90382385 173.55615234 257.16601562 C173.27814789 257.88648071 173.00014343 258.6069458 172.7137146 259.34924316 C172 261 172 261 171 262 C168.82194281 262.09429342 166.6407872 262.11742538 164.46069336 262.11352539 C163.77779739 262.11367142 163.09490143 262.11381744 162.39131165 262.1139679 C160.12412386 262.11326876 157.85701726 262.1054764 155.58984375 262.09765625 C154.02185613 262.09579207 152.45386793 262.09436817 150.88587952 262.09336853 C146.75123497 262.08954334 142.61662534 262.07971306 138.48199463 262.06866455 C134.26599602 262.05845044 130.04999178 262.05387091 125.83398438 262.04882812 C117.55597353 262.03809079 109.2779911 262.02101436 101 262 C90.36434321 235.15841054 79.87180751 208.263753 69.45263672 181.33740234 C65.40986575 170.89007445 61.36160517 160.44487426 57.3125 150 C56.91615356 148.97748138 56.51980713 147.95496277 56.1114502 146.90145874 C50.43878417 132.26819714 44.74537537 117.64317717 39.03295898 103.02539062 C35.08750816 92.9285374 31.15396319 82.82718954 27.23828125 72.71875 C26.83276535 71.67196075 26.42724945 70.62517151 26.00944519 69.54666138 C24.37191117 65.31892735 22.73463311 61.09109516 21.09872437 56.86273193 C17.069618 46.44913294 13.0313514 36.04007574 8.90625 25.6640625 C8.59471481 24.87932556 8.28317963 24.09458862 7.96220398 23.28607178 C6.53358124 19.68918424 5.09962018 16.09460681 3.65551758 12.50390625 C3.16720459 11.27800781 2.6788916 10.05210938 2.17578125 8.7890625 C1.75208252 7.73412598 1.32838379 6.67918945 0.8918457 5.59228516 C0 3 0 3 0 0 Z " fill="#000000" transform="translate(1754,8)"/>
<path d="M0 0 C1.01707031 0.49371094 2.03414062 0.98742187 3.08203125 1.49609375 C8.55571182 4.32509703 13.63507261 7.67513766 18.6875 11.1875 C19.62577637 11.83017822 19.62577637 11.83017822 20.58300781 12.48583984 C22.11364046 13.57994602 23.56514778 14.78299395 25 16 C25 19 25 19 22.99975586 21.35668945 C22.08073486 22.26636475 21.16171387 23.17604004 20.21484375 24.11328125 C19.72093643 24.6053154 19.22702911 25.09734955 18.71815491 25.60429382 C17.66820814 26.64751076 16.61466625 27.68711981 15.55786133 28.72338867 C13.96126815 30.28919023 12.37524822 31.86506302 10.79101562 33.44335938 C5.69374665 38.50084597 0.54549152 43.42988571 -5 48 C-8.04804767 46.52558792 -10.80920517 44.82482926 -13.61669922 42.9284668 C-35.49882261 28.26240048 -61.0211505 22.98068438 -86.95019531 27.5859375 C-108.51495876 31.94204026 -128.11713678 42.50952131 -140.9375 60.703125 C-152.40562098 79.03474263 -157.4408242 97.82681134 -157.375 119.4375 C-157.37368576 120.49239624 -157.37368576 120.49239624 -157.37234497 121.56860352 C-157.26206893 148.47748299 -150.20960926 172.39157532 -131 192 C-130.41992188 192.61617187 -129.83984375 193.23234375 -129.2421875 193.8671875 C-119.74845754 203.10548078 -105.72161592 209.07418998 -93 212 C-92.03707031 212.22300781 -91.07414063 212.44601563 -90.08203125 212.67578125 C-61.79405975 218.05525319 -33.80815797 211.82739516 -10 196 C-6.5763729 193.434538 -3.25661091 190.77388319 0 188 C4.29467845 190.29258886 7.47211512 193.27157823 10.8125 196.75 C14.79569282 200.82112472 18.83563921 204.70431241 23.17578125 208.3984375 C26.26745749 211.11275711 29.13273782 214.05209608 32 217 C27.34789717 229.32102386 4.85750581 238.9366673 -6.5 244.1875 C-13.38634396 247.23708077 -20.41240973 249.44885267 -27.6875 251.375 C-28.58855469 251.61371826 -29.48960937 251.85243652 -30.41796875 252.09838867 C-43.92458694 255.45199852 -57.28153947 256.38316557 -71.125 256.3125 C-71.88968597 256.31034485 -72.65437195 256.3081897 -73.44223022 256.30596924 C-100.44834807 256.1842963 -125.70555923 251.08428142 -150 239 C-151.57007813 238.2265625 -151.57007813 238.2265625 -153.171875 237.4375 C-163.97047839 231.8246666 -173.18680152 224.32596474 -182 216 C-182.76183594 215.30261719 -183.52367187 214.60523438 -184.30859375 213.88671875 C-206.02206791 193.30219472 -217.85250946 161.58759989 -219.1262207 132.07543945 C-219.9744796 97.24835285 -213.84210437 63.54489056 -191 36 C-190.52755859 35.42733398 -190.05511719 34.85466797 -189.56835938 34.26464844 C-163.82897898 3.65064096 -126.08036073 -11.56663423 -86.9765625 -15.53125 C-56.34168978 -18.16479165 -27.61272285 -13.47556588 0 0 Z " fill="#000000" transform="translate(740,19)"/>
<path d="M0 0 C0 38.94 0 77.88 0 118 C18.93914219 116.03099785 18.93914219 116.03099785 37.4375 112.3125 C38.90485596 111.93230713 38.90485596 111.93230713 40.40185547 111.54443359 C63.34037476 105.3054857 82.70889493 93.07870705 100 77 C100.92619141 76.15501953 100.92619141 76.15501953 101.87109375 75.29296875 C114.65884453 63.15494203 123.37373665 46.71944078 131 31 C137.59093638 31.51990412 143.20404865 32.82169305 149.40625 35.0625 C150.28144791 35.37000687 151.15664581 35.67751373 152.05836487 35.99433899 C154.87566103 36.98685351 157.68785967 37.99298029 160.5 39 C162.43521161 39.68585676 164.37067839 40.37099393 166.30639648 41.05541992 C170.12281039 42.40677167 173.93708074 43.76391803 177.74951172 45.12646484 C181.63686243 46.5154753 185.52785794 47.89344317 189.42288208 49.26077271 C192.30459005 50.27283289 195.18349536 51.29277964 198.0625 52.3125 C199.07054687 52.66634766 200.07859375 53.02019531 201.1171875 53.38476562 C202.01824219 53.70767578 202.91929687 54.03058594 203.84765625 54.36328125 C204.61086182 54.63438721 205.37406738 54.90549316 206.16040039 55.18481445 C208 56 208 56 210 58 C209.73967489 63.86103396 207.71979051 68.51925104 205.1875 73.75 C204.79369141 74.57056885 204.39988281 75.3911377 203.99414062 76.23657227 C197.19937003 90.02433803 188.64542726 103.04097363 179 115 C178.57847656 115.52303711 178.15695312 116.04607422 177.72265625 116.58496094 C165.43079875 131.7003828 151.73297389 145.48917758 136 157 C134.87216154 157.84604192 133.74455819 158.69239736 132.6171875 159.5390625 C123.82657949 166.05849112 114.60316342 171.75747931 105 177 C104.36352539 177.34772461 103.72705078 177.69544922 103.07128906 178.05371094 C66.84754767 197.38183948 24.66301194 203.28833571 -15.875 203.25 C-16.58343048 203.24940582 -17.29186096 203.24881165 -18.02175903 203.24819946 C-29.78981472 203.21018528 -29.78981472 203.21018528 -31 202 C-31.09774692 199.47064748 -31.1299541 196.96862583 -31.12025452 194.43882751 C-31.12110894 193.63759683 -31.12196337 192.83636614 -31.12284368 192.01085573 C-31.12450093 189.30531066 -31.11897314 186.59982654 -31.11352539 183.89428711 C-31.11324355 181.96312969 -31.1134012 180.03197217 -31.1139679 178.10081482 C-31.11425598 172.84070191 -31.10835757 167.58061159 -31.10139394 162.32050395 C-31.09516212 156.82984578 -31.09455674 151.33918716 -31.09336853 145.848526 C-31.0902547 135.44334309 -31.08204063 125.03817063 -31.07201904 114.63299233 C-31.06085949 102.79039054 -31.05534785 90.94778826 -31.05032361 79.10518253 C-31.03985805 54.73678255 -31.02225763 30.36839186 -31 6 C-25.88899826 3.3396536 -20.5531971 2.46993375 -14.9375 1.3125 C-13.83599609 1.07466797 -12.73449219 0.83683594 -11.59960938 0.59179688 C-10.54451172 0.37201172 -9.48941406 0.15222656 -8.40234375 -0.07421875 C-7.43804443 -0.27619873 -6.47374512 -0.47817871 -5.48022461 -0.6862793 C-3 -1 -3 -1 0 0 Z " fill="#000000" transform="translate(261,246)"/>
<path d="M0 0 C8.12759031 -0.18554629 16.25429306 -0.32759398 24.38347912 -0.41449738 C28.15851437 -0.45621285 31.93209875 -0.51276313 35.70629883 -0.60351562 C39.3503926 -0.69058899 42.99309348 -0.73830155 46.63814735 -0.75901794 C48.02699025 -0.77377516 49.41575864 -0.8025967 50.80400658 -0.84584045 C61.65270996 -1.17026549 61.65270996 -1.17026549 64.89002991 1.64169312 C66.21572514 3.71556027 67.1299214 5.70179042 68 8 C68.51828369 8.94182129 69.03656738 9.88364258 69.57055664 10.85400391 C70.01262451 11.71944824 70.45469238 12.58489258 70.91015625 13.4765625 C71.67247559 14.95866211 71.67247559 14.95866211 72.45019531 16.47070312 C73.24828613 18.03208008 73.24828613 18.03208008 74.0625 19.625 C78.19219116 27.64132183 82.39011601 35.60661526 86.75 43.5 C97.81129021 63.61177339 108.10878455 84.14550272 118.41372681 104.65222168 C119.17684735 106.17031319 119.94114191 107.68781513 120.70663452 109.20471191 C121.76820545 111.31020607 122.82438284 113.41831296 123.87890625 115.52734375 C124.19677094 116.15593796 124.51463562 116.78453217 124.84213257 117.43217468 C127 121.77073146 127 121.77073146 127 124 C127.99 124 128.98 124 130 124 C130.27457031 123.12110107 130.54914063 122.24220215 130.83203125 121.33666992 C131.91381456 118.24621579 133.16630553 115.50693695 134.6875 112.61328125 C135.21601562 111.60265625 135.74453125 110.59203125 136.2890625 109.55078125 C137.13597656 107.94783203 137.13597656 107.94783203 138 106.3125 C138.58523438 105.19617188 139.17046875 104.07984375 139.7734375 102.9296875 C141.51114814 99.61741373 143.25473729 96.30829946 145 93 C145.87518397 91.33733641 146.7502035 89.67458624 147.625 88.01171875 C148.81335927 85.75340119 150.00239786 83.49545829 151.19384766 81.23876953 C153.50942329 76.84946109 155.80588113 72.45084389 158.0859375 68.04296875 C163.75865923 57.07842747 169.50134016 46.16643859 175.45800781 35.35327148 C180.06290414 26.96316259 184.46008057 18.46880056 188.8125 9.9453125 C189.33070313 8.93726563 189.84890625 7.92921875 190.3828125 6.890625 C190.84059082 5.99375977 191.29836914 5.09689453 191.77001953 4.17285156 C193 2 193 2 195 0 C197.55630493 -0.24050903 197.55630493 -0.24050903 200.82666016 -0.22705078 C202.65833237 -0.22682419 202.65833237 -0.22682419 204.52700806 -0.22659302 C205.86436118 -0.21637903 207.20171265 -0.20594702 208.5390625 -0.1953125 C209.90383701 -0.1915828 211.26861419 -0.18873563 212.63339233 -0.18673706 C216.22720723 -0.17909714 219.82086073 -0.15944572 223.41461182 -0.1373291 C227.08107317 -0.11687832 230.74756057 -0.107737 234.4140625 -0.09765625 C241.60944862 -0.07620003 248.8047017 -0.04205992 256 0 C254.42211331 4.07633974 252.49178881 7.76269076 250.24609375 11.50390625 C249.87368057 12.13054672 249.5012674 12.75718719 249.11756897 13.40281677 C247.89452248 15.4582404 246.66614179 17.51041689 245.4375 19.5625 C244.57533266 21.00835135 243.7133561 22.45431648 242.8515625 23.90039062 C237.10502388 33.53161979 231.29949885 43.12624777 225.46212769 52.70266724 C219.32732668 62.76827257 213.2971218 72.89340071 207.29400635 83.03799438 C201.71694428 92.46012133 196.07841802 101.84136922 190.375 111.1875 C182.40989856 124.24581062 174.66260966 137.42552908 166.97192383 150.64697266 C165 154 165 154 163.46221924 155.83181763 C156.69937326 164.73296255 158.14597244 175.78448329 158.1953125 186.4140625 C158.18405175 188.59696921 158.17016649 190.77986381 158.15377808 192.96273804 C158.11784572 198.68054924 158.11735329 204.39782456 158.12445068 210.11572266 C158.12552687 216.99090705 158.08221588 223.86594029 158.04641724 230.74101257 C157.99709366 241.16095194 158.00386088 251.57949826 158 262 C138.53 262 119.06 262 99 262 C99.12503906 255.33425781 99.25007812 248.66851562 99.37890625 241.80078125 C99.42029246 237.51199128 99.45649252 233.22434605 99.47460938 228.93554688 C99.5036835 222.16544913 99.54924986 215.39904101 99.7097168 208.63061523 C100.32544849 181.63719816 100.1221992 160.86748746 83.16275024 138.90014648 C79.5686387 134.08061173 76.63756946 128.88173218 73.625 123.6875 C72.39914739 121.6438418 71.1703404 119.60195042 69.9375 117.5625 C65.87533237 110.80603751 61.85800308 104.02335944 57.84075928 97.24014282 C50.77712586 85.31416643 43.64278863 73.43579714 36.42773438 61.60083008 C30.5108426 51.88453881 24.70017112 42.10672629 18.90682983 32.31637573 C13.66032052 23.45070151 8.37947141 14.61057063 2.94384766 5.85888672 C0 1.10032212 0 1.10032212 0 0 Z " fill="#000000" transform="translate(777,8)"/>
<path d="M0 0 C5.42194774 -0.04071761 10.84380296 -0.0699164 16.26586914 -0.08926392 C18.10345005 -0.09734494 19.94102084 -0.10836363 21.77856445 -0.12258911 C88.55725137 -0.6259346 148.50790399 27.30742483 195.6875 73.5 C200.84458765 78.72348792 205.51276666 84.19478472 210 90 C210.41717285 90.53012695 210.8343457 91.06025391 211.26416016 91.60644531 C223.66581385 107.44049446 241.3940869 131.11339449 241 152 C222.87725714 158.11188111 204.73372201 164.1656006 186.52032471 170.00256348 C184.8426915 170.541691 183.1662072 171.08440704 181.49090576 171.6307373 C179.14285785 172.39538668 176.7909355 173.14665578 174.4375 173.89453125 C173.74113434 174.12411026 173.04476868 174.35368927 172.32730103 174.59022522 C166.10236243 176.53823158 166.10236243 176.53823158 163 175 C161.72682221 172.75981337 160.72678329 170.67780484 159.75 168.3125 C144.54142021 133.7795418 118.13549833 107.94477746 82.95239258 94.08520508 C65.8463003 87.65971715 49.17060442 85.3800459 31 84 C31 91.26 31 98.52 31 106 C26.9679451 107.3440183 23.92105669 106.20878133 19.9375 105.1875 C18.40529034 104.80850878 16.87273831 104.43089896 15.33984375 104.0546875 C14.59718262 103.87131836 13.85452148 103.68794922 13.08935547 103.49902344 C9.6447238 102.67630468 6.17167212 102.02427182 2.6875 101.39453125 C1 101 1 101 0 100 C-0.09533653 96.8949275 -0.12551126 93.81213542 -0.11352539 90.70678711 C-0.11367142 89.73128403 -0.11381744 88.75578094 -0.1139679 87.75071716 C-0.11326833 84.50957047 -0.10547391 81.26848046 -0.09765625 78.02734375 C-0.09579222 75.78674857 -0.09436825 73.54615298 -0.09336853 71.30555725 C-0.08954213 65.3954049 -0.0797108 59.48527695 -0.06866455 53.57513428 C-0.05845306 47.54944183 -0.05387147 41.52374547 -0.04882812 35.49804688 C-0.03808864 23.66535384 -0.02101076 11.83267894 0 0 Z " fill="#000000" transform="translate(230,0)"/>
<path d="M0 0 C19.47 0 38.94 0 59 0 C59.02202622 33.36023048 59.04049775 66.72045393 59.05106533 100.08068949 C59.05231611 104.01497464 59.05361042 107.94925979 59.05493164 111.88354492 C59.05519395 112.66682368 59.05545626 113.45010244 59.05572652 114.25711692 C59.0600834 126.95670171 59.06797104 139.65628199 59.0771528 152.3558641 C59.08648885 165.37700154 59.09205551 178.3981366 59.09408849 191.41927725 C59.09546382 199.4605534 59.09981495 207.50181681 59.10791647 215.54308904 C59.11380398 221.69863319 59.11445909 227.85416754 59.11310768 234.00971413 C59.11338422 236.54262241 59.11539204 239.07553115 59.11920547 241.60843658 C59.12413557 245.05004669 59.12300083 248.49160105 59.12025452 251.93321228 C59.12316736 252.94972789 59.1260802 253.9662435 59.12908131 255.01356262 C59.12709026 255.92820331 59.12509921 256.842844 59.12304783 257.78520107 C59.12361741 258.97847221 59.12361741 258.97847221 59.1241985 260.19584984 C59 262 59 262 58 263 C56.22553991 263.09893778 54.44713749 263.12799092 52.66992188 263.12939453 C51.53204224 263.13254669 50.3941626 263.13569885 49.22180176 263.13894653 C47.98329468 263.1369223 46.7447876 263.13489807 45.46875 263.1328125 C44.20736206 263.13376923 42.94597412 263.13472595 41.6463623 263.13571167 C38.97302862 263.13639375 36.29978563 263.13503529 33.62646484 263.13037109 C30.19293309 263.12467381 26.7594795 263.12795301 23.32595062 263.13394356 C20.06104757 263.13841762 16.79615407 263.13528883 13.53125 263.1328125 C12.29274292 263.13483673 11.05423584 263.13686096 9.77819824 263.13894653 C8.6403186 263.13579437 7.50243896 263.13264221 6.33007812 263.12939453 C5.32271606 263.12859894 4.315354 263.12780334 3.27746582 263.12698364 C1 263 1 263 0 262 C-0.09652896 260.59778706 -0.12371873 259.19073248 -0.12304783 257.78520107 C-0.12503888 256.87056038 -0.12702993 255.95591969 -0.12908131 255.01356262 C-0.12616847 253.99704701 -0.12325563 252.9805314 -0.12025452 251.93321228 C-0.12110894 250.86246714 -0.12196337 249.79172199 -0.12284368 248.68853003 C-0.12450166 245.07090122 -0.11897193 241.45331795 -0.11352539 237.83569336 C-0.11324356 235.2542979 -0.11340117 232.67290237 -0.1139679 230.09150696 C-0.11449331 224.51864582 -0.11134467 218.94579636 -0.10573006 213.37293816 C-0.09761745 205.31543194 -0.09500008 197.25793138 -0.09374207 189.20042152 C-0.09155117 176.12897247 -0.08489006 163.05752965 -0.07543945 149.98608398 C-0.06626631 137.28523795 -0.059185 124.5843936 -0.05493164 111.88354492 C-0.05466892 111.1012148 -0.05440619 110.31888469 -0.05413551 109.51284759 C-0.05283051 105.58829157 -0.05156679 101.66373554 -0.05032361 97.73917949 C-0.03994982 65.15944748 -0.02151089 32.57972704 0 0 Z " fill="#000000" transform="translate(2062,8)"/>
<path d="M0 0 C19.47 0 38.94 0 59 0 C59 86.46 59 172.92 59 262 C39.53 262 20.06 262 0 262 C0 175.54 0 89.08 0 0 Z " fill="#000000" transform="translate(1656,8)"/>
<path d="M0 0 C22.34940982 7.76566541 43.41862525 16.83184467 61.85888672 31.95361328 C62.84888672 32.69611328 63.83888672 33.43861328 64.85888672 34.20361328 C77.82785592 45.19670075 88.55357925 63.01461492 90.85888672 79.95361328 C90.98388672 83.51611328 90.98388672 83.51611328 90.85888672 85.95361328 C88.28235674 86.99551684 86.53260143 87.23059249 83.93603516 86.16308594 C81.66448521 84.91934159 79.44553219 83.61354435 77.23388672 82.26611328 C67.36564203 76.32293299 57.42703313 72.77391314 46.17138672 70.39111328 C45.18734863 70.18131836 44.20331055 69.97152344 43.18945312 69.75537109 C25.25290324 66.06981755 7.14608575 64.39453429 -11.14111328 63.95361328 C-11.90053223 63.93169922 -12.65995117 63.90978516 -13.44238281 63.88720703 C-29.05238638 63.47776431 -44.46807506 64.98313122 -59.91259766 67.16870117 C-81.31541744 70.17735275 -101.38544931 71.25658961 -119.83642578 58.02001953 C-126.72879817 52.27637587 -130.78056949 45.67006577 -135.14111328 37.95361328 C-136.84648546 34.62952267 -136.84648546 34.62952267 -140.26611328 34.32861328 C-144.31172045 34.98113057 -145.04125195 35.41235948 -147.90283203 38.04345703 C-148.60085937 38.67928711 -149.29888672 39.31511719 -150.01806641 39.97021484 C-150.71867187 40.62473633 -151.41927734 41.27925781 -152.14111328 41.95361328 C-152.77984375 42.54368164 -153.41857422 43.13375 -154.07666016 43.74169922 C-156.00328616 45.53184758 -157.91725994 47.33467454 -159.82861328 49.14111328 C-164.7445178 53.76919068 -169.67149188 58.38324595 -174.64111328 62.95361328 C-180.13572775 68.0106414 -185.58923481 73.1104176 -191.03271484 78.22241211 C-194.46700351 81.44734349 -197.90480233 84.66831382 -201.35205078 87.87939453 C-202.36936279 88.82709717 -202.36936279 88.82709717 -203.40722656 89.79394531 C-204.69410268 90.99213688 -205.98150598 92.18976259 -207.26953125 93.38671875 C-208.40397257 94.44320456 -209.53533486 95.50301132 -210.6628418 96.56689453 C-211.94503757 97.76968098 -213.2501319 98.94796762 -214.55908203 100.12158203 C-216.70111495 102.60210904 -216.25725043 104.51580318 -216.09814453 107.66845703 C-216.2002492 113.098569 -218.09309253 118.23186491 -220.89111328 122.82861328 C-227.44493567 129.01833443 -233.78425972 130.36940635 -242.58251953 130.29736328 C-249.0141483 129.6760863 -252.8061601 126.63673123 -257.01611328 121.95361328 C-261.54635624 115.55797616 -262.03956683 109.62870048 -261.14111328 101.95361328 C-259.08234448 94.8078866 -255.5308101 90.8095228 -249.22705078 87.01220703 C-245.62801182 85.18572846 -242.75078356 84.79340554 -238.76611328 84.76611328 C-237.83025391 84.75193359 -236.89439453 84.73775391 -235.93017578 84.72314453 C-232.97993174 84.9669322 -230.81747216 85.7224882 -228.14111328 86.95361328 C-222.00610825 81.39120872 -215.93229316 75.81635805 -210.12646484 69.90771484 C-208.28069838 68.09100127 -206.3866994 66.39022592 -204.42236328 64.70361328 C-200.13783682 60.98008521 -196.00774033 57.11088805 -191.89111328 53.20361328 C-185.98792845 47.62396098 -180.05713935 42.08260951 -174.04736328 36.61767578 C-171.94578579 34.69122974 -169.86500037 32.75167199 -167.79736328 30.78955078 C-158.19523173 21.71042311 -149.91726542 14.23147077 -136.01611328 14.59033203 C-129.92041704 15.36057626 -125.15088163 17.63968459 -121.10205078 22.30126953 C-119.33302615 24.79672342 -117.71265214 27.33015729 -116.14111328 29.95361328 C-109.45246846 40.18330536 -102.69099456 46.78318572 -90.39111328 49.57861328 C-81.52130404 50.60205281 -73.21896864 49.38024236 -64.45361328 48.01611328 C-48.06300031 45.47722797 -31.94896641 44.71425585 -15.39111328 44.70361328 C-14.44323944 44.70293854 -13.4953656 44.70226379 -12.51876831 44.7015686 C8.61538542 44.72538663 28.75008024 46.29984596 49.20263672 51.96533203 C52.54942861 53.04059162 52.54942861 53.04059162 54.85888672 52.95361328 C28.91417827 41.32322674 1.53257102 35.61074616 -26.89111328 35.95361328 C-39.83092907 36.10747554 -39.83092907 36.10747554 -46.14111328 34.95361328 C-46.43017578 32.16845703 -46.43017578 32.16845703 -46.14111328 28.95361328 C-44.16455078 27.08251953 -44.16455078 27.08251953 -41.51611328 25.51611328 C-31.27256052 18.85996507 -26.32163736 9.41196355 -22.06298828 -1.91357422 C-19.22744225 -8.47377816 -5.26577145 -1.75416574 0 0 Z M-242.95361328 103.01611328 C-244.81923313 106.06001935 -243.83989937 108.58673485 -243.14111328 111.95361328 C-240.66611328 112.94361328 -240.66611328 112.94361328 -238.14111328 113.95361328 C-234.27897993 111.45830097 -234.27897993 111.45830097 -232.57861328 107.39111328 C-232.94593866 104.84439529 -232.94593866 104.84439529 -234.89111328 103.14111328 C-237.80986325 101.60066191 -240.02767859 101.30091019 -242.95361328 103.01611328 Z " fill="#000000" transform="translate(285.14111328125,167.04638671875)"/>
<path d="M0 0 C4.31207808 3.6929079 7.70073733 7.13981398 8.59375 12.97265625 C8.86162546 17.61583083 8.50923093 20.31915465 5.47265625 23.95703125 C2.42530861 27.2075354 -0.50810772 28.16405949 -4.90234375 28.51953125 C-12.34993215 28.4759781 -18.45575719 24.42157985 -24.83300781 20.96582031 C-43.22923041 11.10422304 -63.35845056 8.19615642 -83.6484375 13.76171875 C-85.69203207 14.43122711 -87.70862077 15.18269957 -89.71484375 15.95703125 C-85.75484375 17.93703125 -81.79484375 19.91703125 -77.71484375 21.95703125 C-77.71484375 23.60703125 -77.71484375 25.25703125 -77.71484375 26.95703125 C-79.32939453 27.10398437 -79.32939453 27.10398437 -80.9765625 27.25390625 C-99.44179999 29.0806754 -117.70642476 34.16229661 -130.79296875 48.18359375 C-131.74429688 49.06144531 -131.74429688 49.06144531 -132.71484375 49.95703125 C-135.46484375 49.70703125 -135.46484375 49.70703125 -137.71484375 48.95703125 C-137.26415796 35.88714321 -130.84417262 24.86792574 -122.71484375 14.95703125 C-122.02519531 14.10367188 -121.33554688 13.2503125 -120.625 12.37109375 C-91.91180522 -21.3785927 -35.18631787 -27.1022743 0 0 Z " fill="#000000" transform="translate(255.71484375,128.04296875)"/>
<path d="M0 0 C1 1 1 1 1.09765625 4.59765625 C1.0909822 6.08596867 1.07902183 7.57426432 1.0625 9.0625 C1.05798828 9.82111328 1.05347656 10.57972656 1.04882812 11.36132812 C1.0370068 13.24091871 1.01907078 15.12046899 1 17 C-3.95483092 18.70995524 -8.14656526 19.14196418 -13.37280273 19.12402344 C-21.38381793 18.94432697 -21.38381793 18.94432697 -28.68359375 21.6640625 C-30.38831514 23.69150397 -31.69984413 25.69736705 -33 28 C-34.62553283 29.70680947 -36.29115995 31.37660195 -38 33 C-38.49229599 33.47445053 -38.98459198 33.94890106 -39.49180603 34.43772888 C-43.74245243 38.33178805 -47.58528968 40.36285134 -53.06640625 42.03515625 C-54.20033058 42.40416298 -54.20033058 42.40416298 -55.35716248 42.78062439 C-57.75417839 43.55714162 -60.15769412 44.31049832 -62.5625 45.0625 C-64.14699699 45.56936386 -65.73098657 46.07781677 -67.31445312 46.58789062 C-68.47914879 46.96237335 -68.47914879 46.96237335 -69.66737366 47.34442139 C-71.22339442 47.84604036 -72.77892876 48.34917073 -74.33396912 48.8538208 C-77.84328386 49.99182531 -81.35210289 51.10902187 -84.89282227 52.14550781 C-93.76584098 54.92848882 -99.38524169 58.96375165 -105.8125 65.625 C-106.69486328 66.46417969 -107.57722656 67.30335938 -108.48632812 68.16796875 C-112.80928158 72.53425173 -115.46219213 75.62780437 -115.97265625 81.87890625 C-115.96371338 82.75619385 -115.95477051 83.63348145 -115.94555664 84.53735352 C-116.05399374 89.44230881 -118.35760082 93.2101038 -121.609375 96.75390625 C-127.00697135 101.70966396 -132.32797232 103.50108417 -139.62890625 103.31640625 C-146.35500903 102.41885382 -151.69409986 99.19240899 -156 94 C-159.91136596 88.27264271 -160.75692264 82.83424353 -160 76 C-158.12751209 68.85592193 -154.07959215 64.08702563 -148 60 C-144.42882701 58.26345223 -141.58403847 57.7273121 -137.625 57.75 C-136.28308594 57.74226563 -136.28308594 57.74226563 -134.9140625 57.734375 C-131.43929642 58.05110971 -128.32341372 58.9609178 -125 60 C-124.48840332 59.43079834 -123.97680664 58.86159668 -123.44970703 58.27514648 C-113.2960878 47.13873653 -104.65535769 38.00138984 -89.98535156 33.86376953 C-83.92275508 32.10964242 -77.94206437 30.09028806 -71.94955444 28.11233521 C-69.72476882 27.38714808 -67.49323469 26.68750164 -65.2590332 25.99194336 C-63.86394369 25.54457983 -62.46899926 25.09676351 -61.07421875 24.6484375 C-59.83244873 24.25833496 -58.59067871 23.86823242 -57.3112793 23.46630859 C-53.61674954 21.83028812 -51.67098672 19.99826857 -49 17 C-48.39905518 16.39381836 -47.79811035 15.78763672 -47.17895508 15.16308594 C-46.35754028 14.33212402 -46.35754028 14.33212402 -45.51953125 13.484375 C-44.28389291 12.23954488 -43.04821518 10.99475385 -41.8125 9.75 C-40.86987305 8.79480469 -40.86987305 8.79480469 -39.90820312 7.8203125 C-39.30556641 7.21445313 -38.70292969 6.60859375 -38.08203125 5.984375 C-37.53780518 5.43491211 -36.9935791 4.88544922 -36.43286133 4.31933594 C-32.57286906 0.76517028 -26.97358863 1.35557875 -22 0.9375 C-20.99582031 0.84662109 -19.99164063 0.75574219 -18.95703125 0.66210938 C-6.204746 -0.43495009 -6.204746 -0.43495009 0 0 Z M-141.8125 76.1875 C-143.42525784 78.64907776 -143.4334014 80.11065736 -143 83 C-141.91666667 84.91666667 -141.91666667 84.91666667 -140 86 C-137.11065736 86.4334014 -135.64907776 86.42525784 -133.1875 84.8125 C-131.57474216 82.35092224 -131.5665986 80.88934264 -132 78 C-133.08333333 76.08333333 -133.08333333 76.08333333 -135 75 C-137.88934264 74.5665986 -139.35092224 74.57474216 -141.8125 76.1875 Z " fill="#010101" transform="translate(216,65)"/>
<path d="M0 0 C5.33682938 0.3680572 11.98777876 0.98777876 16 5 C17.80907284 14.46071255 19.79103004 27.92965735 15.01470947 36.83758545 C9.92599215 44.30846555 2.69741704 50.20828802 -4.32104492 55.79711914 C-7.06357472 58.05227693 -9.52482408 60.45685765 -12 63 C-12.87398437 63.86238281 -13.74796875 64.72476563 -14.6484375 65.61328125 C-15.54820312 66.50402344 -16.44796875 67.39476562 -17.375 68.3125 C-18.26960938 69.19550781 -19.16421875 70.07851563 -20.0859375 70.98828125 C-20.54751755 71.48017944 -21.0090976 71.97207764 -21.48466492 72.47888184 C-23 74 -23 74 -24.79426575 75.33068848 C-28.44261278 78.46557425 -30.13249902 81.39900091 -30.60058594 86.16264343 C-30.87113309 91.54049328 -30.73383089 96.91248586 -30.61328125 102.29296875 C-30.59512485 104.28735119 -30.58038201 106.28176735 -30.56889343 108.27619934 C-30.53095099 113.51097114 -30.45269733 118.74432462 -30.36407471 123.97845459 C-30.22928282 132.3653811 -30.15763922 140.75310775 -30.08281517 149.14074135 C-30.05120353 152.06638715 -30.00347797 154.99142034 -29.95295715 157.91679382 C-29.92971261 159.71039488 -29.90672416 161.50399928 -29.8840332 163.29760742 C-29.8567514 164.51414001 -29.8567514 164.51414001 -29.82891846 165.75524902 C-29.77877265 170.87810752 -30.38021131 174.52769094 -33.1875 178.8125 C-36.1746916 180.76962553 -38.53042036 180.41874237 -42 180 C-44.75329021 178.20437595 -46.52627461 176.94745078 -48 174 C-48.12493814 170.96624757 -48.18896823 167.95462912 -48.20874023 164.91967773 C-48.21852402 163.9779924 -48.2283078 163.03630707 -48.23838806 162.06608582 C-48.26838607 158.9386029 -48.289744 155.81116304 -48.30859375 152.68359375 C-48.31516558 151.61547014 -48.3217374 150.54734653 -48.32850838 149.44685555 C-48.36112705 143.78904673 -48.38556742 138.1312569 -48.4050293 132.47338867 C-48.4228189 127.79504866 -48.45759857 123.11731405 -48.50756836 118.43920898 C-48.56785015 112.78933969 -48.59851703 107.1400304 -48.60820198 101.48985481 C-48.61674733 99.33971714 -48.63554257 97.18959403 -48.6649456 95.03964043 C-48.70399178 92.02113103 -48.70487701 89.00478735 -48.69702148 85.98608398 C-48.71702209 85.10521118 -48.73702271 84.22433838 -48.75762939 83.31677246 C-48.66363428 75.22874954 -44.90759819 70.32725154 -39.7265625 64.3984375 C-39.03304687 63.73070312 -38.33953125 63.06296875 -37.625 62.375 C-36.85671875 61.63121094 -36.0884375 60.88742187 -35.296875 60.12109375 C-33.19280119 58.178046 -31.05195718 56.29803899 -28.875 54.4375 C-25.57713821 51.60613339 -22.79833646 48.55746728 -19.98828125 45.25 C-17.54612656 42.4863829 -14.97855243 39.86008199 -12.375 37.25 C-11.47523438 36.34765625 -10.57546875 35.4453125 -9.6484375 34.515625 C-7 32 -7 32 -4.37646484 30.23413086 C-1.75442452 28.18987426 -1.75442452 28.18987426 -1.35644531 25.08325195 C-1.34709961 23.97941162 -1.33775391 22.87557129 -1.328125 21.73828125 C-1.29138672 19.93713867 -1.29138672 19.93713867 -1.25390625 18.09960938 C-1.25261719 16.84986328 -1.25132812 15.60011719 -1.25 14.3125 C-1.21701014 11.82937858 -1.18073835 9.34629781 -1.140625 6.86328125 C-1.13579102 5.76282471 -1.13095703 4.66236816 -1.12597656 3.52856445 C-1 1 -1 1 0 0 Z " fill="#000000" transform="translate(163,247)"/>
<path d="M0 0 C1.8203125 0.234375 1.8203125 0.234375 4.125 0.75 C4.87007812 0.90984375 5.61515625 1.0696875 6.3828125 1.234375 C9.71926802 2.21041274 12.81514758 3.61382246 16 5 C16.09337472 29.18226668 16.16394556 53.36450642 16.20724869 77.54691696 C16.22788806 88.7748288 16.25603497 100.00262873 16.30175781 111.23046875 C16.34158343 121.0148187 16.3674228 130.79908761 16.37635398 140.58351636 C16.38157597 145.76599229 16.39387812 150.94823638 16.42292023 156.13063812 C16.45002175 161.00614558 16.45845565 165.88132516 16.45243073 170.75690079 C16.45353332 172.54840246 16.46151849 174.33991482 16.4768219 176.13135147 C16.49666792 178.57387418 16.49195956 181.01515228 16.48101807 183.45770264 C16.49266943 184.16976765 16.5043208 184.88183267 16.51632524 185.61547542 C16.47511917 189.0089211 16.21768724 190.72021051 14.10641098 193.43379593 C11.72390564 195.20528763 10.50713836 195.59437984 7.5625 195.625 C6.82128906 195.65851563 6.08007812 195.69203125 5.31640625 195.7265625 C1.74919379 194.60767293 -0.17666118 192.13822832 -2 189 C-2.68375719 186.09283818 -2.64473636 183.29599818 -2.58349609 180.3203125 C-2.58580703 179.46105069 -2.58811796 178.60178888 -2.59049892 177.71648884 C-2.59205703 174.85205667 -2.55780173 171.98920926 -2.5234375 169.125 C-2.51699581 167.07961064 -2.51270723 165.03421353 -2.51042175 162.98881531 C-2.49776858 157.47097615 -2.45375635 151.95379164 -2.40343094 146.43618393 C-2.35598707 140.70208302 -2.33604856 134.96788115 -2.31225586 129.23364258 C-2.2523114 116.3029145 -2.1453811 103.37278554 -2.02997589 90.44245148 C-1.9910078 85.96733009 -1.95596545 81.4921827 -1.92121124 77.0170269 C-1.81937256 63.90699118 -1.6994219 50.79721508 -1.5625 37.6875 C-1.55291008 36.74807556 -1.54332016 35.80865112 -1.53343964 34.84075928 C-1.47827252 29.48189922 -1.41750976 24.12316161 -1.3474369 18.76447487 C-1.32693484 17.15218882 -1.30803381 15.53988153 -1.29082298 13.92755699 C-1.26706389 11.74807871 -1.23712677 9.56877785 -1.20532227 7.3894043 C-1.18977798 6.17149704 -1.1742337 4.95358978 -1.15821838 3.69877625 C-1 1 -1 1 0 0 Z " fill="#000000" transform="translate(195,257)"/>
<path d="M0 0 C2.70856537 1.26124036 3.97174755 2.84761863 5.796875 5.203125 C6.71726562 6.35554687 6.71726562 6.35554687 7.65625 7.53125 C9.28198158 10.36258028 9.61407306 11.74411253 9.046875 14.953125 C7.47265625 17.015625 7.47265625 17.015625 5.359375 18.953125 C4.63363281 19.63375 3.90789063 20.314375 3.16015625 21.015625 C2.46277344 21.655 1.76539063 22.294375 1.046875 22.953125 C0.04091923 23.94713355 -0.96030348 24.94599769 -1.953125 25.953125 C-2.613125 26.613125 -3.273125 27.273125 -3.953125 27.953125 C2.51126621 33.8948633 9.12623418 39.54913526 16.046875 44.953125 C21.62777988 42.91863783 24.97111581 40.52669464 28.984375 36.203125 C30.02806656 35.11927895 31.07363821 34.03724014 32.12109375 32.95703125 C32.87205322 32.17803467 32.87205322 32.17803467 33.63818359 31.38330078 C36.02565927 28.959413 38.57505797 26.74839194 41.17578125 24.55859375 C42.53274554 23.3942674 43.84855057 22.18141861 45.13671875 20.94140625 C45.82894531 20.28527344 46.52117187 19.62914062 47.234375 18.953125 C47.84667969 18.355 48.45898438 17.756875 49.08984375 17.140625 C51.046875 15.953125 51.046875 15.953125 53.78515625 16.265625 C54.53152344 16.4925 55.27789062 16.719375 56.046875 16.953125 C56.23779688 19.78967866 56.37531773 22.61318466 56.484375 25.453125 C56.57235352 26.64035156 56.57235352 26.64035156 56.66210938 27.8515625 C56.79978619 32.65058283 56.17951519 35.38096117 53.015625 39.06640625 C51.71563332 40.38498098 50.39184878 41.6804651 49.046875 42.953125 C48.08309937 43.91774658 48.08309937 43.91774658 47.09985352 44.90185547 C45.13405254 46.85022956 43.12965929 48.74892197 41.109375 50.640625 C40.44486328 51.27806641 39.78035156 51.91550781 39.09570312 52.57226562 C31.46357446 59.7454302 24.69752328 64.49280172 13.94921875 64.3515625 C5.1674717 63.14599292 -1.78441512 54.74836393 -7.953125 48.953125 C-9.91406074 49.90779109 -11.8195217 50.86992658 -13.671875 52.0234375 C-19.58282457 55.52334185 -25.20855222 55.83482791 -31.953125 54.953125 C-38.96122726 52.97257436 -43.3296733 48.15783525 -47.09375 42.125 C-49.19393052 36.81727104 -48.74929442 30.02694366 -47.3359375 24.5703125 C-44.43451447 18.02285344 -39.04167342 13.32581319 -32.578125 10.453125 C-27.44098015 9.7445533 -21.84083903 9.77643838 -16.96875 11.76171875 C-14.72362692 12.19709401 -14.72362692 12.19709401 -12.48046875 10.1875 C-11.62582031 9.36765625 -10.77117188 8.5478125 -9.890625 7.703125 C-9.03339844 6.89359375 -8.17617188 6.0840625 -7.29296875 5.25 C-5.0156053 3.08865088 -5.0156053 3.08865088 -3.39453125 1.09375 C-1.953125 -0.046875 -1.953125 -0.046875 0 0 Z M-29.203125 28.015625 C-31.24491848 29.90282414 -31.24491848 29.90282414 -31.328125 33.015625 C-31.24242736 36.07173741 -31.24242736 36.07173741 -28.953125 37.953125 C-25.99566008 38.53657976 -25.99566008 38.53657976 -22.953125 37.953125 C-21.0177102 35.56255558 -21.0177102 35.56255558 -19.953125 32.953125 C-21.74834709 29.3201289 -21.74834709 29.3201289 -24.890625 26.953125 C-27.05699847 26.80634158 -27.05699847 26.80634158 -29.203125 28.015625 Z " fill="#000000" transform="translate(47.953125,150.046875)"/>
<path d="M0 0 C3.60011809 1.27884792 6.85433549 2.73553484 10 4.9375 C9.66959027 8.02310057 9.32231254 9.59097944 7.1796875 11.89453125 C6.41914063 12.50683594 5.65859375 13.11914062 4.875 13.75 C1.78832581 16.34417168 -0.97040335 18.91103493 -3.5625 22 C-6.35381371 25.29362302 -9.33413544 28.03331181 -12.625 30.81640625 C-16.32985511 34.1251831 -19.78482771 37.68019266 -23.25634766 41.23120117 C-23.78276855 41.76592041 -24.30918945 42.30063965 -24.8515625 42.8515625 C-25.31385254 43.3254541 -25.77614258 43.7993457 -26.25244141 44.28759766 C-28 45.9375 -28 45.9375 -31.06488037 47.88374329 C-33.09036486 49.58363887 -33.89880361 50.53638375 -34.55117607 53.12221909 C-34.75146187 55.9131044 -34.76150701 58.64976076 -34.70947266 61.44750977 C-34.7157795 63.03367599 -34.7157795 63.03367599 -34.72221375 64.65188599 C-34.72991978 68.14480761 -34.69633666 71.63614584 -34.6640625 75.12890625 C-34.66515609 77.55598799 -34.66946257 79.98307024 -34.67684937 82.41014099 C-34.69026557 88.79894577 -34.67140755 95.18718875 -34.64239502 101.57592773 C-34.59704772 111.80564161 -34.58137551 122.0350546 -34.60194016 132.26484489 C-34.60156641 135.84145984 -34.57576596 139.41729436 -34.54824829 142.99378967 C-34.5475636 145.18148796 -34.54786597 147.36918685 -34.54931641 149.55688477 C-34.53485977 150.55387894 -34.52040314 151.55087311 -34.50550842 152.57807922 C-34.54410234 159.31796298 -34.54410234 159.31796298 -36.90316772 162.52378845 C-40.47458716 164.93168581 -42.65713324 165.4484255 -47 164.9375 C-50.10164769 162.38725635 -51.72566416 160.76050753 -53 156.9375 C-53.09867512 154.5147466 -53.13952997 152.12205614 -53.1328125 149.69921875 C-53.13444901 148.93884308 -53.13608551 148.17846741 -53.13777161 147.39505005 C-53.14576153 139.86143538 -53.10161257 132.32752175 -53.05366516 124.79408264 C-53.01341531 118.25346704 -52.99819241 111.71353799 -53.01025391 105.17285156 C-53.02315417 98.07802954 -53.00880051 90.98374632 -52.96832275 83.88902378 C-52.94662931 79.92913156 -52.9370183 75.97002505 -52.95587158 72.01010132 C-52.97327499 68.22531233 -52.95693494 64.44206454 -52.91644859 60.65746689 C-52.9071685 59.25084007 -52.90978217 57.84407596 -52.92527199 56.43750381 C-53.04657165 44.33234426 -53.04657165 44.33234426 -48.68383789 39.23901367 C-47.49265749 38.09881596 -46.2642235 36.99613143 -45 35.9375 C-44.33161606 35.34290482 -43.66323212 34.74830963 -42.97459412 34.13569641 C-41.70358583 33.01420094 -40.42062011 31.90617721 -39.12890625 30.80859375 C-35.05306069 27.22633683 -31.30458409 23.30315286 -27.5 19.4375 C-22.36873642 14.22387264 -17.23024997 9.12427533 -11.64794922 4.39111328 C-9.80325557 2.81879773 -9.80325557 2.81879773 -7.625 0.3125 C-4.3768022 -1.38893694 -3.4564199 -0.96351528 0 0 Z " fill="#000000" transform="translate(135,235.0625)"/>
<path d="M0 0 C0 5.61 0 11.22 0 17 C-7.50774854 19.37690158 -15.00057981 21.15236708 -22.71875 22.69921875 C-23.8984436 22.9391304 -25.07813721 23.17904205 -26.2935791 23.42622375 C-28.76721661 23.92834446 -31.24130542 24.42824657 -33.71582031 24.92602539 C-37.51733517 25.69098828 -41.31734738 26.46309346 -45.1171875 27.23632812 C-47.52595766 27.72437312 -49.93480898 28.21201778 -52.34375 28.69921875 C-53.48324097 28.93041916 -54.62273193 29.16161957 -55.79675293 29.39982605 C-56.84544556 29.61037125 -57.89413818 29.82091644 -58.97460938 30.0378418 C-59.8993103 30.224207 -60.82401123 30.4105722 -61.7767334 30.60258484 C-64 31 -64 31 -66 31 C-66.0928125 32.2684375 -66.0928125 32.2684375 -66.1875 33.5625 C-67.51401783 39.17469082 -70.39846722 42.68318416 -74.8125 46.3125 C-81.38869417 49.79401456 -87.71270748 50.96196337 -95 49 C-102.03014816 45.83896216 -107.06459263 40.93406608 -109.875 33.6875 C-111.72645663 27.38196772 -110.99411881 21.8159888 -108.4375 15.8125 C-105.5149968 10.4687989 -100.77099538 7.60426049 -95.625 4.625 C-88.61805318 2.95667933 -82.33831524 3.46517035 -76 7 C-75.05125 7.9075 -74.1025 8.815 -73.125 9.75 C-69.47972954 12.37459473 -68.02477439 12.07789256 -63.72576904 11.47174072 C-58.30057243 10.53281812 -52.92158119 9.39812237 -47.5390625 8.2421875 C-45.60280348 7.83384716 -43.66654255 7.42551565 -41.7301693 7.01771736 C-36.98930322 6.01793553 -32.25041495 5.00887774 -27.51220703 3.99658203 C-24.83822339 3.42564933 -22.163425 2.85884837 -19.48764038 2.29641724 C-16.97437514 1.76779125 -14.46245515 1.23272092 -11.95205688 0.69064331 C-10.82012909 0.45354645 -9.68820129 0.21644958 -8.52197266 -0.02783203 C-7.52541656 -0.24021515 -6.52886047 -0.45259827 -5.50210571 -0.67141724 C-3 -1 -3 -1 0 0 Z M-91.8125 22.125 C-93.57002414 24.90003811 -93.46822746 26.78929745 -93 30 C-91.44202118 32.14782671 -91.44202118 32.14782671 -89 33 C-86.29164947 32.65022176 -86.29164947 32.65022176 -84 31 C-82.33609251 28.75691443 -82.33609251 28.75691443 -82 26 C-82.90237966 23.10700447 -82.90237966 23.10700447 -85 21 C-87.90716706 20.41856659 -89.29257359 20.56090774 -91.8125 22.125 Z " fill="#000000" transform="translate(217,32)"/>
<path d="M0 0 C5.85870123 2.64038179 9.90830407 6.88191729 12.6875 12.63671875 C15.05171875 19.14090135 14.88995523 24.8328835 12.58203125 31.34765625 C10.24547938 35.6397223 8.08169699 38.72709265 3.4934082 40.62573242 C0.37763506 43.0003419 0.37763506 43.0003419 0.08718872 45.98625183 C-0.03112189 49.55678518 0.04103029 53.0821543 0.171875 56.65234375 C0.20296552 58.65680148 0.23402828 60.66126009 0.26345921 62.66574287 C0.32363667 66.18535957 0.42392589 69.70385615 0.51953125 73.22265625 C0.62976995 77.41364607 0.73110923 81.60419179 0.79481506 85.7961731 C0.83712818 88.405465 0.90288712 91.01450567 0.99461365 93.62252808 C1.15805141 103.45572099 1.15805141 103.45572099 -1.72045898 107.12158203 C-5.13944659 109.94304361 -6.98582927 110.58092675 -11.41796875 110.34765625 C-14.47479605 108.78377432 -15.64112865 108.15841981 -17.41796875 105.34765625 C-18.14033627 101.3252527 -18.1196136 97.3833032 -18.02358818 93.30448914 C-17.9759409 91.22680118 -17.96685731 89.15205215 -17.9677887 87.07385254 C-17.96274056 81.91662536 -17.89699046 76.76059431 -17.82348633 71.60394287 C-17.76253746 67.24050384 -17.72939407 62.87869651 -17.73527718 58.51481628 C-17.72669191 56.47219628 -17.67710725 54.43317636 -17.62632751 52.39123535 C-17.37245247 45.99364558 -17.37245247 45.99364558 -19.960495 40.43676758 C-22.04205375 38.87774701 -22.04205375 38.87774701 -25.41796875 37.34765625 C-30.37408975 31.77065856 -31.15399266 25.70314344 -30.83203125 18.43359375 C-29.86995509 11.26340347 -26.72426755 7.06959937 -21.19921875 2.57421875 C-14.87760919 -1.77881941 -7.37575405 -1.98990457 0 0 Z M-11.41796875 16.34765625 C-13.98484242 20.19796675 -13.25085599 21.93335388 -12.41796875 26.34765625 C-9.61751829 27.20416278 -9.61751829 27.20416278 -6.41796875 27.34765625 C-3.85458186 25.86772469 -3.85458186 25.86772469 -2.41796875 23.34765625 C-2.5794708 19.9561133 -3.00093632 18.76468868 -5.41796875 16.34765625 C-8.41796875 15.93098958 -8.41796875 15.93098958 -11.41796875 16.34765625 Z " fill="#000000" transform="translate(175.41796875,328.65234375)"/>
<path d="M0 0 C3.63 0 7.26 0 11 0 C29.02665528 39.8697252 29.02665528 39.8697252 34.625 52.875 C34.98392334 53.70346436 35.34284668 54.53192871 35.71264648 55.38549805 C38 60.75082997 38 60.75082997 38 63 C38.66 63 39.32 63 40 63 C40.16698395 62.46514984 40.3339679 61.93029968 40.50601196 61.37924194 C42.41409658 55.44526621 44.73013866 49.78852341 47.2734375 44.1015625 C47.67905914 43.18595551 48.08468079 42.27034851 48.50259399 41.32699585 C49.78954807 38.42460429 51.08222388 35.52480224 52.375 32.625 C53.234742 30.68766282 54.09412007 28.7501641 54.953125 26.8125 C58.92725651 17.85618424 62.91311069 8.90556165 67 0 C74.71484375 -0.09765625 74.71484375 -0.09765625 77 0 C78.7082941 1.7082941 78.11971926 3.86004377 78.12442017 6.13786316 C78.11902725 7.24053276 78.11902725 7.24053276 78.11352539 8.36547852 C78.11367142 9.13615662 78.11381744 9.90683472 78.1139679 10.7008667 C78.1132686 13.26024139 78.10547545 15.8195442 78.09765625 18.37890625 C78.09579213 20.14867615 78.0943682 21.91844656 78.09336853 23.68821716 C78.08954288 28.35551366 78.0797122 33.02277923 78.06866455 37.69006348 C78.05845144 42.44897035 78.05387113 47.20788221 78.04882812 51.96679688 C78.03808997 61.31121153 78.02101299 70.6556032 78 80 C75.36 80 72.72 80 70 80 C70 57.23 70 34.46 70 11 C66.04 19.91 62.08 28.82 58 38 C53.10959498 48.87044936 53.10959498 48.87044936 50.7409668 54.08105469 C49.7695268 56.21960205 48.80179232 58.35980682 47.83398438 60.5 C47.20855125 61.87770311 46.58290989 63.25531172 45.95703125 64.6328125 C45.52908012 65.58077194 45.52908012 65.58077194 45.09248352 66.54788208 C43.11448579 70.88551421 43.11448579 70.88551421 42 72 C39.66702567 72.04092937 37.33294775 72.04241723 35 72 C32.92022113 67.47439177 30.84320427 62.94752778 28.76831055 58.41967773 C28.06814902 56.89267083 27.36734357 55.36595895 26.66577148 53.83959961 C20.2864592 39.95847476 14.15409568 25.98658108 8 12 C7.67 34.44 7.34 56.88 7 80 C4.69 80 2.38 80 0 80 C0 53.6 0 27.2 0 0 Z " fill="#060501" transform="translate(2619,370)"/>
<path d="M0 0 C4.15851378 -0.05030772 8.31685552 -0.08613707 12.47558594 -0.10986328 C13.88349501 -0.11977813 15.29138433 -0.13331412 16.69921875 -0.15087891 C44.04363545 -0.48291825 44.04363545 -0.48291825 55 7 C59.91911912 12.03909764 60.35296429 16.47850895 60.28125 23.2734375 C59.75219782 28.4023045 57.10337553 31.0279787 53.375 34.3125 C51 36 51 36 49 37 C49.65226563 37.27972656 50.30453125 37.55945313 50.9765625 37.84765625 C57.65704404 40.91200693 62.64819791 44.29639581 66 51 C66.9844147 63.64594274 66.9844147 63.64594274 63 69 C55.86108776 77.29212114 46.59457012 79.67671412 35.99609375 80.59375 C28.74568145 81.08641087 21.51468973 81.14798952 14.25 81.125 C12.34734375 81.13080078 12.34734375 81.13080078 10.40625 81.13671875 C9.20484375 81.13542969 8.0034375 81.13414062 6.765625 81.1328125 C5.68055664 81.13168457 4.59548828 81.13055664 3.47753906 81.12939453 C1 81 1 81 0 80 C-0.09502416 77.50507612 -0.12557566 75.03793986 -0.11352539 72.54272461 C-0.11367142 71.76229294 -0.11381744 70.98186127 -0.1139679 70.17778015 C-0.11326858 67.5859402 -0.10547536 64.99417122 -0.09765625 62.40234375 C-0.09579213 60.6101536 -0.0943682 58.81796294 -0.09336853 57.02577209 C-0.08954284 52.29929203 -0.07971212 47.57284248 -0.06866455 42.84637451 C-0.05845153 38.0271445 -0.05387115 33.20790958 -0.04882812 28.38867188 C-0.03808989 18.92576781 -0.02101286 9.46288644 0 0 Z M8 6 C8 15.57 8 25.14 8 35 C14.620625 35.0928125 14.620625 35.0928125 21.375 35.1875 C22.74575684 35.21481201 24.11651367 35.24212402 25.52880859 35.27026367 C34.06381543 35.32777386 41.98069154 35.01448134 49 29.75 C52.26920088 25.25484879 53.27902892 21.82918961 52.4375 16.3125 C50.72494159 12.36616975 49.73499554 11.13428317 46 9 C37.6261244 5.8859708 29.65759349 5.6280118 20.8125 5.8125 C14.4703125 5.9053125 14.4703125 5.9053125 8 6 Z M8 41 C8 52.22 8 63.44 8 75 C12.3725 75.061875 16.745 75.12375 21.25 75.1875 C22.60254883 75.21481201 23.95509766 75.24212402 25.34863281 75.27026367 C37.05156387 75.34947565 47.63506961 74.19290524 56.3125 65.75 C58.48470101 62.21011687 59.29469276 59.10302993 59 55 C57.99061466 51.11069004 56.49092356 48.11243303 53.23046875 45.6796875 C51.15701626 44.57548203 49.23432318 43.73747268 47 43 C45.92234375 42.6390625 44.8446875 42.278125 43.734375 41.90625 C36.99818729 40.27157253 29.87883963 40.79396279 23 40.875 C18.05 40.91625 13.1 40.9575 8 41 Z " fill="#060502" transform="translate(781,370)"/>
<path d="M0 0 C2.89271711 1.52375567 4.6537221 2.84502803 6.8359375 5.31640625 C10.55659419 8.64623766 14.09530959 9.43206528 18.875 10.5625 C27.55067568 12.73817568 27.55067568 12.73817568 28.625 13.8125 C28.72502455 16.46903443 28.76377463 19.09379272 28.75 21.75 C28.75580078 22.8627832 28.75580078 22.8627832 28.76171875 23.99804688 C28.75163501 29.55922998 28.75163501 29.55922998 27.625 31.8125 C21.93448637 31.2743629 16.27634116 30.6724867 10.625 29.8125 C10.08875 30.699375 9.5525 31.58625 9 32.5 C5.63283007 37.5329077 1.42273206 40.89687508 -4.375 42.8125 C-11.71857361 43.68359977 -18.36028132 43.40409328 -24.375 38.8125 C-28.99621929 34.45947647 -32.00126854 30.20650314 -32.7109375 23.76171875 C-32.80649896 15.78233657 -32.3327428 10.00470624 -26.7265625 4.06640625 C-18.94595493 -3.01768405 -9.63822377 -4.58139784 0 0 Z M-15.375 16.8125 C-15.79166667 20.3125 -15.79166667 20.3125 -15.375 23.8125 C-14.715 24.4725 -14.055 25.1325 -13.375 25.8125 C-9.03305064 25.71554884 -9.03305064 25.71554884 -5.375 23.8125 C-5.04161404 20.35437831 -5.04161404 20.35437831 -5.375 16.8125 C-9.47413608 14.07974261 -11.27586392 14.07974261 -15.375 16.8125 Z " fill="#000000" transform="translate(79.375,66.1875)"/>
<path d="M0 0 C4.30092956 -0.05027161 8.60169343 -0.08612107 12.90283203 -0.10986328 C14.35924262 -0.1197839 15.81563407 -0.13332468 17.27197266 -0.15087891 C48.29249357 -0.51481877 48.29249357 -0.51481877 58.5 9.4375 C61.61606922 14.76078493 62.76329286 19.84595128 62 26 C59.67349558 33.22440847 55.63045942 37.57813701 48.98046875 41.21875 C45.43998186 42.61539177 41.77420608 42.82883419 38 43 C41.33251291 49.30242078 45.50238925 54.7588027 49.875 60.375 C54.83972857 66.76743345 59.61738497 73.19162944 64 80 C63 81 63 81 59.3359375 81.5390625 C56.65218361 81.49722224 55.39963243 81.31993366 53.28613281 79.62792969 C51.59538493 77.61745365 50.10162354 75.54766334 48.625 73.375 C48.07336182 72.60897461 47.52172363 71.84294922 46.95336914 71.05371094 C45.27829969 68.71842866 43.63866357 66.36091339 42 64 C41.03031071 62.64110708 40.05783024 61.28419981 39.08203125 59.9296875 C37.41413668 57.61379942 35.76102607 55.28887242 34.12109375 52.953125 C33.42113281 51.97859375 32.72117187 51.0040625 32 50 C31.45988281 49.06285156 30.91976563 48.12570312 30.36328125 47.16015625 C26.62481976 43.74301707 22.64484391 44.21834986 17.75 44.1875 C16.81414062 44.16236328 15.87828125 44.13722656 14.9140625 44.11132812 C12.60895268 44.0525243 10.30573826 44.01619733 8 44 C8.00523682 45.08531006 8.01047363 46.17062012 8.01586914 47.28881836 C8.03391836 51.30117982 8.04543171 55.31353767 8.05493164 59.32592773 C8.05997204 61.06519168 8.0668043 62.80445136 8.07543945 64.54370117 C8.08751792 67.03825937 8.09323108 69.53276173 8.09765625 72.02734375 C8.10281754 72.80963852 8.10797882 73.59193329 8.11329651 74.39793396 C8.11349226 76.26567114 8.06199694 78.13329204 8 80 C7 81 7 81 4 81.125 C1 81 1 81 0 80 C-0.09502416 77.50507612 -0.12557566 75.03793986 -0.11352539 72.54272461 C-0.11367142 71.76229294 -0.11381744 70.98186127 -0.1139679 70.17778015 C-0.11326858 67.5859402 -0.10547536 64.99417122 -0.09765625 62.40234375 C-0.09579213 60.6101536 -0.0943682 58.81796294 -0.09336853 57.02577209 C-0.08954284 52.29929203 -0.07971212 47.57284248 -0.06866455 42.84637451 C-0.05845153 38.0271445 -0.05387115 33.20790958 -0.04882812 28.38867188 C-0.03808989 18.92576781 -0.02101286 9.46288644 0 0 Z M8 6 C8 16.89 8 27.78 8 39 C30.86982119 40.41264267 30.86982119 40.41264267 50.8125 31.375 C53.71548983 27.58889999 54.26153101 23.6912125 54 19 C52.77229655 14.31938061 51.7407178 12.5373835 47.8125 9.6875 C39.55146086 5.24543273 30.59256943 5.75580506 21.5 5.875 C14.8175 5.936875 14.8175 5.936875 8 6 Z " fill="#060502" transform="translate(1589,370)"/>
<path d="M0 0 C4.30092956 -0.05027161 8.60169343 -0.08612107 12.90283203 -0.10986328 C14.35924262 -0.1197839 15.81563407 -0.13332468 17.27197266 -0.15087891 C48.29249357 -0.51481877 48.29249357 -0.51481877 58.5 9.4375 C61.61606922 14.76078493 62.76329286 19.84595128 62 26 C59.67349558 33.22440847 55.63045942 37.57813701 48.98046875 41.21875 C45.43998186 42.61539177 41.77420608 42.82883419 38 43 C41.33251291 49.30242078 45.50238925 54.7588027 49.875 60.375 C54.83972857 66.76743345 59.61738497 73.19162944 64 80 C63 81 63 81 59.3359375 81.5390625 C56.65218361 81.49722224 55.39963243 81.31993366 53.28613281 79.62792969 C51.59538493 77.61745365 50.10162354 75.54766334 48.625 73.375 C48.07336182 72.60897461 47.52172363 71.84294922 46.95336914 71.05371094 C45.27829969 68.71842866 43.63866357 66.36091339 42 64 C41.03031071 62.64110708 40.05783024 61.28419981 39.08203125 59.9296875 C37.41413668 57.61379942 35.76102607 55.28887242 34.12109375 52.953125 C33.42113281 51.97859375 32.72117187 51.0040625 32 50 C31.45988281 49.06285156 30.91976563 48.12570312 30.36328125 47.16015625 C26.62481976 43.74301707 22.64484391 44.21834986 17.75 44.1875 C16.81414062 44.16236328 15.87828125 44.13722656 14.9140625 44.11132812 C12.60895268 44.0525243 10.30573826 44.01619733 8 44 C8.00523682 45.08531006 8.01047363 46.17062012 8.01586914 47.28881836 C8.03391836 51.30117982 8.04543171 55.31353767 8.05493164 59.32592773 C8.05997204 61.06519168 8.0668043 62.80445136 8.07543945 64.54370117 C8.08751792 67.03825937 8.09323108 69.53276173 8.09765625 72.02734375 C8.10281754 72.80963852 8.10797882 73.59193329 8.11329651 74.39793396 C8.11349226 76.26567114 8.06199694 78.13329204 8 80 C7 81 7 81 4 81.125 C1 81 1 81 0 80 C-0.09502416 77.50507612 -0.12557566 75.03793986 -0.11352539 72.54272461 C-0.11367142 71.76229294 -0.11381744 70.98186127 -0.1139679 70.17778015 C-0.11326858 67.5859402 -0.10547536 64.99417122 -0.09765625 62.40234375 C-0.09579213 60.6101536 -0.0943682 58.81796294 -0.09336853 57.02577209 C-0.08954284 52.29929203 -0.07971212 47.57284248 -0.06866455 42.84637451 C-0.05845153 38.0271445 -0.05387115 33.20790958 -0.04882812 28.38867188 C-0.03808989 18.92576781 -0.02101286 9.46288644 0 0 Z M8 6 C8 16.89 8 27.78 8 39 C30.86982119 40.41264267 30.86982119 40.41264267 50.8125 31.375 C53.71548983 27.58889999 54.26153101 23.6912125 54 19 C52.77229655 14.31938061 51.7407178 12.5373835 47.8125 9.6875 C39.55146086 5.24543273 30.59256943 5.75580506 21.5 5.875 C14.8175 5.936875 14.8175 5.936875 8 6 Z " fill="#060502" transform="translate(1011,370)"/>
<path d="M0 0 C4.15884706 -0.02013172 8.31768139 -0.03223921 12.4765625 -0.04296875 C13.64646729 -0.04872925 14.81637207 -0.05448975 16.02172852 -0.0604248 C32.17319061 -0.09164907 47.85483126 0.97014535 60.09375 12.765625 C68.12522238 22.17956393 69.94865414 33.99877219 69 46 C67.45446669 56.24727546 63.84552465 65.13826482 55.75 71.875 C48.36829301 77.16189825 40.19852134 79.90857185 31.15625 80.31640625 C30.24512451 80.35846191 29.33399902 80.40051758 28.39526367 80.44384766 C27.43982666 80.48300293 26.48438965 80.5221582 25.5 80.5625 C24.52200439 80.6042334 23.54400879 80.6459668 22.53637695 80.68896484 C6.51357435 81.33776852 6.51357435 81.33776852 1 81 C-0.71987206 79.28012794 -0.11974788 77.09122971 -0.12442017 74.79867554 C-0.12082489 74.05421173 -0.11722961 73.30974792 -0.11352539 72.54272461 C-0.11367142 71.76229294 -0.11381744 70.98186127 -0.1139679 70.17778015 C-0.11326858 67.5859402 -0.10547536 64.99417122 -0.09765625 62.40234375 C-0.09579213 60.6101536 -0.0943682 58.81796294 -0.09336853 57.02577209 C-0.08954284 52.29929203 -0.07971212 47.57284248 -0.06866455 42.84637451 C-0.05845153 38.0271445 -0.05387115 33.20790958 -0.04882812 28.38867188 C-0.03808989 18.92576781 -0.02101286 9.46288644 0 0 Z M8 6 C8 28.77 8 51.54 8 75 C31.31830424 75.86093583 31.31830424 75.86093583 51.30078125 65.953125 C58.88481026 57.91155859 61.42544067 49.3652385 61.2109375 38.296875 C60.41381366 29.61708203 58.05236727 21.44903404 52 15 C38.92147609 4.36932815 24.58253171 6 8 6 Z " fill="#050401" transform="translate(2385,370)"/>
<path d="M0 0 C18.15 0 36.3 0 55 0 C55 1.98 55 3.96 55 6 C39.49 6 23.98 6 8 6 C8 15.57 8 25.14 8 35 C21.2 35 34.4 35 48 35 C48 36.98 48 38.96 48 41 C34.8 41 21.6 41 8 41 C8 52.22 8 63.44 8 75 C24.17 75 40.34 75 57 75 C57 76.65 57 78.3 57 80 C55.30704655 81.69295345 53.17103516 81.12749729 50.85351562 81.12939453 C49.75567749 81.13254669 48.65783936 81.13569885 47.5267334 81.13894653 C46.33197388 81.1369223 45.13721436 81.13489807 43.90625 81.1328125 C42.68925415 81.13376923 41.4722583 81.13472595 40.21838379 81.13571167 C37.63924101 81.13639372 35.06009653 81.13453772 32.48095703 81.13037109 C28.51721364 81.12502322 24.55358358 81.13031529 20.58984375 81.13671875 C18.09114558 81.13605797 15.59244748 81.13477682 13.09375 81.1328125 C11.30161072 81.13584885 11.30161072 81.13584885 9.4732666 81.13894653 C8.37542847 81.13579437 7.27759033 81.13264221 6.14648438 81.12939453 C4.68873596 81.12820114 4.68873596 81.12820114 3.20153809 81.12698364 C1 81 1 81 0 80 C-0.09502416 77.50507612 -0.12557566 75.03793986 -0.11352539 72.54272461 C-0.11367142 71.76229294 -0.11381744 70.98186127 -0.1139679 70.17778015 C-0.11326858 67.5859402 -0.10547536 64.99417122 -0.09765625 62.40234375 C-0.09579213 60.6101536 -0.0943682 58.81796294 -0.09336853 57.02577209 C-0.08954284 52.29929203 -0.07971212 47.57284248 -0.06866455 42.84637451 C-0.05665719 37.18044414 -0.05204843 31.51450359 -0.04621124 25.84856415 C-0.03650039 17.23235484 -0.0173442 8.61621257 0 0 Z " fill="#070602" transform="translate(1234,370)"/>
<path d="M0 0 C18.15 0 36.3 0 55 0 C55 1.98 55 3.96 55 6 C39.49 6 23.98 6 8 6 C8 15.57 8 25.14 8 35 C21.2 35 34.4 35 48 35 C48 36.98 48 38.96 48 41 C34.8 41 21.6 41 8 41 C8 52.22 8 63.44 8 75 C24.17 75 40.34 75 57 75 C57 76.65 57 78.3 57 80 C55.30704655 81.69295345 53.17103516 81.12749729 50.85351562 81.12939453 C49.75567749 81.13254669 48.65783936 81.13569885 47.5267334 81.13894653 C46.33197388 81.1369223 45.13721436 81.13489807 43.90625 81.1328125 C42.68925415 81.13376923 41.4722583 81.13472595 40.21838379 81.13571167 C37.63924101 81.13639372 35.06009653 81.13453772 32.48095703 81.13037109 C28.51721364 81.12502322 24.55358358 81.13031529 20.58984375 81.13671875 C18.09114558 81.13605797 15.59244748 81.13477682 13.09375 81.1328125 C11.30161072 81.13584885 11.30161072 81.13584885 9.4732666 81.13894653 C8.37542847 81.13579437 7.27759033 81.13264221 6.14648438 81.12939453 C4.68873596 81.12820114 4.68873596 81.12820114 3.20153809 81.12698364 C1 81 1 81 0 80 C-0.09502416 77.50507612 -0.12557566 75.03793986 -0.11352539 72.54272461 C-0.11367142 71.76229294 -0.11381744 70.98186127 -0.1139679 70.17778015 C-0.11326858 67.5859402 -0.10547536 64.99417122 -0.09765625 62.40234375 C-0.09579213 60.6101536 -0.0943682 58.81796294 -0.09336853 57.02577209 C-0.08954284 52.29929203 -0.07971212 47.57284248 -0.06866455 42.84637451 C-0.05665719 37.18044414 -0.05204843 31.51450359 -0.04621124 25.84856415 C-0.03650039 17.23235484 -0.0173442 8.61621257 0 0 Z " fill="#070602" transform="translate(901,370)"/>
<path d="M0 0 C2.33294775 -0.04241723 4.66702567 -0.04092937 7 0 C8.69994808 1.69994808 8.13361606 3.8775791 8.1418457 6.203125 C8.14888016 7.31518311 8.15591461 8.42724121 8.16316223 9.57299805 C8.16732651 10.78640869 8.17149078 11.99981934 8.17578125 13.25 C8.19899335 15.80339353 8.22311124 18.35677897 8.24804688 20.91015625 C8.28433597 24.94775288 8.31413187 28.98520145 8.32592773 33.02294922 C8.341459 36.91150082 8.38172252 40.79918033 8.42578125 44.6875 C8.42387283 45.8847168 8.42196442 47.08193359 8.41999817 48.31542969 C8.54419894 56.88077025 9.71787258 63.48888694 15.6875 69.875 C23.83693716 75.10294082 32.24533808 76.3259507 41.74609375 74.4609375 C47.33628612 72.94917671 51.93437572 71.28111068 55.1484375 66.17578125 C58.25432297 60.39354766 59.09773811 54.90908075 59.20532227 48.36181641 C59.22526749 47.28114899 59.24521271 46.20048157 59.26576233 45.08706665 C59.29083107 43.3617421 59.29083107 43.3617421 59.31640625 41.6015625 C59.33718735 40.41146576 59.35796844 39.22136902 59.37937927 37.99520874 C59.44460095 34.20519615 59.50363234 30.41511609 59.5625 26.625 C59.60571126 24.05077436 59.64932638 21.47655547 59.69335938 18.90234375 C59.80025425 12.60163318 59.90207088 6.30085596 60 0 C62.31 0 64.62 0 67 0 C67.09316446 7.5198085 67.16399844 15.03955626 67.20724869 22.55981255 C67.22801927 26.05277947 67.25614006 29.54534814 67.30175781 33.03808594 C67.35400946 37.06448939 67.37303198 41.09048227 67.390625 45.1171875 C67.41127014 46.35612762 67.43191528 47.59506775 67.45318604 48.87155151 C67.45566511 58.55788216 65.67799584 67.17196631 58.90234375 74.46484375 C49.60335372 81.96895685 38.4320305 82.52276433 27 82 C18.64689156 81.09626338 10.98244527 77.89058648 5.625 71.25 C-0.3474231 63.2169163 -0.41482276 54.05221418 -0.29296875 44.43359375 C-0.28872391 43.15895767 -0.28447906 41.88432159 -0.28010559 40.57106018 C-0.26623423 37.21224507 -0.23936858 33.85406301 -0.20599365 30.49542236 C-0.17508729 27.05624812 -0.16155672 23.617008 -0.14648438 20.17773438 C-0.11352491 13.45165074 -0.06340767 6.72586184 0 0 Z " fill="#040401" transform="translate(1461,370)"/>
<path d="M0 0 C18.15 0 36.3 0 55 0 C55 1.98 55 3.96 55 6 C39.49 6 23.98 6 8 6 C8 15.57 8 25.14 8 35 C21.2 35 34.4 35 48 35 C48 36.98 48 38.96 48 41 C34.8 41 21.6 41 8 41 C8 52.22 8 63.44 8 75 C24.17 75 40.34 75 57 75 C57 76.65 57 78.3 57 80 C38.19 80 19.38 80 0 80 C0 53.6 0 27.2 0 0 Z " fill="#050401" transform="translate(2508,370)"/>
<path d="M0 0 C1.134375 0.020625 2.26875 0.04125 3.4375 0.0625 C8.82910424 10.41045898 13.47017996 21.05692843 18.125 31.75 C19.32219341 34.49291197 20.52016663 37.23548245 21.71820068 39.97802734 C22.5094918 41.78970271 23.30038877 43.60155028 24.09088135 45.41357422 C26.39208772 50.68514157 28.71262031 55.94743097 31.05859375 61.19921875 C31.57526611 62.3591333 32.09193848 63.51904785 32.62426758 64.71411133 C33.55866392 66.80829481 34.49707965 68.90069116 35.44018555 70.9909668 C35.84406494 71.89886963 36.24794434 72.80677246 36.6640625 73.7421875 C37.01033691 74.51288574 37.35661133 75.28358398 37.71337891 76.07763672 C38.4375 78.0625 38.4375 78.0625 38.4375 81.0625 C35.125 81.3125 35.125 81.3125 31.4375 81.0625 C28.97803858 78.41486655 27.59473328 75.48119397 26.17578125 72.18359375 C25.77939453 71.26255859 25.38300781 70.34152344 24.97460938 69.39257812 C24.57048828 68.43802734 24.16636719 67.48347656 23.75 66.5 C23.33427734 65.54158203 22.91855469 64.58316406 22.49023438 63.59570312 C22.09771484 62.67595703 21.70519531 61.75621094 21.30078125 60.80859375 C20.94282471 59.96997803 20.58486816 59.1313623 20.21606445 58.26733398 C19.4375 56.0625 19.4375 56.0625 19.4375 53.0625 C6.5675 53.0625 -6.3025 53.0625 -19.5625 53.0625 C-20.5525 56.0325 -21.5425 59.0025 -22.5625 62.0625 C-23.20228823 63.66831242 -23.86507489 65.26558574 -24.5703125 66.84375 C-25.09044922 68.01164062 -25.09044922 68.01164062 -25.62109375 69.203125 C-25.97300781 69.98171875 -26.32492188 70.7603125 -26.6875 71.5625 C-27.04714844 72.37203125 -27.40679688 73.1815625 -27.77734375 74.015625 C-30.4243921 79.9243921 -30.4243921 79.9243921 -31.5625 81.0625 C-33.89547433 81.10342937 -36.22955225 81.10491723 -38.5625 81.0625 C-37.88318796 76.26301279 -36.0141065 72.18624679 -34.0546875 67.80078125 C-33.69681656 66.98896896 -33.33894562 66.17715668 -32.9702301 65.34074402 C-31.79743146 62.68335465 -30.6175749 60.02916518 -29.4375 57.375 C-28.62593904 55.54056113 -27.8148266 53.70592378 -27.00415039 51.87109375 C-25.34479217 48.11695817 -23.68278739 44.36401002 -22.01904297 40.61181641 C-19.68948547 35.35452997 -17.37567619 30.09044178 -15.06640625 24.82421875 C-14.03837131 22.48245308 -13.01010781 20.14078793 -11.98175049 17.79916382 C-11.32796961 16.30969367 -10.67476998 14.81996826 -10.02215576 13.32998657 C-9.11985779 11.27108874 -8.21462312 9.21350795 -7.30859375 7.15625 C-6.79997803 5.99802734 -6.2913623 4.83980469 -5.76733398 3.64648438 C-4.10063217 0.07194092 -4.10063217 0.07194092 0 0 Z M-0.5625 7.0625 C-0.86953857 7.81756836 -1.17657715 8.57263672 -1.49291992 9.35058594 C-2.65739075 12.21354407 -3.82232448 15.07631332 -4.98754883 17.93896484 C-5.72967443 19.76255495 -6.47128972 21.5863527 -7.21289062 23.41015625 C-7.69306641 24.58964844 -8.17324219 25.76914062 -8.66796875 26.984375 C-9.38605713 28.7487793 -9.38605713 28.7487793 -10.11865234 30.54882812 C-11.93253504 34.96299786 -13.79572491 39.35565041 -15.6730957 43.74316406 C-16.68185009 45.95973064 -16.68185009 45.95973064 -16.5625 48.0625 C-5.6725 48.0625 5.2175 48.0625 16.4375 48.0625 C14.52616668 42.32850003 12.5924889 36.75365749 10.30078125 31.18359375 C10.01647751 30.48605484 9.73217377 29.78851593 9.43925476 29.06983948 C8.54551566 26.87878729 7.64783939 24.68937471 6.75 22.5 C6.1371065 20.99945647 5.52447412 19.49880626 4.91210938 17.99804688 C3.42358128 14.35162737 1.93152412 10.70667091 0.4375 7.0625 C0.1075 7.0625 -0.2225 7.0625 -0.5625 7.0625 Z " fill="#050401" transform="translate(2298.5625,369.9375)"/>
<path d="M0 0 C1.134375 0.020625 2.26875 0.04125 3.4375 0.0625 C8.82910424 10.41045898 13.47017996 21.05692843 18.125 31.75 C19.32219341 34.49291197 20.52016663 37.23548245 21.71820068 39.97802734 C22.5094918 41.78970271 23.30038877 43.60155028 24.09088135 45.41357422 C26.39208772 50.68514157 28.71262031 55.94743097 31.05859375 61.19921875 C31.57526611 62.3591333 32.09193848 63.51904785 32.62426758 64.71411133 C33.55866392 66.80829481 34.49707965 68.90069116 35.44018555 70.9909668 C35.84406494 71.89886963 36.24794434 72.80677246 36.6640625 73.7421875 C37.01033691 74.51288574 37.35661133 75.28358398 37.71337891 76.07763672 C38.4375 78.0625 38.4375 78.0625 38.4375 81.0625 C35.125 81.3125 35.125 81.3125 31.4375 81.0625 C28.97803858 78.41486655 27.59473328 75.48119397 26.17578125 72.18359375 C25.77939453 71.26255859 25.38300781 70.34152344 24.97460938 69.39257812 C24.57048828 68.43802734 24.16636719 67.48347656 23.75 66.5 C23.33427734 65.54158203 22.91855469 64.58316406 22.49023438 63.59570312 C22.09771484 62.67595703 21.70519531 61.75621094 21.30078125 60.80859375 C20.94282471 59.96997803 20.58486816 59.1313623 20.21606445 58.26733398 C19.4375 56.0625 19.4375 56.0625 19.4375 53.0625 C6.5675 53.0625 -6.3025 53.0625 -19.5625 53.0625 C-20.5525 56.0325 -21.5425 59.0025 -22.5625 62.0625 C-23.20228823 63.66831242 -23.86507489 65.26558574 -24.5703125 66.84375 C-25.09044922 68.01164062 -25.09044922 68.01164062 -25.62109375 69.203125 C-25.97300781 69.98171875 -26.32492187 70.7603125 -26.6875 71.5625 C-27.04714844 72.37203125 -27.40679688 73.1815625 -27.77734375 74.015625 C-30.4243921 79.9243921 -30.4243921 79.9243921 -31.5625 81.0625 C-33.89547433 81.10342937 -36.22955225 81.10491723 -38.5625 81.0625 C-37.88318796 76.26301279 -36.0141065 72.18624679 -34.0546875 67.80078125 C-33.69681656 66.98896896 -33.33894562 66.17715668 -32.9702301 65.34074402 C-31.79743146 62.68335465 -30.6175749 60.02916518 -29.4375 57.375 C-28.62593904 55.54056113 -27.8148266 53.70592378 -27.00415039 51.87109375 C-25.34479217 48.11695817 -23.68278739 44.36401002 -22.01904297 40.61181641 C-19.68948547 35.35452997 -17.37567619 30.09044178 -15.06640625 24.82421875 C-14.03837131 22.48245308 -13.01010781 20.14078793 -11.98175049 17.79916382 C-11.32796961 16.30969367 -10.67476998 14.81996826 -10.02215576 13.32998657 C-9.11985779 11.27108874 -8.21462312 9.21350795 -7.30859375 7.15625 C-6.79997803 5.99802734 -6.2913623 4.83980469 -5.76733398 3.64648438 C-4.10063217 0.07194092 -4.10063217 0.07194092 0 0 Z M-0.5625 7.0625 C-0.86953857 7.81756836 -1.17657715 8.57263672 -1.49291992 9.35058594 C-2.65739075 12.21354407 -3.82232448 15.07631332 -4.98754883 17.93896484 C-5.72967443 19.76255495 -6.47128972 21.5863527 -7.21289062 23.41015625 C-7.69306641 24.58964844 -8.17324219 25.76914062 -8.66796875 26.984375 C-9.38605713 28.7487793 -9.38605713 28.7487793 -10.11865234 30.54882812 C-11.93253504 34.96299786 -13.79572491 39.35565041 -15.6730957 43.74316406 C-16.68185009 45.95973064 -16.68185009 45.95973064 -16.5625 48.0625 C-5.6725 48.0625 5.2175 48.0625 16.4375 48.0625 C14.52616668 42.32850003 12.5924889 36.75365749 10.30078125 31.18359375 C10.01647751 30.48605484 9.73217377 29.78851593 9.43925476 29.06983948 C8.54551566 26.87878729 7.64783939 24.68937471 6.75 22.5 C6.1371065 20.99945647 5.52447412 19.49880626 4.91210938 17.99804688 C3.42358128 14.35162737 1.93152412 10.70667091 0.4375 7.0625 C0.1075 7.0625 -0.2225 7.0625 -0.5625 7.0625 Z " fill="#050401" transform="translate(2070.5625,369.9375)"/>
<path d="M0 0 C-1 3 -1 3 -3.0625 4.5 C-7.13412806 5.19304307 -8.61622706 3.56604493 -11.9140625 1.31640625 C-18.65122281 -2.93532226 -27.32330602 -2.75297716 -35 -2 C-39.50977018 -0.84273093 -43.51198555 0.40855854 -46.7421875 3.86328125 C-48.87210607 7.48149696 -48.75707922 10.93797878 -48 15 C-41.97808094 23.46832367 -29.20616161 26.23692413 -19.84375 29.55664062 C-10.51773739 32.95380557 -1.66721008 36.66557985 3 46 C3.49756886 51.44878691 3.76085647 56.35655002 1.4375 61.375 C-6.40002384 69.81541029 -13.59969277 73.4711671 -25.2265625 74.203125 C-38.25009128 74.38275988 -51.91620775 71.98374218 -62 63 C-62 62.01 -62 61.02 -62 60 C-59.5 58.3125 -59.5 58.3125 -57 57 C-56.50113281 57.38671875 -56.00226563 57.7734375 -55.48828125 58.171875 C-45.40130024 65.48810539 -34.38775616 68.28744741 -22 67 C-15.70881101 65.88423661 -10.89302643 64.35291134 -7 59 C-5.32085378 55.05765671 -4.92370462 52.63216172 -5.4375 48.375 C-7.94000999 42.96957841 -11.89711621 40.86607048 -17.23901367 38.66601562 C-21.76917536 37.00942147 -26.32180455 35.43100755 -30.88818359 33.87768555 C-50.25665495 27.24565217 -50.25665495 27.24565217 -55.5625 19.75 C-57.69407156 15.31004449 -57.72831759 10.80379686 -57 6 C-54.41975181 -1.03704051 -49.6215512 -3.84063182 -43 -7 C-28.39847565 -12.35389226 -12.42220055 -8.76861215 0 0 Z " fill="#050401" transform="translate(1178,378)"/>
<path d="M0 0 C0.69222656 0.68255859 0.69222656 0.68255859 1.3984375 1.37890625 C1.3984375 2.69890625 1.3984375 4.01890625 1.3984375 5.37890625 C-0.36328125 6.51953125 -0.36328125 6.51953125 -2.6015625 7.37890625 C-4.49609375 6.55078125 -4.49609375 6.55078125 -6.4140625 5.12890625 C-14.34412654 -0.21115522 -22.98011164 -0.76971278 -32.28125 0.84375 C-40.64139084 3.04447243 -47.35079233 6.86392107 -52.0390625 14.25390625 C-57.29938276 24.08968513 -58.20913149 34.83636635 -55.87890625 45.76953125 C-52.85327985 55.52013293 -49.13905041 61.18441735 -40.13671875 66.15625 C-31.19702851 70.46768767 -21.10991335 70.87158804 -11.7265625 67.62890625 C-8.63616041 66.38385217 -5.88980647 65.04170903 -3.1640625 63.12890625 C-0.6015625 61.37890625 -0.6015625 61.37890625 3.3984375 61.37890625 C4.0584375 62.69890625 4.7184375 64.01890625 5.3984375 65.37890625 C-5.74426133 74.79345503 -16.06556397 77.2543698 -30.6015625 76.37890625 C-41.34337232 74.91533466 -50.58633041 70.46552914 -57.5390625 62.00390625 C-65.6139369 50.65648084 -66.6714198 38.93441659 -65.6015625 25.37890625 C-63.64542161 14.7261872 -58.35462589 6.92136333 -49.7265625 0.50390625 C-34.56221739 -9.46716998 -15.37214506 -9.2050592 0 0 Z " fill="#060401" transform="translate(2214.6015625,375.62109375)"/>
<path d="M0 0 C0.69222656 0.68255859 0.69222656 0.68255859 1.3984375 1.37890625 C1.3984375 2.69890625 1.3984375 4.01890625 1.3984375 5.37890625 C-0.36328125 6.51953125 -0.36328125 6.51953125 -2.6015625 7.37890625 C-4.49609375 6.55078125 -4.49609375 6.55078125 -6.4140625 5.12890625 C-14.34412654 -0.21115522 -22.98011164 -0.76971278 -32.28125 0.84375 C-40.64139084 3.04447243 -47.35079233 6.86392107 -52.0390625 14.25390625 C-57.29938276 24.08968513 -58.20913149 34.83636635 -55.87890625 45.76953125 C-52.85327985 55.52013293 -49.13905041 61.18441735 -40.13671875 66.15625 C-31.19702851 70.46768767 -21.10991335 70.87158804 -11.7265625 67.62890625 C-8.63616041 66.38385217 -5.88980647 65.04170903 -3.1640625 63.12890625 C-0.6015625 61.37890625 -0.6015625 61.37890625 3.3984375 61.37890625 C4.0584375 62.69890625 4.7184375 64.01890625 5.3984375 65.37890625 C-5.74426133 74.79345503 -16.06556397 77.2543698 -30.6015625 76.37890625 C-41.34337232 74.91533466 -50.58633041 70.46552914 -57.5390625 62.00390625 C-65.6139369 50.65648084 -66.6714198 38.93441659 -65.6015625 25.37890625 C-63.64542161 14.7261872 -58.35462589 6.92136333 -49.7265625 0.50390625 C-34.56221739 -9.46716998 -15.37214506 -9.2050592 0 0 Z " fill="#050401" transform="translate(1404.6015625,375.62109375)"/>
<path d="M0 0 C0.69222656 0.68255859 0.69222656 0.68255859 1.3984375 1.37890625 C1.3984375 2.69890625 1.3984375 4.01890625 1.3984375 5.37890625 C-0.36328125 6.51953125 -0.36328125 6.51953125 -2.6015625 7.37890625 C-4.49609375 6.55078125 -4.49609375 6.55078125 -6.4140625 5.12890625 C-14.34412654 -0.21115522 -22.98011164 -0.76971278 -32.28125 0.84375 C-40.64139084 3.04447243 -47.35079233 6.86392107 -52.0390625 14.25390625 C-57.29938276 24.08968513 -58.20913149 34.83636635 -55.87890625 45.76953125 C-52.85327985 55.52013293 -49.13905041 61.18441735 -40.13671875 66.15625 C-31.19702851 70.46768767 -21.10991335 70.87158804 -11.7265625 67.62890625 C-8.63616041 66.38385217 -5.88980647 65.04170903 -3.1640625 63.12890625 C-0.6015625 61.37890625 -0.6015625 61.37890625 3.3984375 61.37890625 C4.0584375 62.69890625 4.7184375 64.01890625 5.3984375 65.37890625 C-5.74426133 74.79345503 -16.06556397 77.2543698 -30.6015625 76.37890625 C-41.34337232 74.91533466 -50.58633041 70.46552914 -57.5390625 62.00390625 C-65.6139369 50.65648084 -66.6714198 38.93441659 -65.6015625 25.37890625 C-63.64542161 14.7261872 -58.35462589 6.92136333 -49.7265625 0.50390625 C-34.56221739 -9.46716998 -15.37214506 -9.2050592 0 0 Z " fill="#050402" transform="translate(623.6015625,375.62109375)"/>
<path d="M0 0 C9.10959165 -0.02312545 18.21917326 -0.04091612 27.3287878 -0.05181217 C31.55831371 -0.05704056 35.7878196 -0.0641374 40.01733398 -0.07543945 C44.09568543 -0.08626991 48.17401757 -0.09227717 52.25238228 -0.09487724 C53.81177639 -0.09673121 55.3711694 -0.10035127 56.93055534 -0.10573006 C59.10729162 -0.11294262 61.28394714 -0.11399085 63.46069336 -0.11352539 C65.32267616 -0.11685631 65.32267616 -0.11685631 67.22227478 -0.12025452 C70 0 70 0 71 1 C71 2.65 71 4.3 71 6 C60.44 6 49.88 6 39 6 C39 30.42 39 54.84 39 80 C36.36 80 33.72 80 31 80 C31 55.58 31 31.16 31 6 C20.77 6 10.54 6 0 6 C0 4.02 0 2.04 0 0 Z " fill="#060502" transform="translate(1762,370)"/>
<path d="M0 0 C2.97457812 -0.33887599 5.113678 -0.57291998 8 0 C10.12044882 2.32859104 11.31105488 4.03529239 12.75 6.75 C13.15557129 7.45358643 13.56114258 8.15717285 13.97900391 8.88208008 C14.8629277 10.41635971 15.73500344 11.95751079 16.59667969 13.50439453 C18.59275698 17.05413393 20.68558433 20.54315017 22.78222656 24.03417969 C23.82511961 25.77148221 24.86120728 27.51289251 25.88964844 29.25878906 C28.35505064 33.41884315 30.8359714 37.31863024 34 41 C34.36649658 40.39752441 34.73299316 39.79504883 35.1105957 39.17431641 C35.88536255 37.90080322 35.88536255 37.90080322 36.67578125 36.6015625 C37.25118652 35.65482666 37.8265918 34.70809082 38.41943359 33.73266602 C39.68805954 31.65008416 40.96056433 29.5698605 42.23681641 27.49194336 C45.27984733 22.52822337 48.27650766 17.5585069 51.09765625 12.46484375 C51.56969482 11.6332373 52.0417334 10.80163086 52.52807617 9.94482422 C53.40807182 8.38836283 54.26493254 6.81853024 55.0949707 5.23486328 C56.27141308 3.18683262 57.24211973 1.57928151 59 0 C61.92918793 -0.64403969 63.96712662 -0.38957291 67 0 C65.74659546 3.32530699 64.33271224 6.29492536 62.453125 9.30859375 C61.94426758 10.12553711 61.43541016 10.94248047 60.91113281 11.78417969 C60.08887207 13.09757324 60.08887207 13.09757324 59.25 14.4375 C58.6837793 15.36852539 58.11755859 16.29955078 57.53417969 17.25878906 C54.58266575 22.07135612 51.54956516 26.67072571 48.0625 31.11328125 C36.01678162 47.01442099 36.06546031 61.78768397 37 81 C34.69 81 32.38 81 30 81 C30.03254883 80.09983154 30.06509766 79.19966309 30.09863281 78.2722168 C30.59911422 59.96137941 30.70953085 45.99184656 18.70800781 31.19775391 C15.66593958 27.2834174 13.15534624 23.03154865 10.5625 18.8125 C9.60754576 17.29686644 8.65060653 15.78248119 7.69140625 14.26953125 C7.02455811 13.20919678 7.02455811 13.20919678 6.34423828 12.12744141 C5.41788952 10.66136747 4.48346953 9.20037277 3.54248047 7.74365234 C3.08373535 7.02773926 2.62499023 6.31182617 2.15234375 5.57421875 C1.73847412 4.93444092 1.32460449 4.29466309 0.89819336 3.63549805 C0 2 0 2 0 0 Z " fill="#050401" transform="translate(667,370)"/>
<path d="M0 0 C2.97457812 -0.33887599 5.113678 -0.57291998 8 0 C10.12044882 2.32859104 11.31105488 4.03529239 12.75 6.75 C13.15557129 7.45358643 13.56114258 8.15717285 13.97900391 8.88208008 C14.8629277 10.41635971 15.73500344 11.95751079 16.59667969 13.50439453 C18.59275698 17.05413393 20.68558433 20.54315017 22.78222656 24.03417969 C23.82511961 25.77148221 24.86120728 27.51289251 25.88964844 29.25878906 C28.35505064 33.41884315 30.8359714 37.31863024 34 41 C34.36649658 40.39752441 34.73299316 39.79504883 35.1105957 39.17431641 C35.88536255 37.90080322 35.88536255 37.90080322 36.67578125 36.6015625 C37.25118652 35.65482666 37.8265918 34.70809082 38.41943359 33.73266602 C39.68805954 31.65008416 40.96056433 29.5698605 42.23681641 27.49194336 C45.27984733 22.52822337 48.27650766 17.5585069 51.09765625 12.46484375 C51.56969482 11.6332373 52.0417334 10.80163086 52.52807617 9.94482422 C53.40807182 8.38836283 54.26493254 6.81853024 55.0949707 5.23486328 C56.27141308 3.18683262 57.24211973 1.57928151 59 0 C61.92918793 -0.64403969 63.96712662 -0.38957291 67 0 C65.74659546 3.32530699 64.33271224 6.29492536 62.453125 9.30859375 C61.94426758 10.12561768 61.43541016 10.9426416 60.91113281 11.78442383 C60.08887207 13.09769653 60.08887207 13.09769653 59.25 14.4375 C58.6837793 15.36780029 58.11755859 16.29810059 57.53417969 17.2565918 C54.57769439 22.07443299 51.53753292 26.68766505 48.0625 31.1484375 C36.24525879 46.84353762 36.04588456 61.0570564 37 80 C34.69 80 32.38 80 30 80 C30.03254883 79.13012451 30.06509766 78.26024902 30.09863281 77.36401367 C30.60968597 59.28729929 30.47307295 45.84780339 18.70800781 31.21386719 C15.67758155 27.28592188 13.15908903 23.03395345 10.5625 18.8125 C9.60747393 17.29691169 8.65053126 15.78252891 7.69140625 14.26953125 C7.02455811 13.20919678 7.02455811 13.20919678 6.34423828 12.12744141 C5.41788952 10.66136747 4.48346953 9.20037277 3.54248047 7.74365234 C3.08373535 7.02773926 2.62499023 6.31182617 2.15234375 5.57421875 C1.73847412 4.93444092 1.32460449 4.29466309 0.89819336 3.63549805 C0 2 0 2 0 0 Z " fill="#050401" transform="translate(2743,370)"/>
<path d="M0 0 C2.97457812 -0.33887599 5.113678 -0.57291998 8 0 C10.12044882 2.32859104 11.31105488 4.03529239 12.75 6.75 C13.15557129 7.45358643 13.56114258 8.15717285 13.97900391 8.88208008 C14.8629277 10.41635971 15.73500344 11.95751079 16.59667969 13.50439453 C18.59275698 17.05413393 20.68558433 20.54315017 22.78222656 24.03417969 C23.82511961 25.77148221 24.86120728 27.51289251 25.88964844 29.25878906 C28.35505064 33.41884315 30.8359714 37.31863024 34 41 C34.36649658 40.39752441 34.73299316 39.79504883 35.1105957 39.17431641 C35.88536255 37.90080322 35.88536255 37.90080322 36.67578125 36.6015625 C37.25118652 35.65482666 37.8265918 34.70809082 38.41943359 33.73266602 C39.68805954 31.65008416 40.96056433 29.5698605 42.23681641 27.49194336 C45.27984733 22.52822337 48.27650766 17.5585069 51.09765625 12.46484375 C51.56969482 11.6332373 52.0417334 10.80163086 52.52807617 9.94482422 C53.40807182 8.38836283 54.26493254 6.81853024 55.0949707 5.23486328 C56.27141308 3.18683262 57.24211973 1.57928151 59 0 C61.92918793 -0.64403969 63.96712662 -0.38957291 67 0 C65.74659546 3.32530699 64.33271224 6.29492536 62.453125 9.30859375 C61.94426758 10.12561768 61.43541016 10.9426416 60.91113281 11.78442383 C60.08887207 13.09769653 60.08887207 13.09769653 59.25 14.4375 C58.6837793 15.36780029 58.11755859 16.29810059 57.53417969 17.2565918 C54.57769439 22.07443299 51.53753292 26.68766505 48.0625 31.1484375 C36.24525879 46.84353762 36.04588456 61.0570564 37 80 C34.69 80 32.38 80 30 80 C30.03254883 79.13012451 30.06509766 78.26024902 30.09863281 77.36401367 C30.60968597 59.28729929 30.47307295 45.84780339 18.70800781 31.21386719 C15.67758155 27.28592188 13.15908903 23.03395345 10.5625 18.8125 C9.60747393 17.29691169 8.65053126 15.78252891 7.69140625 14.26953125 C7.02455811 13.20919678 7.02455811 13.20919678 6.34423828 12.12744141 C5.41788952 10.66136747 4.48346953 9.20037277 3.54248047 7.74365234 C3.08373535 7.02773926 2.62499023 6.31182617 2.15234375 5.57421875 C1.73847412 4.93444092 1.32460449 4.29466309 0.89819336 3.63549805 C0 2 0 2 0 0 Z " fill="#050401" transform="translate(1868,370)"/>
<path d="M0 0 C5.54648833 1.98551333 9.38327402 5.76654805 12 11 C12.52448349 17.17276719 12.78888444 22.82185793 9 28 C3.64776405 32.12568188 -0.25696296 33.4495358 -7 33 C-12.87416372 31.17698367 -15.50333923 28.83361931 -19 24 C-20.97436212 20.05127576 -20.43829693 15.30383233 -20 11 C-15.73385928 2.30971336 -9.31494668 -1.09946912 0 0 Z " fill="#000000" transform="translate(217,153)"/>
<path d="M0 0 C2.64 0 5.28 0 8 0 C8 26.4 8 52.8 8 80 C5.36 80 2.72 80 0 80 C0 53.6 0 27.2 0 0 Z " fill="#060502" transform="translate(1703,370)"/>
<path d="M0 0 C3.02182284 2.05741129 4.69011377 3.49949825 5.4453125 7.15625 C5.65056702 11.26134032 5.33688603 13.46098235 3.125 17 C-0.14840013 20.08084718 -2.46126475 20.33387487 -6.9609375 20.29296875 C-10.13134567 19.83745033 -11.8192402 18.24684343 -14 16 C-15.61540873 12.76918255 -15.5896275 9.49240902 -15 6 C-11.37660818 -0.53329722 -7.05387839 -1.7026603 0 0 Z " fill="#000000" transform="translate(64,322)"/>
<path d="M0 0 C2.8100346 1.79363911 4.50940468 3.01880935 6 6 C6.65271451 10.74616694 6.69934049 13.98277746 3.9375 18 C0.42070506 20.39441358 -1.75226664 21 -6 21 C-9.64732163 19.42502021 -12.17551854 17.55293758 -14 14 C-14.53198011 9.212179 -14.72509014 7.13597455 -12.125 3.0625 C-8.49059499 -0.46501074 -4.90782663 -0.7051475 0 0 Z " fill="#000000" transform="translate(23,221)"/>
<path d="M0 0 C3 1.4375 3 1.4375 5 4 C6.29282605 8.33096727 6.53077114 11.75268782 4.75 15.9375 C2.03029259 19.14286945 0.39140745 19.95508439 -3.8125 20.4375 C-8.64484674 20.33942654 -10.69263085 18.38803669 -14 15 C-15.41000664 12.17998673 -15.24548451 10.12992745 -15 7 C-11.66065654 0.00328036 -7.2267294 -0.97624239 0 0 Z " fill="#000000" transform="translate(43,119)"/>
<path d="M0 0 C3.2207122 0.64180859 4.96792156 2.03620327 7.15625 4.4296875 C8.35815901 8.03541454 8.48295315 10.639931 8.15625 14.4296875 C6.36062595 17.18297771 5.10370078 18.95596211 2.15625 20.4296875 C-4.8943176 21.00760288 -4.8943176 21.00760288 -8.71875 18.6796875 C-11.96306699 15.24452834 -12.86872233 13.80316547 -12.78125 8.9921875 C-10.89870864 1.83853033 -7.06235257 -0.40019998 0 0 Z " fill="#000000" transform="translate(182.84375,9.5703125)"/>
</svg>
