<?xml version="1.0" encoding="UTF-8"?>
<svg version="1.1" xmlns="http://www.w3.org/2000/svg" width="2821" height="452">
<path d="M0 0 C930.93 0 1861.86 0 2821 0 C2821 149.16 2821 298.32 2821 452 C1890.07 452 959.14 452 0 452 C0 302.84 0 153.68 0 0 Z " fill="#000000" transform="translate(0,0)"/>
<path d="M0 0 C127.61629526 0 127.61629526 0 143.6875 2.25 C145.09237671 2.44287598 145.09237671 2.44287598 146.52563477 2.63964844 C169.18650875 5.94813986 194.7940021 12.55228387 210 31 C215.90341209 39.21820709 220.27309015 48.82326215 221 59 C221.06316406 59.76183594 221.12632812 60.52367187 221.19140625 61.30859375 C221.89276774 76.53492535 216.51058486 90.92634165 206.5625 102.3125 C205.05849615 103.89120602 203.53907615 105.45546613 202 107 C201.45859375 107.56460938 200.9171875 108.12921875 200.359375 108.7109375 C193.75572343 115.01442309 184.4122928 118.76206089 176 122 C179.34358474 123.12865856 182.69503197 124.2197148 186.06640625 125.26171875 C205.69696625 131.42348503 222.36666391 140.07336218 232.53515625 158.83203125 C239.73287395 173.83602005 240.12791312 190.82591596 235.25390625 206.63671875 C231.61530341 216.39633572 226.32480189 223.65061824 219 231 C218.33484375 231.68835938 217.6696875 232.37671875 216.984375 233.0859375 C167.95238989 280.43361778 41.40390653 262 0 262 C0 175.54 0 89.08 0 0 Z " fill="#FDFDFD" transform="translate(1063,8)"/>
<path d="M0 0 C182.54986497 0 182.54986497 0 212.53515625 29.21875 C226.87314886 45.39727732 230.91348084 64.06945615 230.17041016 85.29638672 C229.00098533 103.84969692 220.44397169 119.4806481 207 132 C195.00041044 142.24704146 181.00353454 148.57342527 166 153 C171.59811524 162.24197935 177.91364915 170.9157135 184.27832031 179.63720703 C187.03154334 183.41566597 189.76514245 187.2082387 192.5 191 C195.75847476 195.51407436 199.01866691 200.02687709 202.28515625 204.53515625 C208.06495012 212.51677636 213.80118314 220.52553974 219.4675293 228.58813477 C223.74078901 234.65880391 228.08548369 240.67643885 232.4609375 246.67382812 C235.11258008 250.32321887 237.69302735 254.00498442 240.18798828 257.76367188 C240.71772247 258.56091675 241.24745667 259.35816162 241.79324341 260.17956543 C242.19147308 260.78030884 242.58970276 261.38105225 243 262 C234.64623797 262.20901125 226.29357688 262.36867782 217.93784237 262.46630955 C214.05730963 262.51318216 210.17857183 262.57669058 206.29907227 262.67895508 C202.55119425 262.77712581 198.80503606 262.83063229 195.05597115 262.85389519 C193.62965378 262.87045967 192.20342532 262.90281137 190.77784538 262.95157051 C179.64486081 263.31702621 179.64486081 263.31702621 175.64804077 260.11680603 C173.8423578 257.82912557 172.40039982 255.55196161 171 253 C170.3409668 252.08017334 169.68193359 251.16034668 169.00292969 250.21264648 C168.48118164 249.43993408 167.95943359 248.66722168 167.421875 247.87109375 C166.5251709 246.54875732 166.5251709 246.54875732 165.61035156 245.19970703 C164.68947754 243.83241455 164.68947754 243.83241455 163.75 242.4375 C162.42733444 240.48550691 161.10441613 238.53368506 159.78125 236.58203125 C158.81638672 235.15624756 158.81638672 235.15624756 157.83203125 233.70166016 C155.32075228 229.99832685 152.78849157 226.30971244 150.25 222.625 C149.59306152 221.67065063 149.59306152 221.67065063 148.92285156 220.69702148 C148.05222943 219.43235384 147.18146289 218.16778559 146.31054688 216.90332031 C144.03844939 213.60353044 141.76942087 210.30163099 139.5 207 C138.58334714 205.66665718 137.66668049 204.33332383 136.75 203 C134.91666667 200.33333333 133.08333333 197.66666667 131.25 195 C130.79568604 194.33919434 130.34137207 193.67838867 129.87329102 192.99755859 C128.96226563 191.67240132 128.05129503 190.34720638 127.14038086 189.02197266 C124.76286451 185.56322507 122.38422592 182.10525655 120.00390625 178.6484375 C119.51148438 177.93300781 119.0190625 177.21757812 118.51171875 176.48046875 C117.5758765 175.12084887 116.63970231 173.76145738 115.703125 172.40234375 C115.27644531 171.78230469 114.84976562 171.16226563 114.41015625 170.5234375 C114.04027588 169.98638184 113.67039551 169.44932617 113.28930664 168.89599609 C111.50790544 166.27634797 109.75726593 163.6358989 108 161 C83.25 160.505 83.25 160.505 58 160 C58 193.66 58 227.32 58 262 C38.86 262 19.72 262 0 262 C0 175.54 0 89.08 0 0 Z " fill="#FDFDFD" transform="translate(1361,8)"/>
<path d="M0 0 C21.45 0 42.9 0 65 0 C69.45921133 8.91842267 73.78388413 17.77284807 77.8125 26.875 C78.36181471 28.1087432 78.91155366 29.34229759 79.46166992 30.57568359 C80.34991162 32.56717992 81.237957 34.55876079 82.12495422 36.55081177 C85.61982061 44.39907566 89.13990987 52.23597653 92.66397095 60.07116699 C93.4326659 61.78041287 94.20103499 63.48980534 94.96908569 65.19934082 C98.99083079 74.14999474 103.0280321 83.09246497 107.14453125 92 C120.3588885 120.60986115 132.78950599 149.54131297 144 179 C144.66 179 145.32 179 146 179 C146.20250366 178.47859436 146.40500732 177.95718872 146.61364746 177.41998291 C156.52543465 151.92276959 166.66825959 126.61006734 177.97616577 101.69868469 C181.59958341 93.70632888 185.11334453 85.66646413 188.6288147 77.62619019 C197.99421041 56.21137766 207.48648802 34.85324835 216.99560547 13.50195312 C218.99945649 9.00236206 221.00014466 4.50136817 223 0 C231.45767334 -0.02312659 239.91533356 -0.0409167 248.37303066 -0.05181217 C252.29988658 -0.05704031 256.22672094 -0.06413669 260.15356445 -0.07543945 C263.94014257 -0.0862708 267.7266999 -0.09227736 271.51329231 -0.09487724 C272.96104319 -0.09673105 274.40879288 -0.10035081 275.85653496 -0.10573006 C277.87757135 -0.11294367 279.89862848 -0.11340808 281.91967773 -0.11352539 C283.64842384 -0.11685631 283.64842384 -0.11685631 285.41209412 -0.12025452 C288 0 288 0 289 1 C289.09651298 2.39699812 289.12371881 3.79885372 289.12304783 5.19918156 C289.12503888 6.11033885 289.12702993 7.02149614 289.12908131 7.96026427 C289.12616847 8.97288893 289.12325563 9.98551359 289.12025452 11.02882385 C289.12153615 12.62881624 289.12153615 12.62881624 289.12284368 14.2611317 C289.12450165 17.86494104 289.11897195 21.46870466 289.11352539 25.07250977 C289.11324356 27.64405313 289.11340117 30.21559658 289.1139679 32.78713989 C289.11449331 38.33872012 289.11134468 43.89028864 289.10573006 49.44186592 C289.09761743 57.46860305 289.09500008 65.4953345 289.09374207 73.52207529 C289.09155117 86.54361005 289.08489007 99.56513856 289.07543945 112.58666992 C289.0662663 125.23901335 289.059185 137.89135509 289.05493164 150.54370117 C289.05453756 151.71271586 289.05453756 151.71271586 289.05413551 152.905347 C289.05283051 156.81491895 289.05156679 160.72449091 289.05032361 164.63406289 C289.03994983 197.08938079 289.0215109 229.54468709 289 262 C271.51 262 254.02 262 236 262 C235.88561722 244.46212777 235.79416952 226.92459085 235.74093914 209.38644505 C235.7155289 201.23690112 235.68098241 193.08761354 235.62280273 184.93823242 C235.32637282 142.55853618 236.14029892 100.95314381 243 59 C239.95611929 61.83877678 238.55276127 64.88434432 236.98828125 68.68359375 C236.70346893 69.3575972 236.41865662 70.03160065 236.12521362 70.72602844 C235.50708 72.19014453 234.89208982 73.6555908 234.27987671 75.12219238 C232.6123044 79.1133396 230.91780453 83.09305795 229.2265625 87.07421875 C228.87661728 87.8995108 228.52667206 88.72480286 228.16612244 89.57510376 C224.58720092 98.00261339 220.90889806 106.3845547 217.1875 114.75 C216.86046082 115.48545044 216.53342163 116.22090088 216.19647217 116.9786377 C209.77143982 131.40720719 203.15413237 145.74573468 196.51478577 160.07662964 C192.05619818 169.70110932 187.6350662 179.341806 183.25 189 C182.94889313 189.66285004 182.64778625 190.32570007 182.33755493 191.00863647 C178.87431471 198.63454074 175.42741766 206.26768953 171.9921875 213.90625 C171.33693542 215.36198878 170.6816623 216.81771809 170.02636719 218.2734375 C168.78204563 221.03782264 167.54093592 223.80361849 166.30175781 226.5703125 C165.74554123 227.80733597 165.18923148 229.04431755 164.6328125 230.28125 C164.14699707 231.36470703 163.66118164 232.44816406 163.16064453 233.56445312 C162 236 162 236 161 237 C158.40640678 237.08851529 155.83960309 237.11525945 153.24609375 237.09765625 C152.47064713 237.0962413 151.6952005 237.09482635 150.89625549 237.09336853 C148.40996506 237.08775345 145.9237634 237.07519846 143.4375 237.0625 C141.75586067 237.05748694 140.07421994 237.0529237 138.39257812 237.04882812 C134.26168434 237.03777913 130.13085724 237.02050445 126 237 C117.09248597 218.26906178 108.25640613 199.51218015 99.72045898 180.60864258 C96.47699385 173.42977237 93.20488525 166.26634247 89.87109375 159.12890625 C77.89079956 133.45205555 66.54180757 107.51842412 55.36132812 81.48388672 C53.9206589 78.13032892 52.46920382 74.78218582 50.99804688 71.44189453 C50.70996155 70.78371231 50.42187622 70.12553009 50.12506104 69.44740295 C49.39854148 67.78958683 48.66683267 66.1340473 47.93457031 64.47875977 C47 62 47 62 47 59 C46.01 59 45.02 59 44 59 C44.12982773 59.5973848 44.25965546 60.19476959 44.39341736 60.81025696 C45.71185471 67.09798092 46.59473695 73.34285623 47.25390625 79.73046875 C47.35968491 80.72395828 47.46546356 81.71744781 47.57444763 82.74104309 C47.7959119 84.83079 48.01512434 86.92077668 48.23217773 89.01098633 C48.55987463 92.16225334 48.89556643 95.31259091 49.23242188 98.46289062 C49.44839449 100.51036632 49.66390392 102.55789094 49.87890625 104.60546875 C50.0258065 105.98438545 50.0258065 105.98438545 50.17567444 107.39115906 C51.45879407 119.83616976 52.15193829 132.21680415 52.11352539 144.72827148 C52.11367142 146.00817963 52.11381744 147.28808777 52.1139679 148.60678101 C52.11425072 152.06240876 52.10843858 155.51800064 52.10139394 158.97362018 C52.09507341 162.60505658 52.09454981 166.23649412 52.09336853 169.86793518 C52.09028055 176.7204331 52.08210189 183.57291475 52.07201904 190.42540556 C52.06077849 198.23696891 52.05532759 206.04853309 52.05032361 213.86010253 C52.03991669 229.906746 52.02160335 245.95336711 52 262 C34.84 262 17.68 262 0 262 C0 175.54 0 89.08 0 0 Z " fill="#FEFEFE" transform="translate(2532,8)"/>
<path d="M0 0 C19.14 0 38.28 0 58 0 C58.029729 7.34209717 58.029729 7.34209717 58.06005859 14.83251953 C58.12705387 31.02954669 58.20459454 47.2265108 58.28752708 63.42346382 C58.33753822 73.24078964 58.38398198 83.05810759 58.421875 92.87548828 C58.45493174 101.43748874 58.49483737 109.99942597 58.54279006 118.56135643 C58.56791975 123.09011714 58.5897401 127.61883664 58.60334396 132.14764786 C58.61628824 136.42072431 58.6384723 140.69365843 58.66738319 144.96665573 C58.67636333 146.52493997 58.68212646 148.08324707 58.68421364 149.64155579 C58.71816566 171.16316026 61.45451587 193.96425083 76.8125 210.375 C90.00351059 222.55520518 108.42766763 226.62258746 126.0390625 226.18359375 C143.84655226 225.07943541 159.01400872 221.73758318 172.75 209.5625 C189.04782706 191.00108584 191.1135033 168.87746072 191.20532227 145.08544922 C191.21491854 143.49778499 191.2249296 141.91012322 191.23532104 140.32246399 C191.26218688 136.04015075 191.28329476 131.75782669 191.30332303 127.47547674 C191.32529659 122.98982655 191.35262928 118.50420899 191.37937927 114.01858521 C191.42915328 105.53681198 191.47414838 97.0550205 191.51740164 88.57321179 C191.5669053 78.9117153 191.62177444 69.25025158 191.67708123 59.58878684 C191.7906663 39.72588846 191.89755581 19.86295876 192 0 C199.81452752 -0.02526563 207.62904458 -0.04283105 215.44360352 -0.05493164 C218.10441481 -0.05997383 220.76522332 -0.06680736 223.42602539 -0.07543945 C227.24105516 -0.08751009 231.05604844 -0.09322929 234.87109375 -0.09765625 C236.66793861 -0.10539818 236.66793861 -0.10539818 238.50108337 -0.11329651 C240.15268211 -0.11340981 240.15268211 -0.11340981 241.83764648 -0.11352539 C242.81249496 -0.115746 243.78734344 -0.11796661 244.79173279 -0.12025452 C247 0 247 0 248 1 C248.10098993 2.90984867 248.13077262 4.82347778 248.13371277 6.73599243 C248.14011024 8.60662354 248.14011024 8.60662354 248.14663696 10.51504517 C248.14628736 11.91058353 248.14582577 13.30612186 248.14526367 14.70166016 C248.14825411 16.16200853 248.15165637 17.62235611 248.15544128 19.08270264 C248.16431343 23.06753592 248.16662119 27.05234775 248.16725707 31.03718996 C248.16796763 33.53511433 248.17010242 36.03303325 248.17275429 38.53095627 C248.18202965 47.27178034 248.18608786 56.01258914 248.18530273 64.75341797 C248.18470655 72.85151622 248.19516142 80.94954685 248.2110464 89.04762805 C248.22423837 96.02629708 248.22948156 103.0049444 248.22884732 109.98362577 C248.22859503 114.13877248 248.23129277 118.29385958 248.24202538 122.44899368 C248.33462849 161.06191247 248.24587301 202.4189448 221 233 C220.34644531 233.74765625 219.69289063 234.4953125 219.01953125 235.265625 C197.15180947 258.73342398 163.79169784 265.70384023 133 267 C98.58281824 268.1451334 59.94986853 263.63285792 33.5 239.4375 C31.62977482 237.65665273 29.81449891 235.83924208 28 234 C27.33484375 233.33355469 26.6696875 232.66710937 25.984375 231.98046875 C16.87173254 222.23158324 11.37223846 210.4249881 7 198 C6.61972656 196.9378125 6.23945313 195.875625 5.84765625 194.78125 C-1.33758291 172.43922333 -0.42135391 148.43622025 -0.30418181 125.2578907 C-0.28513104 120.83775407 -0.28364265 116.41760788 -0.28010559 111.99743652 C-0.27086698 103.66834218 -0.24636699 95.33936925 -0.21605712 87.01032782 C-0.18225452 77.51057384 -0.16596283 68.01081335 -0.15097082 58.51101398 C-0.11980774 39.00726032 -0.0649013 19.50367259 0 0 Z " fill="#FDFDFD" transform="translate(2203,8)"/>
<path d="M0 0 C19.8 0 39.6 0 60 0 C64.49931823 10.12346602 64.49931823 10.12346602 65.74487305 13.75805664 C66.17368523 14.99911415 66.17368523 14.99911415 66.61116028 16.26524353 C66.90834457 17.13806473 67.20552887 18.01088593 67.51171875 18.91015625 C67.99936958 20.32519188 67.99936958 20.32519188 68.49687195 21.76881409 C69.197299 23.80203419 69.89602387 25.83584134 70.59320068 27.87017822 C72.48684741 33.39437951 74.39404602 38.91389909 76.30078125 44.43359375 C76.69269653 45.56885498 77.08461182 46.70411621 77.48840332 47.8737793 C81.0485436 58.17198437 84.68355828 68.44278169 88.3371582 78.70812988 C101.54675004 115.83388817 114.59642481 153.01867942 126.63745117 190.54223633 C127.16315166 192.17923038 127.68894521 193.81619456 128.21484375 195.453125 C128.45885422 196.21380783 128.70286469 196.97449066 128.95426941 197.75822449 C130.61738622 202.90921765 132.40600009 208.00033214 134.33813477 213.05761719 C135 215 135 215 135 217 C135.99 217 136.98 217 138 217 C138.11069824 216.17443604 138.22139648 215.34887207 138.33544922 214.49829102 C139.08878033 210.53264758 140.30126699 206.82570797 141.6328125 203.02734375 C141.90108353 202.24892624 142.16935455 201.47050873 142.445755 200.66850281 C143.02841678 198.9788594 143.61313467 197.28992394 144.19967651 195.60162354 C145.80349406 190.98402966 147.39162403 186.36104421 148.98046875 181.73828125 C149.47840691 180.29095612 149.47840691 180.29095612 149.98640442 178.81439209 C153.22710033 169.37658108 156.37113487 159.90757937 159.50701904 150.43453979 C164.83202587 134.35595325 170.27787265 118.32643435 175.88809204 102.34518433 C180.26494307 89.87701435 184.59417905 77.39327929 188.8828125 64.89453125 C189.13938377 64.14678436 189.39595505 63.39903748 189.66030121 62.62863159 C192.24335139 55.09925109 194.82346733 47.56886685 197.40176582 40.03785801 C198.37290502 37.20169927 199.3446932 34.36576311 200.31655502 31.52985191 C200.98171072 29.58792317 201.6458128 27.64563651 202.30984497 25.70332336 C204.43125276 19.5119065 206.57086297 13.32702604 208.74951172 7.15551758 C209.15692596 5.99868973 209.56434021 4.84186188 209.98410034 3.64997864 C211 1 211 1 212 0 C213.81055025 -0.09376053 215.62477201 -0.1174411 217.43774414 -0.11352539 C218.59887222 -0.11344986 219.76000031 -0.11337433 220.95631409 -0.11329651 C222.85159096 -0.10555458 222.85159096 -0.10555458 224.78515625 -0.09765625 C226.71408974 -0.09553383 226.71408974 -0.09553383 228.68199158 -0.09336853 C232.10643443 -0.08954418 235.53083509 -0.07971462 238.95526123 -0.06866455 C242.44738189 -0.05844864 245.93950934 -0.05387053 249.43164062 -0.04882812 C256.28777778 -0.03809227 263.14388687 -0.02101684 270 0 C269.44973665 3.75297029 268.72310395 7.14166976 267.35205078 10.67700195 C267.01226196 11.56147003 266.67247314 12.44593811 266.3223877 13.35720825 C265.95045288 14.30796234 265.57851807 15.25871643 265.1953125 16.23828125 C264.80484741 17.24978241 264.41438232 18.26128357 264.01208496 19.30343628 C262.72180456 22.64191497 261.42342326 25.97718078 260.125 29.3125 C259.21352417 31.66622673 258.30256176 34.02015233 257.39208984 36.37426758 C255.05000132 42.42601056 252.70129439 48.47516047 250.35058594 54.52355957 C248.30338924 59.79309271 246.26105396 65.06450661 244.21875 70.3359375 C241.91048929 76.29264571 239.60145817 82.24905175 237.28955078 88.2043457 C231.17273916 103.96175175 225.08278448 119.72943086 219 135.5 C210.21494684 158.27475367 201.40312094 181.0389864 192.5716095 203.79576111 C188.75736946 213.62423042 184.94596004 223.45379663 181.13476562 233.28344727 C177.42336843 242.8557057 173.71165351 252.42784095 170 262 C147.23 262 124.46 262 101 262 C95.37536499 249.62580298 95.37536499 249.62580298 93.71435547 245.29638672 C93.33486755 244.31229828 92.95537964 243.32820984 92.56439209 242.31430054 C91.97177582 240.76266708 91.97177582 240.76266708 91.3671875 239.1796875 C90.93762756 238.06332916 90.50806763 236.94697083 90.06549072 235.79678345 C88.90648393 232.78332943 87.75032612 229.76880142 86.59531403 226.7538147 C85.37463319 223.56987962 84.14990219 220.38750388 82.92529297 217.20507812 C82.42604702 215.90753516 81.92680999 214.60998876 81.42758179 213.31243896 C81.05538576 212.34506428 81.05538576 212.34506428 80.67567062 211.35814667 C79.91980258 209.39304964 79.16437528 207.42778374 78.40908813 205.46246338 C73.67037058 193.13285543 68.90281809 180.81450408 64.125 168.5 C63.73487732 167.49410828 63.34475464 166.48821655 62.94281006 165.45184326 C57.32303904 150.96276585 51.68116151 136.48241223 46.02609253 122.00708008 C39.7627923 105.97372116 33.52983234 89.92867486 27.31689453 73.87573242 C23.54660403 64.13583138 19.76909597 54.39897628 15.96205139 44.67337036 C14.18981043 40.14494138 12.42174626 35.61488678 10.65396118 31.0847168 C9.80755409 28.91918783 8.95909381 26.75446014 8.10848999 24.59057617 C6.9290771 21.58974224 5.75677575 18.58621907 4.5859375 15.58203125 C4.23585129 14.69683304 3.88576508 13.81163483 3.52507019 12.89961243 C3.2053273 12.07527206 2.88558441 11.2509317 2.55615234 10.40161133 C2.13914566 9.33756828 2.13914566 9.33756828 1.7137146 8.25202942 C1 6 1 6 0 0 Z " fill="#FEFEFE" transform="translate(1755,8)"/>
<path d="M0 0 C0.72364746 0.16628906 1.44729492 0.33257812 2.19287109 0.50390625 C22.26845629 5.19588461 45.01745599 14.3422808 60 29 C60 29.66 60 30.32 60 31 C58.62792969 32.33984375 58.62792969 32.33984375 56.671875 33.9375 C53.17992733 36.90334807 49.95253026 40.02068565 46.765625 43.3125 C45.41017578 44.70662109 45.41017578 44.70662109 44.02734375 46.12890625 C42.62563606 47.57792897 41.22412056 49.02720064 39.83447266 50.48779297 C38.46890267 51.91962978 37.08625547 53.33511904 35.703125 54.75 C34.89520508 55.59046875 34.08728516 56.4309375 33.25488281 57.296875 C31 59 31 59 28.88671875 58.87939453 C25.9710041 57.52038778 23.39215712 55.6912505 20.75 53.875 C-1.18069995 39.33797909 -27.69096051 34.32890566 -53.625 39.1875 C-76.35519313 44.199799 -96.37034872 56.24054945 -109 76 C-124.31477656 102.72566367 -127.20970319 134.65224506 -119.39794922 164.28369141 C-113.14382733 186.63456446 -101.15838884 204.30447667 -80.7578125 215.83203125 C-57.70299527 228.02695128 -30.48810484 230.15371196 -5.38232422 223.28369141 C9.86801084 218.51265322 22.4892361 210.78235262 35 201 C38.71268094 202.54127351 40.98115698 204.80843234 43.75 207.6875 C46.76713884 210.77090104 49.78141718 213.76141526 53.0625 216.5625 C57.62240384 220.46033191 61.8044961 224.71708977 66 229 C61.75688219 240.23783323 41.91263374 249.27518449 31.4921875 254.1640625 C-9.1680278 272.42484054 -58.39345059 272.91675893 -100 257.1875 C-122.98924626 248.12227927 -142.90344601 234.81776094 -158 215 C-158.90878906 213.81470703 -158.90878906 213.81470703 -159.8359375 212.60546875 C-182.03600172 182.3189558 -186.97581421 143.40828448 -181.6875 106.890625 C-177.81462579 84.97367777 -168.80020392 63.77165966 -154 47 C-153.29101562 46.17113281 -152.58203125 45.34226563 -151.8515625 44.48828125 C-126.98116285 15.99640235 -89.40916988 -0.29927728 -51.88183594 -2.85498047 C-34.54398715 -3.72745439 -16.95868878 -4.12300258 0 0 Z " fill="#FEFEFE" transform="translate(705,7)"/>
<path d="M0 0 C1 1 1 1 1.12304783 2.96589756 C1.12166514 4.26977374 1.12166514 4.26977374 1.12025452 5.59999084 C1.12162918 6.59423569 1.12300385 7.58848053 1.12442017 8.612854 C1.12082489 9.71264587 1.11722961 10.81243774 1.11352539 11.94555664 C1.11367142 13.09662399 1.11381744 14.24769135 1.1139679 15.43363953 C1.11326818 19.25916391 1.10547302 23.08464031 1.09765625 26.91015625 C1.09579228 29.55431593 1.09436828 32.19847596 1.09336853 34.84263611 C1.09025549 41.10415417 1.08204248 47.36565486 1.07201904 53.62716526 C1.06085705 60.75401537 1.05534724 67.8808663 1.05032361 75.00772297 C1.03985984 89.6718243 1.02226093 104.33591191 1 119 C4.8443629 118.53922265 8.68774415 118.07069669 12.53100586 117.60083008 C13.61281883 117.47126167 14.69463181 117.34169327 15.80922699 117.20819855 C23.60518388 116.24973017 31.01275843 114.88774941 38.5625 112.6875 C39.64692383 112.38191162 40.73134766 112.07632324 41.84863281 111.76147461 C79.59293728 100.88020825 107.68056595 76.97708692 126.61987305 42.81176758 C128.7688929 38.88636408 130.89623631 34.94983744 133 31 C137.84555101 31.77104922 142.3169294 33.41860254 146.921875 35.0546875 C147.781297 35.35690216 148.64071899 35.65911682 149.52618408 35.9704895 C152.26858025 36.93550337 155.00933851 37.90507181 157.75 38.875 C160.47669136 39.83687854 163.20371741 40.79779896 165.93096924 41.75808716 C167.62435922 42.35467929 169.31737762 42.95232762 171.00994873 43.55123901 C175.65019874 45.18972113 180.30440061 46.77589502 184.97564697 48.32369995 C189.51353533 49.83972709 194.00307029 51.492471 198.5 53.125 C199.5003125 53.48464844 200.500625 53.84429687 201.53125 54.21484375 C202.48 54.55902344 203.42875 54.90320313 204.40625 55.2578125 C205.26541016 55.5686377 206.12457031 55.87946289 207.00976562 56.19970703 C209 57 209 57 210 58 C209.63461837 64.16277011 207.47828027 69.04959387 204.8125 74.5625 C204.15689087 75.92375 204.15689087 75.92375 203.48803711 77.3125 C195.62180736 93.20024093 185.96850924 107.92468504 174 121 C172.95199219 122.20849609 172.95199219 122.20849609 171.8828125 123.44140625 C159.84794231 137.22473872 146.89999681 149.38595828 132 160 C131.39397949 160.44005371 130.78795898 160.88010742 130.16357422 161.33349609 C82.69509879 195.61555279 28.35519276 202 -29 202 C-29 137.32 -29 72.64 -29 6 C-23.79703964 4.5134399 -18.63172933 3.12881353 -13.375 1.875 C-12.26898438 1.60236328 -12.26898438 1.60236328 -11.140625 1.32421875 C-7.37572562 0.42685026 -3.90045889 -0.3437186 0 0 Z " fill="#FDFDFD" transform="translate(260,246)"/>
<path d="M0 0 C20.46 0 40.92 0 62 0 C65.96 7.59 69.92 15.18 74 23 C77.65919863 29.67673264 77.65919863 29.67673264 81.32275391 36.35107422 C91.41501953 54.81253572 100.88982897 73.63377871 110.23046875 92.484375 C113.63611132 99.33783528 117.18442259 106.11033755 120.82983398 112.83935547 C122.96249767 116.82085984 124.72407903 120.6411781 126 125 C126.99 125 127.98 125 129 125 C129.26014893 124.14543213 129.52029785 123.29086426 129.78833008 122.41040039 C131.0474608 118.86641549 132.60255519 115.74324679 134.38671875 112.43359375 C134.88695305 111.4998568 134.88695305 111.4998568 135.39729309 110.54725647 C136.1152753 109.20785902 136.83528389 107.86954618 137.55712891 106.53222656 C139.49999756 102.93183498 141.42712755 99.32303088 143.35546875 95.71484375 C143.74866302 94.97990692 144.1418573 94.24497009 144.54696655 93.48776245 C148.26579547 86.52623695 151.89140974 79.5192492 155.5 72.5 C160.78706483 62.23471728 166.14298208 52.00849977 171.5625 41.8125 C172.04517334 40.90371094 172.04517334 40.90371094 172.53759766 39.9765625 C179.63486888 26.62042394 186.82931309 13.31698997 194 0 C213.8 0 233.6 0 254 0 C252.52286286 3.69284286 251.08257036 6.78649119 249.12109375 10.19140625 C248.53875977 11.20348145 247.95642578 12.21555664 247.35644531 13.25830078 C246.72319336 14.34868652 246.08994141 15.43907227 245.4375 16.5625 C245.10842651 17.13111755 244.77935303 17.69973511 244.44030762 18.2855835 C238.636267 28.31077615 232.6585096 38.22551761 226.62084961 48.11157227 C221.17547342 57.03246826 215.82186627 66.00495066 210.5 75 C204.55991649 85.03722112 198.5718246 95.04190818 192.5 105 C185.43938198 116.58081517 178.492447 128.22632942 171.59375 139.90429688 C171.21388443 140.54645645 170.83401886 141.18861603 170.44264221 141.85023499 C168.36779916 145.35212816 168.36779916 145.35212816 166.33200073 148.87675476 C165 151 165 151 162.9836731 153.54963684 C155.33735362 163.96542021 155.87767259 174.1601493 156 186.70703125 C155.99246949 188.88565006 155.981425 191.06425929 155.96704102 193.24284363 C155.93877364 198.93619384 155.95778755 204.62841043 155.98712158 210.32171631 C156.0124029 217.17439062 155.97812611 224.02700206 155.95399475 230.8796463 C155.92404928 241.25375437 155.96909355 251.6250922 156 262 C136.86 262 117.72 262 98 262 C98.12503906 255.17828125 98.25007812 248.3565625 98.37890625 241.328125 C98.42028374 236.94364047 98.45648714 232.56027472 98.47460938 228.17578125 C98.50370298 221.25199719 98.54943181 214.33182087 98.7097168 207.40966797 C99.31174596 180.3770385 99.48674202 159.26772074 82.05148315 137.60974121 C79.23460647 134.02632443 77.00447965 130.21783527 74.78125 126.25 C74.06225635 125.02687055 73.34034289 123.80545181 72.61523438 122.5859375 C72.27065186 122.00166992 71.92606934 121.41740234 71.57104492 120.81542969 C65.28763904 110.16500658 58.93715873 99.55813999 52.5 89 C46.39107379 78.97680405 40.35854959 68.91104421 34.375 58.8125 C33.5717 57.45702886 32.76839599 56.10156009 31.96508789 54.74609375 C31.57157639 54.08209564 31.17806488 53.41809753 30.77262878 52.73397827 C30.38230972 52.07539825 29.99199066 51.41681824 29.58984375 50.73828125 C29.00889702 49.75802475 29.00889702 49.75802475 28.41621399 48.75796509 C24.60508338 42.3295895 20.77801424 35.91087508 16.9375 29.5 C16.02931519 27.9835791 16.02931519 27.9835791 15.1027832 26.43652344 C11.09200905 19.76169079 7.01032667 13.13505509 2.79077148 6.58984375 C0 2.21235205 0 2.21235205 0 0 Z " fill="#FEFEFE" transform="translate(778,8)"/>
<path d="M0 0 C35.92341549 0 35.92341549 0 47.0625 1.6875 C48.33577148 1.86684082 49.60904297 2.04618164 50.92089844 2.23095703 C96.35654062 8.90392386 141.29423586 26.27398621 176 57 C177.16208984 57.99966797 177.16208984 57.99966797 178.34765625 59.01953125 C204.43756173 81.88531833 230.23740036 112.94880706 240 147 C240 148.32 240 149.64 240 151 C235.65836133 153.32900825 231.36306876 154.90282712 226.6328125 156.203125 C219.47593212 158.24023069 212.38451206 160.44418195 205.3046875 162.734375 C204.29263245 163.06070923 203.28057739 163.38704346 202.237854 163.7232666 C198.04884139 165.07494445 193.86078246 166.42947781 189.67480469 167.79052734 C186.57387101 168.79768853 183.47072544 169.79777254 180.3671875 170.796875 C178.95927444 171.2577652 178.95927444 171.2577652 177.5229187 171.72796631 C172.66706793 173.28574819 168.075147 174.46650569 163 175 C161.04254518 171.11090295 159.09342219 167.22391311 157.24609375 163.28125 C141.03719116 129.08091454 113.40625253 104.6195847 77.72387695 91.86035156 C62.00926292 86.53309543 46.45849723 84.65588539 30 83 C30 90.26 30 97.52 30 105 C24.85796435 106.02840713 21.59668383 105.46121084 16.6875 104.1875 C15.96626953 104.00896484 15.24503906 103.83042969 14.50195312 103.64648438 C13.12994965 103.30563687 11.75893901 102.96074287 10.3894043 102.61010742 C6.92965637 101.72669983 3.46413758 100.86603439 0 100 C0 67 0 34 0 0 Z " fill="#FEFEFE" transform="translate(231,0)"/>
<path d="M0 0 C18.81 0 37.62 0 57 0 C58 1 58 1 58.1241985 2.79773813 C58.12381878 3.59021446 58.12343906 4.38269079 58.12304783 5.19918156 C58.12503888 6.11033885 58.12702993 7.02149614 58.12908131 7.96026427 C58.12471205 9.47920126 58.12471205 9.47920126 58.12025452 11.02882385 C58.12110894 12.09548544 58.12196337 13.16214703 58.12284368 14.2611317 C58.12450165 17.86494104 58.11897195 21.46870466 58.11352539 25.07250977 C58.11324356 27.64405313 58.11340117 30.21559658 58.1139679 32.78713989 C58.11449331 38.33872012 58.11134468 43.89028864 58.10573006 49.44186592 C58.09761743 57.46860305 58.09500008 65.4953345 58.09374207 73.52207529 C58.09155117 86.54361005 58.08489007 99.56513856 58.07543945 112.58666992 C58.0662663 125.23901335 58.059185 137.89135509 58.05493164 150.54370117 C58.05466892 151.32304429 58.05440619 152.10238742 58.05413551 152.905347 C58.05283051 156.81491895 58.05156679 160.72449091 58.05032361 164.63406289 C58.03994983 197.08938079 58.0215109 229.54468709 58 262 C38.86 262 19.72 262 0 262 C0 175.54 0 89.08 0 0 Z " fill="#FCFCFC" transform="translate(2063,8)"/>
<path d="M0 0 C18.81 0 37.62 0 57 0 C58 1 58 1 58.1241985 2.79773813 C58.12381878 3.59021446 58.12343906 4.38269079 58.12304783 5.19918156 C58.12503888 6.11033885 58.12702993 7.02149614 58.12908131 7.96026427 C58.12471205 9.47920126 58.12471205 9.47920126 58.12025452 11.02882385 C58.12110894 12.09548544 58.12196337 13.16214703 58.12284368 14.2611317 C58.12450165 17.86494104 58.11897195 21.46870466 58.11352539 25.07250977 C58.11324356 27.64405313 58.11340117 30.21559658 58.1139679 32.78713989 C58.11449331 38.33872012 58.11134468 43.89028864 58.10573006 49.44186592 C58.09761743 57.46860305 58.09500008 65.4953345 58.09374207 73.52207529 C58.09155117 86.54361005 58.08489007 99.56513856 58.07543945 112.58666992 C58.0662663 125.23901335 58.059185 137.89135509 58.05493164 150.54370117 C58.05466892 151.32304429 58.05440619 152.10238742 58.05413551 152.905347 C58.05283051 156.81491895 58.05156679 160.72449091 58.05032361 164.63406289 C58.03994983 197.08938079 58.0215109 229.54468709 58 262 C38.86 262 19.72 262 0 262 C0 175.54 0 89.08 0 0 Z " fill="#FCFCFC" transform="translate(1657,8)"/>
<path d="M0 0 C6.76762929 0.57665007 12.77007904 2.31880377 19.1875 4.5 C20.76047852 5.03185913 20.76047852 5.03185913 22.36523438 5.57446289 C43.5805671 12.88761443 63.42328956 21.91095179 81 36 C81.60199219 36.46019531 82.20398438 36.92039063 82.82421875 37.39453125 C97.01709985 48.53277653 107.37481189 66.26846631 110 84 C110.04156146 85.99956811 110.05371196 88.00072137 110 90 C104.4607732 89.4869476 100.55377923 87.37408161 95.8125 84.6875 C67.98102483 68.94313334 34.15513404 67.74242216 2.9375 67.6875 C1.92993652 67.68382416 0.92237305 67.68014832 -0.11572266 67.67636108 C-12.57034324 67.65264983 -24.66834696 68.19730909 -37 70 C-56.81560522 72.89162408 -78.30255811 75.36481092 -96 64 C-103.49332539 58.28550556 -108.81416976 51.91795091 -113.26171875 43.65625 C-114.4015841 41.61384142 -115.47199646 39.77098881 -117 38 C-120.71854287 37.0505848 -122.35526647 37.67763323 -125.75 39.375 C-129.71687092 42.29303855 -133.04757778 45.96647008 -136.48046875 49.4765625 C-139.25330896 52.25370169 -142.15711835 54.80579065 -145.13671875 57.35546875 C-147.61630858 59.5439537 -149.9062118 61.89544013 -152.22265625 64.25390625 C-154.06593574 66.06477643 -155.97822799 67.75321354 -157.9375 69.4375 C-160.74576347 71.85617779 -163.39970593 74.35899683 -166 77 C-168.55990134 79.59982183 -171.1677954 82.06268398 -173.9375 84.4375 C-177.74140562 87.70543458 -181.23991676 91.21807823 -184.75390625 94.79296875 C-187.49850053 97.48983096 -190.3942172 99.95890498 -193.37109375 102.39453125 C-195.17979328 104.17720633 -196.10022972 105.62953922 -197 108 C-196.95875 109.19625 -196.9175 110.3925 -196.875 111.625 C-196.77570299 116.94731997 -198.2616067 121.45122446 -201 126 C-203.44156357 128.43155716 -206.02241772 130.27858524 -209 132 C-209.63421875 132.37382812 -210.2684375 132.74765625 -210.921875 133.1328125 C-215.66161574 135.11067424 -221.41041658 134.7392486 -226.28515625 133.34765625 C-232.12909964 130.72407473 -236.33152729 126.40551279 -239.140625 120.671875 C-241.154626 114.41016279 -241.15160734 106.64007789 -238.5 100.5625 C-235.48762436 95.46629461 -230.56224999 91.85408333 -225 90 C-222.87672644 89.90476082 -220.75040289 89.87013638 -218.625 89.875 C-216.94277344 89.87113281 -216.94277344 89.87113281 -215.2265625 89.8671875 C-212 90 -212 90 -209.5078125 90.87890625 C-206.67119109 91.28463256 -206.67119109 91.28463256 -203.828125 88.59765625 C-202.62103668 87.43400546 -201.42929745 86.25430657 -200.25 85.0625 C-198.91432787 83.76404988 -197.57837965 82.46588373 -196.2421875 81.16796875 C-195.54834961 80.48395996 -194.85451172 79.79995117 -194.13964844 79.09521484 C-190.6038391 75.63283286 -186.98592374 72.25865995 -183.375 68.875 C-181.93740534 67.52093382 -180.49990392 66.16676865 -179.0625 64.8125 C-175.00585314 60.99894809 -170.92153546 57.2164346 -166.82299805 53.44799805 C-163.25210687 50.16300152 -159.70339891 46.85526149 -156.1628418 43.53759766 C-130.33680275 19.34902716 -130.33680275 19.34902716 -116.03125 19.703125 C-110.30088605 20.26434621 -106.01629655 21.6778123 -102.171875 26.10546875 C-100.35096863 28.68508611 -98.66464315 31.31703113 -97 34 C-90.71524344 43.82413767 -83.60982189 50.99986574 -72 54 C-61.21916861 55.14311119 -50.57250567 54.08878348 -39.99609375 52 C-27.61522118 49.76310559 -15.50945126 49.45383808 -2.9543457 49.58837891 C0.5639357 49.62501495 4.08115607 49.62939503 7.59960938 49.62890625 C18.67382149 49.66281414 29.68143102 49.97059487 40.71875 50.90625 C41.64349625 50.98428864 42.56824249 51.06232727 43.52101135 51.14273071 C51.33053128 51.88260423 58.49102329 53.73098312 66 56 C68.97151147 56.78148622 71.95352147 57.51776363 74.9375 58.25 C76.30082165 58.58837895 77.66410679 58.92690504 79.02734375 59.265625 C80.00832031 59.50796875 80.98929687 59.7503125 82 60 C71.50938955 54.825317 61.18293827 50.44707058 50 47 C49.08420166 46.67507568 48.16840332 46.35015137 47.22485352 46.01538086 C43.86219597 44.95661087 40.61068521 44.3165145 37.1328125 43.74609375 C35.83472656 43.53146484 34.53664063 43.31683594 33.19921875 43.09570312 C32.52938965 42.98750244 31.85956055 42.87930176 31.16943359 42.76782227 C29.1368406 42.4394131 27.1054738 42.10415379 25.07421875 41.76757812 C21.38514411 41.16248214 17.69335636 40.5782775 14 40 C12.69804687 39.78601563 11.39609375 39.57203125 10.0546875 39.3515625 C3.43195534 38.57870097 -3.34114316 38.89745922 -10 38.9375 C-11.45702971 38.94252424 -12.9140611 38.94708551 -14.37109375 38.95117188 C-17.9140977 38.96210612 -21.45703797 38.97932 -25 39 C-25.33 37.35 -25.66 35.7 -26 34 C-24.91332031 33.25556641 -24.91332031 33.25556641 -23.8046875 32.49609375 C-22.35449219 31.47708984 -22.35449219 31.47708984 -20.875 30.4375 C-19.44800781 29.44556641 -19.44800781 29.44556641 -17.9921875 28.43359375 C-11.2703911 22.96664968 -7.63511527 16.91250268 -4.125 9.0625 C-3.7228125 8.18787109 -3.320625 7.31324219 -2.90625 6.41210938 C-1.92719947 4.27917786 -0.95880096 2.14209073 0 0 Z " fill="#FBFBFB" transform="translate(265,163)"/>
<path d="M0 0 C14.72625 -0.061875 14.72625 -0.061875 29.75 -0.125 C32.80475586 -0.14320801 35.85951172 -0.16141602 39.00683594 -0.18017578 C97.07550891 -0.38308957 97.07550891 -0.38308957 115.125 16.4375 C123.08656827 25.34400188 123.64407547 35.43251331 123.16601562 46.85205078 C122.44160904 56.22459368 116.71497479 62.85968233 110 69 C93.11627213 82.41889328 67.85315227 83.1793969 47.36328125 83.09765625 C46.15555054 83.09664917 44.94781982 83.09564209 43.70349121 83.09460449 C39.23981766 83.08941629 34.77615776 83.07545542 30.3125 83.0625 C20.309375 83.041875 10.30625 83.02125 0 83 C0 55.61 0 28.22 0 0 Z " fill="#000000" transform="translate(1121,151)"/>
<path d="M0 0 C8.6625 -0.04125 17.325 -0.0825 26.25 -0.125 C30.28395996 -0.15231201 30.28395996 -0.15231201 34.39941406 -0.18017578 C87.79489963 -0.3916833 87.79489963 -0.3916833 104.9375 14.5625 C105.618125 15.366875 106.29875 16.17125 107 17 C107.680625 17.70125 108.36125 18.4025 109.0625 19.125 C115.73507939 29.02624684 116.44170374 39.9354697 114.375 51.49609375 C111.39750104 62.78134649 105.14672741 70.57295434 95.12109375 76.46875 C78.38379334 84.68029163 60.26806477 86.18074704 41.89453125 86.09765625 C40.28934631 86.09614563 40.28934631 86.09614563 38.6517334 86.09460449 C34.70531115 86.08942528 30.75890435 86.07546461 26.8125 86.0625 C17.964375 86.041875 9.11625 86.02125 0 86 C0 57.62 0 29.24 0 0 Z " fill="#000000" transform="translate(1419,45)"/>
<path d="M0 0 C7.816875 -0.04125 15.63375 -0.0825 23.6875 -0.125 C26.10666748 -0.14320801 28.52583496 -0.16141602 31.01831055 -0.18017578 C82.17941021 -0.40443827 82.17941021 -0.40443827 98.05859375 13.84765625 C104.22005738 20.29093319 106.10688469 26.63486727 106.4375 35.4375 C106.18267032 44.54766121 103.32453032 51.57422237 97.03125 58.1875 C83.13089633 70.59089251 63.51773283 72.34301162 45.703125 72.1953125 C43.95201416 72.19229126 43.95201416 72.19229126 42.16552734 72.18920898 C37.86031082 72.17885048 33.5551509 72.15092911 29.25 72.125 C19.5975 72.08375 9.945 72.0425 0 72 C0 48.24 0 24.48 0 0 Z " fill="#000000" transform="translate(1121,44)"/>
<path d="M0 0 C45.95894608 0 45.95894608 0 54.47265625 7.34375 C58.26148921 11.45235658 59.26680109 15.49067005 59.125 20.9375 C58.33981199 26.65192388 55.44284525 30.43173059 51 34 C48.265625 35.21875 48.265625 35.21875 46 36 C46.96421875 36.43570313 47.9284375 36.87140625 48.921875 37.3203125 C50.19833009 37.92099725 51.4743491 38.5226093 52.75 39.125 C53.38421875 39.40859375 54.0184375 39.6921875 54.671875 39.984375 C59.24401188 42.17519059 61.5060104 44.4357569 64 49 C65.73973368 54.21920105 65.46891181 58.54390543 63.8125 63.6875 C59.99526427 70.66382737 54.36304309 74.3437123 47 77 C31.57208879 79.80507477 15.68084465 79 0 79 C0 52.93 0 26.86 0 0 Z " fill="#FBFBFB" transform="translate(782,371)"/>
<path d="M0 0 C4.23949178 4.17398086 6.32647374 7.2028101 6.6875 13.25 C6.58120994 16.81603167 6.17318074 19.00409858 3.9375 21.8125 C-0.25734307 25.6259937 -2.68796436 26.7085622 -8.47827148 26.65625 C-13.10081048 25.97551212 -16.93668485 23.42092233 -20.9375 21.125 C-40.41836407 10.41668093 -62.06397231 4.68640279 -84.19067383 11.03466797 C-87.09612126 12.04050905 -89.95010318 13.18999144 -92.8125 14.3125 C-88.1925 16.6225 -83.5725 18.9325 -78.8125 21.3125 C-78.8125 22.3025 -78.8125 23.2925 -78.8125 24.3125 C-79.38057373 24.37719482 -79.94864746 24.44188965 -80.53393555 24.50854492 C-91.93802643 25.85149103 -102.37906788 27.28899565 -112.8125 32.3125 C-113.76253906 32.75464844 -114.71257812 33.19679687 -115.69140625 33.65234375 C-121.9230325 36.78115749 -126.69148798 40.633203 -131.62109375 45.5546875 C-133.8125 47.3125 -133.8125 47.3125 -137.8125 47.3125 C-136.61821833 28.80113418 -125.51076397 14.33233747 -112.41015625 2.0625 C-82.68139395 -23.26383327 -30.57319022 -25.42227231 0 0 Z " fill="#FBFBFB" transform="translate(256.8125,129.6875)"/>
<path d="M0 0 C4.90097659 -0.07082956 9.7908292 -0.03014909 14.69140625 0.05859375 C14.69140625 5.33859375 14.69140625 10.61859375 14.69140625 16.05859375 C11.66979788 17.06579654 9.79548375 17.13095914 6.6484375 17.05859375 C-4.42850948 16.571836 -4.42850948 16.571836 -14.53515625 20.125 C-16.39743188 22.35345343 -17.84188073 24.56366954 -19.30859375 27.05859375 C-19.96859375 27.05859375 -20.62859375 27.05859375 -21.30859375 27.05859375 C-21.61796875 27.86296875 -21.61796875 27.86296875 -21.93359375 28.68359375 C-26.39642401 36.39211875 -32.07093171 38.46877336 -40.26171875 40.828125 C-42.42979866 41.49638425 -44.59776384 42.16501583 -46.765625 42.83398438 C-50.15744425 43.85593829 -53.5516291 44.86903485 -56.94873047 45.87329102 C-74.49660733 50.78765736 -74.49660733 50.78765736 -88.30859375 62.05859375 C-89.46826351 63.09405759 -90.64402601 64.11197026 -91.83984375 65.10546875 C-98.4356609 70.99170363 -101.38582698 74.97349735 -102.04296875 84.140625 C-102.54289553 89.63246777 -105.17471482 93.23929815 -109.24609375 96.87109375 C-115.59878414 101.40872974 -121.64463563 102.14392447 -129.30859375 101.05859375 C-135.64140994 98.55311395 -140.20595826 95.12896754 -143.30859375 89.05859375 C-145.21627691 83.33554428 -145.49437749 76.3553916 -143.4375 70.63671875 C-140.52498024 65.70930827 -135.96722356 60.3262103 -130.42578125 58.40625 C-127.91874772 57.99457844 -125.53702031 57.92640584 -122.99609375 57.93359375 C-122.09246094 57.93101563 -121.18882813 57.9284375 -120.2578125 57.92578125 C-117.30859375 58.05859375 -117.30859375 58.05859375 -113.8203125 58.87109375 C-110.19820356 59.41536377 -110.19820356 59.41536377 -107.31640625 57.06640625 C-106.33585067 56.12549578 -105.37509806 55.16357916 -104.43359375 54.18359375 C-103.96824219 53.72984375 -103.50289062 53.27609375 -103.0234375 52.80859375 C-100.74344542 50.57138973 -98.54521472 48.34318447 -96.50097656 45.88452148 C-89.78659889 38.25666123 -82.20323325 35.86918587 -72.80859375 32.87109375 C-71.35463831 32.38725402 -69.9015055 31.900935 -68.44921875 31.41210938 C-56.37763167 27.36984516 -56.37763167 27.36984516 -50.76635742 25.70361328 C-41.05651398 22.71474417 -35.27959057 19.2520769 -28.62109375 11.30859375 C-18.9867364 0.87275795 -18.9867364 0.87275795 -12.37109375 -0.12890625 C-8.2391603 -0.17312432 -4.13517814 0.07080535 0 0 Z " fill="#FAFAFA" transform="translate(201.30859375,65.94140625)"/>
<path d="M0 0 C36.08281766 0 36.08281766 0 46.93359375 10.5546875 C49.90023229 14.06530324 51.66904157 17.62206756 53 22 C53.18820313 22.58007812 53.37640625 23.16015625 53.5703125 23.7578125 C55.70216727 34.88221832 54.65207839 46.58777482 48.59765625 56.234375 C43.03483927 63.47011738 34.78882253 67.24223549 26 69 C17.42 69 8.84 69 0 69 C0 46.23 0 23.46 0 0 Z " fill="#000000" transform="translate(2392,376)"/>
<path d="M0 0 C4.46321565 0.52411061 8.30099267 1.305901 12.4375 3.0625 C13.30246094 3.42472656 14.16742188 3.78695313 15.05859375 4.16015625 C15.69925781 4.43730469 16.33992188 4.71445312 17 5 C17.07005013 28.77386119 17.1229686 52.54770693 17.15543652 76.32165051 C17.17091196 87.36005794 17.19201445 98.39840128 17.22631836 109.43676758 C17.25619994 119.05668773 17.27557007 128.67656146 17.28226548 138.29652673 C17.28617984 143.39124153 17.29539325 148.48582355 17.31719017 153.58049583 C17.33753566 158.37471255 17.3438377 163.16874165 17.33932304 167.96299744 C17.34014911 169.72343274 17.34612628 171.48387424 17.35761642 173.24427223 C17.37253037 175.64685915 17.36895786 178.04873658 17.36076355 180.45133972 C17.36950207 181.14881905 17.3782406 181.84629838 17.38724393 182.56491345 C17.34753378 186.86901206 16.62758993 189.57180105 14 193 C10.82121306 194.58939347 8.5043228 194.41576711 5 194 C1.494622 190.69862223 0.18627059 189.11245171 -0.61523914 184.32564735 C-0.63606027 182.93100117 -0.62971705 181.5357774 -0.60127258 180.14126587 C-0.60554471 179.36843148 -0.60981683 178.59559708 -0.61421841 177.79934347 C-0.62243007 175.21931072 -0.59499546 172.64091715 -0.56762695 170.06103516 C-0.56621608 168.20795734 -0.56700923 166.35487673 -0.56983948 164.50180054 C-0.5712735 159.47727732 -0.5418857 154.45335145 -0.50696969 149.428967 C-0.47570408 144.17593194 -0.47277528 138.92288304 -0.46684265 133.66976929 C-0.45130485 123.72503348 -0.41027709 113.78057264 -0.3600952 103.83595788 C-0.3041999 92.51321935 -0.27671474 81.19046764 -0.25161803 69.86762547 C-0.1993613 46.57826456 -0.11142008 23.28914769 0 0 Z " fill="#F7F7F7" transform="translate(194,258)"/>
<path d="M0 0 C3.86046774 0.28247325 6.81647603 1.30074462 10.21484375 3.05078125 C10.92632568 3.41469971 11.63780762 3.77861816 12.37084961 4.15356445 C13.17727905 4.57255005 13.17727905 4.57255005 14 5 C14.225006 9.08857048 14.38691544 13.17467934 14.49438477 17.26806641 C14.53923678 18.65542444 14.60035186 20.04236712 14.67895508 21.42822266 C15.10146287 29.07754676 15.00575105 34.82433094 9.71484375 40.8515625 C7.49013888 43.01978653 5.64737882 44.6988563 2.83032227 46.00927734 C0.45766192 47.29355848 0.12810284 48.58555615 -1 51 C-2.26951577 52.42964729 -3.59509402 53.81044635 -4.95703125 55.15234375 C-5.74013672 55.92900391 -6.52324219 56.70566406 -7.33007812 57.50585938 C-8.14927734 58.30830078 -8.96847656 59.11074219 -9.8125 59.9375 C-10.62009766 60.73607422 -11.42769531 61.53464844 -12.25976562 62.35742188 C-13.82441217 63.90412817 -15.3909208 65.44895353 -16.95947266 66.99169922 C-19.31967268 69.314624 -21.66223592 71.65450777 -24 74 C-24.57192487 74.47313283 -25.14384974 74.94626566 -25.73310566 75.43373585 C-29.19499517 78.46137301 -31.41209391 80.68782028 -31.85282898 85.38346863 C-31.87840793 87.04218081 -31.86624202 88.70176175 -31.82299805 90.36010742 C-31.82734863 91.27154007 -31.83169922 92.18297272 -31.83618164 93.12202454 C-31.8431632 96.11747792 -31.80191729 99.11031103 -31.76171875 102.10546875 C-31.76094611 104.19338659 -31.76383368 106.2813087 -31.7702179 108.36921692 C-31.77979693 113.85395691 -31.75119574 119.33774867 -31.71105957 124.82232666 C-31.6495309 133.61088465 -31.62982573 142.39920556 -31.64087868 151.18795204 C-31.63676663 154.25723014 -31.6064466 157.32548602 -31.57389832 160.39457703 C-31.57001833 162.27240831 -31.56706379 164.15024182 -31.56518555 166.02807617 C-31.54915787 166.88166718 -31.53313019 167.73525818 -31.51661682 168.61471558 C-31.54452572 174.39478236 -31.54452572 174.39478236 -33.9021759 177.52754211 C-36.17015354 179.11943038 -37.25863617 179.54283381 -40 179.5 C-40.66 179.5103125 -41.32 179.520625 -42 179.53125 C-45.07570161 178.71426676 -46.08772166 177.56492566 -48 175 C-48.61606289 171.83789797 -48.56684958 168.7066529 -48.54931641 165.49316406 C-48.55953827 164.53007324 -48.56976013 163.56698242 -48.58029175 162.57470703 C-48.60811053 159.38809399 -48.60616777 156.20234512 -48.6015625 153.015625 C-48.60933676 150.79847899 -48.61800617 148.58133595 -48.62753296 146.36419678 C-48.64246437 141.71372838 -48.64187136 137.06356359 -48.63134766 132.41308594 C-48.61977599 126.46322064 -48.65357125 120.51460414 -48.700037 114.56494522 C-48.72955736 109.98371147 -48.73124871 105.40277656 -48.72501755 100.82146454 C-48.72604233 98.62867516 -48.73648712 96.43586869 -48.75664139 94.24317169 C-48.7814192 91.16943824 -48.76776268 88.09811127 -48.74462891 85.02441406 C-48.75991638 84.1243866 -48.77520386 83.22435913 -48.79095459 82.29705811 C-48.67955598 75.57411581 -46.5014319 71.89972704 -42 67 C-41.23816406 66.16210938 -40.47632812 65.32421875 -39.69140625 64.4609375 C-38.98886719 63.77257812 -38.28632812 63.08421875 -37.5625 62.375 C-36.79292969 61.62089844 -36.02335937 60.86679687 -35.23046875 60.08984375 C-33.3233883 58.30299955 -31.38581571 56.6048955 -29.375 54.9375 C-26.23456209 52.31329846 -23.66905639 49.39130209 -21.01953125 46.28125 C-18.58466864 43.53084427 -16.03065187 40.9122268 -13.4375 38.3125 C-12.54933594 37.42175781 -11.66117188 36.53101563 -10.74609375 35.61328125 C-8 33 -8 33 -4.7109375 31.02734375 C-2.3894054 29.12538821 -2.01887882 28.09950867 -1.44848633 25.09301758 C-1.21951392 21.46715096 -1.16675121 17.88292448 -1.1875 14.25 C-1.16339444 11.776008 -1.13622557 9.30204326 -1.10546875 6.828125 C-1.10699951 5.7340332 -1.10853027 4.63994141 -1.11010742 3.51269531 C-1 1 -1 1 0 0 Z " fill="#FAFAFA" transform="translate(164,247)"/>
<path d="M0 0 C2.47053108 1.16609067 3.57568406 2.48551495 5.203125 4.671875 C5.98429687 5.68507812 5.98429687 5.68507812 6.78125 6.71875 C8.2086406 9.40224433 8.40213154 10.92212919 7.953125 13.921875 C6.6328125 15.765625 6.6328125 15.765625 4.828125 17.421875 C4.19519531 18.01097656 3.56226563 18.60007813 2.91015625 19.20703125 C0.29531872 21.49827611 -2.33823451 23.74174973 -5.046875 25.921875 C-3.89485659 27.07389341 -2.74250816 28.225583 -1.58886719 29.37597656 C-0.53224364 30.4352768 0.51893783 31.50002536 1.56542969 32.56933594 C3.30037392 34.33231158 5.06197563 36.06520577 6.828125 37.796875 C7.70791016 38.70566406 7.70791016 38.70566406 8.60546875 39.6328125 C11.69822943 42.62361404 13.10091713 43.86948901 17.51171875 44.140625 C21.59794118 42.69351785 24.15453797 40.57037581 27.140625 37.546875 C28.27041389 36.45399331 29.40063247 35.36155567 30.53125 34.26953125 C31.09779297 33.71281738 31.66433594 33.15610352 32.24804688 32.58251953 C34.90875889 29.99114451 37.64793026 27.48832875 40.390625 24.984375 C41.78087891 23.70240234 41.78087891 23.70240234 43.19921875 22.39453125 C44.10800781 21.57855469 45.01679687 20.76257813 45.953125 19.921875 C46.47277832 19.43960449 46.99243164 18.95733398 47.52783203 18.46044922 C49.11328125 17.04296875 49.11328125 17.04296875 51.953125 14.921875 C52.943125 15.251875 53.933125 15.581875 54.953125 15.921875 C57.16208941 31.1228227 57.16208941 31.1228227 53.65820312 37.14892578 C49.69816868 42.06398621 44.85937259 45.99152952 39.953125 49.921875 C38.85927677 50.85731676 37.76906056 51.79703299 36.68359375 52.7421875 C28.82294543 59.4307282 23.93728717 62.65411474 13.38671875 62.390625 C8.14996192 61.67570939 5.61994815 59.55202991 1.953125 55.921875 C0.1219427 54.29445142 -1.71146099 52.66952454 -3.546875 51.046875 C-5.0498781 49.67515831 -6.55095337 48.30131093 -8.046875 46.921875 C-10.5885846 48.11229595 -12.2980553 49.14661527 -14.421875 51.046875 C-19.47845161 54.49983141 -26.24578472 53.46340035 -32.046875 52.921875 C-38.09427024 51.74803052 -41.6729432 47.81458577 -45.046875 42.921875 C-48.63185462 36.9083608 -48.61065647 31.58953217 -47.046875 24.921875 C-44.15755692 18.11873961 -38.93012502 12.74513181 -32.046875 9.921875 C-29.4609375 9.65625 -29.4609375 9.65625 -26.671875 9.671875 C-25.75664062 9.66671875 -24.84140625 9.6615625 -23.8984375 9.65625 C-20.71341262 9.95293725 -18.03696631 10.81051363 -15.046875 11.921875 C-14.44359375 11.30699219 -13.8403125 10.69210938 -13.21875 10.05859375 C-12.41953125 9.25035156 -11.6203125 8.44210938 -10.796875 7.609375 C-10.00796875 6.80886719 -9.2190625 6.00835937 -8.40625 5.18359375 C-2.88401 -0.11007672 -2.88401 -0.11007672 0 0 Z " fill="#FAFAFA" transform="translate(48.046875,151.078125)"/>
<path d="M0 0 C4.64312762 1.26630753 9.01261453 3.05736092 13.4375 4.9375 C12.90347521 8.83071298 11.29394239 10.24170658 8.3125 12.6875 C5.2835813 15.26804333 2.55254654 17.82290974 0 20.875 C-2.47608342 23.79464485 -5.05915302 26.35098578 -7.9375 28.875 C-9.13093521 29.96618134 -9.13093521 29.96618134 -10.34848022 31.07940674 C-12.05388676 32.62891857 -13.77687589 34.10754301 -15.582798 35.54000092 C-26.51300164 44.19915275 -26.51300164 44.19915275 -32.07830811 56.55651855 C-32.77422641 62.98408209 -32.55680856 69.37897694 -32.3359375 75.828125 C-32.31900838 78.19077298 -32.31008934 80.55349048 -32.30874634 82.91619873 C-32.28603004 89.08494175 -32.16458692 95.24758893 -32.01849365 101.41448975 C-31.85712445 108.93171645 -31.80344635 116.45034056 -31.74473 123.96895981 C-31.69868933 129.8116616 -31.63324442 135.6516706 -31.50619507 141.4932251 C-31.4882338 142.56314194 -31.47027252 143.63305878 -31.45176697 144.73539734 C-31.41822695 146.7284678 -31.37328565 148.72139324 -31.31462097 150.71388245 C-31.24792969 155.60707931 -31.27225583 159.00512503 -34.5625 162.9375 C-37.74071535 164.52660767 -41.10189729 164.34170974 -44.5625 163.9375 C-47.23681489 162.12586733 -47.52170359 161.05988923 -48.5625 157.9375 C-48.65969493 156.41569741 -48.70167886 154.89004041 -48.70967102 153.36515808 C-48.71682632 152.42731979 -48.72398163 151.48948151 -48.73135376 150.52322388 C-48.73404266 149.49615326 -48.73673157 148.46908264 -48.73950195 147.41088867 C-48.74607315 146.32768845 -48.75264435 145.24448822 -48.75941467 144.12846375 C-48.7791545 140.53746474 -48.79081109 136.94650754 -48.80078125 133.35546875 C-48.80485678 132.13006189 -48.8089323 130.90465504 -48.81313133 129.64211464 C-48.83184238 123.82648452 -48.84640837 118.01087086 -48.8547433 112.19521636 C-48.86354282 106.1556621 -48.88284488 100.11635899 -48.91918945 94.0769043 C-48.95757122 87.59600804 -48.97642532 81.11533848 -48.98094749 74.63433266 C-48.98582321 72.16357495 -48.99746503 69.69282102 -49.01598549 67.22212791 C-49.04029024 63.76524836 -49.03942741 60.30923347 -49.0324707 56.85229492 C-49.05168579 55.32079803 -49.05168579 55.32079803 -49.07128906 53.75836182 C-49.01575063 46.18962987 -47.23556662 42.32853102 -41.828125 36.97265625 C-41.34077881 36.48659912 -40.85343262 36.00054199 -40.35131836 35.49975586 C-39.8435083 35.00483643 -39.33569824 34.50991699 -38.8125 34 C-38.27955322 33.47349854 -37.74660645 32.94699707 -37.19750977 32.40454102 C-33.7831902 29.05626843 -30.26444227 25.87532617 -26.62109375 22.77734375 C-23.99751536 20.43255167 -21.5325725 17.94121898 -19.0625 15.4375 C-15.24326716 11.57583124 -11.36172534 7.88599605 -7.21875 4.375 C-5.5206851 2.95502748 -5.5206851 2.95502748 -4.00390625 1.24609375 C-2.5625 -0.0625 -2.5625 -0.0625 0 0 Z " fill="#F6F6F6" transform="translate(131.5625,235.0625)"/>
<path d="M0 0 C0 5.61 0 11.22 0 17 C-32.88944083 23.7972817 -32.88944083 23.7972817 -48.25 26.875 C-49.76291626 27.17893677 -49.76291626 27.17893677 -51.30639648 27.48901367 C-55.86118244 28.39808759 -60.41115749 29.27625638 -65 30 C-65.23783203 30.88751953 -65.23783203 30.88751953 -65.48046875 31.79296875 C-67.83320365 39.76107091 -71.78523957 43.79138975 -79 48 C-81.375 48.75 -81.375 48.75 -84 49 C-85.2375 49.12375 -86.475 49.2475 -87.75 49.375 C-93.56290566 49.28709216 -98.29223767 46.3852497 -102.57421875 42.61328125 C-106.78373152 37.99925074 -108.64936625 32.70488889 -109.4375 26.625 C-108.50958647 18.93657359 -105.98289209 13.02810877 -99.87890625 8.15625 C-93.83191929 4.43502726 -87.93688591 4.25419491 -81 5 C-77.29355543 6.19810231 -74.17220104 7.71244939 -71.53125 10.61328125 C-69.16058836 12.76018146 -66.67793614 12.39529924 -63.61987305 12.29443359 C-60.85542622 11.98375212 -58.32990106 11.38800023 -55.64453125 10.6640625 C-48.36474154 8.78910863 -41.00876556 7.38852398 -33.625 6 C-30.99177778 5.50213819 -28.35903159 5.00182797 -25.7265625 4.5 C-24.44813477 4.25636719 -23.16970703 4.01273438 -21.85253906 3.76171875 C-16.85059198 2.77274062 -11.87721395 1.6750404 -6.90380859 0.55078125 C-4 0 -4 0 0 0 Z " fill="#FBFBFB" transform="translate(216,32)"/>
<path d="M0 0 C5.64589594 3.28763076 9.71754462 7.98619561 12.1875 14 C13.41773118 21.65477176 12.91595813 26.03738036 9.625 33.0078125 C7.75 35.5 7.75 35.5 5.84957886 36.57110596 C3.33448133 37.99585973 1.62494225 39.28646839 -0.25 41.5 C-1.42243566 46.08677493 -1.27346633 50.57729191 -1.1796875 55.2890625 C-1.18213125 56.63855164 -1.18838772 57.98803875 -1.19827271 59.3374939 C-1.21533107 62.87775494 -1.18659122 66.4160989 -1.14630127 69.95611572 C-1.09060031 75.6275588 -1.10961999 81.29939181 -1.11957169 86.97101974 C-1.11722205 88.94749781 -1.09681614 90.92392775 -1.07614136 92.90029907 C-1.07018951 94.10189667 -1.06423767 95.30349426 -1.05810547 96.54150391 C-1.0472995 97.59818268 -1.03649353 98.65486145 -1.02536011 99.74356079 C-1.25396769 102.5486854 -1.73808722 104.14995298 -3.25 106.5 C-6.46955988 108.79968563 -9.37559532 109.05348638 -13.25 108.5 C-16.3763106 105.99227354 -18.05091903 104.49097916 -18.85127258 100.50700378 C-18.84016953 99.39891861 -18.82906647 98.29083344 -18.81762695 97.14916992 C-18.8172493 95.8882402 -18.81687164 94.62731049 -18.81648254 93.32817078 C-18.79095324 91.96225994 -18.76487333 90.59635931 -18.73828125 89.23046875 C-18.72894859 87.82515218 -18.72183461 86.41981928 -18.71684265 85.01448059 C-18.69780772 81.32661541 -18.64873971 77.63974449 -18.59332275 73.95227051 C-18.54205304 70.18511402 -18.5193123 66.41779589 -18.49414062 62.65039062 C-18.44061537 55.2664752 -18.35534782 47.88337724 -18.25 40.5 C-19.03930908 40.20649658 -19.82861816 39.91299316 -20.6418457 39.6105957 C-25.56276063 37.51518786 -28.02254696 32.62014616 -30.625 28.125 C-32.23602978 21.35867492 -31.94202341 15.32254592 -28.4453125 9.24609375 C-21.72514919 -0.57061541 -11.2526915 -4.89437455 0 0 Z " fill="#F9F9F9" transform="translate(176.25,329.5)"/>
<path d="M0 0 C2.31 0 4.62 0 7 0 C12.69041113 12.01206062 18.08450222 24.14698194 23.4375 36.3125 C24.65856637 39.08367134 25.88009327 41.85463889 27.10195923 44.62545776 C27.90086177 46.43814761 28.6988686 48.25123251 29.49594116 50.06472778 C31.43518176 54.47311805 33.38985267 58.87333287 35.37939453 63.25927734 C35.75346939 64.08767624 36.12754425 64.91607513 36.51295471 65.76957703 C37.21800665 67.32852266 37.92751379 68.88546371 38.64219666 70.4400177 C41 75.66514468 41 75.66514468 41 79 C38.69 79 36.38 79 34 79 C30.37 70.42 26.74 61.84 23 53 C3.2 52.505 3.2 52.505 -17 52 C-17.33 53.65 -17.66 55.3 -18 57 C-18.6331442 58.69931619 -19.31300633 60.38174043 -20.03125 62.046875 C-20.42957031 62.97371094 -20.82789062 63.90054688 -21.23828125 64.85546875 C-21.65464844 65.81066406 -22.07101563 66.76585937 -22.5 67.75 C-22.91636719 68.72066406 -23.33273438 69.69132812 -23.76171875 70.69140625 C-26.85956743 77.85956743 -26.85956743 77.85956743 -28 79 C-30.33297433 79.04092937 -32.66705225 79.04241723 -35 79 C-29.0339437 65.22410618 -23.02746287 51.46585091 -17.00213623 37.71578979 C-16.21818454 35.92612676 -15.43484447 34.13619566 -14.65216064 32.34597778 C-9.90761167 21.49595076 -5.07028564 10.70202205 0 0 Z " fill="#FBFBFB" transform="translate(2295,371)"/>
<path d="M0 0 C2.31 0 4.62 0 7 0 C12.69041113 12.01206062 18.08450222 24.14698194 23.4375 36.3125 C24.65856637 39.08367134 25.88009327 41.85463889 27.10195923 44.62545776 C27.90086177 46.43814761 28.6988686 48.25123251 29.49594116 50.06472778 C31.43518176 54.47311805 33.38985267 58.87333287 35.37939453 63.25927734 C35.75346939 64.08767624 36.12754425 64.91607513 36.51295471 65.76957703 C37.21800665 67.32852266 37.92751379 68.88546371 38.64219666 70.4400177 C41 75.66514468 41 75.66514468 41 79 C38.69 79 36.38 79 34 79 C30.37 70.42 26.74 61.84 23 53 C3.2 52.505 3.2 52.505 -17 52 C-17.33 53.65 -17.66 55.3 -18 57 C-18.6331442 58.69931619 -19.31300633 60.38174043 -20.03125 62.046875 C-20.42957031 62.97371094 -20.82789063 63.90054688 -21.23828125 64.85546875 C-21.65464844 65.81066406 -22.07101562 66.76585937 -22.5 67.75 C-22.91636719 68.72066406 -23.33273437 69.69132812 -23.76171875 70.69140625 C-26.85956743 77.85956743 -26.85956743 77.85956743 -28 79 C-30.33297433 79.04092937 -32.66705225 79.04241723 -35 79 C-29.0339437 65.22410618 -23.02746287 51.46585091 -17.00213623 37.71578979 C-16.21818454 35.92612676 -15.43484447 34.13619566 -14.65216064 32.34597778 C-9.90761167 21.49595076 -5.07028564 10.70202205 0 0 Z " fill="#FBFBFB" transform="translate(2067,371)"/>
<path d="M0 0 C4.86128322 2.05369719 8.08233752 4.62350628 11 9 C13.10162736 9.96109968 13.10162736 9.96109968 15.5703125 10.60546875 C16.46621094 10.86650391 17.36210938 11.12753906 18.28515625 11.39648438 C19.22230469 11.65751953 20.15945312 11.91855469 21.125 12.1875 C22.06988281 12.46013672 23.01476562 12.73277344 23.98828125 13.01367188 C26.32268872 13.68569827 28.66099755 14.34414541 31 15 C31 20.61 31 26.22 31 32 C22 32 22 32 17.5 30.5 C16.6440625 30.2215625 15.788125 29.943125 14.90625 29.65625 C14.2771875 29.4396875 13.648125 29.223125 13 29 C12.7215625 30.299375 12.7215625 30.299375 12.4375 31.625 C10.31223431 36.61475422 6.70495075 39.28452257 2.1953125 42.14453125 C-3.40177928 44.32560438 -10.96208155 44.12412273 -16.5546875 42.0546875 C-22.71287392 38.35977565 -27.11309554 33.00462374 -29 26 C-29.91935799 19.22111939 -29.1465934 13.5440641 -25 8 C-17.22296755 0.06927126 -10.95206904 -1.19718973 0 0 Z " fill="#FBFBFB" transform="translate(76,65)"/>
<path d="M0 0 C3.3 0 6.6 0 10 0 C10.49290527 1.12680176 10.98581055 2.25360352 11.49365234 3.41455078 C24.56313944 33.28932177 24.56313944 33.28932177 38 63 C52.20067427 31.58883865 52.20067427 31.58883865 66 0 C69.3 0 72.6 0 76 0 C76 26.07 76 52.14 76 79 C74.02 79 72.04 79 70 79 C69.97686007 69.77729522 69.95907646 60.55460039 69.94818783 51.33187294 C69.94296262 47.04968874 69.93587152 42.76752436 69.92456055 38.48535156 C69.91371883 34.35512471 69.90772043 30.22491695 69.90512276 26.09467697 C69.90327083 24.5165718 69.89965465 22.93846771 69.89426994 21.36037064 C69.88704248 19.15510016 69.88600978 16.94990926 69.88647461 14.74462891 C69.884254 13.48776276 69.88203339 12.23089661 69.87974548 10.9359436 C70 8 70 8 71 6 C70.34 6 69.68 6 69 6 C68.88624023 6.70511719 68.77248047 7.41023438 68.65527344 8.13671875 C67.93950703 11.26432994 66.84367631 13.89209924 65.515625 16.8125 C64.99838867 17.95750977 64.48115234 19.10251953 63.94824219 20.28222656 C63.38226919 21.52153358 62.81618583 22.7607902 62.25 24 C61.67037944 25.27808507 61.09128579 26.55640922 60.51269531 27.83496094 C59.60940394 29.83052689 58.7055921 31.82584476 57.79974365 33.82025146 C55.60755871 38.64766892 53.43837345 43.48494804 51.28125 48.328125 C50.68327672 49.66927462 50.08529508 51.01042051 49.48730469 52.3515625 C48.62069087 54.29548676 47.75460548 56.23963684 46.89025879 58.18457031 C46.09041861 59.98336652 45.28747514 61.78078188 44.484375 63.578125 C44.02772461 64.60325195 43.57107422 65.62837891 43.10058594 66.68457031 C42 69 42 69 41 70 C39.00041636 70.04080783 36.99954746 70.04254356 35 70 C29.71307996 59.60094872 24.66349515 49.11822663 19.83520508 38.49853516 C18.80594839 36.23559554 17.77144928 33.97510594 16.73632812 31.71484375 C16.05958746 30.23191152 15.38314467 28.74884331 14.70703125 27.265625 C14.25841484 26.28544403 14.25841484 26.28544403 13.80073547 25.28546143 C11.05746981 19.24016107 8.55793382 13.13904116 6 7 C6 30.76 6 54.52 6 79 C4.02 79 2.04 79 0 79 C0 52.93 0 26.86 0 0 Z " fill="#FDFDFD" transform="translate(2620,371)"/>
<path d="M0 0 C12.59265518 0.1097834 23.28774826 0.72691569 32.9543457 9.37597656 C35.36333585 13.63803605 35.33959838 17.46676024 34.5793457 22.25097656 C31.64015911 28.12934975 27.65749373 31.7150556 21.4699707 33.85253906 C13.94743288 36.03665583 6.20623319 35.57095185 -1.5456543 35.43847656 C-3.08991203 35.42339719 -4.63418406 35.40971456 -6.1784668 35.39746094 C-9.92616444 35.36472513 -13.67331539 35.31312413 -17.4206543 35.25097656 C-17.4453062 30.42716854 -17.46349122 25.6033969 -17.47558594 20.77954102 C-17.48062604 19.13728192 -17.48745808 17.49502733 -17.49609375 15.8527832 C-17.50817355 13.49722177 -17.51388568 11.14171948 -17.51831055 8.78613281 C-17.52347183 8.0475856 -17.52863312 7.30903839 -17.53395081 6.54811096 C-17.5341468 4.78199568 -17.48260148 3.01600511 -17.4206543 1.25097656 C-14.35780144 -1.81187629 -4.1501621 0.00108565 0 0 Z " fill="#010101" transform="translate(805.420654296875,409.7490234375)"/>
<path d="M0 0 C46.76470588 0 46.76470588 0 55 7 C59.72022132 12.23051551 60.37432544 16.28219322 60.265625 23.1484375 C59.76858966 28.48425809 58.08534038 32.09636978 54.1171875 35.71875 C50.03122968 38.70633206 46.08700061 40.41183807 41.19140625 41.66796875 C39.72682983 42.04924927 39.72682983 42.04924927 38.23266602 42.43823242 C37.49588623 42.62361572 36.75910645 42.80899902 36 43 C38.08205752 45.83427277 40.16572522 48.6673574 42.25 51.5 C42.87664551 52.35190918 43.50329102 53.20381836 44.14892578 54.08154297 C48.86640159 60.48527557 53.62701202 66.85505942 58.44238281 73.18554688 C62 77.89164775 62 77.89164775 62 79 C58.95833663 79.40247606 56.94518255 79.6349766 54 79 C51.31615117 76.86238078 49.54316131 74.19747175 47.625 71.375 C47.07408691 70.60969971 46.52317383 69.84439941 45.95556641 69.0559082 C44.2802441 66.71960566 42.6401466 64.36107373 41 62 C40.01883007 60.62921065 39.03463709 59.26057808 38.046875 57.89453125 C36.35894568 55.55735219 34.68288411 53.21295355 33.0234375 50.85546875 C32.35570312 49.91316406 31.68796875 48.97085938 31 48 C30.56856689 47.29367432 30.13713379 46.58734863 29.69262695 45.85961914 C28.13655427 43.7958692 28.13655427 43.7958692 25.63989258 43.45410156 C24.73392334 43.4331543 23.8279541 43.41220703 22.89453125 43.390625 C22.00870361 43.36000977 21.12287598 43.32939453 20.21020508 43.29785156 C19.0889624 43.28206055 17.96771973 43.26626953 16.8125 43.25 C13.244375 43.1675 9.67625 43.085 6 43 C6 54.88 6 66.76 6 79 C4.02 79 2.04 79 0 79 C0 52.93 0 26.86 0 0 Z M6 5 C6 15.89 6 26.78 6 38 C12.868125 38.0928125 12.868125 38.0928125 19.875 38.1875 C21.29796387 38.21481201 22.72092773 38.24212402 24.18701172 38.27026367 C32.86203713 38.32665801 41.39648506 38.09380416 48.5 32.5625 C52.19256701 28.77761882 53.3207384 25.96824798 53.5 20.6875 C53.40971331 16.70957466 53.00846925 14.17772736 50.5625 11 C42.4294798 3.50788069 31.79847646 4.63437885 21.4375 4.8125 C13.7959375 4.9053125 13.7959375 4.9053125 6 5 Z " fill="#FBFBFB" transform="translate(1590,371)"/>
<path d="M0 0 C46.76470588 0 46.76470588 0 55 7 C59.72022132 12.23051551 60.37432544 16.28219322 60.265625 23.1484375 C59.76858966 28.48425809 58.08534038 32.09636978 54.1171875 35.71875 C50.03122968 38.70633206 46.08700061 40.41183807 41.19140625 41.66796875 C39.72682983 42.04924927 39.72682983 42.04924927 38.23266602 42.43823242 C37.49588623 42.62361572 36.75910645 42.80899902 36 43 C38.08205752 45.83427277 40.16572522 48.6673574 42.25 51.5 C42.87664551 52.35190918 43.50329102 53.20381836 44.14892578 54.08154297 C48.86640159 60.48527557 53.62701202 66.85505942 58.44238281 73.18554688 C62 77.89164775 62 77.89164775 62 79 C58.95833663 79.40247606 56.94518255 79.6349766 54 79 C51.31615117 76.86238078 49.54316131 74.19747175 47.625 71.375 C47.07408691 70.60969971 46.52317383 69.84439941 45.95556641 69.0559082 C44.2802441 66.71960566 42.6401466 64.36107373 41 62 C40.01883007 60.62921065 39.03463709 59.26057808 38.046875 57.89453125 C36.35894568 55.55735219 34.68288411 53.21295355 33.0234375 50.85546875 C32.35570312 49.91316406 31.68796875 48.97085938 31 48 C30.56856689 47.29367432 30.13713379 46.58734863 29.69262695 45.85961914 C28.13655427 43.7958692 28.13655427 43.7958692 25.63989258 43.45410156 C24.73392334 43.4331543 23.8279541 43.41220703 22.89453125 43.390625 C22.00870361 43.36000977 21.12287598 43.32939453 20.21020508 43.29785156 C19.0889624 43.28206055 17.96771973 43.26626953 16.8125 43.25 C13.244375 43.1675 9.67625 43.085 6 43 C6 54.88 6 66.76 6 79 C4.02 79 2.04 79 0 79 C0 52.93 0 26.86 0 0 Z M6 5 C6 15.89 6 26.78 6 38 C12.868125 38.0928125 12.868125 38.0928125 19.875 38.1875 C21.29796387 38.21481201 22.72092773 38.24212402 24.18701172 38.27026367 C32.86203713 38.32665801 41.39648506 38.09380416 48.5 32.5625 C52.19256701 28.77761882 53.3207384 25.96824798 53.5 20.6875 C53.40971331 16.70957466 53.00846925 14.17772736 50.5625 11 C42.4294798 3.50788069 31.79847646 4.63437885 21.4375 4.8125 C13.7959375 4.9053125 13.7959375 4.9053125 6 5 Z " fill="#FBFBFB" transform="translate(1012,371)"/>
<path d="M0 0 C45.6545082 0 45.6545082 0 58.8671875 12.6328125 C67.46887871 22.17974451 67.77989235 34.56153836 67.1953125 46.76220703 C66.39726416 55.90584584 61.73833296 63.42102801 55.2578125 69.68359375 C40.10843423 82.28712215 17.85832982 79 0 79 C0 52.93 0 26.86 0 0 Z M6 5 C6 27.77 6 50.54 6 74 C30.56922416 75.11433999 30.56922416 75.11433999 51 65 C58.7908715 56.93695832 60.50666506 48.33221773 60.41967773 37.38134766 C60.09464103 27.90616187 57.42489358 20.53490561 50.77734375 13.6484375 C38.14177791 1.92929731 22.68145346 5 6 5 Z " fill="#FBFBFB" transform="translate(2386,371)"/>
<path d="M0 0 C29.38579782 0.03471605 29.38579782 0.03471605 36.56152344 7.19067383 C39.13777741 11.36954732 39.46424407 15.41109046 38.56152344 20.19067383 C35.94549279 25.20152664 32.14061177 27.88440553 26.88183594 29.68286133 C19.48059338 31.30266189 12.16711762 31.34412044 4.62402344 31.31567383 C3.57150391 31.31954102 2.51898437 31.3234082 1.43457031 31.32739258 C0.43619141 31.32610352 -0.5621875 31.32481445 -1.59082031 31.32348633 C-2.49823975 31.3223584 -3.40565918 31.32123047 -4.34057617 31.32006836 C-6.43847656 31.19067383 -6.43847656 31.19067383 -7.43847656 30.19067383 C-7.53850946 28.05714209 -7.56928704 25.92029841 -7.57128906 23.78442383 C-7.57257812 22.48375977 -7.57386719 21.1830957 -7.57519531 19.84301758 C-7.57310059 19.16223145 -7.57100586 18.48144531 -7.56884766 17.7800293 C-7.56349897 15.69938868 -7.56879336 13.61896394 -7.57519531 11.53833008 C-7.57390625 10.23766602 -7.57261719 8.93700195 -7.57128906 7.59692383 C-7.57016113 6.39358398 -7.5690332 5.19024414 -7.56787109 3.95043945 C-7.32528567 -1.22349577 -4.53738358 0.04132165 0 0 Z " fill="#020202" transform="translate(795.4384765625,374.809326171875)"/>
<path d="M0 0 C2.31 0 4.62 0 7 0 C7.00586624 0.65431 7.01173248 1.30862 7.01777649 1.98275757 C7.08200518 8.82943925 7.16649945 15.67566366 7.26245117 22.52197266 C7.2955837 25.07269234 7.32365147 27.62348329 7.34643555 30.17431641 C7.38019609 33.85349729 7.43252414 37.53203198 7.48828125 41.2109375 C7.49467117 42.34050873 7.5010611 43.47007996 7.50764465 44.63388062 C7.6596348 52.92950373 8.64613966 60.26151593 13.125 67.375 C20.62284277 74.22085644 28.24542595 74.68403219 38.015625 74.33203125 C42.70342804 73.941381 45.83580436 73.12292327 50 71 C50.78375 70.690625 51.5675 70.38125 52.375 70.0625 C54.5803492 68.62054091 55.02819004 67.46191857 56 65 C56.50378174 63.90429688 57.00756348 62.80859375 57.52661133 61.6796875 C59.69958222 55.84007019 59.47906223 49.91093952 59.51171875 43.75 C59.52966995 42.49614502 59.54762115 41.24229004 59.56611633 39.95043945 C59.61091081 36.64284139 59.64331531 33.33543614 59.66955566 30.02764893 C59.69951809 26.64199654 59.7459938 23.25657343 59.79101562 19.87109375 C59.87578158 13.24750237 59.94419734 6.62389533 60 0 C62.31 0 64.62 0 67 0 C67.05090835 7.52560522 67.08582092 15.05116566 67.10986328 22.5769043 C67.11989132 25.13453837 67.13351707 27.69216106 67.15087891 30.24975586 C67.17526779 33.93606382 67.1865154 37.62221954 67.1953125 41.30859375 C67.20563507 42.44332626 67.21595764 43.57805878 67.22659302 44.74717712 C67.22822703 56.43413975 65.60257578 65.1306349 57.375 73.75 C47.58138342 80.99089446 35.68115106 81.22049695 24 80 C16.13215562 78.40128276 9.31188939 74.92617509 4.7578125 68.15234375 C-0.00406193 59.41065456 -0.28574789 50.27702844 -0.1953125 40.52734375 C-0.1924826 39.3636879 -0.18965271 38.20003204 -0.18673706 37.00111389 C-0.17561231 33.31313451 -0.15052183 29.62540501 -0.125 25.9375 C-0.11496025 23.42513374 -0.10583615 20.91276363 -0.09765625 18.40039062 C-0.07569823 12.26684295 -0.04229793 6.13343934 0 0 Z " fill="#F9F9F9" transform="translate(1461,371)"/>
<path d="M0 0 C0.78729492 0.00161133 1.57458984 0.00322266 2.38574219 0.00488281 C11.67345744 0.19829787 19.92913113 2.63237977 27.3125 8.375 C26.6525 9.695 25.9925 11.015 25.3125 12.375 C22.45758922 11.76503007 20.22356419 10.86740853 17.6875 9.4375 C8.84578538 4.96770331 -1.38995948 4.04133422 -10.8984375 7.08203125 C-12.52540721 7.77881364 -14.11122022 8.57009118 -15.6875 9.375 C-16.6775 9.705 -17.6675 10.035 -18.6875 10.375 C-20.90602079 14.34498457 -21.0876932 17.89283613 -20.6875 22.375 C-16.0826069 31.93675255 -2.80175229 34.50027242 6.5 37.875 C7.5211792 38.23045898 8.5423584 38.58591797 9.59448242 38.95214844 C17.33895354 41.72767445 25.57266126 44.82000276 29.875 52.25 C32.20902172 57.9075826 32.20902172 62.8424174 29.875 68.5 C26.04802634 75.35890702 18.96578787 78.47539387 11.76782227 80.77514648 C7.63565747 81.78466512 3.61016113 81.82075545 -0.625 81.75 C-1.50599365 81.73984863 -2.3869873 81.72969727 -3.29467773 81.71923828 C-14.06088679 81.4618787 -22.67729499 78.38180334 -31.6875 72.375 C-32.3475 71.385 -33.0075 70.395 -33.6875 69.375 C-32.0375 68.385 -30.3875 67.395 -28.6875 66.375 C-28.07003906 66.77332031 -27.45257812 67.17164063 -26.81640625 67.58203125 C-25.96949219 68.11183594 -25.12257813 68.64164062 -24.25 69.1875 C-23.42628906 69.70957031 -22.60257813 70.23164063 -21.75390625 70.76953125 C-14.67785031 74.47431978 -8.14770318 75.91255729 -0.1875 75.8125 C0.64402588 75.80637695 1.47555176 75.80025391 2.33227539 75.79394531 C9.80462608 75.60300564 15.01272804 74.09731187 20.8125 69.3125 C23.44706679 65.9095179 23.47620649 62.70048461 23.640625 58.5078125 C23.18473851 55.54455033 22.0885658 53.78065587 20.3125 51.375 C12.7796873 46.03754255 3.07661441 43.35079297 -5.59301758 40.44213867 C-13.21888305 37.80779843 -20.73701416 34.61333811 -26.25 28.5625 C-28.41476505 23.7623688 -29.43424709 19.43443398 -28.1640625 14.23046875 C-25.72126708 8.37000084 -21.29092538 5.11135392 -15.6875 2.375 C-10.36750341 0.50788581 -5.57413715 -0.01193605 0 0 Z " fill="#FAFAFA" transform="translate(1149.6875,369.625)"/>
<path d="M0 0 C17.82 0 35.64 0 54 0 C53.67 1.65 53.34 3.3 53 5 C37.49 5 21.98 5 6 5 C6.33 14.57 6.66 24.14 7 34 C26.305 34.495 26.305 34.495 46 35 C46 36.32 46 37.64 46 39 C33.13 39.33 20.26 39.66 7 40 C6.67 51.22 6.34 62.44 6 74 C22.17 74 38.34 74 55 74 C55 75.65 55 77.3 55 79 C36.85 79 18.7 79 0 79 C0 52.93 0 26.86 0 0 Z " fill="#FBFBFB" transform="translate(2509,371)"/>
<path d="M0 0 C17.82 0 35.64 0 54 0 C53.67 1.65 53.34 3.3 53 5 C37.49 5 21.98 5 6 5 C6.33 14.57 6.66 24.14 7 34 C26.305 34.495 26.305 34.495 46 35 C46 36.32 46 37.64 46 39 C33.13 39.33 20.26 39.66 7 40 C6.67 51.22 6.34 62.44 6 74 C22.17 74 38.34 74 55 74 C55 75.65 55 77.3 55 79 C36.85 79 18.7 79 0 79 C0 52.93 0 26.86 0 0 Z " fill="#FBFBFB" transform="translate(1235,371)"/>
<path d="M0 0 C17.82 0 35.64 0 54 0 C53.67 1.65 53.34 3.3 53 5 C37.49 5 21.98 5 6 5 C6.33 14.57 6.66 24.14 7 34 C26.305 34.495 26.305 34.495 46 35 C46 36.32 46 37.64 46 39 C33.13 39.33 20.26 39.66 7 40 C6.67 51.22 6.34 62.44 6 74 C22.17 74 38.34 74 55 74 C55 75.65 55 77.3 55 79 C36.85 79 18.7 79 0 79 C0 52.93 0 26.86 0 0 Z " fill="#FBFBFB" transform="translate(902,371)"/>
<path d="M0 0 C0.83684326 0.00161133 1.67368652 0.00322266 2.53588867 0.00488281 C11.64696657 0.18475893 19.60564613 2.58228064 26.75 8.375 C26.75 9.035 26.75 9.695 26.75 10.375 C24.8125 11.6875 24.8125 11.6875 21.75 12.375 C19.39007921 11.32963585 17.27020089 10.02445571 15.05859375 8.6953125 C7.63600341 4.45024391 -0.04748055 5.00627226 -8.25 6.375 C-11.77415071 7.39502167 -14.97805939 8.72413015 -18.25 10.375 C-19.3225 10.91125 -20.395 11.4475 -21.5 12 C-29.40228108 18.82469729 -32.3189189 28.62892251 -33.53125 38.71484375 C-33.98282821 49.11995839 -30.72491343 59.35399546 -23.72265625 67.0546875 C-15.89201253 74.46155521 -7.29957853 75.9527817 3.125 75.85205078 C11.62782653 75.53587425 18.43069376 73.27301916 24.75 67.375 C28.625 69.125 28.625 69.125 29.75 71.375 C28.11281885 72.49195536 26.46467679 73.59284789 24.8125 74.6875 C23.89597656 75.30238281 22.97945312 75.91726563 22.03515625 76.55078125 C15.00363683 80.45532295 8.44231558 81.91702515 0.4375 81.8125 C-0.80362549 81.80005249 -0.80362549 81.80005249 -2.06982422 81.78735352 C-14.31936021 81.45179886 -23.55062529 77.4490601 -31.99609375 68.53125 C-39.63529222 59.23466932 -42.14650607 47.16239463 -41.25 35.375 C-39.50995915 24.19744946 -35.20549706 15.02945 -26.32421875 7.83984375 C-18.25520406 2.14138705 -9.80508224 -0.01965143 0 0 Z " fill="#FBFBFB" transform="translate(2190.25,369.625)"/>
<path d="M0 0 C0.83684326 0.00161133 1.67368652 0.00322266 2.53588867 0.00488281 C11.64696657 0.18475893 19.60564613 2.58228064 26.75 8.375 C26.75 9.035 26.75 9.695 26.75 10.375 C24.8125 11.6875 24.8125 11.6875 21.75 12.375 C19.39007921 11.32963585 17.27020089 10.02445571 15.05859375 8.6953125 C7.63600341 4.45024391 -0.04748055 5.00627226 -8.25 6.375 C-11.77415071 7.39502167 -14.97805939 8.72413015 -18.25 10.375 C-19.3225 10.91125 -20.395 11.4475 -21.5 12 C-29.40228108 18.82469729 -32.3189189 28.62892251 -33.53125 38.71484375 C-33.98282821 49.11995839 -30.72491343 59.35399546 -23.72265625 67.0546875 C-15.89201253 74.46155521 -7.29957853 75.9527817 3.125 75.85205078 C11.62782653 75.53587425 18.43069376 73.27301916 24.75 67.375 C28.625 69.125 28.625 69.125 29.75 71.375 C28.11281885 72.49195536 26.46467679 73.59284789 24.8125 74.6875 C23.89597656 75.30238281 22.97945312 75.91726563 22.03515625 76.55078125 C15.00363683 80.45532295 8.44231558 81.91702515 0.4375 81.8125 C-0.80362549 81.80005249 -0.80362549 81.80005249 -2.06982422 81.78735352 C-14.31936021 81.45179886 -23.55062529 77.4490601 -31.99609375 68.53125 C-39.63529222 59.23466932 -42.14650607 47.16239463 -41.25 35.375 C-39.50995915 24.19744946 -35.20549706 15.02945 -26.32421875 7.83984375 C-18.25520406 2.14138705 -9.80508224 -0.01965143 0 0 Z " fill="#FBFBFB" transform="translate(1380.25,369.625)"/>
<path d="M0 0 C0.83684326 0.00161133 1.67368652 0.00322266 2.53588867 0.00488281 C11.64696657 0.18475893 19.60564613 2.58228064 26.75 8.375 C26.75 9.035 26.75 9.695 26.75 10.375 C24.8125 11.6875 24.8125 11.6875 21.75 12.375 C19.39007921 11.32963585 17.27020089 10.02445571 15.05859375 8.6953125 C7.63600341 4.45024391 -0.04748055 5.00627226 -8.25 6.375 C-11.77415071 7.39502167 -14.97805939 8.72413015 -18.25 10.375 C-19.3225 10.91125 -20.395 11.4475 -21.5 12 C-29.40228108 18.82469729 -32.3189189 28.62892251 -33.53125 38.71484375 C-33.98282821 49.11995839 -30.72491343 59.35399546 -23.72265625 67.0546875 C-15.89201253 74.46155521 -7.29957853 75.9527817 3.125 75.85205078 C11.62782653 75.53587425 18.43069376 73.27301916 24.75 67.375 C28.625 69.125 28.625 69.125 29.75 71.375 C28.11281885 72.49195536 26.46467679 73.59284789 24.8125 74.6875 C23.89597656 75.30238281 22.97945312 75.91726563 22.03515625 76.55078125 C15.00363683 80.45532295 8.44231558 81.91702515 0.4375 81.8125 C-0.80362549 81.80005249 -0.80362549 81.80005249 -2.06982422 81.78735352 C-14.31936021 81.45179886 -23.55062529 77.4490601 -31.99609375 68.53125 C-39.63529222 59.23466932 -42.14650607 47.16239463 -41.25 35.375 C-39.50995915 24.19744946 -35.20549706 15.02945 -26.32421875 7.83984375 C-18.25520406 2.14138705 -9.80508224 -0.01965143 0 0 Z " fill="#FBFBFB" transform="translate(599.25,369.625)"/>
<path d="M0 0 C23.1 0 46.2 0 70 0 C70 1.65 70 3.3 70 5 C59.77 5 49.54 5 39 5 C39 29.42 39 53.84 39 79 C36.69 79 34.38 79 32 79 C32 54.58 32 30.16 32 5 C21.77 5 11.54 5 1 5 C0.67 3.35 0.34 1.7 0 0 Z " fill="#F9F9F9" transform="translate(1762,371)"/>
<path d="M0 0 C3.11328125 -0.578125 3.11328125 -0.578125 7 0 C9.64713273 2.71889478 11.34929667 5.95022476 13.1875 9.25 C14.00963989 10.65221802 14.00963989 10.65221802 14.84838867 12.08276367 C15.99854067 14.04653013 17.13840567 16.01635329 18.26855469 17.99169922 C20.52084917 21.90494973 22.85395606 25.76665408 25.19067383 29.62988281 C27.47630195 33.41047619 29.73886582 37.20472296 32 41 C35.18831399 37.18126938 37.89118565 33.16245498 40.5 28.9375 C40.92579346 28.26009766 41.35158691 27.58269531 41.7902832 26.88476562 C44.33022182 22.8150028 46.74533518 18.69823947 49.07421875 14.50390625 C49.59242188 13.58939697 50.110625 12.6748877 50.64453125 11.73266602 C51.66001514 9.93419906 52.65423228 8.12352942 53.625 6.30053711 C54.95334566 3.96975704 56.14844336 1.94246297 58 0 C61.86328125 -0.5625 61.86328125 -0.5625 65 0 C63.70212451 3.48693315 62.17949987 6.50859211 60.1640625 9.6328125 C59.59969482 10.51042236 59.03532715 11.38803223 58.45385742 12.29223633 C57.548573 13.69445435 57.548573 13.69445435 56.625 15.125 C56.00665283 16.11072998 55.38830566 17.09645996 54.7512207 18.11206055 C51.82748282 22.75067956 48.88741029 27.24307659 45.44140625 31.51171875 C34.26420112 45.93132917 35.36772259 61.51377346 36 79 C33.69 79 31.38 79 29 79 C29.03254883 78.09983154 29.06509766 77.19966309 29.09863281 76.2722168 C29.5989806 57.96626804 29.71213871 43.99579721 17.71240234 29.20654297 C14.6429801 25.25139067 12.11466073 20.95057823 9.5 16.6875 C8.53421331 15.14787676 7.56563123 13.61000211 6.59375 12.07421875 C6.15417969 11.37731934 5.71460937 10.68041992 5.26171875 9.96240234 C4.09261755 8.14405184 2.88267778 6.36196525 1.65625 4.58203125 C0 2 0 2 0 0 Z " fill="#FCFCFC" transform="translate(2744,371)"/>
<path d="M0 0 C3.11328125 -0.578125 3.11328125 -0.578125 7 0 C9.64713273 2.71889478 11.34929667 5.95022476 13.1875 9.25 C14.00963989 10.65221802 14.00963989 10.65221802 14.84838867 12.08276367 C15.99854067 14.04653013 17.13840567 16.01635329 18.26855469 17.99169922 C20.52084917 21.90494973 22.85395606 25.76665408 25.19067383 29.62988281 C27.47630195 33.41047619 29.73886582 37.20472296 32 41 C35.18831399 37.18126938 37.89118565 33.16245498 40.5 28.9375 C40.92579346 28.26009766 41.35158691 27.58269531 41.7902832 26.88476562 C44.33022182 22.8150028 46.74533518 18.69823947 49.07421875 14.50390625 C49.59242187 13.58939697 50.110625 12.6748877 50.64453125 11.73266602 C51.66001514 9.93419906 52.65423228 8.12352942 53.625 6.30053711 C54.95334566 3.96975704 56.14844336 1.94246297 58 0 C61.86328125 -0.5625 61.86328125 -0.5625 65 0 C63.70212451 3.48693315 62.17949987 6.50859211 60.1640625 9.6328125 C59.59969482 10.51042236 59.03532715 11.38803223 58.45385742 12.29223633 C57.548573 13.69445435 57.548573 13.69445435 56.625 15.125 C56.00665283 16.11072998 55.38830566 17.09645996 54.7512207 18.11206055 C51.82748282 22.75067956 48.88741029 27.24307659 45.44140625 31.51171875 C34.26420112 45.93132917 35.36772259 61.51377346 36 79 C33.69 79 31.38 79 29 79 C29.03254883 78.09983154 29.06509766 77.19966309 29.09863281 76.2722168 C29.5989806 57.96626804 29.71213871 43.99579721 17.71240234 29.20654297 C14.6429801 25.25139067 12.11466073 20.95057823 9.5 16.6875 C8.53421331 15.14787676 7.56563123 13.61000211 6.59375 12.07421875 C6.15417969 11.37731934 5.71460938 10.68041992 5.26171875 9.96240234 C4.09261755 8.14405184 2.88267778 6.36196525 1.65625 4.58203125 C0 2 0 2 0 0 Z " fill="#FCFCFC" transform="translate(1869,371)"/>
<path d="M0 0 C3.11328125 -0.578125 3.11328125 -0.578125 7 0 C9.64713273 2.71889478 11.34929667 5.95022476 13.1875 9.25 C14.00963989 10.65221802 14.00963989 10.65221802 14.84838867 12.08276367 C15.99854067 14.04653013 17.13840567 16.01635329 18.26855469 17.99169922 C20.52084917 21.90494973 22.85395606 25.76665408 25.19067383 29.62988281 C27.47630195 33.41047619 29.73886582 37.20472296 32 41 C35.18831399 37.18126938 37.89118565 33.16245498 40.5 28.9375 C40.92579346 28.26009766 41.35158691 27.58269531 41.7902832 26.88476562 C44.33022182 22.8150028 46.74533518 18.69823947 49.07421875 14.50390625 C49.59242188 13.58939697 50.110625 12.6748877 50.64453125 11.73266602 C51.66001514 9.93419906 52.65423228 8.12352942 53.625 6.30053711 C54.95334566 3.96975704 56.14844336 1.94246297 58 0 C61.86328125 -0.5625 61.86328125 -0.5625 65 0 C63.70212451 3.48693315 62.17949987 6.50859211 60.1640625 9.6328125 C59.59969482 10.51042236 59.03532715 11.38803223 58.45385742 12.29223633 C57.548573 13.69445435 57.548573 13.69445435 56.625 15.125 C56.00665283 16.11072998 55.38830566 17.09645996 54.7512207 18.11206055 C51.82748282 22.75067956 48.88741029 27.24307659 45.44140625 31.51171875 C34.26420112 45.93132917 35.36772259 61.51377346 36 79 C33.69 79 31.38 79 29 79 C29.03254883 78.09983154 29.06509766 77.19966309 29.09863281 76.2722168 C29.5989806 57.96626804 29.71213871 43.99579721 17.71240234 29.20654297 C14.6429801 25.25139067 12.11466073 20.95057823 9.5 16.6875 C8.53421331 15.14787676 7.56563123 13.61000211 6.59375 12.07421875 C6.15417969 11.37731934 5.71460938 10.68041992 5.26171875 9.96240234 C4.09261755 8.14405184 2.88267778 6.36196525 1.65625 4.58203125 C0 2 0 2 0 0 Z " fill="#FCFCFC" transform="translate(668,371)"/>
<path d="M0 0 C4.37183386 2.8327699 8.05688717 6.0856224 10 11 C10.88266466 15.94292212 10.38108662 20.00747926 7.875 24.375 C5.35355795 27.90080477 3.24041092 29.71987595 -1 31 C-6.01040253 31.64571256 -9.78050122 31.58716608 -14.375 29.375 C-18.20698294 25.90796782 -20.70588201 23.43556131 -21.34765625 18.12109375 C-21.50765616 12.45153161 -21.43707561 8.69868454 -18 4 C-11.97407991 -0.51944007 -7.28957912 -2.12808681 0 0 Z " fill="#F9F9F9" transform="translate(219,154)"/>
<path d="M0 0 C2.5994938 2.5994938 3.59741072 5.55856579 4.93359375 8.9140625 C5.21219742 9.60253265 5.49080109 10.29100281 5.77784729 11.00033569 C6.66917912 13.20666371 7.5532939 15.41580805 8.4375 17.625 C9.02885151 19.0900236 9.62064358 20.55486945 10.21289062 22.01953125 C12.8884065 28.65315061 15.48775291 35.30067443 18 42 C6.45 42 -5.1 42 -17 42 C-15.55315043 37.6594513 -14.03517697 33.52891143 -12.28515625 29.31640625 C-12.02874863 28.69781235 -11.772341 28.07921844 -11.50816345 27.44187927 C-10.69488021 25.48127498 -9.87869284 23.52189454 -9.0625 21.5625 C-8.51869885 20.25202837 -7.97507753 18.9414821 -7.43164062 17.63085938 C-4.9862178 11.739932 -2.51996013 5.85943083 0 0 Z " fill="#010101" transform="translate(2298,376)"/>
<path d="M0 0 C2.5994938 2.5994938 3.59741072 5.55856579 4.93359375 8.9140625 C5.21219742 9.60253265 5.49080109 10.29100281 5.77784729 11.00033569 C6.66917912 13.20666371 7.5532939 15.41580805 8.4375 17.625 C9.02885151 19.0900236 9.62064358 20.55486945 10.21289062 22.01953125 C12.8884065 28.65315061 15.48775291 35.30067443 18 42 C6.45 42 -5.1 42 -17 42 C-15.55315043 37.6594513 -14.03517697 33.52891143 -12.28515625 29.31640625 C-12.02874863 28.69781235 -11.772341 28.07921844 -11.50816345 27.44187927 C-10.69488021 25.48127498 -9.87869284 23.52189454 -9.0625 21.5625 C-8.51869885 20.25202837 -7.97507753 18.9414821 -7.43164062 17.63085938 C-4.9862178 11.739932 -2.51996013 5.85943083 0 0 Z " fill="#010101" transform="translate(2070,376)"/>
<path d="M0 0 C1.98 0 3.96 0 6 0 C6 26.07 6 52.14 6 79 C4.02 79 2.04 79 0 79 C0 52.93 0 26.86 0 0 Z " fill="#FFFFFF" transform="translate(1704,371)"/>
<path d="M0 0 C3.60231369 2.77101053 5.71393808 5.59829657 6.625 10.0625 C5.83274711 13.78608857 4.39365814 16.05922 2 19 C-1.63782632 20.21260877 -4.17735999 20.39544552 -8 20 C-10.9375 18.125 -10.9375 18.125 -13 15 C-13.88934476 10.89014921 -14.20414602 6.90797784 -11.890625 3.2421875 C-8.20792403 -0.22271932 -4.83127875 -1.03527402 0 0 Z " fill="#F6F6F6" transform="translate(23,221)"/>
<path d="M0 0 C3.24812693 0.84648156 4.88992576 2.9648036 6.93359375 5.50390625 C7.26359375 5.83390625 7.59359375 6.16390625 7.93359375 6.50390625 C7.97607935 10.69298619 7.55592078 14.39454067 5.49609375 18.06640625 C1.41669653 20.35484859 -2.50947523 20.21545362 -7.06640625 19.50390625 C-9.69140625 18.12890625 -9.69140625 18.12890625 -11.06640625 15.50390625 C-11.94867146 10.42445701 -11.87818126 6.77230471 -9.06640625 2.37890625 C-5.74712794 0.30435731 -3.84697632 -0.22543718 0 0 Z " fill="#F7F7F7" transform="translate(61.06640625,321.49609375)"/>
<path d="M0 0 C2.58640487 2.13378402 3.73233972 3.6198767 4.375 6.93359375 C4.6080256 10.78579827 4.24399542 12.61774051 2.125 15.9375 C-0.35081831 18.34050013 -1.34388577 18.91052988 -4.75 19.375 C-9.2753858 18.8528401 -10.7671103 17.15770622 -14 14 C-15.41000664 11.17998673 -15.24548451 9.12992745 -15 6 C-13.75234694 3.25516327 -12.64684565 1.52705942 -10.3125 -0.375 C-6.71527293 -1.34722353 -3.55216956 -1.10641347 0 0 Z " fill="#F7F7F7" transform="translate(186,11)"/>
<path d="M0 0 C4.30750548 0.35895879 5.74111588 1.30361588 8.75 4.3125 C10.28214888 7.37679776 9.97938548 9.9290642 9.75 13.3125 C7.55 17.9125 7.55 17.9125 4.75 19.3125 C0.3368984 19.83218957 -3.11159151 20.16630637 -6.75 17.4375 C-9.46712255 13.58824306 -9.73188268 11.051013 -9.25 6.3125 C-6.8125 3.4375 -6.8125 3.4375 -4.25 1.3125 C-3.25 0.3125 -3.25 0.3125 0 0 Z " fill="#F7F7F7" transform="translate(38.25,118.6875)"/>
<path d="M0 0 C2.3125 0.875 2.3125 0.875 4.3125 2.875 C4.86271834 8.92740175 4.86271834 8.92740175 3.1875 11.8125 C0.42269567 13.37922245 -1.56938517 13.26476435 -4.6875 12.875 C-6.5625 11.75 -6.5625 11.75 -7.6875 9.875 C-8.1875 6.9375 -8.1875 6.9375 -7.6875 3.875 C-5.14662765 1.04374223 -3.86594067 -0.17981119 0 0 Z " fill="#0F0F0F" transform="translate(47.6875,268.125)"/>
<path d="M0 0 C2.5 0.5625 2.5 0.5625 4.875 2.75 C6.5 5.5625 6.5 5.5625 6.5 8.1875 C5.27279327 11.10211599 4.32855344 12.14822328 1.5 13.5625 C-1.35343764 13.42330792 -2.96462886 12.93172147 -5.3125 11.3125 C-6.9809522 8.85372834 -6.99763411 7.47721407 -6.5 4.5625 C-4.51091327 1.83671449 -3.30749138 0.74418556 0 0 Z " fill="#0F0F0F" transform="translate(78.5,138.4375)"/>
<path d="M0 0 C2.875 0.875 2.875 0.875 4.875 2.875 C5.42521834 8.92740175 5.42521834 8.92740175 3.75 11.8125 C0.95337528 13.39725401 -0.9743196 13.33447423 -4.125 12.875 C-6.4401023 10.79140793 -7.02776165 9.43064772 -7.5625 6.375 C-7.125 3.875 -7.125 3.875 -5.5 1.5 C-3.125 -0.125 -3.125 -0.125 0 0 Z " fill="#0D0D0D" transform="translate(130.125,52.125)"/>
<path d="M0 0 C2.9375 0.8125 2.9375 0.8125 4.9375 3.8125 C4.75 7.375 4.75 7.375 3.9375 10.8125 C0.71606724 12.96012184 -0.3220467 13.373568 -4.0625 12.8125 C-5.9375 11.25 -5.9375 11.25 -7.0625 8.8125 C-6.9375 5.1875 -6.9375 5.1875 -6.0625 1.8125 C-3.0625 -0.1875 -3.0625 -0.1875 0 0 Z " fill="#0E0E0E" transform="translate(70.0625,80.1875)"/>
<path d="M0 0 C1.8125 1.125 1.8125 1.125 3 3 C3.54955021 6.68983715 3.45269677 8.34610467 1.3125 11.4375 C-1 13 -1 13 -3.5625 12.9375 C-7.56 11.4 -7.56 11.4 -9 9 C-8.875 5.4375 -8.875 5.4375 -8 2 C-4.76746204 -0.15502531 -3.74849077 -0.46856135 0 0 Z " fill="#0C0C0C" transform="translate(170,344)"/>
<path d="M0 0 C3.0625 0.3125 3.0625 0.3125 4.9375 1.4375 C6.60913625 4.22356042 6.52626624 6.13238862 6.0625 9.3125 C3.95544243 11.65367508 2.59369178 12.22180872 -0.5 12.75 C-2.9375 12.3125 -2.9375 12.3125 -4.8125 10.6875 C-6.32526998 7.49387449 -5.88507993 5.66547515 -4.9375 2.3125 C-2.9375 0.3125 -2.9375 0.3125 0 0 Z " fill="#0A0A0A" transform="translate(21.9375,176.6875)"/>
</svg>
