<?xml version="1.0" encoding="UTF-8"?>
<svg version="1.1" xmlns="http://www.w3.org/2000/svg" width="2850" height="456">
<path d="M0 0 C940.5 0 1881 0 2850 0 C2850 150.48 2850 300.96 2850 456 C1909.5 456 969 456 0 456 C0 305.52 0 155.04 0 0 Z " fill="#FEFEFE" transform="translate(0,0)"/>
<path d="M0 0 C180.16129032 0 180.16129032 0 209 27.9375 C219.86591196 39.55278519 222.81045498 53.82983625 222.34765625 69.265625 C221.47169419 84.87595964 214.09696138 97.32245133 203 108 C195.46989463 114.36991136 187.35015977 118.88328008 178 122 C178.53254395 122.1451001 179.06508789 122.2902002 179.61376953 122.43969727 C194.81971027 126.63957352 209.00234364 131.27869006 221 142 C221.69738281 142.61617187 222.39476562 143.23234375 223.11328125 143.8671875 C233.59771 153.70004158 239.06230016 166.70007745 240 181 C240.0515625 181.71929687 240.103125 182.43859375 240.15625 183.1796875 C240.82223072 200.10669741 234.65257086 216.06451089 223.62890625 228.72265625 C217.15582832 235.55273993 210.33416061 240.52336516 202 245 C200.32357422 245.90878906 200.32357422 245.90878906 198.61328125 246.8359375 C175.65249689 258.40473754 148.7478185 262.18695726 123.28857422 262.11352539 C121.91567042 262.11321841 120.54276647 262.11335364 119.16986275 262.11389065 C115.5218839 262.11411469 111.87393843 262.10835523 108.22596741 262.10128021 C104.79200139 262.09554877 101.35804314 262.09531512 97.92407227 262.09460449 C87.90771049 262.08937512 77.89135481 262.07541386 67.875 262.0625 C45.47625 262.041875 23.0775 262.02125 0 262 C0 175.54 0 89.08 0 0 Z " fill="#D3D3D3" transform="translate(1091,11)"/>
<path d="M0 0 C184.43007916 0 184.43007916 0 212 27 C212 27.66 212 28.32 212 29 C212.99 29.33 213.98 29.66 215 30 C227.99882308 44.73925127 232.94307809 63.66689922 232 83 C230.35697431 102.97449804 222.55052374 119.22714138 208 133 C196.15017445 142.73547586 182.14295717 148.43791727 168 154 C174.63670266 163.86135177 181.35733603 173.61736752 188.55004883 183.08251953 C192.63504137 188.47157512 196.5490385 193.96715422 200.42993164 199.50439453 C204.07546432 204.70248968 207.77318427 209.85990837 211.5 215 C216.20294764 221.48985826 220.85167223 228.0147545 225.45629883 234.57470703 C228.14189694 238.39317333 230.85553679 242.18847295 233.60546875 245.9609375 C234.20294922 246.78142578 234.80042969 247.60191406 235.41601562 248.44726562 C236.57410179 250.03436717 237.73542964 251.61910969 238.90039062 253.20117188 C239.42181641 253.91595703 239.94324219 254.63074219 240.48046875 255.3671875 C240.94348389 255.99737793 241.40649902 256.62756836 241.88354492 257.27685547 C243 259 243 259 244 262 C235.53326263 262.25561453 227.06815273 262.45067599 218.59850311 262.56993389 C214.66486244 262.62719432 210.73387249 262.70474639 206.80175781 262.82983398 C203.00192061 262.94994791 199.20462017 263.01523852 195.4030304 263.04364967 C193.95787098 263.06387473 192.51284076 263.10337863 191.06877136 263.16303062 C179.78034275 263.61050739 179.78034275 263.61050739 175.39338684 259.64204407 C173.34005492 256.84559346 171.65186725 254.0469065 170 251 C168.93862306 249.43164245 167.86234681 247.87309721 166.76171875 246.33203125 C165.73539332 244.82660076 164.71067894 243.3200708 163.6875 241.8125 C162.55221594 240.14704501 161.4167973 238.48168176 160.28125 236.81640625 C159.72566406 236.00059082 159.17007812 235.18477539 158.59765625 234.34423828 C156.30123259 230.97469977 153.99667122 227.61081262 151.6875 224.25 C151.03382446 223.29855103 151.03382446 223.29855103 150.36694336 222.32788086 C146.35182071 216.49361805 142.29997487 210.68509666 138.25 204.875 C132.15604858 196.13185228 126.12052779 187.35094771 120.13574219 178.53271484 C116.14063453 172.65034084 112.07880185 166.82685978 108 161 C83.745 160.505 83.745 160.505 59 160 C59 193.66 59 227.32 59 262 C39.53 262 20.06 262 0 262 C0 175.54 0 89.08 0 0 Z " fill="#D3D3D3" transform="translate(1389,11)"/>
<path d="M0 0 C22.11 0 44.22 0 67 0 C75.52703123 18.47523432 84.02544652 36.95120307 92.25 55.5625 C96.98511314 66.27714451 101.78935618 76.95014027 106.75 87.5625 C118.66418168 113.09780771 129.64163579 138.94204944 140.21142578 165.0569458 C140.92151031 166.80660067 141.63808849 168.55361676 142.35546875 170.30029297 C142.72285156 171.20021973 143.09023437 172.10014648 143.46875 173.02734375 C143.77232422 173.765896 144.07589844 174.50444824 144.38867188 175.26538086 C145 177 145 177 145 179 C145.66 179 146.32 179 147 179 C147.38929688 177.79601562 147.77859375 176.59203125 148.1796875 175.3515625 C150.31561184 168.95870861 152.70201306 162.66364256 155.125 156.375 C155.50532883 155.38756805 155.50532883 155.38756805 155.89334106 154.38018799 C165.34403722 129.95018743 176.21688183 106.08502948 186.97631836 82.21044922 C191.72057878 71.67073905 196.36275459 61.08715598 201 50.5 C206.20568342 38.6198995 211.4178208 26.74302344 216.7121582 14.90209961 C217.27511321 13.64284539 217.83729891 12.38324695 218.39868164 11.12329102 C219.16050069 9.41444532 219.9258446 7.7071723 220.69140625 6 C221.11623291 5.05125 221.54105957 4.1025 221.97875977 3.125 C223 1 223 1 224 0 C245.78 0 267.56 0 290 0 C290 86.46 290 172.92 290 262 C272.18 262 254.36 262 236 262 C235.93160474 245.28069209 235.87663124 228.56150836 235.84456348 211.84209824 C235.82926125 204.07453031 235.80841599 196.30705804 235.77368164 188.53955078 C235.48266848 122.11104902 235.48266848 122.11104902 239 93 C239.22240105 91.07862717 239.22240105 91.07862717 239.44929504 89.11843872 C240.17279959 82.87318924 240.92821494 76.63496063 241.7722168 70.40478516 C242.03853334 67.59319032 242.03597614 64.82246857 242 62 C239.54000317 67.52009351 237.08189913 73.04102708 234.625 78.5625 C234.25697266 79.38942352 233.88894531 80.21634705 233.50976562 81.06832886 C229.29277596 90.5465513 225.10003046 100.03296707 221 109.5625 C215.25428753 122.87903361 209.15861236 136.03716857 203.10798645 149.21697998 C199.80051386 156.42557781 196.52379504 163.64798674 193.24917603 170.87155151 C187.73620485 183.031054 182.16058391 195.1589526 176.51782227 207.25878906 C172.81203402 215.21545405 169.17842975 223.20165294 165.62548828 231.2277832 C163.1035002 236.8964998 163.1035002 236.8964998 162 238 C159.40640678 238.08851529 156.83960309 238.11525945 154.24609375 238.09765625 C153.47064713 238.0962413 152.6952005 238.09482635 151.89625549 238.09336853 C149.40996506 238.08775345 146.9237634 238.07519846 144.4375 238.0625 C142.75586067 238.05748694 141.07421994 238.0529237 139.39257812 238.04882812 C135.26168434 238.03777913 131.13085724 238.02050445 127 238 C122.38806214 228.94989472 118.02678536 219.82287533 113.86331177 210.55914307 C112.23608695 206.93995306 110.59870344 203.32536707 108.9609375 199.7109375 C108.6282637 198.97656464 108.2955899 198.24219177 107.95283508 197.48556519 C104.71033528 190.33981372 101.39348291 183.22982429 98.0625 176.125 C86.24327509 150.88371512 74.63140382 125.56222457 63.68115234 99.93017578 C62.15593637 96.36065915 60.62057508 92.79556395 59.08435059 89.23077393 C57.7671776 86.17092541 56.4551851 83.10887555 55.14459229 80.04620361 C54.51082312 78.56708556 53.87538794 77.08868016 53.23822021 75.61102295 C52.35541001 73.56188206 51.47956927 71.50989957 50.60546875 69.45703125 C49.84979614 67.6932312 49.84979614 67.6932312 49.07885742 65.89379883 C48 63 48 63 48 60 C47.34 60 46.68 60 46 60 C46.17015625 61.04027344 46.3403125 62.08054688 46.515625 63.15234375 C47.44803273 69.08752133 48.21475799 75.04390983 49 81 C49.25369354 82.84421791 49.25369354 82.84421791 49.51251221 84.72569275 C54.05883365 118.95838244 53.48265551 153.29901814 53.28810811 187.75198215 C53.24248228 195.97998119 53.22117648 204.20799742 53.20129442 212.4360925 C53.16005362 229.290901 53.08703317 246.14535627 53 263 C35.51 263 18.02 263 0 263 C0 176.21 0 89.42 0 0 Z " fill="#D4D4D4" transform="translate(2560,11)"/>
<path d="M0 0 C19.8 0 39.6 0 60 0 C60.01458252 5.00542969 60.02916504 10.01085938 60.04418945 15.16796875 C60.09461631 31.74018917 60.16107768 48.31231697 60.23571491 64.88444519 C60.28056095 74.92816107 60.32000105 84.97184239 60.34643555 95.015625 C60.36950666 103.77616527 60.40300535 112.5365951 60.44870156 121.29704762 C60.4725116 125.92984939 60.49132002 130.56254262 60.49761391 135.19540405 C60.5037206 139.56867443 60.52391822 143.94166749 60.55427551 148.31483459 C60.56296727 149.9077511 60.56679706 151.50070398 60.56500816 153.09364319 C60.55010895 172.50723444 63.41271108 191.46557778 76 207 C76.71349609 207.93585938 76.71349609 207.93585938 77.44140625 208.890625 C86.42095824 219.30034063 101.76618366 223.91980893 115 225 C135.02512662 226.29958985 155.0080839 224.02110935 171.39453125 211.41796875 C185.07105385 198.72566367 190.31431629 179.96707956 191.28439903 161.80625725 C191.43603871 157.48170048 191.43730502 153.15848725 191.43237305 148.83178711 C191.44142014 147.19382503 191.4517544 145.55586965 191.46325684 143.91792297 C191.49050756 139.53062123 191.50006719 135.14344901 191.50611091 130.75607371 C191.51557899 126.14898224 191.5417882 121.54198443 191.56611633 116.93495178 C191.60955538 108.23737522 191.63824039 99.53981707 191.66143972 90.84216553 C191.68861351 80.92896695 191.7325168 71.01586365 191.77772844 61.10273349 C191.87025062 40.73519377 191.93987136 20.36766289 192 0 C210.81 0 229.62 0 249 0 C249.0679969 20.8726077 249.12314359 41.74512426 249.15543652 62.61781502 C249.17083623 72.3116569 249.19179205 82.00542455 249.22631836 91.69921875 C249.25643382 100.15870687 249.27562495 108.61814117 249.28226548 117.07768142 C249.28614067 121.54752328 249.29509968 126.0172113 249.31719017 130.48700333 C249.54004223 177.43137579 249.54004223 177.43137579 242 199 C241.36964844 200.82724609 241.36964844 200.82724609 240.7265625 202.69140625 C235.80119742 216.26406598 228.21081039 227.75329924 218 238 C217.33871094 238.68449219 216.67742188 239.36898437 215.99609375 240.07421875 C188.98016677 266.16740059 148.07498276 267.64627266 112.90623474 267.17739868 C103.42390996 267.00000795 94.25252679 266.11894286 85 264 C83.69772461 263.70198486 83.69772461 263.70198486 82.36914062 263.39794922 C57.76301196 257.51942707 34.07928604 245.52131787 19.71875 223.87890625 C-0.45961894 190.08013828 -0.17113032 153.45359266 -0.10139394 115.28854465 C-0.0950554 111.22204829 -0.09454843 107.15555083 -0.09336853 103.08905029 C-0.09028569 95.42215244 -0.08211426 87.75526919 -0.07201904 80.08837771 C-0.06076214 71.34563972 -0.05532355 62.60290095 -0.05032361 53.86015749 C-0.03992837 35.90676175 -0.02162177 17.95338598 0 0 Z " fill="#D4D4D4" transform="translate(2231,11)"/>
<path d="M0 0 C20.46 0 40.92 0 62 0 C64.6590182 6.64754549 67.19570887 13.24596295 69.51171875 20.0078125 C69.83713654 20.95070633 70.16255432 21.89360016 70.49783325 22.86506653 C71.19787582 24.89351333 71.89694526 26.92229618 72.59512329 28.9513855 C74.48158701 34.43201187 76.3770597 39.90951616 78.2734375 45.38671875 C78.66390762 46.51455276 79.05437775 47.64238678 79.4566803 48.80439758 C83.52299545 60.533994 87.66086665 72.23788148 91.8125 83.9375 C92.530627 85.96328759 93.24872612 87.98908505 93.96679688 90.01489258 C96.79268255 97.98360208 99.62161741 105.95114681 102.47399902 113.91041565 C108.90992667 131.87524967 114.96758701 149.93761207 120.8293457 168.09814453 C126.01144272 184.13878183 131.44206008 200.08596061 137 216 C140.51944092 207.9348869 143.52021484 199.7889974 146.24786377 191.42504883 C147.51404629 187.5463773 148.79922645 183.67398035 150.08203125 179.80078125 C150.37370178 178.91915314 150.66537231 178.03752502 150.96588135 177.12918091 C155.15088909 164.49811857 159.41374457 151.8931522 163.67581177 139.28793335 C164.62756793 136.47281049 165.57798929 133.65724331 166.52706909 130.84121704 C171.74260822 115.3677787 177.05536369 99.93962617 182.58076477 84.57371521 C185.55490985 76.29027209 188.40584425 67.97606982 191.14169312 59.61126709 C195.6609477 45.80863584 200.36789666 32.07542509 205.1875 18.375 C205.4738028 17.55983917 205.76010559 16.74467834 206.05508423 15.90481567 C206.86164153 13.61034594 207.67044919 11.31668697 208.48046875 9.0234375 C208.8420961 7.99643486 208.8420961 7.99643486 209.21102905 6.94868469 C210.88283684 2.23432632 210.88283684 2.23432632 212 0 C231.8 0 251.6 0 272 0 C271.12847193 4.35764033 269.8939501 8.1921131 268.2890625 12.296875 C268.00980423 13.02065338 267.73054596 13.74443176 267.44282532 14.49014282 C266.50740294 16.91160515 265.56618866 19.33077371 264.625 21.75 C263.95090401 23.49156408 263.27716619 25.23326683 262.60375977 26.97509766 C260.78275626 31.6821045 258.95668543 36.38712946 257.1293335 41.0916748 C255.26771501 45.88582282 253.40943506 50.68126452 251.55078125 55.4765625 C249.21372603 61.5052388 246.87609255 67.53368958 244.53686523 73.56152344 C238.40349923 89.36783406 232.29076214 105.18204288 226.1875 121 C225.50284164 122.77428375 225.50284164 122.77428375 224.80435181 124.58441162 C220.10355736 136.7667842 215.40467036 148.94989131 210.70767212 161.13372803 C201.18511581 185.83357591 191.6537951 210.52948656 182.00830078 235.18164062 C181.70684143 235.9522583 181.40538208 236.72287598 181.0947876 237.5168457 C180.52007626 238.98557461 179.94501831 240.45416794 179.36956787 241.92260742 C178.06384485 245.25870579 176.76832296 248.59805068 175.49658203 251.94726562 C175.04524902 253.13513672 174.59391602 254.32300781 174.12890625 255.546875 C173.73904541 256.58166992 173.34918457 257.61646484 172.94750977 258.68261719 C172 261 172 261 171 262 C168.82194281 262.09429342 166.6407872 262.11742538 164.46069336 262.11352539 C163.77779739 262.11367142 163.09490143 262.11381744 162.39131165 262.1139679 C160.12412386 262.11326876 157.85701726 262.1054764 155.58984375 262.09765625 C154.02185613 262.09579207 152.45386793 262.09436817 150.88587952 262.09336853 C146.75123497 262.08954334 142.61662534 262.07971306 138.48199463 262.06866455 C134.26599602 262.05845044 130.04999178 262.05387091 125.83398438 262.04882812 C117.55597353 262.03809079 109.2779911 262.02101436 101 262 C95.26557333 247.73933543 89.58459499 233.46151408 84.06814575 219.11505127 C82.63609978 215.39120157 81.20007933 211.66888752 79.76438904 207.94644165 C79.0029683 205.97219906 78.24170808 203.99789455 77.48060608 202.02352905 C73.18675211 190.88596691 68.87706604 179.75455278 64.5625 168.625 C64.16628448 167.602854 63.77006897 166.58070801 63.36184692 165.52758789 C57.23601654 149.72809374 51.07237897 133.94364833 44.88955688 118.16638184 C38.97861218 103.08125478 33.10330786 87.98258208 27.25 72.875 C26.65492142 71.33910721 26.65492142 71.33910721 26.04782104 69.77218628 C24.48447534 65.73697924 22.92122998 61.70173335 21.35813904 57.66642761 C17.89801435 48.73450372 14.43256188 39.80465763 10.96203613 30.87677002 C10.37338244 29.36231881 9.78491476 27.84779529 9.19665527 26.33319092 C8.39331699 24.26490337 7.58926761 22.19689334 6.78515625 20.12890625 C6.54115082 19.49990417 6.29714539 18.8709021 6.04574585 18.22283936 C4.31284167 13.76692785 2.51485209 9.34061918 0.66186523 4.93334961 C0 3 0 3 0 0 Z " fill="#D4D4D4" transform="translate(1783,11)"/>
<path d="M0 0 C1.72283203 0.85078125 1.72283203 0.85078125 3.48046875 1.71875 C12.50536951 6.37403292 20.85374247 11.74644979 28 19 C24.71351595 22.31141362 21.42360018 25.61936741 18.13061523 28.92431641 C17.01348073 30.04644459 15.89724962 31.16947295 14.78198242 32.29345703 C9.03534592 38.08384312 3.32301508 43.82909814 -3 49 C-5.57857139 47.75485708 -7.98363184 46.41894227 -10.36328125 44.828125 C-33.71059652 29.51826367 -59.40613482 23.72030738 -87 29 C-107.80126424 33.59653405 -126.54449538 44.11599344 -138.9375 61.703125 C-150.46865251 80.13549757 -155.42505914 98.98887998 -155.3125 120.6875 C-155.31100952 121.39588013 -155.30951904 122.10426025 -155.3079834 122.83410645 C-155.26881354 133.17436542 -154.83762855 142.99427499 -152 153 C-151.74476563 153.99386719 -151.48953125 154.98773438 -151.2265625 156.01171875 C-146.93746961 170.74809755 -139.11094106 183.52487817 -128 194 C-127.23300781 194.73605469 -126.46601562 195.47210938 -125.67578125 196.23046875 C-107.00865972 212.61570106 -80.92078321 216.22974323 -57 215 C-34.55367436 213.032858 -14.93147175 203.62082384 2 189 C6.34921598 190.65734687 9.0913751 193.91151545 12.25 197.1875 C16.43398132 201.45560494 20.65150701 205.56292829 25.2109375 209.43359375 C28.29363987 212.13264102 31.14451567 215.06420518 34 218 C32.6731524 221.98054279 30.08471939 223.64665806 26.875 226.125 C25.93708618 226.85251465 25.93708618 226.85251465 24.98022461 227.59472656 C18.32290836 232.65796746 11.34798295 237.01527293 4 241 C3.11755615 241.47928955 3.11755615 241.47928955 2.21728516 241.96826172 C-33.94706929 261.15894412 -81.96934689 262.12810413 -120.7355957 250.92871094 C-151.71923255 241.31735695 -181.0798286 223.41901365 -198 195 C-198.56992676 194.04335449 -198.56992676 194.04335449 -199.15136719 193.06738281 C-217.22563371 162.11911277 -221.98987872 123.86565315 -214 89 C-213.8443457 88.30471191 -213.68869141 87.60942383 -213.52832031 86.89306641 C-206.0411079 54.87439853 -185.58934801 27.04547442 -157.9921875 9.41796875 C-111.68182447 -19.19351474 -49.13378106 -24.48634335 0 0 Z " fill="#D4D4D4" transform="translate(767,21)"/>
<path d="M0 0 C0 39.27 0 78.54 0 119 C26.50421085 115.21368416 48.41238079 111.62573977 71.44189453 98.94628906 C76.80932969 96 76.80932969 96 79 96 C79 95.34 79 94.68 79 94 C80.02222656 93.44828125 81.04445313 92.8965625 82.09765625 92.328125 C85.8918128 90.1567646 89.14390096 87.61025708 92.4375 84.75 C93.00388184 84.26112305 93.57026367 83.77224609 94.15380859 83.26855469 C95.77806643 81.85539006 97.3910988 80.43060192 99 79 C100.10408203 78.02546875 100.10408203 78.02546875 101.23046875 77.03125 C111.78032542 67.1122095 119.27631656 54.40845112 126.05712891 41.75488281 C127.36473137 39.32115766 128.71343785 36.910929 130.0625 34.5 C130.70877037 33.33357537 131.35468946 32.16695592 132 31 C138.1710306 31.55711611 143.49043277 32.97366099 149.30859375 35.0625 C150.18516129 35.37000687 151.06172882 35.67751373 151.96485901 35.99433899 C154.79192005 36.98835799 157.61474739 37.99381853 160.4375 39 C162.37805066 39.68571912 164.31880678 40.37085704 166.25976562 41.05541992 C170.99203642 42.72676793 175.72078364 44.40783345 180.44842529 46.09222412 C183.43108532 47.15336759 186.4161063 48.20770982 189.40162659 49.26077271 C192.26943235 50.27329477 195.1347989 51.29263448 198 52.3125 C198.9995874 52.66634766 199.9991748 53.02019531 201.02905273 53.38476562 C201.92696533 53.70767578 202.82487793 54.03058594 203.75 54.36328125 C204.50796875 54.63438721 205.2659375 54.90549316 206.046875 55.18481445 C208 56 208 56 211 58 C210.48010898 64.18670313 207.78675555 69.30477966 205.125 74.8125 C204.63249756 75.83351807 204.13999512 76.85453613 203.63256836 77.90649414 C199.10072067 87.10930939 193.92323543 95.63645725 188 104 C187.52981445 104.6707959 187.05962891 105.3415918 186.57519531 106.03271484 C179.665483 115.81250739 172.03795828 124.69149373 163.6875 133.265625 C162.09197277 134.90547243 160.51375075 136.56040286 158.9375 138.21875 C121.20557415 177.4552083 64.56496565 201.31965967 10.32629395 203.08712769 C7.65053905 203.11414762 4.97662279 203.11290546 2.30078125 203.09765625 C0.85918892 203.09553383 0.85918892 203.09553383 -0.61152649 203.09336853 C-3.63688466 203.08783675 -6.66216475 203.07529773 -9.6875 203.0625 C-11.75716038 203.05747616 -13.82682193 203.05291481 -15.89648438 203.04882812 C-20.931019 203.03788981 -25.96549633 203.02067362 -31 203 C-32.20076638 199.39770085 -32.1383418 196.11926267 -32.12698364 192.37036133 C-32.12854363 191.5858727 -32.13010362 190.80138407 -32.13171089 189.99312305 C-32.13570965 187.35607352 -32.13253557 184.71908124 -32.12939453 182.08203125 C-32.13074907 180.19485439 -32.1325293 178.3076778 -32.13470459 176.42050171 C-32.13927267 171.28840362 -32.13749192 166.15632559 -32.1343255 161.02422714 C-32.13179869 155.66043798 -32.13414034 150.29665056 -32.13571167 144.93286133 C-32.13753242 135.92431326 -32.13512952 126.91577339 -32.13037109 117.90722656 C-32.12492866 107.48316574 -32.12669138 97.05912447 -32.1321975 86.63506413 C-32.13673131 77.69490167 -32.13737786 68.75474511 -32.13475883 59.81458187 C-32.13319754 54.47075518 -32.13299827 49.12693768 -32.13629532 43.78311157 C-32.1391779 38.75990506 -32.13719116 33.73672383 -32.13140106 28.71352005 C-32.13007555 26.86678738 -32.13046405 25.0200526 -32.13266373 23.17332077 C-32.13538339 20.65873106 -32.13198401 18.14422313 -32.12698364 15.62963867 C-32.12921436 14.89336148 -32.13144509 14.15708429 -32.13374341 13.39849567 C-32.12181336 10.31991973 -31.98174338 7.94523015 -31 5 C-28.31370029 4.1908011 -25.73808117 3.56373953 -23 3 C-21.48471619 2.63548189 -19.97039121 2.26695588 -18.45703125 1.89453125 C-16.90912358 1.53269967 -15.36094393 1.17202973 -13.8125 0.8125 C-13.03197266 0.62236328 -12.25144531 0.43222656 -11.44726562 0.23632812 C-10.68736328 0.06166016 -9.92746094 -0.11300781 -9.14453125 -0.29296875 C-8.12903198 -0.53309692 -8.12903198 -0.53309692 -7.09301758 -0.77807617 C-5 -1 -5 -1 0 0 Z " fill="#D3D3D3" transform="translate(263,248)"/>
<path d="M0 0 C7.99720265 -0.18555702 15.993503 -0.32759902 23.99232769 -0.41449738 C27.70684136 -0.45621076 31.41988022 -0.51275646 35.13354492 -0.60351562 C38.71928634 -0.69059759 42.30361202 -0.73830313 45.89032936 -0.75901794 C47.25684722 -0.77377372 48.62328947 -0.80259259 49.9892025 -0.84584045 C60.66904068 -1.17046474 60.66904068 -1.17046474 63.8842926 1.65707397 C65.20516331 3.72637068 66.12793027 5.70949994 67 8 C67.73198608 9.32185303 67.73198608 9.32185303 68.47875977 10.67041016 C68.87893311 11.45206543 69.27910645 12.2337207 69.69140625 13.0390625 C70.38713745 14.38798584 70.38713745 14.38798584 71.09692383 15.76416016 C71.82238403 17.18027588 71.82238403 17.18027588 72.5625 18.625 C76.72309368 26.67553733 80.95882739 34.67715251 85.3125 42.625 C85.81692627 43.54635742 86.32135254 44.46771484 86.84106445 45.41699219 C88.22643269 47.94518033 89.6131238 50.47263888 91 53 C94.63618398 59.63409283 98.1790025 66.30336697 101.546875 73.078125 C104.29680845 78.59496982 107.05733053 84.10628052 109.83099365 89.61123657 C111.60607175 93.1351913 113.37736209 96.66104397 115.1484375 100.18701172 C116.06242961 102.00475976 116.97783305 103.82179874 117.89453125 105.63818359 C119.23548169 108.29600403 120.57136887 110.95631474 121.90625 113.6171875 C122.31862915 114.43162323 122.7310083 115.24605896 123.15588379 116.08517456 C123.53047729 116.83421051 123.9050708 117.58324646 124.29101562 118.35498047 C124.62218384 119.01287567 124.95335205 119.67077087 125.29455566 120.34860229 C126 122 126 122 126 124 C126.99 124 127.98 124 129 124 C129.27457031 123.12110107 129.54914063 122.24220215 129.83203125 121.33666992 C130.91381456 118.24621579 132.16630553 115.50693695 133.6875 112.61328125 C134.48003174 111.09782715 134.48003174 111.09782715 135.28857422 109.55175781 C135.85334473 108.48280273 136.41811523 107.41384766 137 106.3125 C137.58668457 105.19327148 138.17336914 104.07404297 138.77783203 102.92089844 C140.51389465 99.61145519 142.2558641 96.30519426 144 93 C144.85162014 91.38414496 145.70318925 89.76826302 146.5546875 88.15234375 C147.71992476 85.94106886 148.88555945 83.73001451 150.05322266 81.52001953 C152.57188524 76.74407446 155.06047461 71.95321775 157.53125 67.15234375 C165.65685382 51.36713517 173.9676643 35.70513035 182.56591797 20.17089844 C183.61011183 18.28434319 184.65358822 16.39739062 185.69628906 14.51000977 C186.66567766 12.75644484 187.63754809 11.0042488 188.61230469 9.25366211 C189.04317383 8.47514893 189.47404297 7.69663574 189.91796875 6.89453125 C190.29719482 6.21237549 190.6764209 5.53021973 191.06713867 4.82739258 C192.13149687 2.85498809 192.13149687 2.85498809 193 0 C213.46 0 233.92 0 255 0 C253.68647985 3.28380037 252.63104404 5.81807564 250.84765625 8.73828125 C250.4103418 9.46007568 249.97302734 10.18187012 249.52246094 10.92553711 C248.79978027 12.10708374 248.79978027 12.10708374 248.0625 13.3125 C246.98474979 15.09058411 245.90800023 16.86927496 244.83203125 18.6484375 C244.23084473 19.64198242 243.6296582 20.63552734 243.01025391 21.65917969 C240.74560643 25.42277406 238.50099976 29.19783979 236.26171875 32.9765625 C235.84950577 33.67208725 235.43729279 34.367612 235.0125885 35.08421326 C233.35430823 37.88316135 231.69661751 40.68245626 230.04031372 43.48257446 C225.34781756 51.41409185 220.60128673 59.30432937 215.75537109 67.14331055 C213.51202091 70.79413676 211.34012776 74.48273666 209.1875 78.1875 C205.83816349 83.91814174 202.42111121 89.60010955 198.9375 95.25 C193.75815136 103.66281815 188.77542913 112.18774461 183.79830933 120.72097778 C177.40892145 131.66857484 170.87598229 142.52378807 164.26904297 153.34130859 C163.59244629 154.44941895 162.91584961 155.5575293 162.21875 156.69921875 C161.61998047 157.67721436 161.02121094 158.65520996 160.40429688 159.6628418 C157.67501738 164.20515623 157.82762288 168.01884943 157.79467773 173.22314453 C157.78477814 174.1792865 157.77487854 175.13542847 157.76467896 176.12054443 C157.7330088 179.29127499 157.70828473 182.46202054 157.68359375 185.6328125 C157.66302899 187.8271423 157.64203265 190.0214681 157.62062073 192.21578979 C157.56535073 197.99929568 157.51596321 203.78283761 157.46777344 209.56640625 C157.40877635 216.5014186 157.34252133 223.4363649 157.27747345 230.37132263 C157.17940196 240.91417484 157.09058826 251.45706886 157 262 C137.53 262 118.06 262 98 262 C98.05542969 255.21824219 98.11085938 248.43648437 98.16796875 241.44921875 C98.17858776 237.11505802 98.18592475 232.78137509 98.18164062 228.44726562 C98.17516843 221.58964095 98.17988257 214.73348071 98.25708008 207.8762207 C98.31865796 202.33824559 98.32517309 196.80253494 98.29583168 191.26432228 C98.29394955 189.16710151 98.31086549 187.0697644 98.34822655 184.9728756 C98.59665237 170.06238169 95.84515622 160.25136677 87.32815266 147.94440746 C85.43083178 145.16674117 83.75648734 142.28673442 82.06640625 139.37890625 C80.89997566 137.43917838 79.73201843 135.50036769 78.5625 133.5625 C77.27602423 131.42448966 75.98956612 129.28646869 74.703125 127.1484375 C74.07857422 126.11170898 73.45402344 125.07498047 72.81054688 124.00683594 C70.13911695 119.57030263 67.47570895 115.12897136 64.8125 110.6875 C61.96341795 105.93730662 59.11349818 101.18763331 56.2578125 96.44140625 C51.68906513 88.84362416 47.13582106 81.23707353 42.6171875 73.609375 C34.79981305 60.41415961 26.96542987 47.23153904 19 34.125 C18.64935486 33.54751007 18.29870972 32.97002014 17.93743896 32.37503052 C14.4833636 26.68785386 11.01460054 21.01085295 7.49609375 15.36328125 C6.97337891 14.52071777 6.45066406 13.6781543 5.91210938 12.81005859 C4.9623346 11.28192759 4.00702184 9.75721771 3.04492188 8.23681641 C0 3.33391495 0 3.33391495 0 0 Z " fill="#D3D3D3" transform="translate(807,11)"/>
<path d="M0 0 C59.17236917 -1.27918982 115.51131831 10.68283222 164 46 C164.57588867 46.41749512 165.15177734 46.83499023 165.74511719 47.26513672 C174.39513318 53.58591652 182.27826124 60.58484921 190 68 C190.51449707 68.48726563 191.02899414 68.97453125 191.55908203 69.4765625 C199.04204781 76.58193655 205.59664981 84.12534561 211.78320312 92.38183594 C212.8656382 93.82131822 213.97037125 95.24397216 215.078125 96.6640625 C226.05377572 111.07518113 242.32507797 134.32499822 242 153 C223.26923549 159.34867186 204.53289547 165.5985244 185.54638672 171.14428711 C184.40186035 171.47952393 183.25733398 171.81476074 182.078125 172.16015625 C180.49161133 172.62446045 180.49161133 172.62446045 178.87304688 173.09814453 C176.34452633 173.89185246 173.93244717 174.79959103 171.484375 175.80859375 C168 177 168 177 165.203125 177.12890625 C161.77619998 175.37291098 161.0242693 172.36653715 159.75 168.9375 C154.32686276 155.56978359 147.6366842 143.81188959 138 133 C137.28070313 132.14921875 136.56140625 131.2984375 135.8203125 130.421875 C109.10506375 99.42838356 70.40350998 87.35349021 31 84 C31 91.26 31 98.52 31 106 C25.37452285 107.12509543 25.37452285 107.12509543 21.85546875 106.29296875 C20.71561523 106.0309668 20.71561523 106.0309668 19.55273438 105.76367188 C18.38194336 105.4784668 18.38194336 105.4784668 17.1875 105.1875 C16.41857422 105.00896484 15.64964844 104.83042969 14.85742188 104.64648438 C13.32390556 104.28801685 11.79241437 103.92076389 10.26318359 103.54443359 C8.74075401 103.17819649 7.21191462 102.83774225 5.67822266 102.52197266 C3.76251198 102.10978519 1.87627357 101.56519327 0 101 C-1.34395108 96.96814675 -1.13902365 93.08256503 -1.12939453 88.87866211 C-1.13114685 87.94509384 -1.13289917 87.01152557 -1.13470459 86.04966736 C-1.13911167 82.958874 -1.13618935 79.8681377 -1.1328125 76.77734375 C-1.13348581 74.63407887 -1.13445606 72.49081406 -1.13571167 70.34754944 C-1.13718705 65.85433221 -1.13503899 61.36113485 -1.13037109 56.86791992 C-1.12467048 51.09838501 -1.12795594 45.32889658 -1.13394356 39.55936337 C-1.13755055 35.13370918 -1.13641 30.70806609 -1.13381577 26.28241158 C-1.13314706 24.1544653 -1.13397297 22.02651803 -1.13629532 19.89857292 C-1.13882445 16.92966911 -1.13497767 13.96084147 -1.12939453 10.99194336 C-1.13141876 10.10617615 -1.13344299 9.22040894 -1.13552856 8.30780029 C-1.11426454 2.22852908 -1.11426454 2.22852908 0 0 Z " fill="#D3D3D3" transform="translate(232,0)"/>
<path d="M0 0 C19.47 0 38.94 0 59 0 C59 86.79 59 173.58 59 263 C39.53 263 20.06 263 0 263 C0 176.21 0 89.42 0 0 Z " fill="#D4D4D4" transform="translate(2091,11)"/>
<path d="M0 0 C19.47 0 38.94 0 59 0 C59 86.46 59 172.92 59 262 C39.53 262 20.06 262 0 262 C0 175.54 0 89.08 0 0 Z " fill="#D3D3D3" transform="translate(1685,11)"/>
<path d="M0 0 C7.05111189 -0.64008653 13.01598249 1.66485225 19.625 3.9375 C21.41393677 4.54549438 21.41393677 4.54549438 23.23901367 5.16577148 C58.22465328 17.26225557 90.63883483 34.21715078 107.4375 68.75 C110.52548467 75.7642588 112.13488291 82.33865092 112 90 C108.59027291 91.17031449 107.3161048 91.15247408 104.01171875 89.55859375 C102.91472656 88.85863281 101.81773437 88.15867187 100.6875 87.4375 C72.19186538 70.28008893 35.61907128 68.81219287 3.125 68.6875 C2.35875305 68.68355225 1.5925061 68.67960449 0.80303955 68.67553711 C-10.8111706 68.64807541 -22.11778334 69.46977452 -33.625 71 C-43.88201443 72.35838604 -54.00782637 73.42747058 -64.375 73.5 C-65.38385254 73.51804687 -66.39270508 73.53609375 -67.43212891 73.5546875 C-81.71435257 73.43941144 -94.23240001 67.2559741 -104.56640625 57.6796875 C-108.86748501 52.94366819 -111.8608527 47.55505969 -115 42 C-116.70537217 38.67590939 -116.70537217 38.67590939 -120.125 38.375 C-124.17323363 39.02794091 -124.90537135 39.46377319 -127.76953125 42.09765625 C-128.81705566 43.05188477 -128.81705566 43.05188477 -129.88574219 44.02539062 C-130.58344727 44.67701172 -131.28115234 45.32863281 -132 46 C-132.6280957 46.57943359 -133.25619141 47.15886719 -133.90332031 47.75585938 C-135.79931389 49.51478112 -137.6822721 51.28674239 -139.5625 53.0625 C-140.96860382 54.38557203 -142.37485732 55.70848502 -143.78125 57.03125 C-144.48507813 57.69382813 -145.18890625 58.35640625 -145.9140625 59.0390625 C-149.73395596 62.63004849 -153.56924081 66.20452033 -157.40429688 69.77929688 C-160.62857417 72.78521042 -163.8489098 75.79515958 -167.0625 78.8125 C-167.7320874 79.44019287 -168.4016748 80.06788574 -169.09155273 80.71459961 C-170.36313846 81.90679983 -171.63357058 83.10023225 -172.90258789 84.29516602 C-176.50230743 87.66687165 -180.19738396 90.85942215 -184 94 C-185.68873879 95.64429829 -187.35305515 97.31384218 -189 99 C-189.68964844 99.57492187 -190.37929687 100.14984375 -191.08984375 100.7421875 C-195.40573523 104.34479373 -195.40573523 104.34479373 -197.37109375 109.38671875 C-197.2894639 111.06408045 -197.17944717 112.7402706 -197.04296875 114.4140625 C-196.95308132 119.82365144 -199.11496687 124.83801887 -202.6484375 128.890625 C-208.83974793 134.46010076 -214.54710886 135.52355672 -222.7734375 135.375 C-229.87867041 134.54921022 -234.48621593 130.19702996 -238.8125 124.75390625 C-241.9792951 120.07663323 -242.46875673 115.53132943 -242 110 C-240.59097817 102.90365368 -237.40298445 97.7951487 -232 93 C-226.2321668 89.45056418 -220.58253341 89.49290113 -214 90 C-212.783125 90.33 -211.56625 90.66 -210.3125 91 C-206.97413945 91.34593978 -206.97413945 91.34593978 -204.8671875 89.28515625 C-203.43564558 87.82539397 -202.04388567 86.32531502 -200.69921875 84.78515625 C-200.13847656 84.19605469 -199.57773438 83.60695313 -199 83 C-198.34 83 -197.68 83 -197 83 C-196.75378906 82.41734375 -196.50757813 81.8346875 -196.25390625 81.234375 C-194.79188956 78.62916146 -193.20579707 77.19536627 -190.9375 75.25 C-186.08792072 70.99610603 -181.37379576 66.62058125 -176.6875 62.1875 C-157.2351493 43.82655654 -157.2351493 43.82655654 -149.015625 36.78125 C-147.45247513 35.39986175 -145.92856007 33.97401509 -144.421875 32.53125 C-136.44672668 24.95708679 -130.16194865 19.83416593 -118.875 19.4375 C-111.8391966 19.74241022 -107.05277784 20.73150124 -102.17578125 25.953125 C-99.19795955 29.64794933 -96.65072713 33.55186736 -94.125 37.5625 C-89.18491857 45.01824295 -82.87945032 50.67967479 -74.25390625 53.37890625 C-62.34141759 55.65271861 -50.29968751 53.89045917 -38.5 51.75390625 C-30.54160404 50.35079893 -22.52072604 49.83807295 -14.453125 49.578125 C-13.57185944 49.54882401 -12.69059387 49.51952301 -11.78262329 49.48933411 C18.50833878 48.54520152 46.51588128 50.23527106 76 58 C60.75196118 42.75196118 20.07609223 39.96514938 -0.4375 39.953125 C-3.76340037 39.96560223 -7.08580705 39.99768932 -10.41088867 40.07324219 C-16.05027675 40.16833089 -20.67990546 39.92637087 -26 38 C-25.65882411 35.0967863 -25.12194871 34.11138441 -22.92578125 32.10546875 C-22.06339844 31.47253906 -21.20101562 30.83960938 -20.3125 30.1875 C-9.89330646 22.09190502 -4.71818072 12.25801853 0 0 Z " fill="#D1D1D1" transform="translate(266,164)"/>
<path d="M0 0 C16.4896875 -0.0928125 16.4896875 -0.0928125 33.3125 -0.1875 C38.45646362 -0.22846802 38.45646362 -0.22846802 43.7043457 -0.27026367 C95.9827795 -0.514607 95.9827795 -0.514607 113.95703125 15.7734375 C120.32016125 22.33750844 123.15731798 29.96825874 123.4375 39.0625 C122.96905354 50.74343921 118.75147579 58.60920478 110.4375 66.625 C94.51005717 79.81773095 72.06675877 81.17020431 52.34375 81.09765625 C51.00162803 81.09618329 49.65950548 81.09516476 48.31738281 81.09460449 C43.37824636 81.08939265 38.43912227 81.07543144 33.5 81.0625 C22.445 81.041875 11.39 81.02125 0 81 C0 54.27 0 27.54 0 0 Z " fill="#FEFEFE" transform="translate(1150,155)"/>
<path d="M0 0 C9.735 -0.04125 19.47 -0.0825 29.5 -0.125 C34.05844727 -0.15231201 34.05844727 -0.15231201 38.70898438 -0.18017578 C90.51680645 -0.36302248 90.51680645 -0.36302248 106.19140625 15.171875 C112.42551043 22.72047714 114.5744378 30.05354661 114.5 39.75 C114.49355469 40.62889893 114.48710938 41.50779785 114.48046875 42.41333008 C114.18982867 52.80275694 110.90403824 61.35729349 103.60546875 68.90234375 C87.59538524 81.79202117 66.69904437 84.17712764 46.875 84.09765625 C45.68390625 84.09664917 44.4928125 84.09564209 43.265625 84.09460449 C38.84374012 84.08939797 34.42186903 84.07543681 30 84.0625 C20.1 84.041875 10.2 84.02125 0 84 C0 56.28 0 28.56 0 0 Z " fill="#FEFEFE" transform="translate(1448,49)"/>
<path d="M0 0 C8.889375 -0.04125 17.77875 -0.0825 26.9375 -0.125 C29.70632568 -0.14320801 32.47515137 -0.16141602 35.32788086 -0.18017578 C81.76136121 -0.36132551 81.76136121 -0.36132551 95.390625 11.3984375 C102.49632861 18.4696474 105.40857527 23.89494688 105.4375 34.25 C105.42265552 43.47139145 103.09549749 49.77697343 96.9375 56.75 C82.18496203 70.14706974 59.31611719 71.18604068 40.4296875 71.09765625 C38.88196655 71.09614563 38.88196655 71.09614563 37.30297852 71.09460449 C33.49364084 71.08942077 29.68431916 71.07545999 25.875 71.0625 C17.33625 71.041875 8.7975 71.02125 0 71 C0 47.57 0 24.14 0 0 Z " fill="#FEFEFE" transform="translate(1150,48)"/>
<path d="M0 0 C44.93123209 0 44.93123209 0 55 7 C59.91911912 12.03909764 60.35296429 16.47850895 60.28125 23.2734375 C59.75219782 28.4023045 57.10337553 31.0279787 53.375 34.3125 C51 36 51 36 49 37 C49.66386719 37.30292969 50.32773437 37.60585938 51.01171875 37.91796875 C57.52226057 41.00691195 63.17416686 44.00328649 66 51 C66.68422211 57.38014903 66.95227318 63.68913291 63 69 C54.22054185 79.19767832 42.83968836 79.93002597 30 81 C20.1 81 10.2 81 0 81 C0 54.27 0 27.54 0 0 Z " fill="#D4D4D4" transform="translate(810,373)"/>
<path d="M0 0 C4.89038321 3.98139005 9.95782739 9.02059345 10.66796875 15.54296875 C10.43832713 19.73914746 9.74009422 21.7967891 7.1015625 25.1484375 C2.59405394 28.60768826 -0.56917311 29.67541245 -6.20898438 29.54052734 C-10.26078256 28.97870241 -13.36696391 27.09723162 -16.8359375 25.0234375 C-18.32390697 24.18879059 -19.81482654 23.35938203 -21.30859375 22.53515625 C-22.39744873 21.9326001 -22.39744873 21.9326001 -23.50830078 21.31787109 C-41.60544257 11.67598615 -62.67963427 9.39733727 -82.3984375 15.01171875 C-84.477277 15.69708615 -86.53497748 16.44617275 -88.5859375 17.2109375 C-85.58525581 19.21139196 -82.63858309 20.52951655 -79.328125 21.91796875 C-77.5859375 23.2109375 -77.5859375 23.2109375 -76.84375 25.84765625 C-76.75867188 26.62753906 -76.67359375 27.40742188 -76.5859375 28.2109375 C-78.18308594 28.35789062 -78.18308594 28.35789062 -79.8125 28.5078125 C-98.90693759 30.40884656 -114.63593392 35.42822756 -129.24609375 48.390625 C-131.47653883 50.12582935 -132.79889878 50.92540569 -135.5859375 51.2109375 C-135.9159375 50.8809375 -136.2459375 50.5509375 -136.5859375 50.2109375 C-136.28750617 32.60348917 -124.48970634 18.50962091 -112.64331055 6.6394043 C-83.29679591 -21.38022529 -32.80422967 -22.6953734 0 0 Z " fill="#D1D1D1" transform="translate(255.5859375,127.7890625)"/>
<path d="M0 0 C0 5.61 0 11.22 0 17 C-3.31312893 18.65656447 -7.03764131 18.34320416 -10.6875 18.5 C-22.47212589 18.49404009 -22.47212589 18.49404009 -32 24.5625 C-33.175625 25.80193359 -33.175625 25.80193359 -34.375 27.06640625 C-36.89291269 29.73565385 -36.89291269 29.73565385 -38.25585938 31.90698242 C-43.9085781 39.81343029 -52.62723266 41.49929906 -61.5 44.1875 C-63.07628574 44.68442911 -64.65181528 45.18376357 -66.2265625 45.68554688 C-71.53199945 47.36902074 -76.83975495 49.04667023 -82.16876221 50.65423584 C-92.7089805 53.75904823 -92.7089805 53.75904823 -101.375 60.25 C-101.84848877 60.72888672 -102.32197754 61.20777344 -102.80981445 61.70117188 C-104.21563558 63.12519516 -105.60806763 64.56239796 -107 66 C-107.89332031 66.76828125 -108.78664062 67.5365625 -109.70703125 68.328125 C-114.29445118 72.25347002 -114.29445118 72.25347002 -116.59765625 77.65234375 C-116.69920306 79.50882779 -116.76563136 81.36756584 -116.796875 83.2265625 C-117.22569967 89.08166863 -119.79074816 94.06247433 -124.19140625 97.921875 C-130.23507479 102.10365554 -135.56817959 103.89080039 -143 103 C-150.05090796 101.19374889 -155.13987667 98.2727004 -159 92 C-162.04511596 85.74176168 -162.18545683 78.22318996 -160.3125 71.55078125 C-157.621555 65.66433906 -153.39093506 62.35955131 -147.8125 59.1875 C-140.56459169 56.92995479 -134.08137589 57.38997746 -127 60 C-126.443125 59.43152344 -125.88625 58.86304688 -125.3125 58.27734375 C-120.98871115 53.90242901 -116.61824696 49.6769782 -111.921875 45.703125 C-109.88979977 43.98994294 -109.88979977 43.98994294 -108.03979492 41.6340332 C-104.27947787 37.87832951 -99.39809546 36.72298774 -94.44140625 35.15234375 C-93.41949692 34.81376846 -92.39758759 34.47519318 -91.3447113 34.12635803 C-88.08845155 33.04916166 -84.82621944 31.99185835 -81.5625 30.9375 C-78.30311145 29.87753037 -75.04539294 28.81314566 -71.79100037 27.7379303 C-69.76954536 27.07070635 -67.74511247 26.41241796 -65.71742249 25.76438904 C-58.69437971 23.45556138 -53.26946102 20.65260689 -48.16015625 15.1796875 C-47.48919922 14.47972656 -46.81824219 13.77976562 -46.12695312 13.05859375 C-44.74858306 11.60067726 -43.37618237 10.13709427 -42.00976562 8.66796875 C-37.91341114 4.41844281 -35.02442002 1.99931138 -29 1 C-28.18917969 0.86335938 -27.37835938 0.72671875 -26.54296875 0.5859375 C-17.69195354 -0.20669073 -8.88075108 -0.06677256 0 0 Z " fill="#D1D1D1" transform="translate(218,66)"/>
<path d="M0 0 C1.56499883 0.42847541 3.12690752 0.86824375 4.6875 1.3125 C5.99267578 1.67794922 5.99267578 1.67794922 7.32421875 2.05078125 C10.30148403 3.10694981 12.48996712 4.06060479 15 6 C15.94999132 10.02516108 15.80212036 14.04947204 15.76171875 18.17700195 C15.75014189 20.16315621 15.80436072 22.14933968 15.859375 24.13476562 C15.859375 25.40384766 15.859375 26.67292969 15.859375 27.98046875 C15.86662598 29.71139771 15.86662598 29.71139771 15.87402344 31.47729492 C14.6052126 36.59116966 11.65454357 39.32692339 8 43 C7.32518585 43.69410477 6.6503717 44.38820953 5.95510864 45.10334778 C3.7537056 47.34556108 1.5269144 49.55975745 -0.70703125 51.76953125 C-1.51363693 52.57235031 -2.32024261 53.37516937 -3.15129089 54.20231628 C-5.70259636 56.74150367 -8.25713502 59.27739846 -10.8125 61.8125 C-14.19687366 65.17031219 -17.57794319 68.531401 -20.95703125 71.89453125 C-21.73407913 72.66328079 -22.51112701 73.43203033 -23.3117218 74.22407532 C-24.38875618 75.29615486 -24.38875618 75.29615486 -25.48754883 76.38989258 C-26.1192952 77.01640213 -26.75104156 77.64291168 -27.40193176 78.28840637 C-31.45478335 82.62916904 -31.27676964 86.26024531 -31.23950195 91.89013672 C-31.24151611 92.79937897 -31.24353027 93.70862122 -31.24560547 94.64541626 C-31.2491529 96.62120128 -31.24838151 98.59699765 -31.24382973 100.57278061 C-31.23824536 103.69978712 -31.24738085 106.82642147 -31.2610321 109.95339966 C-31.29819817 118.84443797 -31.31669284 127.73535108 -31.30541992 136.62646484 C-31.29957076 142.06362646 -31.3178215 147.5002656 -31.35130882 152.93732071 C-31.35926808 155.00974187 -31.35797877 157.0822199 -31.34728432 159.15462875 C-31.33296724 162.05402206 -31.34921805 164.95177181 -31.37231445 167.85107422 C-31.35466286 169.13549408 -31.35466286 169.13549408 -31.33665466 170.44586182 C-31.40442727 174.78358396 -31.60893864 176.49504538 -34.35173035 180.03665161 C-37 182 -37 182 -40 182.5625 C-43.65907504 181.87642343 -45.35167676 180.57265686 -48 178 C-49.72379381 174.55241238 -49.16577607 170.57569419 -49.17700195 166.78027344 C-49.18357315 165.82401566 -49.19014435 164.86775787 -49.19691467 163.88252258 C-49.21667505 160.70813931 -49.22831672 157.53380343 -49.23828125 154.359375 C-49.24235678 153.27647438 -49.2464323 152.19357376 -49.25063133 151.07785797 C-49.27150431 145.34568979 -49.28580041 139.61354564 -49.29516602 133.88134766 C-49.30622965 127.95844735 -49.34062581 122.03592283 -49.38033772 116.11315536 C-49.40647681 111.56123147 -49.41485549 107.00939744 -49.41844749 102.45740509 C-49.42332087 100.27412632 -49.43495614 98.09085176 -49.45348549 95.90764618 C-49.47781754 92.85056258 -49.47692244 89.79445536 -49.4699707 86.73730469 C-49.48278076 85.83629532 -49.49559082 84.93528595 -49.50878906 84.00697327 C-49.45308013 77.28097859 -47.63937158 73.75734406 -42.93122864 68.83876038 C-42.1970018 68.17533127 -41.46277496 67.51190216 -40.70629883 66.82836914 C-39.86895706 66.06218765 -39.0316153 65.29600616 -38.16889954 64.50660706 C-37.273983 63.69102829 -36.37906647 62.87544952 -35.45703125 62.03515625 C-33.06482718 59.78533147 -30.67864316 57.52934049 -28.29492664 55.27053165 C-25.82195794 52.93403767 -23.33331817 50.6209507 -20.80004883 48.34985352 C-6.91100976 36.32881762 -6.91100976 36.32881762 -1.32316589 19.55918884 C-1.32446547 15.77829713 -1.56714643 12.05839771 -1.9234314 8.29586792 C-2.02591087 5.22307671 -1.23997562 2.78871069 0 0 Z " fill="#D0D0D0" transform="translate(165,248)"/>
<path d="M0 0 C4.62080158 1.99818447 7.83881324 5.4936957 10 10 C10.4375 12.40625 10.4375 12.40625 10 15 C7.91796875 17.5703125 7.91796875 17.5703125 5.1875 20.125 C4.29417969 20.97320312 3.40085938 21.82140625 2.48046875 22.6953125 C1.66191406 23.45585937 0.84335937 24.21640625 0 25 C-1.00536757 25.99460346 -2.00827088 26.99179697 -3 28 C-0.04629741 30.72574853 2.91258308 33.44499635 5.88671875 36.1484375 C7.672303 37.77305713 9.41970883 39.41129936 11.14453125 41.1015625 C13.7099657 43.54538493 15.36032303 44.93194926 18.9375 45.3125 C21.84761108 44.06530954 23.36468229 42.96440077 25.6875 40.890625 C26.39189209 40.26196533 27.09628418 39.63330566 27.82202148 38.9855957 C31.95915859 35.21389566 36.02502024 31.36888149 40.08789062 27.51757812 C42.04861501 25.66737076 44.02319759 23.83299865 46 22 C46.63147949 21.39430176 47.26295898 20.78860352 47.91357422 20.16455078 C48.51830566 19.60622559 49.12303711 19.04790039 49.74609375 18.47265625 C50.27775146 17.9712915 50.80940918 17.46992676 51.35717773 16.95336914 C53 16 53 16 55.20336914 16.34545898 C55.79625732 16.56145752 56.38914551 16.77745605 57 17 C57.10822792 20.06345144 57.18741479 23.1230601 57.25 26.1875 C57.28351563 27.05181641 57.31703125 27.91613281 57.3515625 28.80664062 C57.41496358 32.94356107 57.41835761 35.31799471 55.21484375 38.91015625 C51.33577928 42.57029645 51.33577928 42.57029645 49.3125 44.25 C46.21873046 46.87970411 43.37626766 49.63559133 40.5625 52.5625 C34.13336958 59.08076915 27.73901118 64.03825921 18.375 64.4375 C7.39488094 64.30552742 0.59610287 56.13621355 -7 49 C-7.64324219 49.433125 -8.28648438 49.86625 -8.94921875 50.3125 C-16.36115706 54.8801995 -22.34446491 56.2893608 -31 55 C-38.21170622 52.98496444 -42.64292815 47.9641663 -46.375 41.6875 C-48.05171927 34.47760712 -47.50147833 27.551153 -44 21 C-40.57947787 15.91808141 -36.88297716 12.69051068 -31 11 C-25.89579514 10.52378641 -20.9439963 10.44709716 -15.9921875 11.85546875 C-12.77774504 12.33637013 -12.77774504 12.33637013 -10.078125 9.7265625 C-9.1169858 8.70982021 -8.17459028 7.67508869 -7.25 6.625 C-2.10517241 1.05258621 -2.10517241 1.05258621 0 0 Z " fill="#D0D0D0" transform="translate(47,151)"/>
<path d="M0 0 C1.8203125 0.234375 1.8203125 0.234375 4.125 0.75 C4.87007812 0.90984375 5.61515625 1.0696875 6.3828125 1.234375 C9.71926802 2.21041274 12.81514758 3.61382246 16 5 C16.09337422 29.3126507 16.16394531 53.6252746 16.20724869 77.93806839 C16.22788817 89.22651406 16.25603528 100.51484842 16.30175781 111.80322266 C16.3415831 121.64031031 16.36742272 131.47731737 16.37635398 141.3144834 C16.38157602 146.52490446 16.39387853 151.73509493 16.42292023 156.9454422 C16.45002124 161.84721402 16.45845576 166.74865972 16.45243073 171.65049934 C16.45353335 173.45167626 16.46151881 175.25286381 16.4768219 177.05397606 C16.49666708 179.50963381 16.49195983 181.96405353 16.48101807 184.41973877 C16.49266943 185.13569474 16.5043208 185.8516507 16.51632524 186.5893023 C16.47512671 190.00014658 16.22182067 191.71582715 14.09493637 194.4405632 C11.19922117 196.59608683 9.40086908 196.56782606 5.90234375 196.3984375 C3.00233861 195.79104423 1.71691329 194.33500208 0 192 C-1.50490362 188.99019276 -1.13708551 185.89180218 -1.12698364 182.59104919 C-1.12854363 181.81825451 -1.13010362 181.04545983 -1.13171089 180.24924713 C-1.13571659 177.64588199 -1.13253291 175.04257462 -1.12939453 172.43920898 C-1.13074875 170.57849086 -1.1325288 168.71777301 -1.13470459 166.85705566 C-1.13927614 161.79321221 -1.13749058 156.72938905 -1.1343255 151.66554523 C-1.13180085 146.37688818 -1.1341397 141.08823292 -1.13571167 135.79957581 C-1.1375329 126.91789435 -1.13512811 118.03622121 -1.13037109 109.15454102 C-1.12492689 98.87076637 -1.12669247 88.58701154 -1.1321975 78.30323738 C-1.13672797 69.4888153 -1.13737956 60.67439921 -1.13475883 51.85997635 C-1.1331959 46.58885724 -1.13300275 41.31774747 -1.13629532 36.04662895 C-1.13917313 31.09320772 -1.13720002 26.13981218 -1.13140106 21.18639374 C-1.13007305 19.36301021 -1.13046827 17.53962453 -1.13266373 15.71624184 C-1.13537358 13.23812058 -1.13199617 10.760083 -1.12698364 8.28196716 C-1.12921436 7.55085502 -1.13144509 6.81974287 -1.13374341 6.06647581 C-1.11414997 1.11414997 -1.11414997 1.11414997 0 0 Z " fill="#D0D0D0" transform="translate(196,259)"/>
<path d="M0 0 C5.24392978 0.36707508 10.61545628 2.15004658 15 5 C15.91967773 6.80541992 15.91967773 6.80541992 16 9 C14.31274414 11.27075195 14.31274414 11.27075195 11.78515625 13.73828125 C10.41327148 15.09276367 10.41327148 15.09276367 9.01367188 16.47460938 C8.03005157 17.42068069 7.04632697 18.36664359 6.0625 19.3125 C5.12341797 20.23740234 4.18433594 21.16230469 3.21679688 22.11523438 C-0.68192555 25.93256385 -4.59145405 29.70111482 -8.75390625 33.23046875 C-9.33359665 33.75656235 -9.91328705 34.28265594 -10.51054382 34.82469177 C-11.8830989 36.02404221 -13.27277736 37.20723579 -14.72415924 38.30988693 C-21.48177204 43.47117988 -27.82631455 48.75524103 -29.34242249 57.4841156 C-29.96429415 63.96172639 -29.76725015 70.4190498 -29.578125 76.9140625 C-29.56494115 79.30200414 -29.55885894 81.68999447 -29.55950928 84.07797241 C-29.54434349 90.32169086 -29.44237055 96.56082781 -29.31866455 102.80322266 C-29.16011915 111.6276483 -29.12182948 120.45357513 -29.06903076 129.27914429 C-29.04062174 133.97105841 -28.97968454 138.66078763 -28.89239502 143.35195923 C-28.86339359 145.48675414 -28.83447855 147.62155022 -28.80566406 149.75634766 C-28.76816292 151.20885422 -28.76816292 151.20885422 -28.72990417 152.69070435 C-28.6796736 157.60383598 -28.69078899 161.05593392 -32 165 C-35.19233485 166.59616743 -38.53461497 166.51466114 -42 166 C-44.43119623 164.12984906 -45.64069173 162.71861655 -47 160 C-47.10056705 158.5058932 -47.1394016 157.00741609 -47.14717102 155.50994873 C-47.15432632 154.56507095 -47.16148163 153.62019318 -47.16885376 152.64668274 C-47.17154266 151.60666611 -47.17423157 150.56664948 -47.17700195 149.49511719 C-47.18357315 148.40230942 -47.19014435 147.30950165 -47.19691467 146.18357849 C-47.21668092 142.55467669 -47.22831776 138.92581634 -47.23828125 135.296875 C-47.24235678 134.05951851 -47.2464323 132.82216202 -47.25063133 131.54730988 C-47.26935216 125.67401173 -47.28391448 119.80072682 -47.2922433 113.92740607 C-47.30201039 107.15191789 -47.32831481 100.37675686 -47.36874419 93.60138392 C-47.40257304 87.73023341 -47.41439086 81.8591924 -47.41844749 75.98795319 C-47.42332395 73.49207593 -47.43496785 70.99620243 -47.45348549 68.5003891 C-47.4777898 65.00748058 -47.47692731 61.51542784 -47.4699707 58.02246094 C-47.48278076 56.99054123 -47.49559082 55.95862152 -47.50878906 54.89543152 C-47.44820272 46.55274981 -45.07556323 42.80721223 -39.171875 36.94140625 C-38.45386719 36.22533203 -37.73585938 35.50925781 -36.99609375 34.77148438 C-36.25488281 34.04251953 -35.51367188 33.31355469 -34.75 32.5625 C-34.02425781 31.83740234 -33.29851562 31.11230469 -32.55078125 30.36523438 C-28.40310278 26.25082605 -24.14720866 22.32282069 -19.72363281 18.50756836 C-17.72162789 16.75652298 -15.84712007 14.91308865 -14 13 C-10.6923405 9.64004548 -7.24407974 6.51186113 -3.6640625 3.4453125 C-2.39833536 2.34597202 -1.1854566 1.1854566 0 0 Z " fill="#D2D2D2" transform="translate(130,236)"/>
<path d="M0 0 C48.82051282 0 48.82051282 0 58.5 9.4375 C61.51298119 14.58467619 62.59549665 19.04503346 62 25 C60.84861379 28.41911645 59.48191938 31.71199138 58 35 C57.34 35 56.68 35 56 35 C55.67 35.99 55.34 36.98 55 38 C49.88098267 41.78702812 44.21773909 42.71214171 38 43 C40.26492473 46.89509349 42.75215007 50.59045467 45.375 54.25 C45.79765137 54.84264648 46.22030273 55.43529297 46.65576172 56.04589844 C50.91705729 61.97346003 55.37451522 67.74910541 59.88427734 73.48925781 C60.42004395 74.17858398 60.95581055 74.86791016 61.5078125 75.578125 C61.98879395 76.19075195 62.46977539 76.80337891 62.96533203 77.43457031 C64 79 64 79 64 81 C60.25938127 81.78432328 58.57304215 82.11161311 55 81 C51.53806026 77.58592117 48.87839106 73.77231619 46.17578125 69.74414062 C43.88232038 66.34204668 41.40972135 63.06743771 38.94921875 59.78515625 C37 57 37 57 35.20703125 53.68359375 C31.68909381 47.56995649 31.68909381 47.56995649 25.64599609 44.38183594 C19.66610874 43.57779906 14.10730763 43.83821702 8 44 C8 56.21 8 68.42 8 81 C5.36 81 2.72 81 0 81 C0 54.27 0 27.54 0 0 Z " fill="#D4D4D4" transform="translate(1040,373)"/>
<path d="M0 0 C48.82051282 0 48.82051282 0 58.5 9.4375 C61.51298119 14.58467619 62.59549665 19.04503346 62 25 C60.99221772 28.50126421 59.92686016 31.89561419 58 35 C55.921875 35.6015625 55.921875 35.6015625 54 36 C53.67 36.99 53.34 37.98 53 39 C50.890625 40.16796875 50.890625 40.16796875 48.25 41.1875 C47.38890625 41.53167969 46.5278125 41.87585938 45.640625 42.23046875 C42.95129902 43.01419245 40.78398044 43.14520761 38 43 C39.93033029 46.51595875 41.74101796 49.67627245 44.25 52.8125 C46 55 46 55 46 57 C46.66 57 47.32 57 48 57 C49.2265625 58.58203125 49.2265625 58.58203125 50.625 60.8125 C53.07736709 64.61185689 55.60996325 68.32794888 58.25 72 C58.91515625 72.928125 59.5803125 73.85625 60.265625 74.8125 C61.81538395 77.08395135 61.81538395 77.08395135 64 78 C64 78.99 64 79.98 64 81 C60.82349537 81.63612707 58.16593934 81.75329442 55 81 C51.72104052 78.25407334 49.46794419 74.8877264 47.0625 71.375 C46.37736328 70.42326904 45.69222656 69.47153809 44.98632812 68.4909668 C43.61127648 66.57472303 42.24858296 64.64954575 40.89892578 62.71533203 C39.21280519 60.30429665 37.49355551 57.92532565 35.74609375 55.55859375 C29 46.3708039 29 46.3708039 29 44 C22.07 44 15.14 44 8 44 C8 56.21 8 68.42 8 81 C5.36 81 2.72 81 0 81 C0 54.27 0 27.54 0 0 Z " fill="#D4D4D4" transform="translate(1618,373)"/>
<path d="M0 0 C0 5.61 0 11.22 0 17 C-6.76558768 19.80959178 -13.5301589 21.297124 -20.70703125 22.69921875 C-21.90937912 22.9391304 -23.11172699 23.17904205 -24.35050964 23.42622375 C-26.87879422 23.92933814 -29.40772523 24.42921377 -31.93725586 24.92602539 C-35.81841377 25.68866204 -39.69740077 26.46165291 -43.57617188 27.23632812 C-46.03633834 27.72456335 -48.49662088 28.21221415 -50.95703125 28.69921875 C-52.7007476 29.04601936 -52.7007476 29.04601936 -54.47969055 29.39982605 C-55.55478378 29.61037125 -56.62987701 29.82091644 -57.73754883 30.0378418 C-58.68382645 30.224207 -59.63010406 30.4105722 -60.60505676 30.60258484 C-63 31 -63 31 -66 31 C-66.17015625 31.59167969 -66.3403125 32.18335938 -66.515625 32.79296875 C-68.48967069 39.22961772 -70.56058641 43.68381363 -76.5 47.25 C-82.25000237 50.12500118 -87.73443517 51.01446954 -94.0859375 49.50390625 C-100.28045764 47.40346551 -105.05477384 44.10401317 -108.3125 38.3125 C-111.22413794 31.76438598 -111.89820113 25.62463167 -109.5 18.8125 C-106.88210476 13.12996973 -103.47300637 8.7211359 -97.79296875 5.90625 C-90.28932693 3.14511434 -84.48098747 3.44787012 -77.2109375 6.63671875 C-75 8 -75 8 -72.875 10.75 C-70.331009 13.19856061 -70.331009 13.19856061 -67.88916016 13.0637207 C-65.08599681 12.62436121 -62.37821124 11.99941387 -59.625 11.3125 C-57.40260436 10.81394105 -55.17992727 10.3166357 -52.95703125 9.8203125 C-51.71518066 9.53317383 -50.47333008 9.24603516 -49.19384766 8.95019531 C-41.80474547 7.25732772 -34.37331513 5.75713648 -26.94818115 4.23202515 C-24.34027674 3.6932386 -21.73474323 3.14401442 -19.12939453 2.59301758 C-17.49907817 2.25315531 -15.86870935 1.91354458 -14.23828125 1.57421875 C-13.49543381 1.41504974 -12.75258636 1.25588074 -11.98722839 1.09188843 C-7.80083452 0.23032457 -4.35205246 0 0 0 Z " fill="#D1D1D1" transform="translate(218,32)"/>
<path d="M0 0 C6.5438557 3.5251423 10.37743039 8.16473229 13.19921875 15.01171875 C15.08380479 21.3936124 14.26175207 27.13580737 11.19921875 33.01171875 C8.05193689 37.42549717 5.10927488 40.67392963 0.19921875 43.01171875 C0.19779373 43.7921051 0.19636871 44.57249146 0.19490051 45.37652588 C0.17706541 52.73369056 0.13543826 60.09015468 0.06712818 67.44701004 C0.03284737 71.22923958 0.00774666 75.01106478 0.00366211 78.79345703 C-0.00061875 82.44428479 -0.02906139 86.09420028 -0.07421303 89.74474335 C-0.08719524 91.13692662 -0.09149306 92.52921904 -0.08693504 93.92145538 C-0.08203546 95.87251979 -0.11096864 97.82358017 -0.14135742 99.77441406 C-0.14801926 100.88471985 -0.15468109 101.99502563 -0.1615448 103.13897705 C-0.80078125 106.01171875 -0.80078125 106.01171875 -3.21089172 108.3661499 C-7.20252595 110.90236192 -9.13329544 110.67850244 -13.80078125 110.01171875 C-16.48587885 107.41821981 -17.68115581 105.77106402 -18.26593018 102.05909729 C-18.25068298 100.96910934 -18.23543579 99.8791214 -18.21972656 98.75610352 C-18.21362366 97.51453995 -18.20752075 96.27297638 -18.20123291 94.99378967 C-18.1890699 94.33554766 -18.17690689 93.67730564 -18.16437531 92.9991169 C-18.12843099 90.92571025 -18.12097187 88.85395796 -18.121521 86.78025818 C-18.11890478 80.88839697 -18.072447 74.9974718 -17.98974609 69.10620117 C-17.94103862 65.49495612 -17.93136963 61.88527577 -17.94533539 58.27375603 C-17.94273354 56.90259656 -17.92515929 55.53137699 -17.89200592 54.16061592 C-17.45256142 46.53964278 -17.45256142 46.53964278 -20.55163574 39.94845581 C-22.63610117 38.35812163 -22.63610117 38.35812163 -24.83685303 37.23423767 C-28.56245869 34.91509822 -29.76153255 31.11707385 -30.80078125 27.01171875 C-32.01971233 19.07125342 -30.55955781 12.52372878 -25.80078125 6.01171875 C-18.54157751 -0.93677977 -9.75699111 -3.44284344 0 0 Z " fill="#D0D0D0" transform="translate(176.80078125,330.98828125)"/>
<path d="M0 0 C3.63 0 7.26 0 11 0 C29.02665528 39.8697252 29.02665528 39.8697252 34.625 52.875 C34.98392334 53.70346436 35.34284668 54.53192871 35.71264648 55.38549805 C38 60.75082997 38 60.75082997 38 63 C38.66 63 39.32 63 40 63 C40.16698395 62.46514984 40.3339679 61.93029968 40.50601196 61.37924194 C42.41409658 55.44526621 44.73013866 49.78852341 47.2734375 44.1015625 C47.67905914 43.18595551 48.08468079 42.27034851 48.50259399 41.32699585 C49.78954807 38.42460429 51.08222388 35.52480224 52.375 32.625 C53.234742 30.68766282 54.09412007 28.7501641 54.953125 26.8125 C58.92734978 17.85597403 62.9225172 8.910055 67 0 C70.63 0 74.26 0 78 0 C78 26.4 78 52.8 78 80 C75.36 80 72.72 80 70 80 C70 57.23 70 34.46 70 11 C59.85073305 33.83308965 59.85073305 33.83308965 49.75 56.6875 C49.08206784 58.20249009 48.41409899 59.71746401 47.74609375 61.23242188 C46.16364647 64.82143134 44.58167096 68.41064835 43 72 C40.36 72 37.72 72 35 72 C33.08183626 67.79543245 31.16548771 63.5900429 29.25048828 59.3840332 C28.60542244 57.96781618 27.95994566 56.55178623 27.31396484 55.13598633 C20.77425493 40.80131412 14.39971469 26.39935804 8 12 C7.67 34.44 7.34 56.88 7 80 C4.69 80 2.38 80 0 80 C0 53.6 0 27.2 0 0 Z " fill="#D4D4D4" transform="translate(2648,373)"/>
<path d="M0 0 C2.64 0 5.28 0 8 0 C12.7471363 9.26401751 17.10735758 18.60728468 21.1875 28.1875 C22.31149621 30.8082849 23.43879732 33.42764279 24.56640625 36.046875 C24.99073944 37.03378578 24.99073944 37.03378578 25.42364502 38.04063416 C28.92079492 46.16132765 32.52489751 54.23399283 36.12963867 62.30737305 C37.03378456 64.33289162 37.93635094 66.35911642 38.83691406 68.38623047 C39.55152141 69.99214698 40.27110475 71.59587394 40.99902344 73.19580078 C42.25562721 76.00446416 43 77.87979933 43 81 C40.36 81 37.72 81 35 81 C33.42885366 77.3357646 31.86239884 73.66956379 30.30029297 70.00146484 C29.76805615 68.75351727 29.23453322 67.5061174 28.69970703 66.25927734 C27.93185131 64.46856372 27.16897715 62.67571657 26.40625 60.8828125 C25.71499023 59.26463623 25.71499023 59.26463623 25.00976562 57.61376953 C24 55 24 55 24 53 C11.13 53 -1.74 53 -15 53 C-15.99 55.97 -16.98 58.94 -18 62 C-18.63978823 63.60581242 -19.30257489 65.20308574 -20.0078125 66.78125 C-20.52794922 67.94914062 -20.52794922 67.94914062 -21.05859375 69.140625 C-21.41050781 69.91921875 -21.76242188 70.6978125 -22.125 71.5 C-22.48464844 72.30953125 -22.84429688 73.1190625 -23.21484375 73.953125 C-25.8618921 79.8618921 -25.8618921 79.8618921 -27 81 C-29.33297433 81.04092937 -31.66705225 81.04241723 -34 81 C-33.36840414 77.22581921 -32.27991948 73.98838647 -30.76953125 70.4765625 C-30.30313232 69.38835205 -29.8367334 68.3001416 -29.35620117 67.17895508 C-28.84677979 66.0061499 -28.3373584 64.83334473 -27.8125 63.625 C-27.27893088 62.38766647 -26.7454861 61.15027932 -26.2121582 59.9128418 C-21.85312404 49.83210809 -17.33239683 39.82584852 -12.7852478 29.82888794 C-8.30330032 19.9726519 -3.98049118 10.07094197 0 0 Z " fill="#D4D4D4" transform="translate(2323,373)"/>
<path d="M0 0 C3.125 0.25 3.125 0.25 4.7039032 1.52937317 C6.18049946 3.3171973 7.06089099 4.90889895 7.98754883 7.0300293 C8.49072128 8.16773018 8.49072128 8.16773018 9.00405884 9.32841492 C9.35978973 10.15203018 9.71552063 10.97564545 10.08203125 11.82421875 C10.4620932 12.68872147 10.84215515 13.55322418 11.23373413 14.44392395 C12.47516162 17.27217647 13.70652941 20.10468242 14.9375 22.9375 C15.7882537 24.88305951 16.63957566 26.82837063 17.49145508 28.7734375 C19.21282809 32.70606429 20.9303583 36.64033893 22.64550781 40.57568359 C24.90880017 45.763355 27.1963979 50.93992782 29.4921875 56.11328125 C30.46127113 58.30319481 31.4297212 60.49338692 32.39779663 62.68374634 C33.00557465 64.05667618 33.61496004 65.42889562 34.22598267 66.80038452 C35.06598098 68.68760605 35.89907914 70.57772371 36.73046875 72.46875 C37.19606201 73.51998047 37.66165527 74.57121094 38.14135742 75.65429688 C39.125 78.25 39.125 78.25 39.125 81.25 C36.485 81.25 33.845 81.25 31.125 81.25 C29.282695 77.14980233 27.45270545 73.04422392 25.625 68.9375 C24.83802734 67.18663086 24.83802734 67.18663086 24.03515625 65.40039062 C23.53886719 64.28212891 23.04257813 63.16386719 22.53125 62.01171875 C22.07041016 60.98006592 21.60957031 59.94841309 21.13476562 58.88549805 C20.125 56.25 20.125 56.25 20.125 53.25 C7.255 53.25 -5.615 53.25 -18.875 53.25 C-19.865 56.22 -20.855 59.19 -21.875 62.25 C-22.51478823 63.85581242 -23.17757489 65.45308574 -23.8828125 67.03125 C-24.40294922 68.19914062 -24.40294922 68.19914062 -24.93359375 69.390625 C-25.28550781 70.16921875 -25.63742188 70.9478125 -26 71.75 C-26.35964844 72.55953125 -26.71929688 73.3690625 -27.08984375 74.203125 C-29.7368921 80.1118921 -29.7368921 80.1118921 -30.875 81.25 C-32.87458364 81.29080783 -34.87545254 81.29254356 -36.875 81.25 C-38.0211073 77.81167809 -37.79811358 77.42949359 -36.37475586 74.28637695 C-36.01898468 73.48788834 -35.6632135 72.68939972 -35.29666138 71.86671448 C-34.89841156 70.99933151 -34.50016174 70.13194855 -34.08984375 69.23828125 C-33.68192596 68.32920517 -33.27400818 67.42012909 -32.85372925 66.48350525 C-31.51545222 63.50578442 -30.16399216 60.53424309 -28.8125 57.5625 C-27.89371018 55.52424285 -26.97599 53.48550321 -26.05932617 51.44628906 C-24.67197737 48.36003809 -23.28405859 45.27406431 -21.89259338 42.18966675 C-17.43760026 32.30959519 -13.09864725 22.38055703 -8.79342651 12.43447876 C-7.974797 10.54405766 -7.15356575 8.65478495 -6.33203125 6.765625 C-5.6510437 5.19216309 -5.6510437 5.19216309 -4.95629883 3.58691406 C-3.43482073 0.29868006 -3.43482073 0.29868006 0 0 Z " fill="#D4D4D4" transform="translate(2098.875,372.75)"/>
<path d="M0 0 C2.77386483 1.51580667 4.72284477 3.3009168 6.7421875 5.71484375 C10.7963294 9.22344149 14.90452755 10.22086429 20.015625 11.58984375 C20.94697266 11.85345703 21.87832031 12.11707031 22.83789062 12.38867188 C25.12219744 13.03296354 27.41214949 13.65718201 29.703125 14.27734375 C29.703125 20.21734375 29.703125 26.15734375 29.703125 32.27734375 C20.703125 32.27734375 20.703125 32.27734375 16.203125 31.77734375 C14.91921875 31.638125 14.91921875 31.638125 13.609375 31.49609375 C12.9803125 31.42390625 12.35125 31.35171875 11.703125 31.27734375 C11.14625 32.18484375 10.589375 33.09234375 10.015625 34.02734375 C5.95647868 39.73208993 1.36578012 42.49636479 -5.296875 44.27734375 C-11.56975363 45.09049468 -16.85498325 43.32157033 -22.296875 40.27734375 C-28.29517359 35.32059073 -30.87865192 28.98160532 -31.734375 21.40234375 C-31.45832058 15.55919178 -29.51675605 9.78050428 -25.61328125 5.37890625 C-18.27097867 -1.09495194 -9.6280617 -3.0292371 0 0 Z " fill="#D1D1D1" transform="translate(78.296875,65.72265625)"/>
<path d="M0 0 C46.84821429 0 46.84821429 0 60.09375 12.765625 C68.39433437 22.49499848 69.94417491 34.63720982 69 47 C67.27380461 57.22231334 63.29913985 65.90041652 55.171875 72.5 C46.14546434 78.73406779 36.09387817 80.26419625 25.375 80.625 C24.47910156 80.66367187 23.58320313 80.70234375 22.66015625 80.7421875 C15.09367219 81.04185024 7.58593436 81 0 81 C0 54.27 0 27.54 0 0 Z M8 6 C8 28.77 8 51.54 8 75 C32.78487969 75.79546639 32.78487969 75.79546639 52.77734375 64.3359375 C59.71288562 56.90863349 61.35975242 47.62201097 61.2109375 37.7109375 C60.55112769 29.23115954 57.85818811 21.28623943 52 15 C38.36160643 4.66586764 25.23492055 6 8 6 Z " fill="#D4D4D4" transform="translate(2414,373)"/>
<path d="M0 0 C4.846875 -0.0825 9.69375 -0.165 14.6875 -0.25 C16.93759888 -0.30462402 16.93759888 -0.30462402 19.2331543 -0.36035156 C28.53292553 -0.43611345 39.93546483 -0.24228176 47.1875 6.4375 C50.42097033 11.00895805 51.61255921 14.22717549 50.65234375 19.9453125 C49.11357735 24.79196595 46.02350514 27.91773631 41.58984375 30.2890625 C34.8580132 33.11176068 28.58914919 34.13114289 21.2890625 34.09765625 C20.16709473 34.09515869 19.04512695 34.09266113 17.88916016 34.09008789 C16.4819873 34.08098389 15.07481445 34.07187988 13.625 34.0625 C6.880625 34.0315625 6.880625 34.0315625 0 34 C0 22.78 0 11.56 0 0 Z " fill="#FEFEFE" transform="translate(818,414)"/>
<path d="M0 0 C18.15 0 36.3 0 55 0 C55 1.98 55 3.96 55 6 C39.49 6 23.98 6 8 6 C8 15.57 8 25.14 8 35 C21.2 35 34.4 35 48 35 C48 36.98 48 38.96 48 41 C34.8 41 21.6 41 8 41 C8 52.22 8 63.44 8 75 C24.17 75 40.34 75 57 75 C57 76.98 57 78.96 57 81 C38.19 81 19.38 81 0 81 C0 54.27 0 27.54 0 0 Z " fill="#D4D4D4" transform="translate(1263,373)"/>
<path d="M0 0 C18.15 0 36.3 0 55 0 C55 1.98 55 3.96 55 6 C39.49 6 23.98 6 8 6 C8 15.57 8 25.14 8 35 C21.2 35 34.4 35 48 35 C48 36.98 48 38.96 48 41 C34.8 41 21.6 41 8 41 C8 52.22 8 63.44 8 75 C24.17 75 40.34 75 57 75 C57 76.98 57 78.96 57 81 C38.19 81 19.38 81 0 81 C0 54.27 0 27.54 0 0 Z " fill="#D4D4D4" transform="translate(930,373)"/>
<path d="M0 0 C2.64 0 5.28 0 8 0 C8.00364563 0.69189423 8.00729126 1.38378845 8.01104736 2.09664917 C8.04911154 8.65720449 8.10617001 15.21729807 8.18390274 21.77750969 C8.22320235 25.14921728 8.25547535 28.52067058 8.27099609 31.89257812 C8.29253112 35.78036897 8.33923942 39.6671902 8.390625 43.5546875 C8.39185364 44.74988007 8.39308228 45.94507263 8.39434814 47.17648315 C8.54435269 55.85200161 9.67496659 63.36566116 15.6875 69.9375 C23.71275352 74.93435596 32.20954025 76.5451975 41.5234375 74.42578125 C43.74732165 73.72758506 45.85910781 72.91876345 48 72 C48.9075 71.649375 49.815 71.29875 50.75 70.9375 C55.63450868 66.7313953 57.95621275 60.23603423 59 54 C59.10977578 52.16044845 59.17511609 50.31791831 59.20532227 48.4753418 C59.22526749 47.39459885 59.24521271 46.3138559 59.26576233 45.20036316 C59.28247482 44.0449855 59.29918732 42.88960785 59.31640625 41.69921875 C59.33718735 40.50770706 59.35796844 39.31619537 59.37937927 38.08857727 C59.44468179 34.28827597 59.50367018 30.48790648 59.5625 26.6875 C59.60570356 24.10871695 59.64931844 21.52994076 59.69335938 18.95117188 C59.80034345 12.63418634 59.90214555 6.3171332 60 0 C62.31 0 64.62 0 67 0 C67.09316446 7.5198085 67.16399844 15.03955626 67.20724869 22.55981255 C67.22801927 26.05277947 67.25614006 29.54534814 67.30175781 33.03808594 C67.35400946 37.06448939 67.37303198 41.09048227 67.390625 45.1171875 C67.41127014 46.35612762 67.43191528 47.59506775 67.45318604 48.87155151 C67.45548764 57.86446774 66.0717668 66.7042363 59.74609375 73.62109375 C49.90447645 81.3931092 39.1275888 82.74166455 27 82 C18.21898209 80.74708571 11.04815775 78.18702566 5.47265625 71.04296875 C1.68601958 65.30264707 -0.25681611 59.83815297 -0.22705078 52.90283203 C-0.22689972 51.72206085 -0.22674866 50.54128967 -0.22659302 49.32473755 C-0.21627045 48.06515228 -0.20594788 46.80556702 -0.1953125 45.5078125 C-0.1924826 44.20673553 -0.18965271 42.90565857 -0.18673706 41.56515503 C-0.17913675 38.1226418 -0.15951973 34.68029997 -0.1373291 31.237854 C-0.11679261 27.71848875 -0.10771873 24.19909553 -0.09765625 20.6796875 C-0.07627002 13.78638837 -0.0421781 6.89320243 0 0 Z " fill="#D4D4D4" transform="translate(1490,373)"/>
<path d="M0 0 C18.15 0 36.3 0 55 0 C55 1.98 55 3.96 55 6 C39.49 6 23.98 6 8 6 C8 15.57 8 25.14 8 35 C21.2 35 34.4 35 48 35 C48 36.98 48 38.96 48 41 C34.8 41 21.6 41 8 41 C8 52.22 8 63.44 8 75 C24.17 75 40.34 75 57 75 C57 76.65 57 78.3 57 80 C38.19 80 19.38 80 0 80 C0 53.6 0 27.2 0 0 Z " fill="#D3D3D3" transform="translate(2537,373)"/>
<path d="M0 0 C1.051875 0.78375 2.10375 1.5675 3.1875 2.375 C3.1875 3.035 3.1875 3.695 3.1875 4.375 C2.5275 4.375 1.8675 4.375 1.1875 4.375 C0.8575 5.365 0.5275 6.355 0.1875 7.375 C-4.04156354 6.51551364 -7.49472249 4.54241184 -11.27734375 2.53125 C-18.35172883 -0.69528002 -27.32487147 -0.76612293 -34.77734375 1.12890625 C-39.28245915 2.81584374 -42.30145538 4.10934346 -44.8125 8.375 C-45.47394912 11.45625048 -45.38925089 14.28050965 -44.8125 17.375 C-38.79058094 25.84332367 -26.01866161 28.61192413 -16.65625 31.93164062 C-7.33023739 35.32880557 1.52028992 39.04057985 6.1875 48.375 C6.68506886 53.82378691 6.94835647 58.73155002 4.625 63.75 C-3.21252384 72.19041029 -10.41219277 75.8461671 -22.0390625 76.578125 C-35.06259128 76.75775988 -48.72870775 74.35874218 -58.8125 65.375 C-58.8125 64.385 -58.8125 63.395 -58.8125 62.375 C-55.47916667 59.375 -55.47916667 59.375 -52.8125 59.375 C-51.94431641 60.28185547 -51.94431641 60.28185547 -51.05859375 61.20703125 C-48.47494273 63.70081615 -46.19816932 64.7340704 -42.875 66.0625 C-41.85535156 66.47886719 -40.83570313 66.89523437 -39.78515625 67.32421875 C-29.91647591 70.81262218 -19.86909756 70.32276329 -10.15234375 66.640625 C-6.86230265 64.86103683 -4.4931563 62.7363126 -2.8125 59.375 C-2.21948521 54.58852347 -1.9647203 50.69052023 -4.625 46.5625 C-13.46877871 40.4932401 -24.15811178 37.30527595 -34.203125 33.76953125 C-41.82202368 30.99990609 -49.2996773 28.03705757 -53.15234375 20.3984375 C-54.90448513 15.02796865 -54.65943943 10.10145346 -52.1875 5.0625 C-38.65336514 -10.25244208 -16.89350981 -10.00547066 0 0 Z " fill="#D4D4D4" transform="translate(1203.8125,378.625)"/>
<path d="M0 0 C6.31125 -0.0928125 6.31125 -0.0928125 12.75 -0.1875 C14.7005127 -0.22846802 14.7005127 -0.22846802 16.69042969 -0.27026367 C25.48260877 -0.33204009 34.89397441 -0.12057945 42.125 5.375 C45.62058934 10.26882508 46.52759934 13.77773179 45.65625 19.71875 C44.48616082 23.78620288 42.32958809 26.43663511 39 29 C30.17177405 33.43040122 20.13267785 33.14402281 10.5 33.0625 C5.3025 33.0315625 5.3025 33.0315625 0 33 C0 22.11 0 11.22 0 0 Z " fill="#FEFEFE" transform="translate(1626,379)"/>
<path d="M0 0 C6.31125 -0.0928125 6.31125 -0.0928125 12.75 -0.1875 C14.7005127 -0.22846802 14.7005127 -0.22846802 16.69042969 -0.27026367 C25.48260877 -0.33204009 34.89397441 -0.12057945 42.125 5.375 C45.62058934 10.26882508 46.52759934 13.77773179 45.65625 19.71875 C44.48616082 23.78620288 42.32958809 26.43663511 39 29 C30.17177405 33.43040122 20.13267785 33.14402281 10.5 33.0625 C5.3025 33.0315625 5.3025 33.0315625 0 33 C0 22.11 0 11.22 0 0 Z " fill="#FEFEFE" transform="translate(1048,379)"/>
<path d="M0 0 C0.69222656 0.68255859 0.69222656 0.68255859 1.3984375 1.37890625 C1.3984375 2.69890625 1.3984375 4.01890625 1.3984375 5.37890625 C-0.36328125 6.51953125 -0.36328125 6.51953125 -2.6015625 7.37890625 C-4.49609375 6.55078125 -4.49609375 6.55078125 -6.4140625 5.12890625 C-14.34412654 -0.21115522 -22.98011164 -0.76971278 -32.28125 0.84375 C-40.64139084 3.04447243 -47.35079233 6.86392107 -52.0390625 14.25390625 C-57.21113087 23.91034415 -58.24436761 34.36167538 -55.73828125 45.06640625 C-54.77409801 48.20789055 -53.73571392 51.29528975 -52.6015625 54.37890625 C-52.2715625 55.36890625 -51.9415625 56.35890625 -51.6015625 57.37890625 C-50.9415625 57.37890625 -50.2815625 57.37890625 -49.6015625 57.37890625 C-49.36695312 57.97445312 -49.13234375 58.57 -48.890625 59.18359375 C-45.96255994 64.17017728 -39.15639109 67.15689784 -33.7265625 68.75390625 C-24.10983912 70.6345961 -13.61526478 70.22806748 -5.203125 64.84375 C-3.27558656 63.41331358 -1.41816397 61.94686674 0.3984375 60.37890625 C2.3784375 61.36890625 2.3784375 61.36890625 4.3984375 62.37890625 C4.3984375 63.69890625 4.3984375 65.01890625 4.3984375 66.37890625 C-3.23545002 74.01279377 -13.47037144 76.40476556 -23.9140625 76.69140625 C-36.18194512 76.4343377 -46.87258206 73.12039409 -55.703125 64.2734375 C-65.19254781 52.86593987 -66.72414593 39.70595571 -65.6015625 25.37890625 C-63.66951569 14.84575951 -58.41790313 7.03444647 -49.9765625 0.56640625 C-34.45470842 -9.50055793 -15.66706317 -9.38166036 0 0 Z " fill="#D4D4D4" transform="translate(2243.6015625,378.62109375)"/>
<path d="M0 0 C0.69222656 0.68255859 0.69222656 0.68255859 1.3984375 1.37890625 C1.3984375 2.69890625 1.3984375 4.01890625 1.3984375 5.37890625 C-0.36328125 6.51953125 -0.36328125 6.51953125 -2.6015625 7.37890625 C-4.49609375 6.55078125 -4.49609375 6.55078125 -6.4140625 5.12890625 C-14.34412654 -0.21115522 -22.98011164 -0.76971278 -32.28125 0.84375 C-40.64139084 3.04447243 -47.35079233 6.86392107 -52.0390625 14.25390625 C-57.29938276 24.08968513 -58.20913149 34.83636635 -55.87890625 45.76953125 C-52.85327985 55.52013293 -49.13905041 61.18441735 -40.13671875 66.15625 C-31.19702851 70.46768767 -21.10991335 70.87158804 -11.7265625 67.62890625 C-8.63616041 66.38385217 -5.88980647 65.04170903 -3.1640625 63.12890625 C-0.6015625 61.37890625 -0.6015625 61.37890625 3.3984375 61.37890625 C4.0584375 62.69890625 4.7184375 64.01890625 5.3984375 65.37890625 C-4.29125155 74.0996264 -14.31353416 76.89258147 -27.26953125 76.62109375 C-38.27625146 75.82107423 -47.86741234 72.21963913 -55.703125 64.23828125 C-65.30226925 52.55591847 -66.75634586 40.01046303 -65.6015625 25.37890625 C-63.6153461 14.56240247 -57.83124443 5.96442865 -48.84765625 -0.33984375 C-33.3710358 -9.16824637 -15.18454415 -9.0927211 0 0 Z " fill="#D4D4D4" transform="translate(1433.6015625,378.62109375)"/>
<path d="M0 0 C0.69222656 0.68255859 0.69222656 0.68255859 1.3984375 1.37890625 C1.3984375 2.69890625 1.3984375 4.01890625 1.3984375 5.37890625 C-0.36328125 6.51953125 -0.36328125 6.51953125 -2.6015625 7.37890625 C-4.49609375 6.55078125 -4.49609375 6.55078125 -6.4140625 5.12890625 C-14.34412654 -0.21115522 -22.98011164 -0.76971278 -32.28125 0.84375 C-40.64139084 3.04447243 -47.35079233 6.86392107 -52.0390625 14.25390625 C-57.77270907 24.95883088 -58.22742993 36.59141933 -54.9765625 48.25390625 C-51.95061403 56.84133933 -48.70644936 61.56736082 -40.5390625 65.81640625 C-31.91645159 69.88911951 -22.17242782 71.02002594 -12.9140625 68.25390625 C-8.01117097 66.3951177 -3.81472527 63.45660671 0.3984375 60.37890625 C2.3784375 61.36890625 2.3784375 61.36890625 4.3984375 62.37890625 C4.3984375 63.69890625 4.3984375 65.01890625 4.3984375 66.37890625 C-3.23545002 74.01279377 -13.47037144 76.40476556 -23.9140625 76.69140625 C-35.56747738 76.46051108 -45.79518052 73.4408402 -54.6015625 65.59765625 C-64.32770734 55.36843495 -66.10451555 43.45703433 -65.875 29.97265625 C-65.45738841 19.90036075 -61.75732181 11.48014549 -54.6015625 4.37890625 C-38.77414317 -8.86655234 -17.73162189 -10.61794749 0 0 Z " fill="#D3D3D3" transform="translate(652.6015625,378.62109375)"/>
<path d="M0 0 C6.3421875 -0.0928125 6.3421875 -0.0928125 12.8125 -0.1875 C14.1219458 -0.21481201 15.4313916 -0.24212402 16.78051758 -0.27026367 C25.44187362 -0.33097869 33.32327159 0.51847064 41.0625 4.625 C43.91780964 8.12505698 44.81794045 11.50919768 45 16 C43.86590756 20.32372744 42.72250078 22.36351122 39.375 25.3125 C30.88493736 29.55753132 22.2164332 29.25225523 12.9375 29.125 C8.668125 29.08375 4.39875 29.0425 0 29 C0 19.43 0 9.86 0 0 Z " fill="#FEFEFE" transform="translate(818,379)"/>
<path d="M0 0 C23.43 0 46.86 0 71 0 C71 1.98 71 3.96 71 6 C60.44 6 49.88 6 39 6 C39 30.42 39 54.84 39 80 C36.36 80 33.72 80 31 80 C31 55.58 31 31.16 31 6 C20.77 6 10.54 6 0 6 C0 4.02 0 2.04 0 0 Z " fill="#D4D4D3" transform="translate(1791,373)"/>
<path d="M0 0 C2.97457812 -0.33887599 5.113678 -0.57291998 8 0 C10.12044882 2.32859104 11.31105488 4.03529239 12.75 6.75 C13.15557129 7.45358643 13.56114258 8.15717285 13.97900391 8.88208008 C14.8629277 10.41635971 15.73500344 11.95751079 16.59667969 13.50439453 C18.59275698 17.05413393 20.68558433 20.54315017 22.78222656 24.03417969 C23.82511961 25.77148221 24.86120728 27.51289251 25.88964844 29.25878906 C28.35505064 33.41884315 30.8359714 37.31863024 34 41 C34.36649658 40.39752441 34.73299316 39.79504883 35.1105957 39.17431641 C35.88536255 37.90080322 35.88536255 37.90080322 36.67578125 36.6015625 C37.25118652 35.65482666 37.8265918 34.70809082 38.41943359 33.73266602 C39.68805954 31.65008416 40.96056433 29.5698605 42.23681641 27.49194336 C45.27984733 22.52822337 48.27650766 17.5585069 51.09765625 12.46484375 C51.56969482 11.6332373 52.0417334 10.80163086 52.52807617 9.94482422 C53.40807182 8.38836283 54.26493254 6.81853024 55.0949707 5.23486328 C56.27141308 3.18683262 57.24211973 1.57928151 59 0 C61.92918793 -0.64403969 63.96712662 -0.38957291 67 0 C65.73308528 3.36882461 64.28885203 6.36345998 62.3828125 9.4140625 C61.60417847 10.66630615 61.60417847 10.66630615 60.80981445 11.94384766 C60.25382568 12.82862793 59.69783691 13.7134082 59.125 14.625 C58.55289795 15.54200684 57.9807959 16.45901367 57.39135742 17.40380859 C55.59928478 20.27240435 53.80070472 23.13681611 52 26 C51.42169434 26.92039062 50.84338867 27.84078125 50.24755859 28.7890625 C40.95740887 43.56388669 40.95740887 43.56388669 38 48 C37.76006345 50.53586848 37.62746781 52.97216031 37.5859375 55.51171875 C37.56657135 56.23994339 37.5472052 56.96816803 37.5272522 57.71846008 C37.46753624 60.04135475 37.42110383 62.36429919 37.375 64.6875 C37.33681279 66.26369332 37.29776062 67.83986595 37.2578125 69.41601562 C37.16184152 73.27717535 37.07778151 77.13843276 37 81 C34.69 81 32.38 81 30 81 C30.03254883 80.09983154 30.06509766 79.19966309 30.09863281 78.2722168 C30.59911422 59.96137941 30.70953085 45.99184656 18.70800781 31.19775391 C15.66593958 27.2834174 13.15534624 23.03154865 10.5625 18.8125 C9.60754576 17.29686644 8.65060653 15.78248119 7.69140625 14.26953125 C7.02455811 13.20919678 7.02455811 13.20919678 6.34423828 12.12744141 C5.41788952 10.66136747 4.48346953 9.20037277 3.54248047 7.74365234 C3.08373535 7.02773926 2.62499023 6.31182617 2.15234375 5.57421875 C1.73847412 4.93444092 1.32460449 4.29466309 0.89819336 3.63549805 C0 2 0 2 0 0 Z " fill="#D4D4D4" transform="translate(696,373)"/>
<path d="M0 0 C2.97 0 5.94 0 9 0 C9.32871094 0.62003906 9.65742187 1.24007813 9.99609375 1.87890625 C14.03307504 9.39491206 18.36779521 16.70056187 22.78710938 23.99462891 C24.88885268 27.4696127 26.97471893 30.95411662 29.0625 34.4375 C29.82415007 35.70707245 30.58586226 36.97660764 31.34765625 38.24609375 C31.89292969 39.15488281 32.43820312 40.06367188 33 41 C35.66511836 37.77007878 38.01233759 34.5236573 40.171875 30.9375 C40.7498584 29.98109619 41.3278418 29.02469238 41.92333984 28.03930664 C42.5261377 27.03633545 43.12893555 26.03336426 43.75 25 C44.37471191 23.97575928 44.99942383 22.95151855 45.64306641 21.89624023 C48.316948 17.50561695 50.9704272 13.12127788 53.4140625 8.59765625 C57.92943541 0.3667332 57.92943541 0.3667332 61.2578125 -0.7734375 C63.5 -0.8125 63.5 -0.8125 67 0 C65.73308528 3.36882461 64.28885203 6.36345998 62.3828125 9.4140625 C61.60417847 10.66630615 61.60417847 10.66630615 60.80981445 11.94384766 C60.25382568 12.82862793 59.69783691 13.7134082 59.125 14.625 C58.55289795 15.54200684 57.9807959 16.45901367 57.39135742 17.40380859 C55.59928478 20.27240435 53.80070472 23.13681611 52 26 C51.42169434 26.92039062 50.84338867 27.84078125 50.24755859 28.7890625 C40.95740887 43.56388669 40.95740887 43.56388669 38 48 C37.76034953 50.46384903 37.62758 52.82540576 37.5859375 55.29296875 C37.56657135 55.99899734 37.5472052 56.70502594 37.5272522 57.43244934 C37.46754776 59.68401061 37.4211086 61.93562328 37.375 64.1875 C37.33681171 65.71551689 37.29775948 67.24351245 37.2578125 68.77148438 C37.16185404 72.51414935 37.07778989 76.2569151 37 80 C34.69 80 32.38 80 30 80 C30.03254883 79.13012451 30.06509766 78.26024902 30.09863281 77.36401367 C30.60250303 59.54137059 30.37518978 45.94309138 18.86328125 31.46386719 C15.17761631 26.59021276 12.07944546 21.32164975 8.875 16.125 C7.89829346 14.58005859 7.89829346 14.58005859 6.90185547 13.00390625 C6.29229004 12.03582031 5.68272461 11.06773437 5.0546875 10.0703125 C4.51312012 9.21195801 3.97155273 8.35360352 3.41357422 7.46923828 C2.02106004 5.03678778 0.97286881 2.62504313 0 0 Z " fill="#D4D4D4" transform="translate(1897,373)"/>
<path d="M0 0 C2.951317 -0.31964842 5.13052362 -0.54265364 8 0 C10.07121566 2.22365713 11.17917237 3.81685913 12.5625 6.4375 C13.394156 7.88433035 14.22621661 9.33092816 15.05859375 10.77734375 C15.74091064 11.9991333 15.74091064 11.9991333 16.43701172 13.24560547 C19.22073442 18.15125364 22.17057931 22.95856613 25.08956909 27.78445435 C27.74249963 32.17994169 30.36865278 36.5915706 33 41 C35.76509278 37.5875074 38.21936392 34.19354759 40.5 30.4375 C41.18449219 29.31472656 41.86898437 28.19195312 42.57421875 27.03515625 C44.42474573 23.96823192 46.25481865 20.88945697 48.08203125 17.80859375 C48.61570312 16.91148682 49.149375 16.01437988 49.69921875 15.09008789 C50.7620345 13.30141145 51.82073649 11.51028326 52.875 9.71655273 C53.36613281 8.88969971 53.85726562 8.06284668 54.36328125 7.2109375 C54.79938721 6.47149902 55.23549316 5.73206055 55.68481445 4.97021484 C56.99774972 3.00337103 58.1496875 1.47551819 60 0 C63.6875 -0.1875 63.6875 -0.1875 67 0 C65.59449226 3.812045 63.82505114 7.12395764 61.69140625 10.578125 C61.03148682 11.64691895 60.37156738 12.71571289 59.69165039 13.81689453 C59.16983688 14.65634613 59.16983688 14.65634613 58.63748169 15.51275635 C57.54664692 17.27561966 56.47032494 19.0467138 55.39624023 20.81982422 C52.32895477 25.85369524 49.29509997 30.81106486 45.53125 35.3671875 C35.02393964 48.41126279 36.50407483 64.01482486 37 80 C34.69 80 32.38 80 30 80 C30.03254883 79.13012451 30.06509766 78.26024902 30.09863281 77.36401367 C30.60929996 59.30095301 30.4798709 45.85756075 18.72119141 31.23583984 C15.61640552 27.20270096 13.03772579 22.83178728 10.375 18.5 C9.38531468 16.92550775 8.39331965 15.35246367 7.3984375 13.78125 C6.98255371 13.12189453 6.56666992 12.46253906 6.13818359 11.78320312 C5.1122109 10.17580189 4.05777105 8.58665658 3 7 C3 6.01 3 5.02 3 4 C2.34 4 1.68 4 1 4 C0.67 2.68 0.34 1.36 0 0 Z " fill="#D4D4D4" transform="translate(2772,373)"/>
<path d="M0 0 C4.6966744 3.13111627 8.51425647 7.29255282 9.8125 12.875 C9.9016224 18.86848149 8.87311461 23.28009399 4.8125 27.875 C0.16504093 31.33781264 -3.25124132 32.4910081 -9.046875 32.1953125 C-13.53337895 31.52397432 -16.31585135 29.77086111 -19.4375 26.5625 C-22.83599728 21.34337917 -23.61820816 17.13234492 -22.71875 11.05078125 C-21.54659036 6.250098 -18.99052453 3.15574895 -14.9375 0.5 C-9.87169554 -2.09256374 -5.37765124 -1.89799456 0 0 Z " fill="#D1D1D1" transform="translate(221.1875,155.125)"/>
<path d="M0 0 C2.0335968 3.0503952 3.31265167 5.93623783 4.71484375 9.3203125 C4.97125137 9.9384079 5.227659 10.5565033 5.49183655 11.19332886 C6.03382495 12.50225284 6.5741877 13.81185097 7.11303711 15.12207031 C7.92679018 17.09898184 8.74716504 19.07304488 9.56835938 21.046875 C10.09675885 22.32535365 10.6247656 23.6039947 11.15234375 24.8828125 C11.62663818 26.03152832 12.10093262 27.18024414 12.58959961 28.36376953 C14.20290212 32.52311306 15.5892242 36.7676726 17 41 C6.11 41 -4.78 41 -16 41 C-14.22010197 35.6603059 -12.49578568 30.56082747 -10.37109375 25.390625 C-9.89349609 24.22402344 -9.41589844 23.05742187 -8.92382812 21.85546875 C-8.43333984 20.66566406 -7.94285156 19.47585938 -7.4375 18.25 C-6.45697045 15.85939993 -5.47649941 13.46877587 -4.49609375 11.078125 C-4.06482178 10.03043945 -3.6335498 8.98275391 -3.18920898 7.90332031 C-2.11231321 5.2742001 -1.05080909 2.6396373 0 0 Z " fill="#FEFEFE" transform="translate(2327,380)"/>
<path d="M0 0 C2.0335968 3.0503952 3.31265167 5.93623783 4.71484375 9.3203125 C4.97125137 9.9384079 5.227659 10.5565033 5.49183655 11.19332886 C6.03382495 12.50225284 6.5741877 13.81185097 7.11303711 15.12207031 C7.92679018 17.09898184 8.74716504 19.07304488 9.56835938 21.046875 C10.09675885 22.32535365 10.6247656 23.6039947 11.15234375 24.8828125 C11.62663818 26.03152832 12.10093262 27.18024414 12.58959961 28.36376953 C14.20290212 32.52311306 15.5892242 36.7676726 17 41 C6.11 41 -4.78 41 -16 41 C-14.22010197 35.6603059 -12.49578568 30.56082747 -10.37109375 25.390625 C-9.89349609 24.22402344 -9.41589844 23.05742187 -8.92382812 21.85546875 C-8.43333984 20.66566406 -7.94285156 19.47585938 -7.4375 18.25 C-6.45697045 15.85939993 -5.47649941 13.46877587 -4.49609375 11.078125 C-4.06482178 10.03043945 -3.6335498 8.98275391 -3.18920898 7.90332031 C-2.11231321 5.2742001 -1.05080909 2.6396373 0 0 Z " fill="#FEFEFE" transform="translate(2099,380)"/>
<path d="M0 0 C2.64 0 5.28 0 8 0 C8 26.4 8 52.8 8 80 C5.36 80 2.72 80 0 80 C0 53.6 0 27.2 0 0 Z " fill="#D3D3D3" transform="translate(1732,373)"/>
<path d="M0 0 C5.57894737 3.15789474 5.57894737 3.15789474 7 6 C7.55512815 10.63213493 7.6364242 13.98172127 5.125 18 C2.36801767 20.5948069 1.51540257 20.96110169 -2.3125 21.25 C-6.24058469 20.98368917 -7.95647943 20.43481646 -11 18 C-13.3251769 14.25254995 -13.266732 11.46414223 -12.66796875 7.1953125 C-10.90271341 1.39371307 -5.85148166 -1.09715281 0 0 Z " fill="#CFCFCF" transform="translate(22,222)"/>
<path d="M0 0 C2.8100346 1.79363911 4.50940468 3.01880935 6 6 C6.44851142 10.4851142 6.68822212 13.71029797 4.0625 17.5 C0.46212166 20.43908436 -1.32574711 20.76995019 -5.84375 20.46875 C-9.01247216 19.77989736 -10.80517228 18.33200445 -13 16 C-14.60086627 12.79826746 -14.49917089 9.47422941 -14 6 C-10.32759145 0.24655994 -6.71744997 -0.96515086 0 0 Z " fill="#CECECE" transform="translate(186,10)"/>
<path d="M0 0 C3.71020082 2.55076306 4.77422053 4.15708998 5.9375 8.5 C5.99958404 11.97670616 5.57596963 13.94076484 4 17 C3.34 17 2.68 17 2 17 C2 17.66 2 18.32 2 19 C-1.49474739 20.7473737 -5.18678856 20.55225821 -9 20 C-12.0625 18.125 -12.0625 18.125 -14 15 C-15.00187438 9.94922834 -14.79376084 6.28025942 -12.0625 1.875 C-7.94354194 -0.64681106 -4.71053274 -1.04962958 0 0 Z " fill="#D0D0D0" transform="translate(64,324)"/>
<path d="M0 0 C3.16872216 0.68885264 4.96142228 2.13674555 7.15625 4.46875 C8.75711627 7.67048254 8.65542089 10.99452059 8.15625 14.46875 C6.36261089 17.2787846 5.13744065 18.97815468 2.15625 20.46875 C-2.84066647 20.84587577 -5.83442725 20.56165612 -9.84375 17.46875 C-12.32098552 13.75289673 -12.60584087 10.77375267 -11.84375 6.46875 C-9.45224953 0.95436786 -5.67251467 -0.37816764 0 0 Z " fill="#CFCFCF" transform="translate(40.84375,119.53125)"/>
<path d="M0 0 C1.5 2.3125 1.5 2.3125 2 5 C0.9375 7.75 0.9375 7.75 -1 10 C-3.4375 11.0625 -3.4375 11.0625 -6 11 C-8.375 9.5 -8.375 9.5 -10 7 C-10 3.375 -10 3.375 -9 0 C-5.8410981 -2.82044812 -3.45436852 -2.090802 0 0 Z " fill="#FCFCFC" transform="translate(51,272)"/>
<path d="M0 0 C2.9375 0.9375 2.9375 0.9375 4.375 2.6875 C5.0800101 5.50754041 4.87647436 7.19280571 3.9375 9.9375 C0.71606724 12.08512184 -0.3220467 12.498568 -4.0625 11.9375 C-5.9375 10.25 -5.9375 10.25 -7.0625 7.9375 C-6.92427181 5.10382207 -6.38805369 3.45153215 -4.875 1.0625 C-3.0625 -0.0625 -3.0625 -0.0625 0 0 Z " fill="#FCFCFC" transform="translate(131.0625,53.0625)"/>
<path d="M0 0 C2 2 2 2 2.3125 4.9375 C2 8 2 8 0.8125 9.875 C-1.65507108 11.40659584 -3.14519831 11.42822025 -6 11 C-7.8125 9.875 -7.8125 9.875 -9 8 C-9.4375 5 -9.4375 5 -9 2 C-6.12524616 -1.3006433 -4.03854228 -1.38160657 0 0 Z " fill="#FCFCFC" transform="translate(73,82)"/>
<path d="M0 0 C3.0625 0.3125 3.0625 0.3125 4.9375 1.5 C6.51340926 4.03896491 6.63537294 5.37652619 6.0625 8.3125 C3.5625 10.625 3.5625 10.625 1.0625 12.3125 C-3.8125 10.4375 -3.8125 10.4375 -4.9375 9.3125 C-5.125 5.875 -5.125 5.875 -4.9375 2.3125 C-2.9375 0.3125 -2.9375 0.3125 0 0 Z " fill="#FCFCFC" transform="translate(167.9375,346.6875)"/>
<path d="M0 0 C2 3 2 3 1.8125 6.0625 C1 9 1 9 -2 11 C-5.32240324 10.6758631 -6.60776303 10.39223697 -9 8 C-9.375 5.0625 -9.375 5.0625 -9 2 C-6.14911792 -1.27323499 -4.00227856 -1.47452368 0 0 Z " fill="#FCFCFC" transform="translate(26,179)"/>
<path d="M0 0 C3 0.25 3 0.25 5 2.25 C5.3125 5.75 5.3125 5.75 5 9.25 C1.77856724 11.39762184 0.7404533 11.811068 -3 11.25 C-4.875 9.5625 -4.875 9.5625 -6 7.25 C-5.67747519 2.7346526 -4.81889451 0.40157454 0 0 Z " fill="#FCFCFC" transform="translate(79,140.75)"/>
<path d="M0 0 C0.33 1.32 0.66 2.64 1 4 C0.38125 4.2475 -0.2375 4.495 -0.875 4.75 C-3.14890939 5.80802664 -3.14890939 5.80802664 -3.875 8 C-5 10 -5 10 -8.125 11.25 C-9.07375 11.4975 -10.0225 11.745 -11 12 C-7.49102731 7.81576108 -3.91939465 3.80411834 0 0 Z " fill="#C3C3C3" transform="translate(369,320)"/>
<path d="M0 0 C0.99 0.33 1.98 0.66 3 1 C2.278125 1.556875 1.55625 2.11375 0.8125 2.6875 C-2.02604504 4.94512841 -2.02604504 4.94512841 -4.5 7.5 C-6.87675345 9.87675345 -9.34119332 11.94892056 -12 14 C-12.66 13.67 -13.32 13.34 -14 13 C-9.38 8.71 -4.76 4.42 0 0 Z " fill="#C2C2C2" transform="translate(130,236)"/>
<path d="M0 0 C3 3.75 3 3.75 3 6 C3.66 6.33 4.32 6.66 5 7 C4.34 7.66 3.68 8.32 3 9 C0.875 8.625 0.875 8.625 -1 8 C-0.67 5.36 -0.34 2.72 0 0 Z " fill="#C4C4C4" transform="translate(120,170)"/>
<path d="M0 0 C0 0.33 0 0.66 0 1 C-0.59167969 1.08636719 -1.18335938 1.17273438 -1.79296875 1.26171875 C-7.49764334 2.27608993 -10.3243564 3.49437236 -14 8 C-13.69209738 5.15190074 -13.34521809 3.41713852 -11.5 1.1875 C-7.73512805 -0.60081417 -4.09873595 -0.23646554 0 0 Z " fill="#C2C2C2" transform="translate(64,324)"/>
<path d="M0 0 C0 3 0 3 -1.96875 5.26171875 C-2.8040625 6.06222656 -3.639375 6.86273438 -4.5 7.6875 C-5.3353125 8.49574219 -6.170625 9.30398438 -7.03125 10.13671875 C-7.6809375 10.75160156 -8.330625 11.36648438 -9 12 C-9.33 11.01 -9.66 10.02 -10 9 C-6.7 6.03 -3.4 3.06 0 0 Z " fill="#C2C2C2" transform="translate(113,252)"/>
<path d="M0 0 C0.66 0.33 1.32 0.66 2 1 C2 1.99 2 2.98 2 4 C1.34 4 0.68 4 0 4 C0 4.66 0 5.32 0 6 C1.32 6.33 2.64 6.66 4 7 C2.02 7 0.04 7 -2 7 C-2.6875 5.1875 -2.6875 5.1875 -3 3 C-1.5625 1.25 -1.5625 1.25 0 0 Z " fill="#C8C8C8" transform="translate(243,196)"/>
<path d="M0 0 C1.32 0.33 2.64 0.66 4 1 C-1.75 6 -1.75 6 -4 6 C-4.33 6.99 -4.66 7.98 -5 9 C-5.33 8.34 -5.66 7.68 -6 7 C-4.02 4.69 -2.04 2.38 0 0 Z " fill="#C7C7C7" transform="translate(56,68)"/>
<path d="M0 0 C0.66 0.33 1.32 0.66 2 1 C1.0925 1.721875 0.185 2.44375 -0.75 3.1875 C-3.5701994 5.52652794 -5.80906658 8.05066655 -8 11 C-7.49268371 6.60325886 -4.88085945 4.16191891 -2 1 C-1.34 0.67 -0.68 0.34 0 0 Z " fill="#C3C3C3" transform="translate(67,127)"/>
<path d="M0 0 C1.98 0 3.96 0 6 0 C3.33333333 2.66666667 0.66666667 5.33333333 -2 8 C-1.125 2.25 -1.125 2.25 0 0 Z " fill="#C0C0C0" transform="translate(266,164)"/>
<path d="M0 0 C0.66 0.33 1.32 0.66 2 1 C-2.82142857 7.29464286 -2.82142857 7.29464286 -7 8 C-6.02133662 6.85373678 -5.04205413 5.70800212 -4.0625 4.5625 C-3.51722656 3.92441406 -2.97195312 3.28632812 -2.41015625 2.62890625 C-1.63204305 1.73008851 -0.84063472 0.84063472 0 0 Z " fill="#C8C8C8" transform="translate(100,117)"/>
<path d="M0 0 C0.66 0.33 1.32 0.66 2 1 C0.35 2.98 -1.3 4.96 -3 7 C-3.66 6.67 -4.32 6.34 -5 6 C-5 4.35 -5 2.7 -5 1 C-4.01 1.33 -3.02 1.66 -2 2 C-1.34 1.34 -0.68 0.68 0 0 Z " fill="#C6C6C6" transform="translate(71,266)"/>
<path d="M0 0 C0.66 0.99 1.32 1.98 2 3 C1.690625 3.53625 1.38125 4.0725 1.0625 4.625 C-0.17827439 7.3984957 -0.5909675 10.00042837 -1 13 C-1.33 13 -1.66 13 -2 13 C-2.19294408 8.17639811 -1.75747614 4.50353262 0 0 Z " fill="#B9B9B9" transform="translate(49,77)"/>
</svg>
